<svg width="50" height="50" viewBox="0 0 193 235" fill="none" xmlns="http://www.w3.org/2000/svg">
<path d="M171.841 93.209C154.74 83.2726 137.907 85.5717 125.142 91.2587C124.579 87.0619 123.484 82.4551 121.655 77.0646C118.949 69.0469 115.981 61.3845 113.367 54.6215C109.928 45.7401 107.312 38.1302 105.877 33.04L96.5737 1.1499L86.9145 33.0588C85.4395 38.1306 82.8927 45.7804 79.4709 54.6678C76.8709 61.4364 73.9272 69.1082 71.2366 77.1237C69.4273 82.5236 68.3367 87.136 67.7835 91.339C55.0056 85.6766 38.1653 83.4111 21.0874 93.3859C7.12612 101.548 -0.349387 115.736 1.57371 130.413C3.32855 143.766 12.4601 154.257 25.3977 157.813L35.0335 160.459L37.3915 150.752C37.7298 149.434 41.2058 137.28 52.1512 137.501C59.7442 137.658 66.0472 144.369 69.1994 148.709C68.1801 151.777 67.6379 155.455 68.1569 159.416L63.8726 153.701L56.1196 159.482C49.1354 164.679 38.9981 177.532 45.2636 192.7C47.9957 199.314 53.8697 203.82 61.8011 205.4C66.6517 206.365 72.1622 206.14 77.269 205.018C79.2781 211.468 82.9414 219.271 89.6035 226.24L96.6312 233.583L103.636 226.223C110.285 219.237 113.925 211.421 115.928 204.969C121.037 206.073 126.543 206.287 131.394 205.31C139.321 203.717 145.183 199.194 147.902 192.574C154.133 177.39 143.957 164.562 136.969 159.378L129.202 153.622L124.929 159.344C125.442 155.383 124.887 151.709 123.861 148.635C127.006 144.293 133.291 137.565 140.882 137.393C151.83 137.147 155.329 149.292 155.695 150.679L158.072 160.382C158.057 160.309 167.684 157.642 167.684 157.642C180.62 154.061 189.72 143.542 191.443 130.18C193.332 115.507 185.821 101.336 171.841 93.209Z" fill="black"/>
<path d="M93.3643 34.4258C92.1853 39.9782 89.1462 47.8803 85.6263 57.037C83.0476 63.7413 80.1286 71.3387 77.4867 79.2195C74.9522 86.7915 73.918 92.4343 73.918 97.697C73.918 99.3804 74.1114 101.026 74.3089 102.68C64.5638 95.9886 45.3613 86.8403 24.4191 99.0801C12.7868 105.883 6.53851 117.555 8.11067 129.553C9.51033 140.225 16.803 148.623 27.145 151.465L30.2134 152.305L30.9763 149.208C31.1675 148.449 35.7743 130.585 52.2825 130.917C65.5688 131.184 74.2528 144.101 76.5983 148.071C75.4824 150.135 74.5556 152.98 74.5556 156.246C74.5556 159.747 75.7472 163.73 78.7883 167.723C77.5757 169.366 75.5896 171.382 73.2715 171.573C69.9656 171.844 66.6198 168.364 64.3964 165.392L62.5406 162.917L60.0587 164.768C54.9812 168.553 46.6211 178.733 51.3516 190.185C53.2452 194.762 57.3012 197.786 63.0827 198.936C69.0598 200.121 76.6043 199.043 81.9636 196.601C83.0018 202.648 85.942 212.88 94.3675 221.684L96.6162 224.036L98.8586 221.68C107.263 212.851 110.18 202.61 111.203 196.559C116.571 198.989 124.126 200.052 130.103 198.846C135.874 197.684 139.922 194.647 141.801 190.069C146.498 178.609 138.125 168.446 133.039 164.674L130.555 162.83L128.703 165.315C126.484 168.286 123.145 171.779 119.837 171.512C117.521 171.323 115.53 169.316 114.314 167.679C117.334 163.692 118.517 159.724 118.517 156.231C118.517 152.946 117.581 150.09 116.455 148.02C118.792 144.048 127.451 131.102 140.731 130.806C157.237 130.436 161.89 148.291 162.079 149.052L162.85 152.137L165.919 151.297C176.25 148.432 183.524 140.021 184.898 129.345C186.445 117.343 180.172 105.681 168.524 98.9074C147.54 86.7054 128.347 95.9189 118.625 102.636C118.806 101.026 118.993 99.4286 118.993 97.7874C118.993 92.4681 117.965 86.7329 115.41 79.1692C112.751 71.3028 109.815 63.7183 107.224 57.0246C103.681 47.8741 100.625 39.9721 99.4331 34.4197L96.3815 20.1833L93.3657 34.4259" fill="white"/>
<path d="M96.6302 219.538C108.515 207.054 108.658 191.309 108.658 191.309C113.916 196.55 134.35 200.056 138.932 188.892C143.957 176.635 131.194 167.165 131.194 167.165C118.824 183.747 110.524 167.518 110.524 167.518C119.944 157.338 112.876 148.161 112.876 148.161C113.492 146.318 123.939 128.08 140.666 127.706C159.944 127.271 165.095 148.308 165.095 148.308C185.31 142.705 189.215 114.521 166.969 101.59C138.741 85.1763 114.145 110.181 114.145 110.181C116.434 100.823 117.086 93.8287 112.47 80.1617C106.214 61.6317 98.545 45.0748 96.4013 35.0687C94.2765 45.0767 86.6414 61.6605 80.4312 80.2024C75.8519 93.8818 76.5244 100.876 78.8256 110.226C78.8256 110.226 54.1738 85.282 25.9858 101.759C3.76745 114.745 7.73957 142.911 27.9676 148.47C27.9676 148.47 33.0682 127.423 52.3485 127.816C69.0795 128.148 79.5643 146.36 80.1843 148.199C80.1843 148.199 73.1375 157.398 82.5822 167.553C82.5822 167.553 74.3167 183.809 61.915 167.254C61.915 167.254 49.1646 176.752 54.223 188.996C58.8338 200.149 79.2554 196.595 84.5009 191.341C84.5009 191.341 84.6817 207.086 96.5895 219.541" fill="black"/>
<path d="M96.4363 48.1906L96.3943 48.4533V48.197C96.3943 48.197 94.5972 57.4458 85.7642 80.424C76.9291 103.401 86.7983 122.586 87.6221 126.846C87.6221 126.846 68.7244 100.806 45.7528 100.834C22.7842 100.859 3.6585 127.001 24.8859 142.438C24.8859 142.438 31.0983 123.149 52.5079 123.11C68.2532 123.076 84.0274 139.967 84.6949 148.337C84.6949 148.337 77.4868 158.515 87.5094 167.033C87.5094 167.033 76.6818 189.81 61.6698 173.403C61.6698 173.403 50.1257 187.845 65.2215 191.342C77.1985 194.112 88.9951 181.963 88.9951 181.963C88.9951 181.963 87.7085 201.154 96.5795 211.645V211.55L96.6239 211.64C105.472 201.132 104.139 181.938 104.139 181.938C104.139 181.938 115.965 194.063 127.942 191.261C143.028 187.731 131.447 173.313 131.447 173.313C116.478 189.754 105.603 167.006 105.603 167.006C115.598 158.463 108.364 148.304 108.364 148.304C109.012 139.939 124.742 123.007 140.494 123.002C161.907 123.002 168.163 142.269 168.163 142.269C189.354 126.783 170.167 100.675 147.198 100.705C124.225 100.728 105.389 126.817 105.389 126.817C106.206 122.549 116.027 103.342 107.14 80.3853C98.2521 57.4314 96.4381 48.1833 96.4381 48.1833L96.4363 48.1906Z" fill="#D3BC8D"/>
</svg>
