<svg width="50" height="50" viewBox="0 0 242 192" fill="none" xmlns="http://www.w3.org/2000/svg">
<path d="M208.102 47.6871C206.277 48.1278 201.786 48.2657 199.869 48.2664C197.953 48.2664 195.245 47.9816 191.085 49.7988C188.102 51.1012 186.094 53.7113 185.196 55.0857C185.481 54.6852 185.749 54.3647 185.973 54.1953C185.973 54.1953 189.004 50.6981 195.199 51.1533C194.993 51.4686 194.818 51.9117 195.016 52.3465C195.019 52.3528 195.023 52.3593 195.026 52.3656C195.054 52.4238 195.087 52.4816 195.129 52.5388L195.129 52.5391C195.139 52.5537 195.147 52.5682 195.159 52.5828C195.159 52.5828 197.378 51.869 198.95 51.3954C202.356 50.5487 204.468 49.9739 206.766 49.0322C209.907 47.745 210.91 47.1747 210.806 46.9315C210.703 46.688 209.927 47.2468 208.102 47.6872" fill="#005778"/>
<path d="M208.102 47.6871C206.277 48.1278 201.786 48.2657 199.869 48.2664C197.953 48.2664 195.245 47.9816 191.085 49.7988C188.102 51.1012 186.094 53.7113 185.196 55.0857C185.481 54.6852 185.749 54.3647 185.973 54.1953C185.973 54.1953 189.004 50.6981 195.199 51.1533C194.993 51.4686 194.818 51.9117 195.016 52.3465C195.019 52.3528 195.023 52.3593 195.026 52.3656C195.054 52.4238 195.087 52.4816 195.129 52.5388L195.129 52.5391C195.139 52.5537 195.147 52.5682 195.159 52.5828C195.159 52.5828 197.378 51.869 198.95 51.3954C202.356 50.5487 204.468 49.9739 206.766 49.0322C209.907 47.745 210.91 47.1747 210.806 46.9315C210.703 46.688 209.927 47.2468 208.102 47.6872" stroke="#005778" stroke-width="0.312494"/>
<path d="M185.974 54.1934C185.75 54.3629 185.482 54.6833 185.197 55.0839C184.081 56.6572 182.707 59.4895 182.707 59.4895C184.772 56.4298 191.281 53.8476 195.13 52.5373C195.088 52.4798 195.054 52.422 195.027 52.3637C195.024 52.3575 195.02 52.3509 195.017 52.3447C194.819 51.9099 194.994 51.4668 195.2 51.1515C189.005 50.6962 185.974 54.1934 185.974 54.1934Z" fill="white"/>
<path d="M192.186 126.423C190.87 129.095 194.293 137.351 197.422 139.807C195.132 139.121 183.168 135.719 181.249 140.143C179.139 145.011 190.832 162.868 192.159 166.204C186.768 160.855 172.002 148.864 169.91 150.236C167.817 151.608 168.333 158.291 168.877 161.69C166.85 159.219 163.369 155.26 160.361 156.444C157.354 157.629 157.725 169.104 157.53 173.992C155.05 168.241 151 156.662 147.251 157.085C143.502 157.508 139.296 165.386 138.496 168.397C137.924 165.383 135.471 158.755 131.76 158.755C128.05 158.755 119.423 176.296 116.814 181.996C116.804 177.585 117.86 156.066 115.522 154.999C113.183 153.932 105.291 158.838 103.597 161.069C104.224 158.242 104.758 148.687 102.654 147.533C100.548 146.376 94.547 146.012 83.6963 156.045C85.4975 152.196 88.4637 148.007 89.1843 143.947C93.6777 143.715 98.126 143.206 102.613 142.329C112.404 149.414 124.44 153.596 137.45 153.596C170.308 153.596 196.945 126.96 196.945 94.1002C196.945 91.526 196.779 88.99 196.464 86.5057C198.668 84.4304 200.781 82.4207 202.749 80.5464C202.298 81.6239 202.049 82.9231 202.09 84.5238C202.219 89.5406 215.214 90.6112 222.119 91.169C214.407 92.2153 200.93 97.7967 203.491 100.794C206.051 103.787 213.517 107.903 214.577 108.423C211.019 108.423 199.322 109.632 198.016 112.948C196.706 116.263 214.941 127.378 221.617 129.99C213.312 127.652 193.505 123.75 192.188 126.421" fill="#F58220"/>
<path d="M182.117 40.9186C178.226 41.6808 174.211 42.7999 170.064 44.3451C160.695 38.1955 149.49 34.6131 137.449 34.6131C104.593 34.6131 77.9591 61.2489 77.9591 94.1026C77.9591 102.012 79.5043 109.558 82.3072 116.46C78.9222 118.968 75.6795 120.957 72.3567 122.491C74.7854 119.599 76.8954 114.038 74.1514 112.555C72.2774 111.54 63.5604 111.138 63.5604 111.138C63.5604 111.138 73.3755 104.541 73.147 99.7708C72.918 95.0033 57.2648 92.5609 51.0771 91.189C56.5374 90.0388 74.2208 86.0441 74.9798 82.4861C75.742 78.9315 69.4534 76.4056 66.8103 75.1653C69.7722 75.2034 77.2801 76.461 78.2916 72.7955C79.4488 68.5931 60.9617 57.6483 56.7486 56.1308C57.691 56.3525 75.2986 60.4617 81.7356 59.0688C86.5271 58.0294 80.9422 51.5818 80.0203 50.8196C81.4339 51.509 89.5064 53.1721 91.8173 49.3402C94.1282 45.5083 86.2877 30.2468 81.8981 23.7782C85.7958 27.6656 103.597 40.3285 106.251 38.1736C108.908 36.0186 106.878 29.0581 105.454 26.7613C108.323 29.4463 111.146 33.0355 114.791 32.9593C116.617 32.9212 118.914 26.886 119.291 13.2456C121.762 20.8886 127.659 31.2752 131.989 30.6449C136.324 30.0178 137.803 23.5841 138.402 20.8436C138.902 23.785 141.178 31.3446 144.067 31.6221C147.615 32.1764 154.402 16.3883 156.872 9.25472C157.247 12.7781 154.662 30.874 158.486 32.3774C162.308 33.8845 168.628 26.266 172.213 21.9976C170.038 26.1275 165.786 36.1158 168.319 38.5064C170.851 40.8969 179.607 38.392 183.019 35.5787C182.063 37.6714 181.859 39.3449 182.119 40.9177" fill="#F58220"/>
<path d="M206.767 49.0309C204.467 49.9733 202.356 50.5484 198.947 51.3938C197.378 51.8685 195.157 52.5822 195.157 52.5822C195.147 52.5683 195.14 52.551 195.129 52.5371C191.284 53.8467 184.781 56.428 182.709 59.4835C182.792 59.3138 184.112 56.6079 185.196 55.0836C186.094 53.7082 188.1 51.0993 191.083 49.7965C195.244 47.9811 197.953 48.2652 199.869 48.2652C201.785 48.2652 206.275 48.1266 208.101 47.6866C209.927 47.2466 210.703 46.6853 210.807 46.9313C210.911 47.1738 209.906 47.742 206.767 49.0308L206.767 49.0309ZM228.812 40.643C224.277 41.0934 215.186 44.3673 215.186 44.3673C198.583 40.0573 178.884 39.5724 154.715 54.2796C150.204 57.027 146.081 59.8679 142.267 62.7644C138.455 65.6608 134.953 68.6093 131.686 71.568C130.272 72.843 128.46 74.4783 126.908 76.0476C119.064 78.6634 115.582 76.2174 104.804 77.6344C96.2737 78.7569 92.9616 81.6672 91.0838 83.954C90.8413 84.6123 90.8655 85.1908 91.309 85.5442C92.3276 86.3619 93.9005 85.953 96.887 85.7313C99.87 85.513 104.392 85.5858 107.374 87.4498C109.297 88.6451 110.17 91.5347 110.489 93.1318C108.254 95.5016 106.061 97.7986 103.847 99.9848C90.2313 113.455 81.0674 121.486 70.8135 125.498C48.5633 134.208 36.0298 123.977 31.008 120.959L31.0042 120.966C24.9137 117.058 16.8339 115.766 12.5002 114.952C8.16559 114.138 5.79594 112.042 4.87096 111.255C3.94592 110.469 3.23534 109.145 2.18207 109.443C1.9122 109.519 1.67624 109.602 1.50684 109.762C1.67624 109.606 1.9122 109.523 2.18207 109.446C2.34492 111.328 8.65758 127.022 28.7072 129.874C34.4377 130.688 36.2605 130.432 37.3305 130.352C33.9593 127.39 31.1812 123.257 30.9453 123.014C31.711 123.679 32.4767 124.313 33.2423 124.92C39.2257 131.308 46.0271 133.945 51.7398 134.897C52.1139 135.015 57.7509 135.258 57.7509 135.258C64.3267 135.119 73.1547 133.186 81.3483 130.809C105.403 123.828 128.61 102.982 128.61 102.982C128.61 102.982 127.321 108.601 126.819 110.59C126.49 112.163 125.308 117.429 123.087 122.941C123.087 122.945 122.422 124.604 121.456 126.638C120.028 129.645 118.022 133.432 118.022 135.015C118.022 135.092 118.026 135.161 118.036 135.223C118.036 135.223 118.053 135.396 118.123 135.618C119.931 134.658 122.391 132.995 125.187 130.636C129.566 126.984 135.117 121.427 141.54 113.504C155.973 95.6989 158.267 83.5104 168.415 74.0293C172.711 70.0103 184.006 63.8017 189.788 61.7855C189.854 61.7509 189.899 61.7301 189.917 61.7232C189.92 61.7232 189.92 61.7197 189.923 61.7232L189.927 61.7197C199.697 56.1417 209.263 51.8283 210.815 51.2011C216.531 48.9006 236.636 42.2244 238.754 45.5434H238.757C237.87 41.7185 233.286 40.1976 228.813 40.6445" fill="#008E97"/>
<path d="M126.818 110.592C126.489 112.165 125.308 117.432 123.087 122.944C115.226 127.115 102.659 132.461 91.2935 135.125C68.9087 140.374 54.5724 135.822 52.1162 135.018L51.7666 134.907C52.3137 135.025 57.7531 135.26 57.7531 135.26C58.9279 135.285 74.2099 135.884 90.9899 129.589C104.706 124.579 118.194 116.399 126.821 110.592" fill="white"/>
<path d="M128.61 102.983C128.61 102.983 127.321 108.603 126.818 110.591C118.192 116.398 104.704 124.578 90.9878 129.588C74.2085 135.883 58.926 135.284 57.751 135.259C64.3268 135.121 73.1551 133.187 81.3483 130.811C105.403 123.83 128.61 102.983 128.61 102.983" fill="#005778"/>
<path d="M128.61 102.983C128.61 102.983 127.321 108.603 126.818 110.591C118.192 116.398 104.704 124.578 90.9878 129.588C74.2085 135.883 58.926 135.284 57.751 135.259C64.3268 135.121 73.1551 133.187 81.3483 130.811C105.403 123.83 128.61 102.983 128.61 102.983" stroke="#005778" stroke-width="0.312494"/>
<path d="M185.674 93.1545C183.966 98.4207 181.343 105.62 178.132 111.711C174.313 118.949 169.283 123.949 166.632 125.868C166.192 125.601 166.026 125.04 166.012 124.461C165.991 123.429 168.257 118.107 169.147 106.906C172.009 104.754 174.581 102.707 176.853 100.818C179.742 98.4136 182.719 95.8117 185.674 93.1545Z" fill="#008E97"/>
<path d="M53.413 118.245C53.4099 118.955 53.3125 119.679 53.1254 120.417C52.7828 121.679 52.1172 123.203 51.0435 124.776C50.3918 125.736 49.3181 126.948 49.3042 126.962C49.1272 126.972 48.2995 127.007 47.6027 126.938C46.9029 126.869 46.158 126.744 45.8496 126.685V126.681C45.659 126.422 54.8824 120.171 52.384 117.129C52.5229 117.108 53.3714 116.918 53.413 118.245Z" fill="#005778" stroke="#005778" stroke-width="0.312494"/>
<path d="M237.57 49.5404C237.566 49.5404 237.566 49.5439 237.566 49.5439C237.566 49.5439 237.195 50.0912 235.955 51.1757C234.718 52.2601 232.612 53.8746 229.144 56.0087C225.825 58.0494 216.574 64.3064 209.472 70.8719C209.208 71.1144 190.219 89.0369 189.744 89.4769C189.692 89.6431 187.229 98.8173 181.346 110.75C177.223 119.11 171.07 124.334 168.887 125.53C168.749 125.602 167.481 126.406 166.631 125.866C169.282 123.946 174.313 118.947 178.131 111.709C181.342 105.619 183.965 98.419 185.673 93.1529C182.718 95.8102 179.742 98.4121 176.852 100.816C174.58 102.705 172.009 104.752 169.147 106.904C169.147 106.914 162.994 111.429 159.515 113.743C159.515 113.743 159.512 113.743 159.512 113.747C157.565 115.039 148.643 120.6 143.232 123.551C138.638 126.06 129.016 130.619 128.989 130.633H128.985C123.975 134.863 120.05 136.838 119 136.575C118.356 136.416 118.134 135.657 118.12 135.619C119.929 134.659 122.388 132.996 125.185 130.637C129.564 126.985 135.114 121.428 141.538 113.504C155.971 95.6994 158.265 83.5109 168.412 74.0298C172.708 70.0108 184.003 63.8022 189.785 61.786C189.851 61.7514 189.897 61.7306 189.914 61.7237C183.296 65.5001 176.589 69.8551 172.213 74.03C163.735 81.9536 160.835 91.2075 152.437 103.85L152.226 104.179C180.521 82.7193 202.387 57.8675 224.993 49.9271C225.714 49.6741 226.396 49.4385 227.051 49.2168C227.078 49.2064 227.106 49.1995 227.131 49.1891C234.825 46.5872 237.936 46.1818 238.162 47.63C238.262 48.2606 237.756 49.1995 237.569 49.5425" fill="#005778"/>
<path d="M237.57 49.5404C237.566 49.5404 237.566 49.5439 237.566 49.5439C237.566 49.5439 237.195 50.0912 235.955 51.1757C234.718 52.2601 232.612 53.8746 229.144 56.0087C225.825 58.0494 216.574 64.3064 209.472 70.8719C209.208 71.1144 190.219 89.0369 189.744 89.4769C189.692 89.6431 187.229 98.8173 181.346 110.75C177.223 119.11 171.07 124.334 168.887 125.53C168.749 125.602 167.481 126.406 166.631 125.866C169.282 123.946 174.313 118.947 178.131 111.709C181.342 105.619 183.965 98.419 185.673 93.1529C182.718 95.8102 179.742 98.4121 176.852 100.816C174.58 102.705 172.009 104.752 169.147 106.904C169.147 106.914 162.994 111.429 159.515 113.743C159.515 113.743 159.512 113.743 159.512 113.747C157.565 115.039 148.643 120.6 143.232 123.551C138.638 126.06 129.016 130.619 128.989 130.633H128.985C123.975 134.863 120.05 136.838 119 136.575C118.356 136.416 118.134 135.657 118.12 135.619C119.929 134.659 122.388 132.996 125.185 130.637C129.564 126.985 135.114 121.428 141.538 113.504C155.971 95.6994 158.265 83.5109 168.412 74.0298C172.708 70.0108 184.003 63.8022 189.785 61.786C189.851 61.7514 189.897 61.7306 189.914 61.7237C183.296 65.5001 176.589 69.8551 172.213 74.03C163.735 81.9536 160.835 91.2075 152.437 103.85L152.226 104.179C180.521 82.7193 202.387 57.8675 224.993 49.9271C225.714 49.6741 226.396 49.4385 227.051 49.2168C227.078 49.2064 227.106 49.1995 227.131 49.1891C234.825 46.5872 237.936 46.1818 238.162 47.63C238.262 48.2606 237.756 49.1995 237.569 49.5425" stroke="#005778" stroke-width="0.312494"/>
<path d="M45.8497 126.68V126.683C40.1438 125.585 33.4635 121.701 31.3916 120.523C32.1022 119.83 33.8515 118.583 37.1672 118.787C41.7197 119.068 46.7504 119.438 49.1066 118.732C51.1303 118.125 51.5145 117.242 52.3807 117.127H52.3841C54.8825 120.169 45.6591 126.42 45.8497 126.68Z" fill="#008E97"/>
<path d="M104.804 77.6336C115.58 76.2176 119.065 78.6629 126.909 76.0464C128.459 74.4779 130.271 72.8445 131.684 71.5686C129.464 72.2816 127.749 72.7057 126.131 72.9922C122.458 73.7177 119.793 73.5279 112.173 74.5288C100.202 76.1038 94.6036 79.8557 93.0339 81.3057C92.5603 81.7433 92.1975 82.1223 91.6996 82.8153C91.357 83.2916 91.1165 83.8557 91.0791 83.9583C92.959 81.6698 96.2692 78.7564 104.804 77.6336Z" fill="#005778" stroke="#005778" stroke-width="0.312494"/>
<mask id="mask0_487_1446" style="mask-type:luminance" maskUnits="userSpaceOnUse" x="-3" y="-1" width="248" height="193">
<path d="M244.663 191.038V-0.208077H-2.83224V191.038H244.663Z" fill="white"/>
</mask>
<g mask="url(#mask0_487_1446)">
<path d="M122.294 127.271C120.867 130.278 118.861 134.065 118.861 135.648C118.861 135.724 118.864 135.794 118.875 135.856C100.623 142.986 85.7377 142.65 85.6846 142.654C60.5869 143.842 40.8385 133.625 40.8385 133.625C40.8385 133.625 40.8385 133.621 40.8351 133.621C40.7831 133.621 40.6448 133.625 40.4332 133.625C38.0772 133.625 26.4222 133.445 18.7689 129.89C10.3984 126.006 5.58256 119.919 3.48698 115.342C1.92791 111.933 1.85132 110.845 2.34713 110.395C2.38835 110.356 2.43683 110.322 2.48533 110.291C2.48533 110.291 2.4888 110.291 2.4888 110.287C2.6378 110.197 2.82142 110.135 3.02235 110.079C3.18519 111.961 9.49786 127.655 29.5475 130.507C35.278 131.321 37.1008 131.064 38.1708 130.985C34.7996 128.023 32.0215 123.889 31.7856 123.647C32.5513 124.312 33.3169 124.946 34.0826 125.552C40.0659 131.941 46.8674 134.578 52.5801 135.53C52.587 135.534 52.5939 135.534 52.6047 135.537H52.6078L52.6321 135.544L52.9543 135.648C55.4107 136.452 69.7471 141.004 92.1317 135.755C103.499 133.091 116.066 127.745 123.925 123.574C123.925 123.577 123.26 125.237 122.293 127.271" fill="#005778"/>
<path d="M122.294 127.271C120.867 130.278 118.861 134.065 118.861 135.648C118.861 135.724 118.864 135.794 118.875 135.856C100.623 142.986 85.7377 142.65 85.6846 142.654C60.5869 143.842 40.8385 133.625 40.8385 133.625C40.8385 133.625 40.8385 133.621 40.8351 133.621C40.7831 133.621 40.6448 133.625 40.4332 133.625C38.0772 133.625 26.4222 133.445 18.7689 129.89C10.3984 126.006 5.58256 119.919 3.48698 115.342C1.92791 111.933 1.85132 110.845 2.34713 110.395C2.38835 110.356 2.43683 110.322 2.48533 110.291C2.48533 110.291 2.4888 110.291 2.4888 110.287C2.6378 110.197 2.82142 110.135 3.02235 110.079C3.18519 111.961 9.49786 127.655 29.5475 130.507C35.278 131.321 37.1008 131.064 38.1708 130.985C34.7996 128.023 32.0215 123.889 31.7856 123.647C32.5513 124.312 33.3169 124.946 34.0826 125.552C40.0659 131.941 46.8674 134.578 52.5801 135.53C52.587 135.534 52.5939 135.534 52.6047 135.537H52.6078L52.6321 135.544L52.9543 135.648C55.4107 136.452 69.7471 141.004 92.1317 135.755C103.499 133.091 116.066 127.745 123.925 123.574C123.925 123.577 123.26 125.237 122.293 127.271" stroke="#005778" stroke-width="0.312494"/>
<path d="M239.592 46.1755C237.475 42.8565 217.37 49.5326 211.654 51.8332C210.101 52.4602 200.536 56.7737 190.755 62.3551C184.138 66.1316 177.431 70.4866 173.055 74.6615C164.577 82.5851 161.677 91.839 153.279 104.482L153.067 104.811C181.363 83.3508 203.229 58.499 225.835 50.5586C226.555 50.3056 227.237 50.07 227.892 49.8483C227.92 49.8379 227.948 49.831 227.972 49.8206C235.667 47.2187 238.778 46.8133 239.003 48.2615C239.104 48.8921 238.598 49.831 238.408 50.1774C238.408 50.1774 238.037 50.7248 236.796 51.8093C235.56 52.8937 233.453 54.5082 229.985 56.6423C226.666 58.683 217.416 64.94 210.313 71.5055C210.049 71.748 191.06 89.6704 190.585 90.1104C190.533 90.2767 188.07 99.4509 182.187 111.383C178.065 119.743 171.911 124.968 169.728 126.163C169.59 126.236 168.322 127.04 167.473 126.499C167.033 126.233 166.867 125.671 166.853 125.093C166.832 124.06 169.098 118.738 169.988 107.537C169.988 107.548 163.835 112.062 160.353 114.38C158.406 115.672 149.485 121.233 144.073 124.185C139.479 126.693 129.857 131.253 129.826 131.267C124.816 135.497 120.891 137.472 119.841 137.208C119.197 137.049 118.975 136.29 118.961 136.252C118.892 136.03 118.874 135.857 118.874 135.857C100.623 142.987 85.7376 142.651 85.6844 142.655C60.5868 143.843 40.8384 133.626 40.8353 133.622C40.7833 133.622 40.645 133.626 40.4334 133.626C38.0774 133.626 26.4224 133.446 18.7691 129.891C10.3986 126.007 5.58277 119.92 3.48718 115.343C1.92812 111.934 1.85153 110.846 2.34734 110.396C2.51674 110.236 2.75269 110.153 3.02256 110.077C4.07582 109.779 4.78641 111.103 5.71145 111.889C6.63616 112.675 9.00608 114.772 13.3407 115.586C17.6747 116.4 25.7545 117.692 31.8485 121.593C36.8684 124.611 49.4031 134.842 71.654 126.132C81.9091 122.12 91.0727 114.089 104.688 100.619C106.901 98.4327 109.095 96.1359 111.329 93.7659C111.011 92.1687 110.137 89.2791 108.214 88.0838C105.232 86.2199 100.71 86.1471 97.7275 86.3654C94.7406 86.5871 93.1682 86.9959 92.1491 86.1783C91.7846 85.8855 91.7202 85.4237 91.8123 84.9899C91.9062 84.5461 92.1065 84.13 92.3462 83.7468C92.4086 83.6463 92.4717 83.5448 92.5406 83.4489C93.0388 82.756 93.4016 82.3769 93.8752 81.9393C95.4443 80.4894 101.043 76.7379 113.014 75.1626C120.633 74.1617 123.298 74.3515 126.971 73.6257C128.589 73.3395 130.304 72.9154 132.526 72.2021C135.793 69.2433 139.296 66.295 143.107 63.3985C146.922 60.5021 151.044 57.6611 155.556 54.9137C179.725 40.2064 199.424 40.6914 216.026 45.0013C216.026 45.0013 225.117 41.7273 229.653 41.277C234.125 40.8301 238.709 42.3511 239.593 46.176L239.592 46.1755ZM222.955 91.8058C215.242 92.8522 201.765 98.4335 204.326 101.431C206.886 104.424 214.353 108.54 215.413 109.06C211.854 109.06 200.158 110.269 198.852 113.584C197.542 116.9 215.776 128.015 222.453 130.627C214.148 128.288 194.34 124.387 193.024 127.058C191.708 129.73 195.13 137.986 198.259 140.442C195.969 139.756 184.006 136.354 182.086 140.778C179.976 145.646 191.669 163.502 192.996 166.839C187.606 161.49 172.84 149.499 170.747 150.87C168.654 152.242 169.171 158.926 169.714 162.325C167.688 159.854 164.206 155.894 161.198 157.079C158.191 158.264 158.562 169.739 158.368 174.627C155.887 168.876 151.837 157.297 148.088 157.72C144.339 158.143 140.133 166.021 139.333 169.032C138.761 166.018 136.308 159.39 132.598 159.39C128.887 159.39 120.26 176.931 117.652 182.631C117.641 178.22 118.698 156.701 116.359 155.634C114.021 154.567 106.128 159.473 104.434 161.704C105.062 158.877 105.595 149.321 103.492 148.168C101.385 147.011 95.3844 146.647 84.5336 156.68C86.3349 152.831 89.301 148.642 90.0217 144.582C94.515 144.35 98.9634 143.84 103.45 142.964C113.241 150.049 125.277 154.231 138.287 154.231C171.146 154.231 197.783 127.595 197.783 94.7351C197.783 92.1609 197.616 89.6249 197.301 87.1406C199.505 85.0653 201.618 83.0556 203.586 81.1813C203.136 82.2588 202.886 83.558 202.928 85.1587C203.056 90.1755 216.052 91.2461 222.957 91.8039L222.955 91.8058ZM38.0083 119.421C42.5607 119.702 47.5912 120.072 49.9475 119.366C51.9711 118.759 52.3554 117.876 53.2215 117.761H53.2249C53.3639 117.741 54.2123 117.55 54.2539 118.877C54.2508 119.587 54.1534 120.311 53.9664 121.049C53.6237 122.31 52.9582 123.835 51.8845 125.408C51.2328 126.367 50.1591 127.58 50.1452 127.594C49.9682 127.604 49.1405 127.639 48.4438 127.57C47.7439 127.5 46.999 127.376 46.6907 127.317C40.9848 126.218 34.3047 122.335 32.2328 121.156C32.9434 120.464 34.6926 119.217 38.0083 119.421ZM74.9889 113.188C73.1149 112.173 64.3978 111.771 64.3978 111.771C64.3978 111.771 74.2129 105.174 73.9845 100.404C73.7555 95.6365 58.1023 93.1941 51.9146 91.8222C57.3748 90.672 75.0582 86.6773 75.8173 83.1193C76.5795 79.5646 70.2908 77.0387 67.6478 75.7985C70.6097 75.8366 78.1176 77.0942 79.1291 73.4287C80.2863 69.2262 61.7991 58.2814 57.5861 56.764C58.5285 56.9857 76.1361 61.0948 82.5731 59.702C87.3646 58.6626 81.7797 52.2149 80.8578 51.4528C82.2714 52.1422 90.3439 53.8052 92.6548 49.9734C94.9657 46.1415 87.1252 30.88 82.7356 24.4114C86.6333 28.2988 104.435 40.9617 107.088 38.8067C109.746 36.6517 107.715 29.6913 106.292 27.3944C109.16 30.0795 111.984 33.6687 115.629 33.5924C117.454 33.5544 119.751 27.5191 120.129 13.8788C122.599 21.5217 128.496 31.9084 132.827 31.2781C137.161 30.651 138.641 24.2173 139.24 21.4767C139.739 24.4182 142.015 31.9778 144.905 32.2553C148.452 32.8096 155.24 17.0215 157.71 9.8879C158.084 13.4113 155.499 31.5072 159.324 33.0106C163.145 34.5177 169.465 26.8991 173.051 22.6308C170.875 26.7607 166.624 36.7489 169.157 39.1395C171.689 41.5301 180.444 39.0252 183.857 36.2119C182.901 38.3045 182.696 39.9781 182.956 41.5509C179.065 42.3131 175.05 43.4322 170.903 44.9774C161.534 38.8278 150.329 35.2454 138.288 35.2454C105.432 35.2454 78.7981 61.8811 78.7981 94.7349C78.7981 102.645 80.3433 110.191 83.1462 117.092C79.7613 119.6 76.5185 121.589 73.1957 123.124C75.6245 120.231 77.7344 114.67 74.9904 113.187L74.9889 113.188ZM241.729 46.7739C241.69 45.871 241.517 45.3347 241.517 45.3347L241.515 45.3298C240.416 41.4927 236.498 39.1227 231.162 39.1227C230.595 39.1227 230.018 39.1515 229.447 39.2087C225.359 39.6144 218.088 42.0767 215.93 42.8308C209.153 41.1182 202.801 40.2847 196.531 40.2847C193.29 40.2843 190.067 40.514 186.852 40.963L186.857 40.9608L185.531 41.1396C185.531 41.1396 185.014 39.4614 186.364 35.5422C187.064 33.5099 188.023 31.6407 188.023 31.6407C188.023 31.6407 173.266 39.3112 171.423 36.8628C169.58 34.4144 177.833 14.9492 177.833 14.9492C177.833 14.9492 163.606 30.7564 160.811 30.0551C159.716 29.7804 159.611 24.0552 159.557 17.8941C159.483 9.55145 159.773 0.00820763 159.773 0.00820763C159.773 0.00820763 148.059 29.1326 145.2 28.9811C142.722 28.8498 139.116 13.3039 139.116 13.3039C139.116 13.3039 136.854 26.7002 132.788 28.3389C128.722 29.9773 118.263 4.92404 118.263 4.92404C118.263 4.92404 117.78 29.9998 114.871 30.5626C111.962 31.1253 102.701 21.7534 102.701 21.7534C102.701 21.7534 107.042 34.2441 105.572 35.8891C104.694 36.8709 95.7864 31.3632 86.5184 24.7156C81.1645 20.875 76.6877 17.6563 76.6877 17.6563C76.6877 17.6563 81.9113 26.3321 86.0644 35.4003C88.9234 41.6434 90.658 47.6345 89.9102 48.801C88.0764 51.6614 74.3208 47.5846 74.3208 47.5846C74.3208 47.5846 82.1398 55.1169 81.6354 57.0569C81.3908 57.9982 73.6152 57.3185 65.7138 56.2382C57.3321 55.0921 48.8035 53.5116 48.8035 53.5116C48.8035 53.5116 76.7171 69.7406 75.8411 72.6615C75.1479 74.9724 57.7755 73.0797 57.7755 73.0797C57.7755 73.0797 72.8799 79.9805 72.8181 82.2608C72.7574 84.5412 43.2536 92.0062 43.2536 92.0062C43.2536 92.0062 69.9744 97.5955 70.4856 100.575C70.9966 103.556 59.9474 113.117 59.9474 113.117C59.9474 113.117 72.8112 114.28 73.4499 115.964C74.0884 117.648 70.3234 124.302 67.056 125.357C63.0176 126.661 59.3411 127.49 54.8634 127.49C54.2194 127.49 53.5898 127.472 52.9742 127.439C53.1956 127.152 53.4145 126.857 53.6051 126.575C54.7065 124.963 55.5265 123.239 55.9735 121.595L55.9783 121.578L55.9825 121.56C56.2115 120.657 56.3296 119.758 56.3338 118.887L56.3341 118.849L56.3328 118.811C56.302 117.822 55.9801 116.978 55.3964 116.404C54.3022 115.45 53.2819 115.563 52.5502 115.889L50.012 117.133C49.8232 117.216 49.6101 117.297 49.352 117.374C48.8659 117.52 47.8418 117.694 45.7189 117.694C43.7064 117.694 41.3109 117.544 38.9944 117.399C38.9944 117.399 37.5718 117.32 37.2971 117.32C34.5337 117.32 32.689 118.2 31.5778 119.004L30.9732 118.686C25.3218 115.684 18.7441 114.47 14.6366 113.712C14.3176 113.652 14.0127 113.599 13.7254 113.542C9.18897 112.653 6.7059 109.96 6.50371 109.742C6.11947 109.326 5.61885 108.788 4.96577 108.411C4.96577 108.411 3.78502 107.674 2.03539 108.213C0.893822 108.614 0.411547 109.504 0.411547 109.504C-0.566872 111.13 0.366823 113.516 1.5978 116.207C2.99821 119.265 7.38831 126.901 17.8956 131.776C21.3356 133.374 25.8614 134.511 31.3466 135.155C35.4756 135.64 38.9621 135.702 40.3515 135.704C41.6892 136.356 45.8063 138.259 51.9281 140.172C58.6486 142.273 69.1509 144.77 81.1838 144.826C81.1838 144.826 85.4541 144.88 87.7593 144.733C87.9914 145.694 86.3236 149.131 84.3194 153.16C81.9447 157.934 78.897 163.581 78.897 163.581C78.897 163.581 84.4025 158.715 89.5334 155.108C94.6976 151.478 100.483 148.56 101.85 150.242C104.434 153.418 101.677 166.525 101.677 166.525C101.677 166.525 112.11 157.294 114.529 158.544C115.636 159.116 115.748 166.015 115.752 173.282C115.745 181.886 115.524 191.031 115.524 191.031C115.524 191.031 129.895 161.953 132.884 162.784C135.873 163.615 139.146 176.873 139.146 176.873C139.146 176.873 144.606 160.721 147.941 161.113C149.275 160.949 152.141 166.188 154.688 171.543C157.479 177.412 159.871 183.149 159.871 183.149C159.871 183.149 159.929 177.151 160.347 171.023C160.725 165.486 161.429 160.081 162.646 159.782C165.21 159.15 172.646 169.118 172.646 169.118C172.646 169.118 170.017 155.225 172.077 154.048C174.137 152.871 198.89 174.271 198.89 174.271C198.89 174.271 182.646 144.173 184.622 141.875C186.598 139.577 203.948 144.265 203.948 144.265C203.948 144.265 201.363 141.213 199.15 137.763C196.839 134.158 194.913 130.128 195.817 129.159C196.639 128.278 205.685 129.195 215.03 131.007C225.805 133.097 232.815 134.588 232.815 134.588C232.815 134.588 226.468 131.153 217.109 125.522C209.006 120.646 201.877 115.158 202.181 114.268C202.837 112.349 222.191 110.508 222.191 110.508C222.191 110.508 218.943 108.597 215.452 106.463C211.663 104.146 207.618 101.262 207.618 100.205C207.618 99.2825 212.471 96.9949 218.872 95.0258C226.545 92.6665 233.643 91.085 233.643 91.085C233.643 91.085 207.258 88.9664 205.611 85.2048C204.486 82.6354 206.552 79.2855 208.067 77.1212C209.582 74.9572 211.75 72.9935 211.75 72.9935C218.959 66.3373 228.133 60.209 231.064 58.4068C231.271 58.2794 231.469 58.154 231.671 58.0278C231.671 58.0278 238.439 53.031 239.135 52.4473C239.741 51.9384 241.289 50.3145 241.637 48.2483C241.637 48.2483 241.758 47.6784 241.719 46.7676" fill="white"/>
</g>
</svg>
