<svg width="50" height="50" viewBox="0 0 193 95" fill="none" xmlns="http://www.w3.org/2000/svg">
<path d="M191.156 57.8858C190.388 53.21 187.307 46.3426 176.973 40.1637C176.275 39.7461 175.542 39.3397 174.787 38.9397C176.72 38.2895 178.719 37.6185 178.719 37.6185L167.266 33.153C166.286 32.7705 165.258 32.4263 164.217 32.0916C164.974 31.3234 165.773 30.5122 165.773 30.5122L156.991 29.2819C153.197 28.7496 150.204 28.6269 147.91 28.6603C147.888 28.2906 147.859 27.9495 147.821 27.6436C147.821 27.6404 146.355 16.6454 146.355 16.6454C146.355 16.6454 142.957 21.2846 142.619 21.7453C141.897 20.542 141.078 19.4105 140.138 18.3475C140.138 18.346 130.667 7.6362 130.667 7.6362C130.667 7.6362 131.044 10.7871 131.347 13.3017C128.276 11.1597 124.899 9.24555 121.163 7.64402C105.924 1.10824 86.6515 -0.249549 68.2895 3.91317C52.9273 7.40058 30.7497 16.4816 12.3283 39.9623L1.69727 53.5151L17.6997 47.1403C17.8272 47.0893 30.18 42.2732 40.1423 40.8692C43.8572 40.3449 46.7022 40.3034 44.3928 45.3922C42.5728 49.4084 38.4386 55.2701 38.3958 55.3288L30.3825 66.9836L43.7491 62.3427C50.178 60.1068 55.9488 59.0056 58.8672 58.9019C59.9095 58.921 60.1007 59.6095 59.7724 60.3585C59.6784 60.6183 59.6242 60.7538 58.9022 61.863L50.5209 73.8255L64.2684 68.901C74.245 65.3214 87.3613 62.9642 92.053 64.7573C92.4355 64.9023 93.6754 65.5605 92.4467 67.363L87.0471 75.9531C87.0471 75.9531 95.0188 74.7435 96.1519 74.5682C96.7782 82.4124 100.713 86.6901 101.198 87.1842L106.989 93.124L109.023 85.0805C110.483 79.2922 113.233 76.1382 115.688 74.4201C115.688 74.4233 116.159 77.7253 116.159 77.7253L121.529 75.789C126.042 74.157 129.615 72.1969 132.187 69.9607C135.59 69.6913 143.903 69.1957 151.887 69.9862C165.649 71.3472 174.88 69.5176 177.382 68.9231C180.729 68.1311 183.55 69.5606 183.58 69.5766L187.671 71.8014L189.878 67.6577C190.14 67.1605 191.388 64.5739 191.388 60.7395C191.388 59.7896 191.311 58.8302 191.155 57.8883" fill="white"/>
<path d="M189.237 58.6827C188.557 54.5406 185.753 48.4176 176.248 42.7312C173.706 41.2172 170.946 39.9215 168.152 38.8204L171.518 37.6888L166.895 35.8847C164.605 34.9907 162.198 34.2544 159.717 33.6567C160.193 33.1738 160.71 32.6463 160.71 32.6463L157.167 32.1475C151.71 31.3841 147.943 31.4718 145.726 31.6789C145.746 31.2008 145.762 30.6956 145.762 30.1856C145.762 29.4716 145.735 28.7688 145.66 28.1999L145.066 23.7581C145.066 23.7581 142.911 26.7017 142.6 27.1271C141.888 25.1477 140.72 22.695 138.587 20.2788L134.759 15.9486L135.193 19.5632C131.752 16.3661 126.99 13.0052 120.462 10.205C105.654 3.85387 86.8755 2.54234 68.9572 6.60474C53.9326 10.0078 32.2456 18.8951 14.2116 41.8789L9.66797 47.6753L16.5097 44.9469C16.6372 44.8975 29.3631 39.8567 39.7079 38.4733C43.764 37.9346 46.564 38.4143 47.589 39.8295C48.5452 41.1555 48.2376 43.7788 46.7523 46.8531C44.7187 51.0718 40.5624 57.1279 40.5208 57.1916L37.0944 62.1722L42.8095 60.1896C50.34 57.5711 59.8335 55.6347 62.0344 57.0739C62.5428 57.407 62.8169 57.799 62.9237 58.3472C63.2759 60.1768 61.7013 62.95 61.1212 63.7818L57.5338 68.8929L63.4146 66.7892C72.8094 63.4203 89.6533 59.5569 94.8607 63.5478C97.2688 65.3949 95.0185 69.0445 94.9181 69.1976L92.6072 72.8775L96.8974 72.2225C96.8974 72.2225 97.9541 72.0584 98.9964 71.8974C98.9836 72.2337 98.9613 72.5747 98.9613 72.8951C98.9613 81.1999 103.162 85.616 103.365 85.8263L105.843 88.3667L106.713 84.9227C109.151 75.2551 114.922 71.9083 118.138 70.7737C118.228 71.4143 118.675 74.5461 118.675 74.5461L120.97 73.7174C126.599 71.6854 129.752 69.4559 131.483 67.7825C134.072 67.5562 143.56 66.839 152.669 67.7379C166.085 69.067 175.002 67.3028 177.417 66.729C181.865 65.6772 185.479 67.6008 185.517 67.6199L187.283 68.5841L188.231 66.8071C188.292 66.6956 189.435 64.4723 189.435 61.1113C189.435 60.3559 189.376 59.5431 189.234 58.6793" fill="#BB9334"/>
<path d="M175.069 44.7359C171.1 41.9294 165.755 39.8879 160.569 38.428C162.729 37.7299 164.891 37.7761 164.891 37.7761C161.568 36.5059 158.099 35.7123 154.871 35.2119L156.08 34.1281C150.168 33.1209 146.042 33.1974 143.594 33.4524C143.902 32.2412 144.152 30.3909 143.837 27.9206C143.837 27.9206 143.12 30.0499 141.381 31.3728C141.151 28.6093 140.268 24.6123 137.269 21.8998L137.825 26.7782C135.183 22.7986 130.155 17.7099 120.648 13.2635C94.8063 1.18471 49.2717 5.76335 24.2754 38.0473C24.2754 38.0473 33.9955 33.1896 47.4623 32.8677C54.5178 32.702 56.2325 36.6526 53.6619 43.3112C51.0769 50.0033 46.5458 55.8744 46.5458 55.8744C46.5458 55.8744 77.0207 45.0752 67.3997 60.0771C67.3997 60.0771 90.4048 53.1876 97.3059 61.2692C100.514 65.0191 96.7784 70.264 96.7784 70.264L103.304 68.8519C101.188 77.1408 104.893 82.4351 104.893 82.4351C107.587 71.5994 116.978 68.7132 120.303 68.1666L121.022 71.1023C126.594 69.0878 129.213 66.9442 130.712 65.1783C142.51 63.3233 150.521 64.909 159.617 65.4046C172.865 66.1282 179.714 63.8205 181.902 63.8348C183.508 63.8492 185.412 65.2501 185.412 65.2501C185.412 65.2501 190.919 55.9556 175.069 44.7358" fill="black"/>
<path d="M128.982 33.1893C129.805 35.1368 128.672 37.2996 126.45 38.0215C124.23 38.745 121.761 37.7474 120.939 35.7998C120.116 33.8506 121.251 31.6848 123.471 30.966C125.69 30.2441 128.16 31.2385 128.982 33.1893Z" fill="#C60C30"/>
<path d="M123.27 36.0521C122.651 34.5891 123.545 32.9444 125.262 32.385C125.925 32.1699 126.612 32.146 127.24 32.2846C126.382 31.7428 125.22 31.5738 124.132 31.9292C122.411 32.487 121.518 34.1286 122.14 35.601C122.519 36.5031 123.386 37.1294 124.397 37.3461C123.899 37.0322 123.499 36.5924 123.27 36.0521ZM82.1301 47.5612C82.2943 47.4528 82.9174 47.0575 83.0624 46.9651C83.2361 46.8567 83.4115 46.7468 83.59 46.6384C83.7366 46.5492 83.8816 46.4647 84.0266 46.3786C84.2163 46.2655 84.4091 46.1539 84.6004 46.0424C84.7438 45.9611 84.8856 45.8782 85.0291 45.7937C89.1346 43.4749 94.137 41.352 99.774 40.0132C99.9748 39.6881 100.163 39.3503 100.325 39.0012C102.217 34.931 99.2258 30.8542 93.9444 30.1658C99.0458 29.0789 104.471 25.7131 105.577 23.23C106.943 20.1574 107.846 14.7706 94.5659 13.4143C81.284 12.0597 58.2449 17.448 48.3076 25.16C48.3076 25.16 63.6726 21.9073 79.4775 21.1535C77.1252 21.9536 74.1911 23.3258 72.5321 25.3497C69.7415 28.1196 65.5738 33.7835 60.957 49.9422C60.957 49.9422 61.2008 49.9119 61.6264 49.861C63.6074 49.6091 69.5631 48.8936 73.0914 48.7135L79.0344 48.3708C79.6799 48.3708 80.3428 48.3485 81.0154 48.3119C81.0903 48.2625 81.1652 48.2083 81.2401 48.1589C81.3947 48.0537 81.5509 47.9485 81.7055 47.8385C81.8457 47.7445 81.9907 47.6505 82.131 47.5612M164.192 62.3671C170.79 62.3305 175.727 61.736 179.611 60.8292C165.275 54.6856 137.208 52.0575 132.862 52.4128C132.862 52.4128 130.485 53.0822 133.22 55.7087C129.395 54.2026 125.577 51.3322 125.312 49.8788C125.033 48.3345 127.827 47.9026 134.443 48.6804C159.215 51.6064 180.654 55.7533 183.554 61.8222C183.554 61.8222 185.067 54.2249 172.715 46.9895C162.147 39.9437 145.911 38.7915 145.911 38.7915L150.013 42.0983L142.38 41.4369L148.422 45.8053C141.939 43.6856 124.476 37.9642 110.007 41.5819C110.007 41.5819 125.885 41.4034 133.132 45.7287C106.312 41.3507 92.3643 50.6661 92.3643 50.6661C107.451 46.3584 119.491 47.5472 123.443 48.1369C117.099 49.6525 124.568 54.2967 129.133 56.7239C129.651 57.9972 130.902 60.5981 129.678 62.7881C129.678 62.7881 131.053 61.0382 132.056 58.4644L135.768 61.4447C146.847 60.0773 155.02 62.4121 164.193 62.3674" fill="white"/>
<path d="M128.78 34.3767C129.229 35.5433 128.587 36.8486 127.348 37.2933C126.11 37.7348 124.747 37.1498 124.299 35.98C123.852 34.8134 124.497 33.5097 125.732 33.0683C126.971 32.622 128.333 33.2085 128.78 34.3767Z" fill="black"/>
<path d="M89.3037 15.1775C87.336 15.1826 84.9538 15.2953 82.3683 15.6413C79.6399 16.0063 66.377 17.356 55.084 22.8687C64.9603 20.4637 76.6327 19.5822 84.0233 19.3145C87.131 19.2045 90.5447 19.3018 90.5447 19.3018C92.7551 19.3018 94.8048 19.9553 95.5905 21.2446C96.4049 22.5786 96.6294 24.1783 95.0979 26.1323C94.2548 27.2096 93.2654 28.3447 90.392 29.5144L93.7034 28.8084C98.6535 27.7502 103.146 24.9692 104.179 22.813C104.933 21.2384 104.976 19.9758 104.367 18.9766C103.126 16.9383 100.094 15.7317 94.7126 15.4577C94.7126 15.4577 92.5841 15.1688 89.3045 15.1774L89.3037 15.1775ZM84.8438 21.9935C83.3351 22.0142 78.2859 22.7583 74.3518 26.5114C70.6974 29.7419 66.75 38.1332 63.6103 48.1257C69.0114 47.5583 73.9073 47.3015 73.9073 47.3015L79.0419 47.0798C80.3918 47.0798 81.8116 47.0069 83.2446 46.8459C87.181 44.4171 92.1074 42.1045 97.7315 40.5381C98.0869 40.0647 98.3929 39.5643 98.6367 39.0352C99.2025 37.8224 99.268 36.3147 98.8648 35.1228C98.2576 33.3139 97.0477 32.1091 93.2354 31.2166C88.2185 30.0452 80.8904 30.5614 80.8904 30.5614C82.5766 26.4672 83.8359 24.0735 85.0963 21.9986C85.0286 21.9942 84.944 21.9923 84.8434 21.9937L84.8438 21.9935ZM80.4079 31.5988H85.8618C88.6762 31.5988 89.9704 32.7526 90.5634 33.7247C91.4925 35.2467 91.3264 37.2982 90.1757 39.8671C87.9557 44.822 82.5769 45.268 80.9624 45.268L74.7741 45.5038C77.4563 36.9935 80.4079 31.5988 80.4079 31.5988Z" fill="#BB9334"/>
<path d="M91.1683 20.6929L88.5018 20.7012C88.5018 20.7012 88.0412 21.0805 87.1981 22.3555C90.2996 22.3826 91.5604 23.9298 89.9189 27.4537C89.7133 27.9 89.4933 28.2808 89.267 28.6075C91.1684 28.0417 92.6393 26.9902 93.3628 25.736C94.9533 22.958 93.7343 20.9654 91.1683 20.6929ZM81.8818 32.9776C81.5886 33.553 81.3045 34.1284 81.0352 34.6973H82.3662C85.5297 34.6973 87.2842 36.4763 85.3145 40.7188C84.8108 41.801 84.1368 42.6345 83.375 43.2783C85.3863 42.7811 87.5605 41.576 88.7573 39.0006C90.7303 34.7563 88.9723 32.9776 85.812 32.9776L81.8818 32.9776Z" fill="black" stroke="black" stroke-width="0.149997"/>
<path d="M88.7558 10.7918C68.0083 10.9273 48.7668 18.5884 36.5596 30.2791C36.5596 30.2791 53.6572 24.899 58.7856 30.1854C64.7509 36.3322 55.7129 50.7854 55.7129 50.7854L61.624 49.8596C61.1985 49.9106 60.9546 49.9407 60.9546 49.9407C65.5715 33.7821 69.7389 28.1184 72.5296 25.3485C74.1886 23.3245 77.1229 21.9518 79.4751 21.1519C63.668 21.9031 48.3034 25.156 48.3034 25.156C58.2406 17.4439 81.2801 12.0553 94.5623 13.41C107.843 14.7663 106.939 20.1531 105.573 23.2258C104.467 25.7088 99.0422 29.0747 93.9408 30.1617C99.2224 30.8501 102.214 34.927 100.322 38.9974C100.159 39.3465 99.971 39.6845 99.7702 40.0096C94.1333 41.3483 89.1309 43.4708 85.0255 45.7897C84.8821 45.8742 84.7402 45.957 84.5968 46.0383C84.4056 46.1498 84.2128 46.2615 84.0231 46.3747C83.8781 46.4607 83.7327 46.5452 83.5861 46.6345C83.4076 46.7428 83.2325 46.8527 83.0588 46.9611C82.9138 47.0535 82.7657 47.1429 82.6223 47.237C82.4549 47.3406 82.2908 47.4489 82.1267 47.5573C81.9864 47.6465 81.8412 47.7406 81.7009 47.8346C81.5463 47.9446 81.3902 48.0497 81.2356 48.1549C77.8617 50.4737 75.4122 52.7958 74.142 54.5967C74.142 54.5967 108.681 47.6007 102.699 64.996L111.621 62.5512C110.991 63.6509 109.995 64.9065 108.64 66.4174C104.423 71.1013 104.714 75.5544 104.714 75.5544C104.714 75.5544 105.952 70.682 113.932 67.3416C121.208 64.3007 122.886 59.1308 122.886 59.1308C122.886 59.1308 125.31 62.7137 123.326 67.7306C123.326 67.7306 126.678 66.8935 129.677 62.7785C130.9 60.5919 129.649 57.9908 129.131 56.7176C124.566 54.2904 117.096 49.6465 123.441 48.1308C119.489 47.5411 107.448 46.3523 92.3616 50.66C92.3616 50.66 106.308 41.3447 133.128 45.7226C125.882 41.3972 110.003 41.5757 110.003 41.5757C115.529 40.194 121.487 40.1765 127.105 40.7964C124.847 40.1685 121.778 39.437 118.168 38.8888C112.652 38.2353 107.387 38.5271 102.531 39.4244C107.988 33.7603 117.929 34.5045 117.929 34.5045C111.299 30.0374 102.655 31.4671 102.655 31.4671C112.346 26.4517 123.121 28.1489 123.121 28.1489C119.733 23.6753 111.732 22.6905 111.732 22.6905C127.593 22.0483 133.149 30.3831 133.149 30.3831C129.195 28.6603 126.379 28.9202 126.379 28.9202C126.379 28.9202 130.191 29.5385 132.771 34.3611C135.504 39.4705 137.822 39.324 137.822 39.324C137.822 39.324 142.167 22.8609 113.47 14.2971C105.221 11.8358 96.872 10.7369 88.7535 10.7899L88.7558 10.7918ZM87.1978 22.3556C86.3802 23.5891 85.2028 25.661 83.7286 29.0556H86.1094C87.2441 29.0556 88.3087 28.8911 89.2666 28.6074C89.4929 28.2807 89.7128 27.8999 89.9184 27.4536C91.5599 23.93 90.2992 22.3828 87.1978 22.3556ZM81.0349 34.697C78.8436 39.3364 77.4813 43.5856 77.4813 43.5856H80.8757C81.6072 43.5856 82.4758 43.5058 83.3747 43.2779C84.1364 42.6341 84.8104 41.8006 85.3141 40.7185C87.2839 36.4761 85.5294 34.6971 82.3659 34.6971L81.0349 34.697Z" fill="#241773"/>
</svg>
