<svg width="50" height="50" viewBox="0 0 192 104" fill="none" xmlns="http://www.w3.org/2000/svg">
<g clip-path="url(#clip0_487_1466)">
<path d="M174.929 10.7149C174.971 10.6145 175.006 10.5195 175.035 10.4274C175.061 10.3489 175.08 10.2719 175.099 10.199C175.098 10.1948 175.098 10.1907 175.095 10.188C174.82 9.39682 174.27 9.33902 173.113 9.43121C171.426 9.75315 169.864 9.95681 168.553 10.0875L168.554 10.0888C168.481 10.0957 168.414 10.1025 168.342 10.1094C168.291 10.1135 168.239 10.119 168.188 10.1232C167.993 10.1424 167.803 10.1589 167.619 10.174C167.592 10.1769 167.566 10.1782 167.54 10.1809C165.848 10.3172 164.777 10.324 164.777 10.324C169.1 13.5931 169.605 18.6553 169.605 18.6553L169.826 18.4668C173.144 16.0589 174.929 10.7149 174.929 10.7149Z" fill="black" stroke="black" stroke-width="0.312495"/>
<path d="M130.013 37.5957C132.157 43.911 128.548 52.3713 128.548 52.3713C133.284 48.3098 137.005 39.9648 137.005 39.9648C144.789 38.3866 149.075 39.9648 149.075 39.9648C150.089 46.056 147.834 51.016 147.834 51.016C152.345 47.4085 154.375 37.8198 154.375 37.8198C154.375 37.8198 152.571 36.1288 144.565 35.5661C136.554 35.002 130.013 37.5957 130.013 37.5957Z" fill="#BFC0BF"/>
<path d="M135.853 61.7518C135.853 61.7518 133.502 68.2968 131.086 70.7143C131.086 70.7143 134.206 72.4245 139.643 71.9223C145.083 71.4174 146.392 69.4058 146.895 67.3914C147.399 65.3771 146.895 62.5564 145.989 60.4417C145.989 60.4417 146.392 65.7789 142.666 68.4976C142.666 68.4976 138.651 69.3383 136.031 68.5321C136.031 68.5321 137.06 66.3843 135.853 61.7518Z" fill="#BFC0BF"/>
<path d="M123.035 10.8744C123.089 10.8854 123.145 10.8964 123.2 10.9088C123.145 10.8978 123.09 10.8854 123.035 10.8744C119.752 10.2511 118.368 12.7291 118.368 12.7291C117.329 14.2673 117.724 15.0048 117.724 15.0048C127.838 14.8287 133.292 16.4619 133.292 16.4619C133.292 16.4619 129.523 12.3438 123.448 10.961L123.035 10.8743" fill="#BFC0BF"/>
<path d="M163.447 16.0682C162.115 14.8271 159.277 13.2297 156.171 13.8502C153.067 14.4721 152.889 17.843 152.889 17.843C156.261 14.7376 163.447 16.0682 163.447 16.0682Z" fill="#BFC0BF"/>
<path d="M88.1706 22.7088C88.1706 22.7088 104.84 19.5166 123.902 24.02C124.587 23.4064 125.378 22.7803 126.292 22.1447C126.292 22.1447 108.81 17.2947 88.1699 22.7088" fill="#0085CA"/>
<path d="M88.2612 29.2212C88.2612 29.2212 102.871 25.5793 120.68 28.0338C121.02 27.3596 121.479 26.6482 122.081 25.9121C115.653 25.1747 102.605 24.5968 88.2588 29.2212" fill="#0085CA"/>
<path d="M88.6329 35.5242C88.6329 35.5242 102.437 31.2604 119.847 32.4642C119.76 31.8409 119.753 31.0952 119.914 30.2531C112.936 30.0632 101.185 30.699 88.6329 35.5242Z" fill="#0085CA"/>
<path d="M47.918 78.9921H47.9248C47.9386 78.9934 47.9675 78.9963 48.0074 79.0004C48.3115 79.0293 49.2842 79.1187 49.3379 79.1242C49.47 79.1366 51.1417 79.3127 51.1554 79.3141C53.5289 79.5796 55.9326 79.9126 58.3542 80.324C63.8164 60.3337 79.1839 49.6484 79.1839 49.6484C58.3995 59.7021 49.6595 76.0656 47.918 78.9921Z" fill="#0085CA"/>
<path d="M145.923 51.3015C144.624 45.2708 148.061 41.1433 148.061 41.1433C140.25 47.9911 144.978 54.8474 147.343 60.168C149.705 65.4874 148.76 69.3893 146.397 72.1068C144.032 74.8269 137.53 75.0636 133.157 74.2353C128.783 73.4084 126.536 68.7962 125.354 63.3603C124.172 57.9212 126.3 48.3465 126.3 48.3465C123.107 53.1937 123.107 63.1237 125.591 71.1631C128.072 79.2012 134.574 81.21 139.303 81.21C144.032 81.21 152.542 77.1925 151.231 67.6203C149.918 58.0496 147.224 57.3312 145.923 51.3022" fill="#0085CA"/>
<path d="M95.0797 56.1924C86.9234 47.9343 86.6756 38.5918 86.6756 38.5918C86.6756 38.5918 83.8771 49.4849 90.5241 57.6412C97.1711 65.7974 113.36 66.6877 113.36 66.6877C113.36 66.6877 103.236 64.4492 95.0794 56.1924" fill="#0085CA"/>
<path d="M136.329 20.4524C145.916 24.1755 145.803 29.9268 145.803 29.9268C147.269 24.3999 154.037 21.4693 154.037 21.4693C154.037 21.4693 150.541 19.7755 145.691 19.4384C140.841 19.0986 136.329 20.4524 136.329 20.4524Z" fill="#0085CA"/>
<path d="M123.035 10.8745C117.258 9.72697 111.717 12.0412 111.437 12.1609C111.434 12.1622 111.433 12.1622 111.431 12.1637C111.43 12.1637 111.428 12.165 111.427 12.165L111.426 12.1662C116.749 12.2557 118.369 12.729 118.369 12.729C118.369 12.729 119.753 10.251 123.036 10.8743" fill="#0085CA"/>
<path d="M141.811 85.8919H141.809C141.748 85.9152 138.356 87.1095 134.158 86.3555C134.158 86.3555 139.711 91.7299 145.351 103.481C145.354 103.488 145.357 103.494 145.359 103.501L145.577 103.484C145.03 98.128 142.744 89.1542 142.218 87.4989L141.811 85.8919Z" fill="#0085CA"/>
<path d="M147.835 51.0177C147.835 51.0177 150.09 46.0577 149.076 39.9666C149.076 39.9666 144.79 38.3885 137.007 39.9666C137.007 39.9666 133.285 48.3115 128.55 52.373C128.55 52.373 132.159 43.9128 130.015 37.5976C130.015 37.5976 136.556 35.004 144.566 35.5681C152.572 36.1309 154.376 37.8218 154.376 37.8218C154.376 37.8218 152.347 47.4102 147.835 51.0177ZM142.665 68.4996C146.39 65.7809 145.987 60.4438 145.987 60.4438C146.894 62.5585 147.398 65.379 146.894 67.3934C146.39 69.4076 145.082 71.4192 139.642 71.9242C134.205 72.4264 131.085 70.7162 131.085 70.7162C133.501 68.2988 135.852 61.7538 135.852 61.7538C137.059 66.3863 136.03 68.534 136.03 68.534C138.649 69.3403 142.665 68.4996 142.665 68.4996ZM151.229 67.6204C152.541 77.1925 144.031 81.2099 139.302 81.2099C134.573 81.2099 128.071 79.2011 125.59 71.1632C123.107 63.1239 123.107 53.1941 126.299 48.347C126.299 48.347 124.172 57.9218 125.354 63.3605C126.535 68.7967 128.782 73.4085 133.156 74.2353C137.529 75.0636 144.031 74.8269 146.396 72.1068C148.759 69.3895 149.704 65.4876 147.342 60.1683C144.976 54.8477 140.249 47.9916 148.06 41.1439C148.06 41.1439 144.623 45.2716 145.922 51.3019C147.223 57.3311 149.917 58.0492 151.23 67.6197L151.229 67.6204ZM120.681 28.0335C102.87 25.5789 88.2626 29.2209 88.2626 29.2209C102.607 24.5966 115.655 25.1744 122.084 25.9119C121.483 26.648 121.023 27.3593 120.683 28.0335H120.681ZM119.846 32.4638C102.437 31.2599 88.6324 35.5237 88.6324 35.5237C101.185 30.6985 112.935 30.0629 119.913 30.2529C119.752 31.0949 119.759 31.8405 119.846 32.4638ZM90.5243 57.6409C83.8775 49.4848 86.6759 38.5918 86.6759 38.5918C86.6759 38.5918 86.9236 47.9342 95.0798 56.1922C103.236 64.4489 113.36 66.6873 113.36 66.6873C113.36 66.6873 97.1711 65.7971 90.5243 57.6409ZM126.292 22.1445C125.379 22.7802 124.588 23.4062 123.903 24.0199C104.84 19.5165 88.1719 22.7086 88.1719 22.7086C108.812 17.2947 126.293 22.1445 126.293 22.1445H126.292ZM111.427 12.1641C111.429 12.1641 111.43 12.1628 111.432 12.1628C111.433 12.1616 111.434 12.1616 111.437 12.16C111.723 12.0376 117.525 9.61187 123.448 10.9603C129.524 12.343 133.293 16.4611 133.293 16.4611C133.293 16.4611 127.839 14.8279 117.725 15.004C117.725 15.004 117.33 14.2666 118.369 12.7284C118.369 12.7284 116.75 12.255 111.426 12.1656L111.427 12.1641ZM156.174 13.8509C159.279 13.2304 162.117 14.8278 163.449 16.0688C163.449 16.0688 156.263 14.7384 152.891 17.8437C152.891 17.8437 153.069 14.4728 156.173 13.851L156.174 13.8509ZM166.392 29.6047C166.279 28.9622 166.099 28.4146 165.875 27.9399C165.874 27.9399 165.693 27.4858 165.148 26.7731C164.682 26.1801 164.159 25.7137 163.683 25.2638C162.644 24.2856 160.776 23.7049 160.776 23.7049C160.776 23.7049 160.775 23.7049 160.773 23.7037C162.075 24.6902 163.072 26.1115 163.171 28.1533C163.475 34.4398 156.985 36.9769 156.985 36.9769C158.506 35.9629 161.245 32.5148 160.534 28.0514C159.824 23.5896 154.038 21.4693 154.038 21.4693C154.038 21.4693 147.27 24.4 145.805 29.9267C145.805 29.9267 145.918 24.1755 136.331 20.4525C136.331 20.4525 140.842 19.0986 145.692 19.4385C150.542 19.7756 154.038 21.4693 154.038 21.4693C154.038 21.4693 154.937 19.1041 159.698 18.2965C164.458 17.4875 169.606 18.6542 169.606 18.6542C168.654 16.9179 167.557 14.3877 162.773 12.4325C157.988 10.4774 153.699 12.2467 153.699 12.2467C153.699 12.2467 153.389 9.938 149.909 7.68712C144.258 4.03155 129.31 1.8519 126.43 1.6994C123.548 1.54393 128.587 3.4 130.608 4.55161C132.903 5.86005 135.473 8.07936 135.692 10.1871C135.749 10.754 135.617 11.2493 135.361 11.6579C135.16 11.0691 134.733 10.3164 133.986 9.35746C129.893 4.09754 119.504 1.8232 111.711 2.3432C103.918 2.86191 97.7261 5.81189 97.7261 5.81189C97.8142 6.53009 94.8519 9.04529 86.6791 9.94371C78.8917 10.7995 73.3977 9.37549 71.4178 9.08378C71.3668 9.07003 71.3159 9.05765 71.2692 9.05353C70.467 8.95309 69.8658 8.99023 69.614 9.56675C69.603 9.59287 69.5947 9.61903 69.5865 9.64791C69.581 9.68094 69.5755 9.71672 69.5699 9.75246C69.5356 10.1542 69.7832 10.7087 69.7832 10.7087C69.7364 10.622 69.6979 10.5491 69.6676 10.4913C70.2235 11.5576 73.5379 17.6625 77.9009 20.7968C77.9009 20.7968 80.5096 20.2451 83.6052 19.9135C83.6052 19.9135 35.7716 43.1919 16.3906 79.5657C24.8371 78.5764 35.9459 77.9408 48.0089 79.0002C47.969 78.9961 47.9401 78.9933 47.9264 78.992H47.9195C49.6613 76.0654 58.4009 59.7023 79.1846 49.6487C79.1846 49.6487 63.8174 60.3338 58.3553 80.3238C65.3048 81.5043 72.4016 83.3329 79.3512 86.0365C101.691 94.7445 120.522 103.846 141.747 103.658L145.359 103.501C145.356 103.494 145.353 103.488 145.351 103.481C139.711 91.7301 134.158 86.3558 134.158 86.3558C138.356 87.1097 141.747 85.9155 141.809 85.8921C142.127 85.7793 142.399 85.6637 142.625 85.5605C149.569 81.818 150.729 75.4822 151.297 70.9432C151.953 65.6942 151.019 62.3358 151.019 62.3358C151.019 62.3358 163.035 46.5626 166.089 34.1481C166.089 34.1481 166.795 31.9027 166.392 29.6051" fill="black"/>
<path d="M166.392 29.6047C166.279 28.9622 166.099 28.4146 165.875 27.9399C165.874 27.9399 165.693 27.4858 165.148 26.7731C164.682 26.1801 164.159 25.7137 163.683 25.2638C162.644 24.2856 160.776 23.7049 160.776 23.7049C160.776 23.7049 160.775 23.7049 160.773 23.7037C162.075 24.6902 163.072 26.1115 163.171 28.1533C163.475 34.4398 156.985 36.9769 156.985 36.9769C158.506 35.9629 161.245 32.5148 160.534 28.0514C159.824 23.5896 154.038 21.4693 154.038 21.4693M154.038 21.4693C154.038 21.4693 147.27 24.4 145.805 29.9267C145.805 29.9267 145.918 24.1755 136.331 20.4525C136.331 20.4525 140.842 19.0986 145.692 19.4385C150.542 19.7756 154.038 21.4693 154.038 21.4693ZM154.038 21.4693C154.038 21.4693 154.937 19.1041 159.698 18.2965C164.458 17.4875 169.606 18.6542 169.606 18.6542C168.654 16.9179 167.557 14.3877 162.773 12.4325C157.988 10.4774 153.699 12.2467 153.699 12.2467C153.699 12.2467 153.389 9.938 149.909 7.68712C144.258 4.03155 129.31 1.8519 126.43 1.6994C123.548 1.54393 128.587 3.4 130.608 4.55161C132.903 5.86005 135.473 8.07936 135.692 10.1871C135.749 10.754 135.617 11.2493 135.361 11.6579C135.16 11.0691 134.733 10.3164 133.986 9.35746C129.893 4.09754 119.504 1.8232 111.711 2.3432C103.918 2.86191 97.7261 5.81189 97.7261 5.81189C97.8142 6.53009 94.8519 9.04529 86.6791 9.94371C78.8917 10.7995 73.3977 9.37549 71.4178 9.08378C71.3668 9.07003 71.3159 9.05765 71.2692 9.05353C70.467 8.95309 69.8658 8.99023 69.614 9.56675C69.603 9.59287 69.5947 9.61903 69.5865 9.64791C69.581 9.68094 69.5755 9.71672 69.5699 9.75246C69.5356 10.1542 69.7832 10.7087 69.7832 10.7087C69.7364 10.622 69.6979 10.5491 69.6676 10.4913C70.2235 11.5576 73.5379 17.6625 77.9009 20.7968C77.9009 20.7968 80.5096 20.2451 83.6052 19.9135C83.6052 19.9135 35.7716 43.1919 16.3906 79.5657C24.8371 78.5764 35.9459 77.9408 48.0089 79.0002C47.969 78.9961 47.9401 78.9933 47.9264 78.992H47.9195C49.6613 76.0654 58.4009 59.7023 79.1846 49.6487C79.1846 49.6487 63.8174 60.3338 58.3553 80.3238C65.3048 81.5043 72.4016 83.3329 79.3512 86.0365C101.691 94.7445 120.522 103.846 141.747 103.658L145.359 103.501C145.356 103.494 145.353 103.488 145.351 103.481C139.711 91.7301 134.158 86.3558 134.158 86.3558C138.356 87.1097 141.747 85.9155 141.809 85.8921C142.127 85.7793 142.399 85.6637 142.625 85.5605C149.569 81.818 150.729 75.4822 151.297 70.9432C151.953 65.6942 151.019 62.3358 151.019 62.3358C151.019 62.3358 163.035 46.5626 166.089 34.1481C166.089 34.1481 166.795 31.9027 166.392 29.6051M147.835 51.0177C147.835 51.0177 150.09 46.0577 149.076 39.9666C149.076 39.9666 144.79 38.3885 137.007 39.9666C137.007 39.9666 133.285 48.3115 128.55 52.373C128.55 52.373 132.159 43.9128 130.015 37.5976C130.015 37.5976 136.556 35.004 144.566 35.5681C152.572 36.1309 154.376 37.8218 154.376 37.8218C154.376 37.8218 152.347 47.4102 147.835 51.0177ZM142.665 68.4996C146.39 65.7809 145.987 60.4438 145.987 60.4438C146.894 62.5585 147.398 65.379 146.894 67.3934C146.39 69.4076 145.082 71.4192 139.642 71.9242C134.205 72.4264 131.085 70.7162 131.085 70.7162C133.501 68.2988 135.852 61.7538 135.852 61.7538C137.059 66.3863 136.03 68.534 136.03 68.534C138.649 69.3403 142.665 68.4996 142.665 68.4996ZM151.229 67.6204C152.541 77.1925 144.031 81.2099 139.302 81.2099C134.573 81.2099 128.071 79.2011 125.59 71.1632C123.107 63.1239 123.107 53.1941 126.299 48.347C126.299 48.347 124.172 57.9218 125.354 63.3605C126.535 68.7967 128.782 73.4085 133.156 74.2353C137.529 75.0636 144.031 74.8269 146.396 72.1068C148.759 69.3895 149.704 65.4876 147.342 60.1683C144.976 54.8477 140.249 47.9916 148.06 41.1439C148.06 41.1439 144.623 45.2716 145.922 51.3019C147.223 57.3311 149.917 58.0492 151.23 67.6197L151.229 67.6204ZM120.681 28.0335C102.87 25.5789 88.2626 29.2209 88.2626 29.2209C102.607 24.5966 115.655 25.1744 122.084 25.9119C121.483 26.648 121.023 27.3593 120.683 28.0335H120.681ZM119.846 32.4638C102.437 31.2599 88.6324 35.5237 88.6324 35.5237C101.185 30.6985 112.935 30.0629 119.913 30.2529C119.752 31.0949 119.759 31.8405 119.846 32.4638ZM90.5243 57.6409C83.8775 49.4848 86.6759 38.5918 86.6759 38.5918C86.6759 38.5918 86.9236 47.9342 95.0798 56.1922C103.236 64.4489 113.36 66.6873 113.36 66.6873C113.36 66.6873 97.1711 65.7971 90.5243 57.6409ZM126.292 22.1445C125.379 22.7802 124.588 23.4062 123.903 24.0199C104.84 19.5165 88.1719 22.7086 88.1719 22.7086C108.812 17.2947 126.293 22.1445 126.293 22.1445H126.292ZM111.427 12.1641C111.429 12.1641 111.43 12.1628 111.432 12.1628C111.433 12.1616 111.434 12.1616 111.437 12.16C111.723 12.0376 117.525 9.61187 123.448 10.9603C129.524 12.343 133.293 16.4611 133.293 16.4611C133.293 16.4611 127.839 14.8279 117.725 15.004C117.725 15.004 117.33 14.2666 118.369 12.7284C118.369 12.7284 116.75 12.255 111.426 12.1656L111.427 12.1641ZM156.174 13.8509C159.279 13.2304 162.117 14.8278 163.449 16.0688C163.449 16.0688 156.263 14.7384 152.891 17.8437C152.891 17.8437 153.069 14.4728 156.173 13.851L156.174 13.8509Z" stroke="black" stroke-width="0.312495"/>
<path d="M190.431 37.5679C183.406 33.7361 175.438 32.5445 169.329 32.3064C169.559 31.5318 169.838 30.548 170.108 29.4872C170.246 29.479 170.341 29.4721 170.341 29.4721C182.586 29.0703 189.059 32.3105 189.059 32.3105L188.443 31.8358C182.476 29.0703 176.168 28.0618 170.709 27.905L170.486 27.9062C170.676 27.0573 170.921 25.3333 170.969 25.3361L171.096 25.3416C180.516 25.4393 185.658 27.6723 185.658 27.6723L185.04 27.1866C180.365 25.193 175.587 24.2904 171.112 23.9917C171.139 22.2498 170.848 20.8133 170.188 19.5724C173.641 16.5743 174.918 12.0065 175.101 10.2025C175.101 10.2025 175.101 10.2013 175.102 10.2013V10.1971C175.118 10.1366 175.148 9.97148 175.152 9.93845C175.157 9.9027 175.162 9.86829 175.164 9.83526C175.173 9.77198 175.175 9.71283 175.175 9.65639C175.175 9.62339 175.175 9.59312 175.174 9.56284C175.171 9.50918 175.164 9.45828 175.158 9.40737C175.152 9.37987 175.149 9.35371 175.144 9.32618C175.131 9.27943 175.12 9.23402 175.105 9.19137C175.097 9.16796 175.089 9.1446 175.081 9.12394C175.064 9.08129 175.043 9.04141 175.023 9.00563C175.01 8.98498 175.002 8.96572 174.99 8.94647C174.966 8.91069 174.944 8.87904 174.918 8.84601C174.903 8.83089 174.892 8.81301 174.878 8.79785C174.852 8.7676 174.825 8.74145 174.794 8.71395C174.781 8.70017 174.765 8.68642 174.75 8.67405C174.72 8.64927 174.688 8.62726 174.658 8.60386C174.643 8.59286 174.628 8.58186 174.613 8.57223C174.58 8.55295 174.548 8.53369 174.515 8.51719C174.499 8.50891 174.485 8.49929 174.471 8.49104C174.437 8.47454 174.404 8.46077 174.371 8.44702C174.357 8.44152 174.342 8.43463 174.327 8.42913C174.295 8.41535 174.265 8.40574 174.232 8.39474C174.218 8.39061 174.206 8.38511 174.192 8.38236C174.159 8.37136 174.131 8.36307 174.101 8.35619C174.093 8.35338 174.079 8.3507 174.069 8.34932C174.039 8.34107 174.014 8.33558 173.988 8.33145C173.98 8.3302 173.972 8.32732 173.963 8.32594C173.939 8.32178 173.919 8.31767 173.897 8.31492C173.893 8.31492 173.885 8.31368 173.881 8.31211C173.834 8.30661 173.807 8.30523 173.807 8.30523C167.842 8.36988 162.939 6.3446 162.939 6.3446C162.805 6.29507 162.672 6.24829 162.537 6.20014C149.266 1.34334 135.493 -0.0463295 123.228 0.17648L123.224 0.164101C117.748 0.213632 113.748 0.663533 113.748 0.663533C96.1409 2.15223 83.5186 6.36939 83.5186 6.36939C83.5186 6.36939 78.7265 7.72186 72.345 7.40402C72.345 7.40402 69.9758 7.36275 69.508 8.86936C69.1062 9.82972 69.0526 10.9731 69.9551 13.4758C70.9953 16.3611 75.1572 21.7848 75.1891 21.826C62.5924 26.9353 29.796 45.3319 0.412109 82.3188C0.412109 82.3188 6.62139 80.705 16.3859 79.5616V79.5604C35.7666 43.1859 83.6005 19.9081 83.6005 19.9081C80.5048 20.2397 77.8962 20.7914 77.8962 20.7914C73.5332 17.6571 70.2189 11.5525 69.6629 10.486C69.6932 10.5438 69.7317 10.6167 69.7785 10.7034C69.7785 10.7034 69.5309 10.1489 69.5652 9.74712C69.5694 9.71137 69.5749 9.67558 69.5818 9.64254C69.59 9.61367 69.5983 9.58753 69.6093 9.56141C69.8611 8.98488 70.4623 8.94775 71.2645 9.04819C71.3112 9.05231 71.3621 9.06469 71.413 9.07844C73.3929 9.37015 78.8867 10.7942 86.6744 9.93837C94.8471 9.03995 97.8092 6.52466 97.7214 5.80654C97.7214 5.80654 103.913 2.85666 111.706 2.33785C119.499 1.8178 129.888 4.0921 133.981 9.35212C134.729 10.3111 135.155 11.0637 135.356 11.6526C135.612 11.244 135.744 10.7486 135.688 10.1818C135.469 8.07393 132.899 5.85468 130.604 4.54626C128.582 3.39466 123.544 1.53859 126.425 1.69406C129.306 1.84677 144.253 4.02616 149.904 7.68176C153.384 9.9327 153.695 12.2414 153.695 12.2414C153.695 12.2414 157.983 10.472 162.769 12.4271C167.553 14.3822 168.649 16.9124 169.601 18.6489C169.601 18.6489 169.096 13.5871 164.773 10.3178C164.773 10.3178 165.844 10.3109 167.536 10.1747C167.562 10.1719 167.588 10.1706 167.615 10.1678C167.799 10.1527 167.989 10.1362 168.184 10.1169C168.235 10.1128 168.287 10.1073 168.338 10.1031C168.41 10.0963 168.477 10.0894 168.55 10.0825L168.549 10.0812C169.86 9.95054 171.422 9.74689 173.108 9.42496C174.266 9.33277 174.816 9.39056 175.091 10.1817C175.094 10.1845 175.094 10.1886 175.095 10.1927C175.076 10.2656 175.057 10.3427 175.031 10.4211C175.002 10.5133 174.967 10.6082 174.925 10.7087C174.925 10.7087 173.14 16.0526 169.822 18.4604L169.601 18.6489C169.601 18.6489 164.453 17.4822 159.694 18.2912C154.932 19.0988 154.034 21.4639 154.034 21.4639C154.034 21.4639 159.819 23.5842 160.529 28.046C161.24 32.5094 158.501 35.9575 156.981 36.9715C156.981 36.9715 163.471 34.4344 163.167 28.1479C163.068 26.1061 162.07 24.6848 160.768 23.6983C160.77 23.6995 160.771 23.6995 160.771 23.6995C160.771 23.6995 162.64 24.2801 163.678 25.2584C164.155 25.7083 164.677 26.1747 165.144 26.7677C165.689 27.4804 165.869 27.9345 165.87 27.9345C166.094 28.4092 166.275 28.9568 166.388 29.5993C166.791 31.897 166.085 34.1424 166.085 34.1424C163.03 46.5569 151.015 62.3301 151.015 62.3301C151.016 62.3288 151.019 62.3272 151.02 62.3259C160.104 54.577 166.159 40.865 168.809 33.9595C183.132 34.115 190.957 38.101 190.957 38.101L190.425 37.5617" fill="#0085CA"/>
<path d="M190.431 37.5679C183.406 33.7361 175.438 32.5445 169.329 32.3064M169.329 32.3064C169.329 32.3064 169.317 32.3076 169.292 32.3076M169.329 32.3064C169.559 31.5318 169.838 30.548 170.108 29.4872C170.246 29.479 170.341 29.4721 170.341 29.4721C182.586 29.0703 189.059 32.3105 189.059 32.3105L188.443 31.8358C182.476 29.0703 176.168 28.0618 170.709 27.905L170.486 27.9062C170.676 27.0573 170.921 25.3333 170.969 25.3361L171.096 25.3416C180.516 25.4393 185.658 27.6723 185.658 27.6723L185.04 27.1866C180.365 25.193 175.587 24.2904 171.112 23.9917C171.139 22.2498 170.848 20.8133 170.188 19.5724C173.641 16.5743 174.918 12.0065 175.101 10.2025C175.101 10.2025 175.101 10.2013 175.102 10.2013V10.1971C175.118 10.1366 175.148 9.97148 175.152 9.93845C175.157 9.9027 175.162 9.86829 175.164 9.83526C175.173 9.77198 175.175 9.71283 175.175 9.65639C175.175 9.62339 175.175 9.59312 175.174 9.56284C175.171 9.50918 175.164 9.45828 175.158 9.40737C175.152 9.37987 175.149 9.35371 175.144 9.32618C175.131 9.27943 175.12 9.23402 175.105 9.19137C175.097 9.16796 175.089 9.1446 175.081 9.12394C175.064 9.08129 175.043 9.04141 175.023 9.00563C175.01 8.98498 175.002 8.96572 174.99 8.94647C174.966 8.91069 174.944 8.87904 174.918 8.84601C174.903 8.83089 174.892 8.81301 174.878 8.79785C174.852 8.7676 174.825 8.74145 174.794 8.71395C174.781 8.70017 174.765 8.68642 174.75 8.67405C174.72 8.64927 174.688 8.62726 174.658 8.60386C174.643 8.59286 174.628 8.58186 174.613 8.57223C174.58 8.55295 174.548 8.53369 174.515 8.51719C174.499 8.50891 174.485 8.49929 174.471 8.49104C174.437 8.47454 174.404 8.46077 174.371 8.44702C174.357 8.44152 174.342 8.43463 174.327 8.42913C174.295 8.41535 174.265 8.40574 174.232 8.39474C174.218 8.39061 174.206 8.38511 174.192 8.38236C174.159 8.37136 174.131 8.36307 174.101 8.35619C174.093 8.35338 174.079 8.3507 174.069 8.34932C174.039 8.34107 174.014 8.33558 173.988 8.33145C173.98 8.3302 173.972 8.32732 173.963 8.32594C173.939 8.32178 173.919 8.31767 173.897 8.31492C173.893 8.31492 173.885 8.31368 173.881 8.31211C173.834 8.30661 173.807 8.30523 173.807 8.30523C167.842 8.36988 162.939 6.3446 162.939 6.3446C162.805 6.29507 162.672 6.24829 162.537 6.20014C149.266 1.34334 135.493 -0.0463295 123.228 0.17648L123.224 0.164101C117.748 0.213632 113.748 0.663533 113.748 0.663533C96.1409 2.15223 83.5186 6.36939 83.5186 6.36939C83.5186 6.36939 78.7265 7.72186 72.345 7.40402C72.345 7.40402 69.9758 7.36275 69.508 8.86936C69.1062 9.82972 69.0526 10.9731 69.9551 13.4758C70.9953 16.3611 75.1572 21.7848 75.1891 21.826C62.5924 26.9353 29.796 45.3319 0.412109 82.3188C0.412109 82.3188 6.62139 80.705 16.3859 79.5616V79.5604C35.7666 43.1859 83.6005 19.9081 83.6005 19.9081C80.5048 20.2397 77.8962 20.7914 77.8962 20.7914C73.5332 17.6571 70.2189 11.5525 69.6629 10.486C69.6932 10.5438 69.7317 10.6167 69.7785 10.7034C69.7785 10.7034 69.5309 10.1489 69.5652 9.74712C69.5694 9.71137 69.5749 9.67558 69.5818 9.64254C69.59 9.61367 69.5983 9.58753 69.6093 9.56141C69.8611 8.98488 70.4623 8.94775 71.2645 9.04819C71.3112 9.05231 71.3621 9.06469 71.413 9.07844C73.3929 9.37015 78.8867 10.7942 86.6744 9.93837C94.8471 9.03995 97.8092 6.52466 97.7214 5.80654C97.7214 5.80654 103.913 2.85666 111.706 2.33785C119.499 1.8178 129.888 4.0921 133.981 9.35212C134.729 10.3111 135.155 11.0637 135.356 11.6526C135.612 11.244 135.744 10.7486 135.688 10.1818C135.469 8.07393 132.899 5.85468 130.604 4.54626C128.582 3.39466 123.544 1.53859 126.425 1.69406C129.306 1.84677 144.253 4.02616 149.904 7.68176C153.384 9.9327 153.695 12.2414 153.695 12.2414C153.695 12.2414 157.983 10.472 162.769 12.4271C167.553 14.3822 168.649 16.9124 169.601 18.6489M169.601 18.6489C169.601 18.6489 169.096 13.5871 164.773 10.3178C164.773 10.3178 165.844 10.3109 167.536 10.1747C167.562 10.1719 167.588 10.1706 167.615 10.1678C167.799 10.1527 167.989 10.1362 168.184 10.1169C168.235 10.1128 168.287 10.1073 168.338 10.1031C168.41 10.0963 168.477 10.0894 168.55 10.0825L168.549 10.0812C169.86 9.95054 171.422 9.74689 173.108 9.42496C174.266 9.33277 174.816 9.39056 175.091 10.1817C175.094 10.1845 175.094 10.1886 175.095 10.1927C175.076 10.2656 175.057 10.3427 175.031 10.4211C175.002 10.5133 174.967 10.6082 174.925 10.7087C174.925 10.7087 173.14 16.0526 169.822 18.4604L169.601 18.6489ZM169.601 18.6489C169.601 18.6489 164.453 17.4822 159.694 18.2912C154.932 19.0988 154.034 21.4639 154.034 21.4639C154.034 21.4639 159.819 23.5842 160.529 28.046C161.24 32.5094 158.501 35.9575 156.981 36.9715C156.981 36.9715 163.471 34.4344 163.167 28.1479C163.068 26.1061 162.07 24.6848 160.768 23.6983C160.77 23.6995 160.771 23.6995 160.771 23.6995C160.771 23.6995 162.64 24.2801 163.678 25.2584C164.155 25.7083 164.677 26.1747 165.144 26.7677C165.689 27.4804 165.869 27.9345 165.87 27.9345C166.094 28.4092 166.275 28.9568 166.388 29.5993C166.791 31.897 166.085 34.1424 166.085 34.1424C163.03 46.5569 151.015 62.3301 151.015 62.3301C151.016 62.3288 151.019 62.3272 151.02 62.3259C160.104 54.577 166.159 40.865 168.809 33.9595C183.132 34.115 190.957 38.101 190.957 38.101L190.425 37.5617" stroke="#0085CA" stroke-width="0.312495"/>
</g>
<defs>
<clipPath id="clip0_487_1466">
<rect width="191.07" height="103.82" fill="white"/>
</clipPath>
</defs>
</svg>
