<svg width="50" height="50" viewBox="0 0 190 127" fill="none" xmlns="http://www.w3.org/2000/svg">
<g clip-path="url(#clip0_487_1335)">
<path d="M19.9731 89.706C33.1354 81.3032 37.2756 71.8376 37.2756 71.8376L0.00195312 77.1843L15.8417 49.0537L47.6655 46.3744C47.6655 46.3744 60.0469 35.3257 79.2174 27.4038C79.2174 27.4038 81.2166 23.918 92.1648 17.617C92.1648 17.617 102.206 11.7041 113.641 7.92079C113.641 7.92079 121.391 5.25523 123.678 5.12118L123.006 2.65671L137.619 1.40475L137.996 0.00494098C137.996 0.00494098 145.624 0.519499 149.999 2.45558L150.86 1.30813C150.86 1.30813 161.069 6.00046 168.668 17.5303C168.668 17.5303 176.037 17.1202 182.634 20.2767C182.634 20.2767 189.625 23.0567 189.31 31.1717C189.31 31.1717 189.263 41.5263 186.167 51.7884C186.167 51.7884 185.692 53.3952 185.25 54.3534C185.25 54.3534 184.608 55.6606 183.368 57.3108C183.368 57.3108 179.905 60.8753 178.563 64.0143C178.563 64.0143 177.835 66.1022 176.39 69.8956C176.39 69.8956 175.278 75.1123 167.699 75.4023C167.699 75.4023 160.324 84.7357 157.248 87.415L156.988 85.1476C156.988 85.1476 151.842 89.915 147.376 92.7305L148.884 79.5169C148.884 79.5169 149.255 77.1569 147.757 76.9874L143.902 76.8947C143.902 76.8947 145.164 84.8482 143.64 88.5249C143.64 88.5249 142.67 94.2978 133.713 97.0461C133.713 97.0461 126.793 99.2484 118.875 99.8675L117.173 99.5974L104.709 104.706L108.353 91.6361C108.353 91.6361 103.682 92.1093 103.28 91.5237L89.4001 97.4738L94.8555 81.8413L98.5935 79.7711L97.4007 78.1505L89.7272 78.2195L86.9039 80.4158C80.3861 78.7183 74.0494 79.1757 74.0494 79.1757L41.7975 105.352L33.7159 123.217L24.065 110.313L27.0855 106.362L25.938 105.498L21.5632 108.94L15.0865 126.385L5.54815 112.923L8.00078 107.452L7.45861 104.1C10.2977 102.225 12.1353 100.969 13.5706 99.3564C14.3533 98.347 14.7851 97.996 15.694 96.2985C16.5516 94.2244 16.5831 91.9787 17.5394 91.2671C18.7361 90.4549 19.6509 89.9087 19.9723 89.7037" fill="white"/>
<path d="M17.6527 51.8729L5.32031 73.6064L164.446 49.8917C164.446 49.8917 158.915 45.6862 166.932 39.0362L17.6499 51.8732" fill="#C60C3D"/>
<path d="M179.181 36.0078C179.181 36.0078 166.756 44.5034 171.064 51.8316C171.064 51.8316 166.555 54.3296 171.537 57.8448C171.537 57.8448 163.836 61.3109 165.873 51.8L40.7685 70.7312C40.7685 70.7312 38.093 82.0599 20.3508 92.7873C20.3508 92.7873 19.0496 93.5503 18.9332 94.9738C18.9332 94.9738 19.0594 96.7502 17.4447 98.8992C17.4447 98.8992 15.4435 102.387 10.8084 105.352L11.1396 107.677L8.96875 112.658L14.2842 120.289L19.0927 107.308L28.6136 99.9961C28.6136 99.9961 37.9314 85.4141 53.2543 79.7065C53.2543 79.7065 66.7735 73.9377 86.5124 77.2046L88.3144 75.4755L111.167 74.9708C111.167 74.9708 112.027 75.1679 111.453 75.6332C111.453 75.6332 106.952 79.0953 102.021 79.5409L102.478 80.9466C102.478 80.9466 102.612 81.4395 102.244 81.5578L97.4565 83.4584L94.2901 92.234L103.273 88.3245L103.775 88.703C103.775 88.703 111.593 89.188 123.355 86.8083C123.355 86.8083 131.513 85.1936 133.785 74.6279L149.311 73.9496C149.311 73.9496 152.546 74.6397 152.14 77.6423L151.028 86.4454L158.13 80.1188L158.623 81.7788C158.623 81.7788 164.003 75.9528 165.383 72.6189C165.383 72.6189 171.29 72.7372 172.747 70.3496C172.747 70.3496 173.415 69.6793 175.304 64.4823C175.304 64.4823 176.189 60.8309 179.838 57.2388C179.838 57.2388 182.664 54.593 184.233 47.647C184.233 47.647 186.128 37.5802 186.112 35.6618C186.112 35.6618 188.148 25.7034 181.325 22.7698C181.325 22.7698 176.254 19.9721 166.761 20.7489C166.761 20.7489 164.868 14.1423 151.782 5.08481L150.832 6.50041C150.832 6.50041 146.361 3.42279 140.03 3.49375L139.709 4.37305C139.709 4.37305 135.862 4.34546 127.471 5.22083L128.252 7.54338C128.252 7.54338 110.947 8.34579 86.4002 24.7809L85.9527 26.1255L82.8317 27.5943L84.4976 28.5091C84.4976 28.5091 65.744 35.2813 52.0957 46.4484L179.178 36.0088" fill="#00338D"/>
<path d="M135.345 76.5813L140.714 76.5202C140.714 76.5202 141.788 83.6062 141.151 86.7664C141.151 86.7664 140.093 91.4647 135.296 93.3021C135.296 93.3021 128.23 96.293 117.635 96.9713L117.122 96.5316L109.09 99.9209L111.728 90.5797C111.728 90.5797 122.495 89.7477 125.748 88.7737C125.748 88.7737 134.095 87.1334 135.345 76.5817" fill="#00338D"/>
<path d="M69.2097 79.3529C69.2097 79.3529 50.1582 79.1242 37.1109 94.4926C37.1109 94.4926 37.0754 100.068 30.3149 103.85L30.5653 105.61L27.3535 110.036L33.0533 117.674L39.4768 103.441L69.2101 79.3526" fill="#00338D"/>
</g>
<defs>
<clipPath id="clip0_487_1335">
<rect width="189.33" height="126.38" fill="white"/>
</clipPath>
</defs>
</svg>
