<svg width="50" height="50" viewBox="0 0 193 130" fill="none" xmlns="http://www.w3.org/2000/svg">
<path d="M59.3893 9.86326C37.577 18.8871 27.6572 32.5767 23.1885 42.4653C20.3148 48.8923 17.4938 53.7137 14.3106 57.6489C11.0467 61.0461 5.08033 64.7931 1.59325 66.1142L0.941496 66.3608L0.823242 68.7362L1.72413 68.9149C6.24107 69.8132 11.8677 73.2078 13.6922 75.533C16.0376 77.8909 17.6707 79.5215 21.785 86.8166C21.8429 86.9048 23.8912 90.1484 23.8912 90.1484C25.2249 92.3931 26.6039 94.7157 30.298 98.8049C33.139 102.796 46.7453 115.35 61.5514 120.751C71.9542 125.907 85.616 128.456 103.211 128.504C129.052 128.652 148.611 123.001 166.63 110.189C174.101 104.401 176.517 102.071 182.816 94.5894C187.036 89.6018 191.623 80.8071 191.82 71.091L191.845 70.0039L155.287 69.9636L155.085 70.7739C152.114 82.7042 140.096 90.1449 133.196 93.5198C115.191 101.175 92.515 101.268 75.4815 93.7312C59.5579 85.7517 51.0918 74.9589 51.6893 63.3603C52.2957 51.5382 62.3614 40.2369 77.3289 34.5745C106.28 23.9652 134.109 33.0873 144.621 42.9566L144.928 43.2435L187.526 43.2032L186.949 41.7488C178.187 19.5415 146.5 7.02169 132.526 4.44047C101.244 -2.72131 74.2284 2.54313 59.3924 9.86078" fill="#0B162A"/>
<path d="M20.8272 54.425C23.0517 50.9096 23.9349 48.9266 25.1504 46.1788L26.4539 43.2949C30.377 34.948 36.9775 27.2977 45.5361 21.1752C53.9006 15.5712 63.1659 11.0819 70.9321 8.87002C104.679 -0.933977 139.185 7.48089 154.147 15.5284C160.061 18.2411 176.063 27.7406 182.534 40.0781H146.487C121.386 20.5509 87.5256 25.5158 70.8258 33.6663C64.0792 37.4132 60.1587 40.4355 55.2497 45.6696C47.6276 54.8948 43.5283 70.6093 56.9282 84.6941C62.9853 90.5851 69.0423 94.5761 76.5917 97.6715C94.0502 104.906 118.55 104.101 136.166 95.7086C147.419 89.8378 154.891 82.05 157.913 73.1539H188.322C187.244 80.8768 184.995 88.8637 173.464 100.026L172.181 101.176C166.597 106.216 158.945 113.124 143.997 118.58C118.502 128.472 80.3695 127.329 58.9748 116.043C58.9622 116.038 57.6311 115.366 57.6311 115.366C52.8248 112.96 46.2393 109.669 37.9426 101.954C32.1523 96.6391 28.1185 91.3873 23.0453 82.5753C17.5142 72.4543 10.5891 68.763 6.86426 67.1955C10.1105 65.5598 16.4536 61.6676 20.8272 54.425Z" fill="white"/>
<path d="M22.1401 60.0249C25.7537 56.0263 28.6073 45.7513 34.3196 37.9489C42.43 26.5168 53.1656 20.5304 61.1517 16.7104C79.419 7.76457 105.682 5.21549 131.375 11.3807C140.698 13.5901 150.024 16.9017 156.682 21.24C163.345 25.1983 171.147 30.908 175.525 36.4648H148.081C139.937 29.9574 130.992 26.7967 123 25.0831C114.056 22.8008 99.9725 21.5828 83.2252 25.5813C73.3281 28.0524 66.4779 31.4772 59.818 36.2358C46.6894 45.5617 32.2259 70.0716 57.9155 91.3876C66.2902 98.4637 73.3291 100.751 81.1315 103.454C95.5963 107.639 113.676 106.841 124.142 103.985C139.938 99.7974 145.836 94.2789 150.974 89.9025C155.733 85.3352 159.729 79.8141 160.834 76.9601L183.366 76.9224C181.803 85.3348 175.713 92.1847 169.815 97.8946C163.058 104.264 158.015 107.6 148.043 112.588C124.713 123.776 90.4571 123.396 69.3336 115.746C58.4854 111.785 55.4401 109.999 47.2577 104.327C40.5967 98.9618 36.2182 95.4211 29.9391 85.7157C27.0856 80.9572 25.7518 78.2949 22.5182 73.9188C20.2334 71.4426 18.7109 69.1577 14.7148 67.2554C18.3788 64.6886 20.3743 62.7837 22.1382 60.0257" fill="#C83803"/>
</svg>
