<svg width="50" height="50" viewBox="0 0 192 175" fill="none" xmlns="http://www.w3.org/2000/svg">
<path d="M140.758 30.5032C181.302 61.3576 150.447 65.9763 118.784 70.4825C118.784 70.4825 105.423 66.7967 82.2712 55.2953C29.7621 29.2157 46.293 16.9272 87.5623 9.49105C21.5122 -19.2834 -33.5368 30.8157 27.1921 79.5311L10.5274 91.4433C24.2159 99.8351 52.5779 117.438 48.458 144.395L34.3807 154.456L77.3712 173.937L111.294 158.564C111.541 143.636 138.223 135.881 149.704 105.514C212.903 91.0142 196.805 35.4227 140.759 30.5015" fill="white"/>
<path d="M91.8706 122.677L79.6829 108.814L65.6907 110.901L72.1583 100.246L59.9735 86.3749L76.1595 93.6597L82.6127 83.002L86.1419 98.1542L102.325 105.427L88.3269 107.519L91.8706 122.677ZM111.864 73.335C32.5316 42.6955 27.278 17.5572 76.7959 8.86988C14.867 -7.95732 -21.2561 36.9256 40.019 79.7261L23.578 91.4792C41.0365 103.142 59.5387 120.419 53.2613 147.604L44.9768 153.519L76.7963 167.943C106.408 135.51 121.895 103.997 111.864 73.3338" fill="#03202F"/>
<path d="M152.145 35.328C179.372 56.6439 160.467 70.2624 127.274 73.9623C135.672 109.36 109.923 141.782 82.6611 166.888L107.657 155.564C109.506 141.177 134.866 133.696 146.882 101.771C203.327 89.1778 194.114 48.6715 152.145 35.328Z" fill="#A71930"/>
</svg>
