<svg width="50" height="50" viewBox="0 0 197 197" fill="none" xmlns="http://www.w3.org/2000/svg">
<path d="M2.49512 98.3886C2.49512 151.063 45.3506 193.917 98.0239 193.917C150.697 193.917 193.553 151.062 193.553 98.3886C193.558 45.7143 150.703 2.85986 98.0239 2.85986C45.3546 2.85986 2.49512 45.7123 2.49512 98.3886Z" fill="black"/>
<path d="M98.0227 191.823C149.622 191.823 191.457 149.989 191.457 98.3839C191.457 46.7895 149.622 4.95508 98.0227 4.95508C46.4233 4.95568 4.58887 46.7895 4.58887 98.3889C4.58887 149.993 46.4228 191.828 98.0277 191.828" fill="#A5ACAF"/>
<path d="M98.0226 176.562C141.069 176.562 175.967 141.666 175.967 98.6184C175.967 55.574 141.072 20.6694 98.0226 20.6694C54.9732 20.6694 20.0786 55.569 20.0786 98.6134C20.0786 141.66 54.9752 176.557 98.0226 176.557" fill="white"/>
<path d="M98.4333 98.7244C99.3337 66.7994 129.491 59.3024 137.068 59.9899C118.39 58.9756 99.9553 51.0829 98.5333 21.5459C96.2802 49.0149 85.2583 56.8239 59.8613 60.0834C78.0018 61.0021 96.3673 68.1809 98.4333 98.7244Z" fill="#EEAD1E"/>
<path d="M137.173 138.239C138.073 106.314 167.701 98.4363 175.279 99.1238C156.538 98.43 138.488 89.5238 137.066 59.9893C134.816 87.4583 123.832 95.4643 98.4316 98.7238C116.572 99.6425 135.107 107.696 137.172 138.239" fill="#C60C30"/>
<path d="M98.9033 176.239C99.8016 144.308 129.598 137.551 137.178 138.239C118.5 137.222 99.8593 128.262 98.4378 98.7231C96.1847 126.195 85.4878 134.445 60.0908 137.704C78.2313 138.629 96.8348 145.701 98.9033 176.239Z" fill="#00539B"/>
<path d="M35.4523 86.9087C34.7147 86.9137 33.9638 87.0707 33.2614 87.3789C32.4169 87.7485 31.8322 88.4189 31.4196 89.1538C31.007 89.8973 30.7749 90.4881 30.7233 91.3369C30.6159 93.1291 31.512 95.0179 33.1989 96.0709C34.3808 96.8101 35.2467 96.9069 36.2502 97.8717C36.7831 98.3789 36.7404 99.6962 36.5685 99.9992C36.0807 100.863 34.8127 100.545 34.5011 100.218C34.1874 99.8896 34.0501 98.7054 34.1124 98.237L30.7662 98.2565C30.6373 99.7306 30.7387 100.638 31.1856 101.637C31.639 102.655 32.275 103.038 33.1002 103.433C34.8924 104.284 37.3099 104.213 39.0547 102.584C39.4823 102.187 39.6367 101.72 39.6367 101.72C40.0428 100.734 40.4965 99.6167 40.1807 97.816C40.0324 96.9736 39.6669 96.2839 39.48 96.0196C38.859 95.1429 38.3989 94.7453 36.7377 93.9351C36.7764 93.9351 36.2135 93.6944 36.2543 93.6944C34.4965 93.1335 33.7983 92.0593 34.3442 90.9161C34.645 90.2801 35.7837 90.0263 36.2866 90.484C36.6261 90.7956 36.7035 91.4616 36.7314 91.9752L37.9028 91.9669H40.0556C40.1007 90.4842 39.7828 89.6501 39.4647 89.0914C38.6329 87.6229 37.0753 86.8979 35.4523 86.9087ZM63.9023 87.2153V103.689H67.0591V87.2243L63.9023 87.2153ZM44.8978 89.1084L41.7646 90.8277V91.9063L40.5248 91.9453L40.5375 94.6441L41.7065 94.6055L41.7304 100.809C41.7433 104.103 44.5666 103.596 46.0581 103.633L46.0606 100.13C44.7971 100.15 44.9107 99.8981 44.9107 99.2684V94.6654L46.1163 94.685L46.1036 91.9195L44.9107 91.9454L44.8978 89.1084ZM86.5653 91.7559C86.0334 91.7637 85.4996 91.8762 85.0033 92.1173C84.5263 92.3472 84.178 92.2975 83.3808 93.2838C83.0026 93.7501 82.8953 94.4421 82.8588 95.0416C82.7835 96.3094 83.2025 97.9813 84.9281 98.4176C85.8929 98.6604 86.9912 98.7873 87.5048 99.5631C87.7863 99.9864 87.7044 100.162 87.5776 100.487C87.397 100.947 86.3723 100.941 85.9619 100.779C85.5558 100.625 85.3022 100.15 85.3559 99.7393L82.7299 99.7564C82.7793 100.771 82.788 101.385 83.1747 102.135C83.5486 102.862 84.3026 103.39 84.9945 103.601C86.4042 104.028 87.9558 103.953 89.1053 103.244C89.3159 103.113 89.9071 102.575 90.1478 102.144C90.5432 101.422 90.7773 100.498 90.4227 99.2855C90.2551 98.701 90.2379 98.6347 90.1326 98.4305C89.5073 97.2379 88.7035 97.0058 87.8719 96.7264C87.8998 96.7264 87.0983 96.5414 87.1263 96.5414C85.6608 96.3759 85.5706 95.5468 85.764 94.9838C85.9252 94.5175 86.2968 94.3627 86.7781 94.3627C87.1864 94.3672 87.5881 94.6527 87.6634 94.9535C87.715 95.1684 87.7088 95.4156 87.7088 95.6971L90.425 95.7098C90.4035 94.6526 90.2099 93.5565 89.6189 92.9613C88.895 92.2271 87.7355 91.7388 86.5653 91.7559ZM81.5393 91.814C80.5035 92.0461 80.2285 92.5277 79.7708 93.3335L79.7576 91.8657L76.7151 91.898V103.588H79.8156V96.8125C79.8499 96.1076 79.6761 95.1897 82.2956 95.3745V91.814L81.5393 91.814ZM50.6943 91.92C50.0677 91.9074 49.3858 92.0485 48.5058 92.4332C47.4743 93.1122 46.877 94.0447 46.935 95.1149V100.818C46.993 102.232 47.6058 103.235 48.8671 103.697C49.8255 103.902 50.8523 104.209 52.4941 103.697C54.0413 103.165 54.4215 102.17 54.3979 101.254L54.3916 99.8767L51.8153 99.8898V100.223C51.7573 101.544 49.4663 101.33 49.4599 100.281L49.4643 98.6735H54.3978V95.0548C54.3827 93.8664 53.8156 93.0154 52.5521 92.3278C51.8924 92.0989 51.321 91.9326 50.6943 91.92ZM59.2473 91.92C58.6209 91.9074 57.9394 92.0485 57.0583 92.4332C56.0268 93.1122 55.4295 94.0447 55.4875 95.1149V100.818C55.5456 102.232 56.1577 103.235 57.4192 103.697C58.3797 103.902 59.4049 104.209 61.0467 103.697C62.5939 103.165 62.972 102.17 62.9505 101.254L62.9441 99.8767L60.3674 99.8898V100.223C60.3094 101.544 58.0188 101.33 58.0124 100.281L58.0169 98.6735H62.9504V95.0548C62.9353 93.8664 62.3682 93.0154 61.1047 92.3278C60.445 92.0989 59.8737 91.9326 59.2473 91.92ZM71.8048 91.92C71.1784 91.9074 70.4974 92.0485 69.6163 92.4332C68.5827 93.1122 67.9875 94.0447 68.0455 95.1149V100.818C68.1036 102.232 68.7158 103.235 69.9772 103.697C70.9377 103.902 71.9629 104.209 73.6047 103.697C75.1519 103.165 75.5318 102.17 75.5061 101.254L75.5021 99.8767L72.9236 99.8898V100.223C72.8677 101.544 70.5768 101.33 70.5725 100.281L70.5617 98.6735H75.5085V95.0548C75.4956 93.8664 74.9261 93.0154 73.6647 92.3278C73.0029 92.0989 72.4312 91.9326 71.8048 91.92ZM50.6448 94.6055C51.3783 94.5693 52.1632 95.1532 51.9075 96.2388L49.5736 96.2301C49.3902 95.1523 49.9976 94.6375 50.6448 94.6055ZM59.1968 94.6055C59.9303 94.5693 60.7152 95.1532 60.4595 96.2388L58.126 96.2301C57.9427 95.1523 58.5496 94.6375 59.1968 94.6055ZM71.7548 94.6055C72.4883 94.5693 73.2732 95.1532 73.0175 96.2388L70.684 96.2301C70.5007 95.1523 71.1076 94.6375 71.7548 94.6055Z" fill="black"/>
</svg>
