<svg width="50" height="50" viewBox="0 0 193 146" fill="none" xmlns="http://www.w3.org/2000/svg">
<path d="M185.079 52.1617C185.079 52.1617 181.975 45.3488 173.138 39.5431C175.353 36.7036 176.211 33.2921 175.189 30.5953C174.129 27.7929 166.691 22.6753 163.889 21.2238C161.087 19.7775 157.219 17.648 157.219 17.648C157.219 17.648 147.281 11.6194 139.472 8.21304C130.058 4.11258 113.101 -1.34912 94.6604 2.54444C94.6604 2.54444 83.5938 -1.08453 63.5845 5.09785C56.5848 7.01968 44.7012 10.1789 38.0384 11.2914C28.1632 12.9383 18.1451 13.107 10.3844 13.9288C6.29455 14.3632 3.57155 13.457 2.24189 15.7632C-3.6013 25.8848 13.8225 43.0182 20.1373 45.7241C18.2673 56.2517 20.6407 68.7043 31.6908 81.1508C43.7064 94.6913 60.3308 97.2593 70.0775 104.459C81.0171 112.538 83.285 122.74 92.4227 132.287C100.83 141.071 117.263 148.561 131.984 141.388C147.952 133.606 150.849 120.617 151.427 118.179C151.617 116.934 150.897 115.673 149.292 114.9C149.021 114.773 148.486 114.508 147.782 114.137C148.418 111.594 150.039 103.944 148.439 97.2746C148.439 97.2746 143.925 103.881 140.513 107.536C139.56 106.641 135.179 102.207 135.905 96.9516C137.907 96.157 140.233 95.071 142.007 93.7361C143.03 92.9627 143.936 92.1945 144.757 91.4423C153.742 88.8677 155.76 85.1541 155.76 85.1541C156.093 86.0653 157.227 87.2307 157.227 87.2307C158.551 86.4838 160.315 85.1541 160.315 85.1541C160.485 86.2349 160.464 88.1472 160.464 88.1472C161.131 87.8982 161.783 87.8399 161.783 87.8399C161.115 91.1617 157.227 96.7927 157.227 96.7927C170.857 92.8885 176.595 82.8232 176.595 82.8232L176.59 82.7702C177.104 82.6643 177.464 82.5266 177.464 82.5266C177.464 82.5266 186.613 79.9255 190.814 70.957C195.015 61.9882 187.418 53.2946 185.077 52.1607L185.079 52.1617Z" fill="black"/>
<path d="M82.3196 21.941C83.1566 22.3012 83.8391 23.0366 84.3 23.81C83.0763 23.7199 81.848 23.652 80.6243 23.5991C81.1911 23.7951 81.5822 23.985 81.6829 24.0326C81.6829 24.0326 80.6665 23.8786 79.9778 23.8627C79.9778 23.8627 80.3223 24.0531 80.513 24.2651C80.513 24.2651 80.5498 24.6681 80.4915 24.8959C80.4385 25.129 80.3219 25.4734 80.4544 25.8548C80.5868 26.2416 80.9723 27.1003 81.0305 27.4075C81.0305 27.4075 79.856 27.3121 79.1673 27.2962C79.1673 27.2962 81.0683 28.218 81.6457 28.5676C81.6457 28.5676 81.2599 28.5464 81.011 28.5676C81.011 28.5676 80.3583 28.9495 80.2258 29.1985C80.0881 29.4474 80.2268 30.5813 79.5911 31.0793C78.9607 31.5772 78.1119 31.4595 77.8471 31.7668C77.5769 32.074 78.0014 32.4992 78.0014 32.4992C78.0014 32.4992 76.6244 32.1866 76.2006 32.1496C76.2006 32.1496 76.8563 32.811 77.2748 33.1183C77.2748 33.1183 76.7354 32.9953 76.1791 33.0694C75.6229 33.1489 73.8955 33.2815 72.9683 32.5558C72.0466 31.8248 72.5299 31.2484 72.7418 31.0206C72.9537 30.7929 73.0053 30.5001 72.3961 29.7902C71.7816 29.0804 71.8772 29.0818 71.9938 28.7004C71.9938 28.7004 74.1396 28.7053 74.9078 28.9172C74.9078 28.9172 72.815 27.7366 71.9938 27.5618C71.9938 27.5618 72.0309 27.2962 72.4918 26.9466C72.9527 26.6022 73.5664 26.3257 73.773 25.4622C73.773 25.4622 75.3212 25.7595 76.2006 25.8919C75.2417 25.5264 74.7955 24.9859 73.2222 24.5462C73.2222 24.5462 74.3186 24.4934 74.7319 24.4564C74.7319 24.4564 75.4858 24.3239 75.8354 23.9955C75.9784 23.863 76.1584 23.6946 76.3861 23.5463C73.3401 23.6046 70.3033 23.8905 67.3103 24.595C62.5318 25.7181 57.7758 26.9047 53.0078 28.0754C52.9707 28.086 52.9277 28.0961 52.8906 28.1067C53.6958 27.6034 54.396 26.8939 55.037 26.1946C53.628 26.5443 52.1974 26.8343 50.7618 27.0833C48.4204 27.4965 46.0106 27.8577 43.6214 27.72C39.6749 27.4922 35.7276 26.591 31.8818 25.7063L30.8643 25.4681C30.949 25.5263 32.2518 26.3418 32.7021 26.6067C34.5985 27.7245 36.5541 28.7428 38.6199 29.5109C39.245 29.7175 39.8645 29.9555 40.4948 30.1515C41.1941 30.3687 41.9041 30.5537 42.6139 30.7179C43.2654 30.8662 43.9276 30.9825 44.5845 31.0831C45.7605 31.2579 46.9584 31.3278 48.1449 31.296C49.3421 31.2695 50.5338 31.105 51.715 30.8878C53.0818 30.6336 54.4385 30.3371 55.7735 29.9504C55.996 29.8921 56.2125 29.8225 56.4297 29.759C58.2733 29.1922 60.0577 28.3767 61.7791 27.4973C62.2294 27.2748 62.6812 27.0463 63.1209 26.8079C63.1368 26.8026 63.1469 26.7937 63.1521 26.7884C63.1627 26.7884 63.1728 26.782 63.1834 26.7767C63.1569 26.8085 59.9831 29.4421 58.4257 30.3956C58.0867 30.6022 57.7422 30.8076 57.3926 31.0089C56.8257 31.332 56.2429 31.6399 55.6602 31.9366C55.1623 32.1962 54.6655 32.4347 54.1623 32.6573C53.8974 32.7738 53.6317 32.8853 53.3615 32.9912C53.3457 32.9965 53.3364 33.0074 53.3205 33.0127C53.1828 33.0816 53.0437 33.1553 52.9006 33.2295C51.9895 33.7963 51.0571 34.3266 50.0823 34.7821C50.0717 34.7874 50.0572 34.791 50.0413 34.8017C49.7181 34.9553 49.3952 35.1039 49.0667 35.247C49.0614 35.2523 49.0506 35.2534 49.0453 35.2587C49.0347 35.264 49.0285 35.2632 49.0179 35.2685C48.1333 35.6552 47.2219 36.0059 46.3266 36.3289C45.6114 36.5779 44.8918 36.8151 44.1607 37.0164C38.9851 38.5315 35.827 38.4949 35.827 38.4949C36.1766 38.6538 36.6484 38.796 37.0828 38.8913C38.6403 39.241 42.3709 39.5708 42.5455 39.6237C42.5614 39.6184 42.5715 39.6173 42.5768 39.612C42.5662 39.6226 42.4695 39.7288 42.2682 39.9089C39.9374 42.0437 36.9607 43.3367 33.9306 44.1685C32.299 44.6135 30.6315 44.9365 28.9523 45.1431C28.6927 45.1749 28.4379 45.2006 28.173 45.2271C28.0671 45.2642 27.9925 45.3133 27.966 45.3716C27.1396 47.9514 27.114 50.7377 27.257 53.4182C27.3365 54.8592 27.5111 56.2938 27.7707 57.7189C27.776 57.7242 27.7746 57.735 27.7746 57.7403C27.96 57.5549 28.1824 57.3532 28.4367 57.1466C28.4367 57.1466 29.2057 56.5106 30.546 56.3146C30.546 56.3146 30.5298 56.2937 30.4874 56.2619C30.4715 56.246 30.45 56.2251 30.4288 56.2092C30.1428 55.9655 29.7042 55.8436 29.3176 55.7853C29.2116 55.7588 29.1108 55.7491 29.0207 55.7385C29.0472 55.7385 29.1369 55.7167 29.2746 55.6955C30.1116 55.5207 31.1026 55.3664 31.9132 55.5412C31.9344 55.5412 31.9506 55.5423 31.9718 55.5529C32.4644 55.6642 32.8983 55.9924 33.1632 56.4162C33.1896 56.4638 33.2103 56.5066 33.2315 56.549C33.2633 56.6073 33.2904 56.6646 33.3116 56.7228C33.3169 56.7387 33.3219 56.7552 33.3272 56.7658C33.3484 56.824 33.3694 56.8872 33.3799 56.9455C33.3958 57.0037 33.4065 57.063 33.4171 57.1212C33.4171 57.1318 33.423 57.1478 33.423 57.1583C33.4283 57.2166 33.4328 57.2797 33.4328 57.338C33.4328 57.5552 33.3914 57.772 33.296 57.9786C32.9782 58.6832 32.3996 60.0286 32.3996 60.5371C32.3996 60.7702 31.1974 61.6071 30.8742 61.9355C30.8531 61.9567 30.8374 61.9782 30.8215 61.9941C30.8533 61.9941 30.8913 61.9882 30.9231 61.9882C30.9443 61.9829 30.9747 61.9837 31.0012 61.9784C31.3561 61.9466 31.7068 61.8827 32.0617 61.8456C32.2577 61.8297 32.4362 61.8143 32.5792 61.8143H32.5968C32.5968 61.8143 33.4226 63.3492 34.0635 63.863C34.7045 64.3716 35.2757 65.459 35.4717 66.2907C35.477 66.2907 35.4879 66.2946 35.4932 66.2946C35.5726 66.2999 35.6635 66.275 35.7588 66.2379C35.7694 66.2326 35.7794 66.2262 35.79 66.2262C35.8218 66.2156 35.859 66.2005 35.9014 66.1793C36.0126 66.1316 36.1079 66.0839 36.1396 66.068C36.2615 66.0203 36.3791 65.9667 36.501 65.9137C36.6016 65.866 36.7175 65.8034 36.8447 65.7399C36.8553 65.7346 36.8653 65.7296 36.8759 65.7243C36.8759 65.7243 35.668 67.5024 34.2588 68.3394C34.3489 68.3552 35.4721 68.5211 36.0283 68.2827C36.0336 68.2827 36.0386 68.2768 36.0439 68.2768C36.0439 68.2768 36.1407 70.4002 34.0694 72.6888C33.9263 72.8477 35.6105 74.8462 36.6435 76.0167C36.6859 76.0644 36.7236 76.1058 36.7607 76.1535C36.7924 76.1905 36.8293 76.2271 36.8505 76.2589C36.93 76.349 37.009 76.4336 37.0673 76.4972C37.1309 76.5767 37.1775 76.6309 37.204 76.6574C37.2782 76.5938 37.8462 76.1067 38.1376 75.8683C38.6408 75.4657 39.1649 75.0899 39.7 74.7297C40.2032 74.3853 41.3679 73.7649 41.3679 73.7649C41.3732 73.7649 41.3783 73.7585 41.3836 73.7531C41.4418 73.2287 41.618 72.9269 41.7664 72.7415C41.9624 72.4978 42.259 72.4451 42.5027 72.302C42.6033 72.2438 42.7151 72.1803 42.821 72.0638C42.8581 72.0267 42.8933 71.9839 42.9304 71.931C42.9516 71.8992 42.9736 71.8685 42.9948 71.8314C43.0213 71.789 43.0479 71.7417 43.0691 71.6888C43.0902 71.6464 43.1059 71.6042 43.1218 71.5618C43.18 71.4294 43.2323 71.2701 43.28 71.0794C43.3648 70.7563 43.6354 70.4545 43.6354 70.4545C43.6301 70.4545 43.6198 70.4486 43.6198 70.4486C43.249 70.3108 42.8729 70.194 42.4968 70.0775C41.8982 69.8974 41.2897 69.7381 40.6805 69.5951C40.2779 69.4997 39.8692 69.405 39.456 69.3256C42.6344 67.2224 46.1518 65.6549 49.7696 64.4312C50.9773 64.0233 53.541 63.2926 53.541 63.2926C53.1807 62.9588 52.8266 62.5663 52.6465 62.2008C52.1962 61.3056 52.9634 59.9595 53.2812 59.4509C53.6044 58.9371 53.0273 58.6189 53.0273 58.6189C53.5411 58.2322 53.9238 57.5974 53.9238 57.5974C53.9132 57.5974 53.907 57.6033 53.8964 57.6033C52.7575 57.8523 51.6875 57.9158 51.6875 57.9158L51.6816 57.9099C51.0459 57.4014 50.7928 56.3156 50.9199 55.7381C51.047 55.166 51.3007 54.2655 51.3007 54.2655H51.2793C51.0674 54.2866 50.8344 54.27 50.6172 54.2381C50.2464 54.1904 49.9227 54.1011 49.8379 54.0799L49.834 54.074C52.2602 53.7562 53.4726 52.8612 53.4726 52.8612C53.462 52.8612 53.4519 52.8671 53.4413 52.8671C52.8003 52.9889 51.6875 53.0526 51.6875 53.0526V53.0467C51.6981 52.9778 51.7777 52.3309 52.2597 52.0076C52.4399 51.8858 52.8153 51.8855 53.2656 51.9491C53.5199 51.9861 53.7954 52.0403 54.0761 52.1092C54.2085 52.141 54.3421 52.1717 54.4746 52.2088C54.9619 52.3412 55.4279 52.4843 55.7616 52.5955C55.7722 52.5955 55.7725 52.6014 55.7831 52.6014C56.7419 52.9246 57.1912 54.201 57.1912 54.201C57.4508 55.0273 57.8595 55.6256 58.3416 56.0759C58.3469 56.0812 58.3519 56.0876 58.3572 56.0876C58.5797 56.2836 58.8172 56.4524 59.0662 56.5954C59.1616 56.659 59.263 56.7132 59.3689 56.7556C59.4696 56.8032 59.5696 56.8499 59.6755 56.8923C59.9828 57.0194 60.2954 57.1194 60.5974 57.1989C60.7934 57.2519 60.9901 57.3005 61.1755 57.3376C61.2708 57.3588 61.3667 57.3789 61.4567 57.4001C61.6262 57.4372 61.7785 57.5008 61.9215 57.5856C62.3506 57.8293 62.6627 58.2748 62.8746 58.7145C64.5645 58.5344 66.2666 58.3855 67.9564 58.2848C67.7446 58.0359 67.5165 57.8042 67.2729 57.5817C65.5724 56.0137 63.1931 55.0074 61.0583 54.324C65.3068 53.7572 69.6031 53.5876 73.8779 53.4393C76.3253 53.3492 78.7732 53.29 81.2155 53.2635C80.7016 52.8344 79.9921 52.5853 79.3777 52.3417C80.8132 52.1774 82.311 52.3158 83.7466 52.4217C82.5229 51.8072 81.1352 51.4569 79.8268 51.0702C78.9051 50.8 77.9786 50.5404 77.0515 50.2968C77.0674 50.2968 77.1152 50.3027 77.1629 50.3027C77.147 50.2974 77.1299 50.2963 77.114 50.291C77.7391 50.3439 78.3812 50.4031 79.0222 50.4667C79.1281 50.472 79.2282 50.4835 79.3288 50.4941C82.9892 50.8808 86.6401 51.2935 90.2794 51.7967C94.8722 52.4324 99.439 53.2047 103.984 54.1052C108.121 54.9263 112.248 55.9447 116.337 56.9723C118.064 57.4067 119.781 57.8613 121.497 58.3434C118.706 57.5382 115.643 56.7273 112.316 55.9275C110.134 53.8779 107.983 51.823 105.674 49.9375C100.392 48.5336 94.5553 47.1762 88.1455 45.963C84.146 45.2108 80.4382 44.6034 77.0049 44.1213C80.5066 44.455 84.2936 44.894 88.3835 45.4768C93.7128 46.2396 98.6511 47.1191 103.217 48.0568C100.727 46.2874 98.0889 44.8092 95.4985 43.2092C94.6032 42.6583 93.6808 42.0816 92.9127 41.3558C92.5207 40.9903 92.1024 40.5287 92.0495 39.9671C92.0389 39.8612 92.0389 39.7508 92.0495 39.6449C92.0495 39.6396 92.0554 39.6287 92.0554 39.6234C92.0607 39.5546 92.0707 39.4853 92.0866 39.4164C92.0919 39.3952 92.097 39.3732 92.1022 39.3519C92.1075 39.3361 92.1198 39.3209 92.1198 39.3051C92.141 39.2521 92.1606 39.1823 92.1765 39.1293C92.187 39.0975 92.2036 39.0615 92.2194 39.0297C92.4472 38.4999 92.8545 38.0172 93.2624 37.6781C93.3207 37.6305 93.3752 37.5782 93.444 37.5199C93.4864 37.4829 93.5286 37.4568 93.571 37.4145C93.6292 37.3668 93.6821 37.3235 93.735 37.2758C93.7986 37.2281 93.8612 37.1698 93.9088 37.1274C93.9141 37.1221 93.9152 37.1235 93.9206 37.1235C93.9418 37.1076 93.9619 37.0847 93.9831 37.0688C93.9937 37.0582 94.0096 37.0481 94.0202 37.0375L94.0319 37.0277C94.0531 37.0119 94.0682 37.0007 94.0788 36.9848L94.2213 36.6938C97.7442 30.3739 106.559 28.7585 106.559 28.7585C105.648 27.4819 104.573 26.7879 104.573 26.7879C105.759 26.3694 107.248 26.6276 107.821 26.7547C107.816 26.7282 107.816 26.7031 107.805 26.6766C107.614 25.9085 107.704 25.463 107.895 25.3094C107.895 25.3094 109.181 25.3514 109.563 25.4891C109.425 25.4256 108.849 25.1348 108.467 24.8329C106.984 24.478 105.489 24.1483 104 23.8622C97.9508 22.6862 91.7598 22.2366 85.614 22.0088C84.5175 21.9664 83.4215 21.941 82.3196 21.941ZM120.408 28.5969C120.158 28.7717 119.788 29.0489 119.449 29.3821V29.4621C119.449 30.4369 120.154 32.478 121.654 33.7022C123.598 35.2919 127.218 36.8818 127.218 36.8818C127.045 36.2668 127.129 35.4716 127.129 35.4716C127.659 36.351 128.81 37.6758 130.574 38.6512C130.687 38.7153 130.807 38.774 130.935 38.8328C131.481 39.0924 132.197 39.3992 132.912 39.6805C133.433 39.8855 134.024 40.0691 134.476 40.1941C136.375 40.5861 138.391 40.9047 140.296 40.4285C141.441 40.1424 142.695 39.5745 143.591 38.7704L143.589 38.7684C143.594 38.7684 143.597 38.7628 143.603 38.7527C141.62 39.4838 139.495 39.7226 137.458 39.0223C137.121 38.9062 136.772 38.785 136.433 38.6414C136.305 38.5884 136.182 38.5292 136.056 38.4656C134.014 37.4427 132.166 35.9582 130.357 34.5752C127.257 32.2004 124.013 30.1071 120.408 28.5969ZM145.018 30.884C151.272 37.35 146.858 42.8695 146.858 42.8695C146.858 42.8695 138.982 41.2365 133.004 41.5708C130.152 41.7345 126.785 43.0281 124.039 44.3324C124.066 44.3372 124.094 44.3369 124.115 44.3422H124.125C124.713 44.3634 125.25 44.4221 125.748 44.5179C126.077 44.581 126.39 44.6553 126.68 44.7465C127.56 45.0161 128.28 45.3974 128.857 45.8265C129.055 45.9701 129.235 46.1177 129.398 46.2718C129.484 46.346 129.564 46.4237 129.639 46.5042C131 47.8927 131.281 49.4416 131.281 49.4416C131.282 49.4413 131.283 49.4419 131.283 49.4416C131.335 49.3995 131.392 49.3503 131.455 49.303C131.969 48.9215 132.533 48.6139 133.105 48.3284C133.577 48.09 134.057 47.867 134.545 47.6546C136.252 46.9177 138.039 46.3298 139.851 45.9007C142.003 44.8778 148.248 44.2636 149.472 44.3637C150.702 44.4701 152.339 44.6712 152.339 43.9555C152.339 43.2396 151.624 40.6793 149.679 36.7937C148.386 34.2129 146.29 32.0505 145.018 30.884ZM131.283 49.4416C135.193 49.2991 138.034 53.3591 138.792 54.3816H138.828H138.898H138.904C141.161 54.3816 143.446 54.2857 145.714 54.3445C145.969 54.3503 148.207 54.4511 148.329 54.4617C148.986 54.5036 149.637 54.5518 150.288 54.6101C151.702 54.7373 153.118 54.8976 154.522 55.0984C154.873 55.1455 155.223 55.1983 155.573 55.2507C155.573 55.2507 154.344 54.1391 153.761 53.2332C153.178 52.3204 153.23 51.3563 153.23 51.3563L153.232 51.3543C154.705 51.2642 155.559 50.587 155.776 49.7234C156.035 48.6841 154.886 47.8368 154.886 47.8368L154.815 47.8094C155.24 48.1855 155.404 48.5831 155.208 48.991C154.264 50.9367 149.255 48.3227 143.88 47.8406C138.511 47.3586 131.283 49.4416 131.283 49.4416ZM170.74 31.1499C170.418 31.7973 169.008 33.3652 162.987 32.3745C163.024 32.3957 163.065 32.4124 163.102 32.4331C164.189 32.985 165.339 33.6424 166.414 34.31C167.889 35.2116 169.219 36.1229 170.209 36.9974C170.209 36.9974 172.214 34.5537 171.016 31.7027C170.953 31.5438 170.868 31.3787 170.777 31.2144C170.767 31.1938 170.751 31.1717 170.74 31.1499Z" fill="#9F792C"/>
<path d="M131.283 49.4416C131.283 49.4419 131.282 49.4413 131.281 49.4416C131.281 49.4416 131 47.8927 129.639 46.5042C129.564 46.4237 129.484 46.346 129.398 46.2718C129.235 46.1177 129.055 45.9701 128.857 45.8265C128.28 45.3974 127.56 45.0161 126.68 44.7465C126.39 44.6553 126.077 44.581 125.748 44.5179C125.25 44.4221 124.713 44.3634 124.125 44.3422H124.115C124.094 44.3369 124.066 44.3372 124.039 44.3324C126.785 43.0281 130.152 41.7345 133.004 41.5708C138.982 41.2365 146.858 42.8695 146.858 42.8695C146.858 42.8695 151.272 37.35 145.018 30.884C146.29 32.0505 148.386 34.2129 149.679 36.7937C151.624 40.6793 152.339 43.2396 152.339 43.9555C152.339 44.6712 150.702 44.4701 149.472 44.3637C148.248 44.2636 142.003 44.8778 139.851 45.9007C138.039 46.3298 136.252 46.9177 134.545 47.6546C134.057 47.867 133.577 48.09 133.105 48.3284C132.533 48.6139 131.969 48.9215 131.455 49.303C131.392 49.3503 131.335 49.3995 131.283 49.4416ZM131.283 49.4416C135.193 49.2991 138.034 53.3591 138.792 54.3816H138.828H138.898H138.904C141.161 54.3816 143.446 54.2857 145.714 54.3445C145.969 54.3503 148.207 54.4511 148.329 54.4617C148.986 54.5036 149.637 54.5518 150.288 54.6101C151.702 54.7373 153.118 54.8976 154.522 55.0984C154.873 55.1455 155.223 55.1983 155.573 55.2507C155.573 55.2507 154.344 54.1391 153.761 53.2332C153.178 52.3204 153.23 51.3563 153.23 51.3563L153.232 51.3543C154.705 51.2642 155.559 50.587 155.776 49.7234C156.035 48.6841 154.886 47.8368 154.886 47.8368L154.815 47.8094C155.24 48.1855 155.404 48.5831 155.208 48.991C154.264 50.9367 149.255 48.3227 143.88 47.8406C138.511 47.3586 131.283 49.4416 131.283 49.4416ZM82.3196 21.941C83.1566 22.3012 83.8391 23.0366 84.3 23.81C83.0763 23.7199 81.848 23.652 80.6243 23.5991C81.1911 23.7951 81.5822 23.985 81.6829 24.0326C81.6829 24.0326 80.6665 23.8786 79.9778 23.8627C79.9778 23.8627 80.3223 24.0531 80.513 24.2651C80.513 24.2651 80.5498 24.6681 80.4915 24.8959C80.4385 25.129 80.3219 25.4734 80.4544 25.8548C80.5868 26.2416 80.9723 27.1003 81.0305 27.4075C81.0305 27.4075 79.856 27.3121 79.1673 27.2962C79.1673 27.2962 81.0683 28.218 81.6457 28.5676C81.6457 28.5676 81.2599 28.5464 81.011 28.5676C81.011 28.5676 80.3583 28.9495 80.2258 29.1985C80.0881 29.4474 80.2268 30.5813 79.5911 31.0793C78.9607 31.5772 78.1119 31.4595 77.8471 31.7668C77.5769 32.074 78.0014 32.4992 78.0014 32.4992C78.0014 32.4992 76.6244 32.1866 76.2006 32.1496C76.2006 32.1496 76.8563 32.811 77.2748 33.1183C77.2748 33.1183 76.7354 32.9953 76.1791 33.0694C75.6229 33.1489 73.8955 33.2815 72.9683 32.5558C72.0466 31.8248 72.5299 31.2484 72.7418 31.0206C72.9537 30.7929 73.0053 30.5001 72.3961 29.7902C71.7816 29.0804 71.8772 29.0818 71.9938 28.7004C71.9938 28.7004 74.1396 28.7053 74.9078 28.9172C74.9078 28.9172 72.815 27.7366 71.9938 27.5618C71.9938 27.5618 72.0309 27.2962 72.4918 26.9466C72.9527 26.6022 73.5664 26.3257 73.773 25.4622C73.773 25.4622 75.3212 25.7595 76.2006 25.8919C75.2417 25.5264 74.7955 24.9859 73.2222 24.5462C73.2222 24.5462 74.3186 24.4934 74.7319 24.4564C74.7319 24.4564 75.4858 24.3239 75.8354 23.9955C75.9784 23.863 76.1584 23.6946 76.3861 23.5463C73.3401 23.6046 70.3033 23.8905 67.3103 24.595C62.5318 25.7181 57.7758 26.9047 53.0078 28.0754C52.9707 28.086 52.9277 28.0961 52.8906 28.1067C53.6958 27.6034 54.396 26.8939 55.037 26.1946C53.628 26.5443 52.1974 26.8343 50.7618 27.0833C48.4204 27.4965 46.0106 27.8577 43.6214 27.72C39.6749 27.4922 35.7276 26.591 31.8818 25.7063L30.8643 25.4681C30.949 25.5263 32.2518 26.3418 32.7021 26.6067C34.5985 27.7245 36.5541 28.7428 38.6199 29.5109C39.245 29.7175 39.8645 29.9555 40.4948 30.1515C41.1941 30.3687 41.9041 30.5537 42.6139 30.7179C43.2654 30.8662 43.9276 30.9825 44.5845 31.0831C45.7605 31.2579 46.9584 31.3278 48.1449 31.296C49.3421 31.2695 50.5338 31.105 51.715 30.8878C53.0818 30.6336 54.4385 30.3371 55.7735 29.9504C55.996 29.8921 56.2125 29.8225 56.4297 29.759C58.2733 29.1922 60.0577 28.3767 61.7791 27.4973C62.2294 27.2748 62.6812 27.0463 63.1209 26.8079C63.1368 26.8026 63.1469 26.7937 63.1521 26.7884C63.1627 26.7884 63.1728 26.782 63.1834 26.7767C63.1569 26.8085 59.9831 29.4421 58.4257 30.3956C58.0867 30.6022 57.7422 30.8076 57.3926 31.0089C56.8257 31.332 56.2429 31.6399 55.6602 31.9366C55.1623 32.1962 54.6655 32.4347 54.1623 32.6573C53.8974 32.7738 53.6317 32.8853 53.3615 32.9912C53.3457 32.9965 53.3364 33.0074 53.3205 33.0127C53.1828 33.0816 53.0437 33.1553 52.9006 33.2295C51.9895 33.7963 51.0571 34.3266 50.0823 34.7821C50.0717 34.7874 50.0572 34.791 50.0413 34.8017C49.7181 34.9553 49.3952 35.1039 49.0667 35.247C49.0614 35.2523 49.0506 35.2534 49.0453 35.2587C49.0347 35.264 49.0285 35.2632 49.0179 35.2685C48.1333 35.6552 47.2219 36.0059 46.3266 36.3289C45.6114 36.5779 44.8918 36.8151 44.1607 37.0164C38.9851 38.5315 35.827 38.4949 35.827 38.4949C36.1766 38.6538 36.6484 38.796 37.0828 38.8913C38.6403 39.241 42.3709 39.5708 42.5455 39.6237C42.5614 39.6184 42.5715 39.6173 42.5768 39.612C42.5662 39.6226 42.4695 39.7288 42.2682 39.9089C39.9374 42.0437 36.9607 43.3367 33.9306 44.1685C32.299 44.6135 30.6315 44.9365 28.9523 45.1431C28.6927 45.1749 28.4379 45.2006 28.173 45.2271C28.0671 45.2642 27.9925 45.3133 27.966 45.3716C27.1396 47.9514 27.114 50.7377 27.257 53.4182C27.3365 54.8592 27.5111 56.2938 27.7707 57.7189C27.776 57.7242 27.7746 57.735 27.7746 57.7403C27.96 57.5549 28.1824 57.3532 28.4367 57.1466C28.4367 57.1466 29.2057 56.5106 30.546 56.3146C30.546 56.3146 30.5298 56.2937 30.4874 56.2619C30.4715 56.246 30.45 56.2251 30.4288 56.2092C30.1428 55.9655 29.7042 55.8436 29.3176 55.7853C29.2116 55.7588 29.1108 55.7491 29.0207 55.7385C29.0472 55.7385 29.1369 55.7167 29.2746 55.6955C30.1116 55.5207 31.1026 55.3664 31.9132 55.5412C31.9344 55.5412 31.9506 55.5423 31.9718 55.5529C32.4644 55.6642 32.8983 55.9924 33.1632 56.4162C33.1896 56.4638 33.2103 56.5066 33.2315 56.549C33.2633 56.6073 33.2904 56.6646 33.3116 56.7228C33.3169 56.7387 33.3219 56.7552 33.3272 56.7658C33.3484 56.824 33.3694 56.8872 33.3799 56.9455C33.3958 57.0037 33.4065 57.063 33.4171 57.1212C33.4171 57.1318 33.423 57.1478 33.423 57.1583C33.4283 57.2166 33.4328 57.2797 33.4328 57.338C33.4328 57.5552 33.3914 57.772 33.296 57.9786C32.9782 58.6832 32.3996 60.0286 32.3996 60.5371C32.3996 60.7702 31.1974 61.6071 30.8742 61.9355C30.8531 61.9567 30.8374 61.9782 30.8215 61.9941C30.8533 61.9941 30.8913 61.9882 30.9231 61.9882C30.9443 61.9829 30.9747 61.9837 31.0012 61.9784C31.3561 61.9466 31.7068 61.8827 32.0617 61.8456C32.2577 61.8297 32.4362 61.8143 32.5792 61.8143H32.5968C32.5968 61.8143 33.4226 63.3492 34.0635 63.863C34.7045 64.3716 35.2757 65.459 35.4717 66.2907C35.477 66.2907 35.4879 66.2946 35.4932 66.2946C35.5726 66.2999 35.6635 66.275 35.7588 66.2379C35.7694 66.2326 35.7794 66.2262 35.79 66.2262C35.8218 66.2156 35.859 66.2005 35.9014 66.1793C36.0126 66.1316 36.1079 66.0839 36.1396 66.068C36.2615 66.0203 36.3791 65.9667 36.501 65.9137C36.6016 65.866 36.7175 65.8034 36.8447 65.7399C36.8553 65.7346 36.8653 65.7296 36.8759 65.7243C36.8759 65.7243 35.668 67.5024 34.2588 68.3394C34.3489 68.3552 35.4721 68.5211 36.0283 68.2827C36.0336 68.2827 36.0386 68.2768 36.0439 68.2768C36.0439 68.2768 36.1407 70.4002 34.0694 72.6888C33.9263 72.8477 35.6105 74.8462 36.6435 76.0167C36.6859 76.0644 36.7236 76.1058 36.7607 76.1535C36.7924 76.1905 36.8293 76.2271 36.8505 76.2589C36.93 76.349 37.009 76.4336 37.0673 76.4972C37.1309 76.5767 37.1775 76.6309 37.204 76.6574C37.2782 76.5938 37.8462 76.1067 38.1376 75.8683C38.6408 75.4657 39.1649 75.0899 39.7 74.7297C40.2032 74.3853 41.3679 73.7649 41.3679 73.7649C41.3732 73.7649 41.3783 73.7585 41.3836 73.7531C41.4418 73.2287 41.618 72.9269 41.7664 72.7415C41.9624 72.4978 42.259 72.4451 42.5027 72.302C42.6033 72.2438 42.7151 72.1803 42.821 72.0638C42.8581 72.0267 42.8933 71.9839 42.9304 71.931C42.9516 71.8992 42.9736 71.8685 42.9948 71.8314C43.0213 71.789 43.0479 71.7417 43.0691 71.6888C43.0902 71.6464 43.1059 71.6042 43.1218 71.5618C43.18 71.4294 43.2323 71.2701 43.28 71.0794C43.3648 70.7563 43.6354 70.4545 43.6354 70.4545C43.6301 70.4545 43.6198 70.4486 43.6198 70.4486C43.249 70.3108 42.8729 70.194 42.4968 70.0775C41.8982 69.8974 41.2897 69.7381 40.6805 69.5951C40.2779 69.4997 39.8692 69.405 39.456 69.3256C42.6344 67.2224 46.1518 65.6549 49.7696 64.4312C50.9773 64.0233 53.541 63.2926 53.541 63.2926C53.1807 62.9588 52.8266 62.5663 52.6465 62.2008C52.1962 61.3056 52.9634 59.9595 53.2812 59.4509C53.6044 58.9371 53.0273 58.6189 53.0273 58.6189C53.5411 58.2322 53.9238 57.5974 53.9238 57.5974C53.9132 57.5974 53.907 57.6033 53.8964 57.6033C52.7575 57.8523 51.6875 57.9158 51.6875 57.9158L51.6816 57.9099C51.0459 57.4014 50.7928 56.3156 50.9199 55.7381C51.047 55.166 51.3007 54.2655 51.3007 54.2655H51.2793C51.0674 54.2866 50.8344 54.27 50.6172 54.2381C50.2464 54.1904 49.9227 54.1011 49.8379 54.0799L49.834 54.074C52.2602 53.7562 53.4726 52.8612 53.4726 52.8612C53.462 52.8612 53.4519 52.8671 53.4413 52.8671C52.8003 52.9889 51.6875 53.0526 51.6875 53.0526V53.0467C51.6981 52.9778 51.7777 52.3309 52.2597 52.0076C52.4399 51.8858 52.8153 51.8855 53.2656 51.9491C53.5199 51.9861 53.7954 52.0403 54.0761 52.1092C54.2085 52.141 54.3421 52.1717 54.4746 52.2088C54.9619 52.3412 55.4279 52.4843 55.7616 52.5955C55.7722 52.5955 55.7725 52.6014 55.7831 52.6014C56.7419 52.9246 57.1912 54.201 57.1912 54.201C57.4508 55.0273 57.8595 55.6256 58.3416 56.0759C58.3469 56.0812 58.3519 56.0876 58.3572 56.0876C58.5797 56.2836 58.8172 56.4524 59.0662 56.5954C59.1616 56.659 59.263 56.7132 59.3689 56.7556C59.4696 56.8032 59.5696 56.8499 59.6755 56.8923C59.9828 57.0194 60.2954 57.1194 60.5974 57.1989C60.7934 57.2519 60.9901 57.3005 61.1755 57.3376C61.2708 57.3588 61.3667 57.3789 61.4567 57.4001C61.6262 57.4372 61.7785 57.5008 61.9215 57.5856C62.3506 57.8293 62.6627 58.2748 62.8746 58.7145C64.5645 58.5344 66.2666 58.3855 67.9564 58.2848C67.7446 58.0359 67.5165 57.8042 67.2729 57.5817C65.5724 56.0137 63.1931 55.0074 61.0583 54.324C65.3068 53.7572 69.6031 53.5876 73.8779 53.4393C76.3253 53.3492 78.7732 53.29 81.2155 53.2635C80.7016 52.8344 79.9921 52.5853 79.3777 52.3417C80.8132 52.1774 82.311 52.3158 83.7466 52.4217C82.5229 51.8072 81.1352 51.4569 79.8268 51.0702C78.9051 50.8 77.9786 50.5404 77.0515 50.2968C77.0674 50.2968 77.1152 50.3027 77.1629 50.3027C77.147 50.2974 77.1299 50.2963 77.114 50.291C77.7391 50.3439 78.3812 50.4031 79.0222 50.4667C79.1281 50.472 79.2282 50.4835 79.3288 50.4941C82.9892 50.8808 86.6401 51.2935 90.2794 51.7967C94.8722 52.4324 99.439 53.2047 103.984 54.1052C108.121 54.9263 112.248 55.9447 116.337 56.9723C118.064 57.4067 119.781 57.8613 121.497 58.3434C118.706 57.5382 115.643 56.7273 112.316 55.9275C110.134 53.8779 107.983 51.823 105.674 49.9375C100.392 48.5336 94.5553 47.1762 88.1455 45.963C84.146 45.2108 80.4382 44.6034 77.0049 44.1213C80.5066 44.455 84.2936 44.894 88.3835 45.4768C93.7128 46.2396 98.6511 47.1191 103.217 48.0568C100.727 46.2874 98.0889 44.8092 95.4985 43.2092C94.6032 42.6583 93.6808 42.0816 92.9127 41.3558C92.5207 40.9903 92.1024 40.5287 92.0495 39.9671C92.0389 39.8612 92.0389 39.7508 92.0495 39.6449C92.0495 39.6396 92.0554 39.6287 92.0554 39.6234C92.0607 39.5546 92.0707 39.4853 92.0866 39.4164C92.0919 39.3952 92.097 39.3732 92.1022 39.3519C92.1075 39.3361 92.1198 39.3209 92.1198 39.3051C92.141 39.2521 92.1606 39.1823 92.1765 39.1293C92.187 39.0975 92.2036 39.0615 92.2194 39.0297C92.4472 38.4999 92.8545 38.0172 93.2624 37.6781C93.3207 37.6305 93.3752 37.5782 93.444 37.5199C93.4864 37.4829 93.5286 37.4568 93.571 37.4145C93.6292 37.3668 93.6821 37.3235 93.735 37.2758C93.7986 37.2281 93.8612 37.1698 93.9088 37.1274C93.9141 37.1221 93.9152 37.1235 93.9206 37.1235C93.9418 37.1076 93.9619 37.0847 93.9831 37.0688C93.9937 37.0582 94.0096 37.0481 94.0202 37.0375L94.0319 37.0277C94.0531 37.0119 94.0682 37.0007 94.0788 36.9848L94.2213 36.6938C97.7442 30.3739 106.559 28.7585 106.559 28.7585C105.648 27.4819 104.573 26.7879 104.573 26.7879C105.759 26.3694 107.248 26.6276 107.821 26.7547C107.816 26.7282 107.816 26.7031 107.805 26.6766C107.614 25.9085 107.704 25.463 107.895 25.3094C107.895 25.3094 109.181 25.3514 109.563 25.4891C109.425 25.4256 108.849 25.1348 108.467 24.8329C106.984 24.478 105.489 24.1483 104 23.8622C97.9508 22.6862 91.7598 22.2366 85.614 22.0088C84.5175 21.9664 83.4215 21.941 82.3196 21.941ZM120.408 28.5969C120.158 28.7717 119.788 29.0489 119.449 29.3821V29.4621C119.449 30.4369 120.154 32.478 121.654 33.7022C123.598 35.2919 127.218 36.8818 127.218 36.8818C127.045 36.2668 127.129 35.4716 127.129 35.4716C127.659 36.351 128.81 37.6758 130.574 38.6512C130.687 38.7153 130.807 38.774 130.935 38.8328C131.481 39.0924 132.197 39.3992 132.912 39.6805C133.433 39.8855 134.024 40.0691 134.476 40.1941C136.375 40.5861 138.391 40.9047 140.296 40.4285C141.441 40.1424 142.695 39.5745 143.591 38.7704L143.589 38.7684C143.594 38.7684 143.597 38.7628 143.603 38.7527C141.62 39.4838 139.495 39.7226 137.458 39.0223C137.121 38.9062 136.772 38.785 136.433 38.6414C136.305 38.5884 136.182 38.5292 136.056 38.4656C134.014 37.4427 132.166 35.9582 130.357 34.5752C127.257 32.2004 124.013 30.1071 120.408 28.5969ZM170.74 31.1499C170.418 31.7973 169.008 33.3652 162.987 32.3745C163.024 32.3957 163.065 32.4124 163.102 32.4331C164.189 32.985 165.339 33.6424 166.414 34.31C167.889 35.2116 169.219 36.1229 170.209 36.9974C170.209 36.9974 172.214 34.5537 171.016 31.7027C170.953 31.5438 170.868 31.3787 170.777 31.2144C170.767 31.1938 170.751 31.1717 170.74 31.1499Z" stroke="#9F792C" stroke-width="0.312479"/>
<path d="M31.4612 15.9141C30.5013 15.9835 29.5359 16.0408 28.5765 16.0938C23.2972 16.374 18.0129 16.2525 12.7391 16.5762C11.9551 16.6244 11.1795 16.6446 10.3955 16.6446H10.3642C10.7939 16.7399 11.2236 16.8581 11.6474 16.9746C12.2253 17.1282 12.7973 17.2915 13.37 17.4668C15.299 18.0437 17.2133 18.6975 19.0944 19.4237C20.0273 19.7845 20.9547 20.1645 21.8716 20.5624C22.8469 20.9915 23.8115 21.443 24.7602 21.9197C25.0193 21.5219 26.1918 21.5213 26.1918 21.5213L26.0433 21.2147C26.0433 21.2147 26.3717 21.4209 26.7796 21.3944C26.8114 21.3944 26.8332 21.3894 26.8597 21.3846C26.971 21.3422 27.0718 21.305 27.1566 21.2732C27.289 21.189 27.4003 21.0709 27.6546 20.9861C28.0896 20.8325 28.6937 20.8963 28.6937 20.8963C28.8579 20.5997 29.5843 20.3143 29.5843 20.3143C29.4412 20.1813 29.2659 20.0389 29.2659 20.0389C29.5573 19.9912 30.2259 20.1277 30.5061 20.16C30.6978 20.1436 30.8507 20.1274 30.9084 20.0956C30.919 20.0903 30.9251 20.0858 30.9357 20.0799C31.0152 20.0164 31.0685 19.8845 30.9943 19.7674C30.8566 19.6408 30.548 19.545 30.3361 19.4491C30.0925 19.3384 30.0672 19.1795 30.0608 19.1366C30.0565 19.1265 30.0568 19.1204 30.051 19.1151C29.7967 19.1628 29.2112 18.914 29.2112 18.914C29.2112 18.914 29.7017 18.8871 29.8283 18.8065C29.8866 18.7753 30.0023 18.7183 30.1506 18.6601L30.1994 18.6112C30.21 18.6059 30.2195 18.5955 30.2248 18.5898C30.2407 18.5744 30.263 18.5599 30.2736 18.5487C30.2842 18.5381 30.2932 18.5312 30.2932 18.5312C30.2932 18.5312 30.6974 18.1285 31.0099 18.039C31.3219 17.9542 33.9043 16.7519 33.9043 16.7519C33.9043 16.7519 33.1979 16.7943 32.5665 16.7519C31.899 16.7042 31.3653 16.5293 31.3653 16.5293C31.0893 16.4334 31.3018 16.1107 31.4612 15.9141ZM6.9101 20.465C6.07033 20.4455 5.22506 20.472 4.37109 20.5509C4.37109 20.5509 6.61351 21.1026 8.19326 23.2168C7.69955 25.2951 10.3869 29.9012 14.4469 33.4314C15.152 34.0454 15.9154 34.7086 16.7477 35.3709C16.0166 35.3555 13.6892 35.3025 13.6892 35.3025C15.8409 36.6919 21.5405 38.568 21.5405 38.568C20.2891 38.986 18.1363 39.3316 18.1363 39.3316C18.2788 39.4911 22.3925 41.6274 30.0619 41.9448C34.2712 42.1144 38.4532 41.3767 42.3324 39.734C42.37 39.7176 42.3963 39.7017 42.4223 39.691C42.4858 39.654 42.5236 39.6333 42.5453 39.6227C42.3703 39.5697 38.6392 39.2424 37.0807 38.8922C36.6511 38.7969 36.1779 38.6527 35.8288 38.4938C35.8288 38.4938 38.9818 38.532 44.1605 37.0212C44.892 36.8151 45.6146 36.5807 46.3245 36.3317C47.2251 36.0081 48.1306 35.658 49.0158 35.2713C49.0269 35.2665 49.032 35.2654 49.0431 35.2596C49.0484 35.2548 49.0598 35.2556 49.0646 35.2498C49.3931 35.1073 49.716 34.9576 50.0392 34.8045C50.0551 34.7933 50.071 34.7883 50.0822 34.783C51.0574 34.3274 51.9912 33.7976 52.9024 33.2303C53.0459 33.1562 53.182 33.083 53.3203 33.0136C50.0124 34.3284 46.6456 34.7787 43.0847 35.033C40.0208 35.2502 35.5629 35.3727 30.9991 34.8064C23.4996 33.8682 19.5345 31.3437 19.5345 31.3437C26.3885 32.5467 30.0081 32.3339 31.6571 32.0585C29.1554 30.4683 27.0092 28.4656 24.21 26.7169C18.3623 23.061 12.7885 20.6001 6.91066 20.4641L6.9101 20.465ZM118.376 24.1128C117.267 24.0861 114.816 24.2024 112.935 25.562L113.142 25.6909C113.163 25.7068 113.189 25.7165 113.21 25.7319C113.259 25.7637 113.307 25.7952 113.355 25.8276C113.381 25.8382 113.4 25.8547 113.421 25.8706C113.474 25.9023 113.523 25.9379 113.57 25.9702C113.586 25.9808 113.603 25.9922 113.618 26.0034C113.683 26.0457 113.745 26.0879 113.804 26.1303C113.804 26.1303 113.81 26.1342 113.816 26.1342C113.868 26.1713 113.915 26.2035 113.956 26.2358C113.973 26.2511 113.995 26.2628 114.011 26.2787C114.038 26.2946 114.058 26.3097 114.079 26.3256C114.095 26.3362 114.111 26.3525 114.126 26.3588C114.132 26.3636 114.133 26.3686 114.138 26.3686C114.16 26.3845 114.169 26.3946 114.185 26.4057C114.185 26.4057 114.192 26.4116 114.197 26.4116C114.213 26.4222 114.222 26.4311 114.222 26.4311C113.739 26.3141 112.743 26.1769 112.277 26.1128C112.138 26.2511 111.832 26.5588 111.705 26.7182C111.705 26.7182 111.424 27.0833 111.259 28.0209C111.207 28.3234 111.375 29.0197 111.683 29.2903C111.99 29.5552 112.951 30.4387 113.105 30.8567C113.26 31.281 112.977 31.9398 113.04 32.2257C113.04 32.2257 112.299 31.7485 111.88 31.632C111.964 31.7168 112.812 32.5857 112.335 32.6965C112.335 32.6965 111.911 32.2055 111.142 31.8606C110.373 31.5157 108.958 30.8196 108.535 30.4387C108.137 30.078 107.878 29.3154 107.851 29.22C107.898 29.2835 108.132 29.5969 108.343 29.634C108.556 29.6711 109.181 30.0732 109.261 30.1262C109.235 30.0631 109.017 29.5387 108.763 29.3274C108.498 29.0937 107.847 28.785 107.502 28.3665L107.882 28.2493C107.882 28.2493 107.989 27.4974 107.82 26.7552C107.247 26.6281 105.758 26.368 104.57 26.7865C104.57 26.7865 105.648 27.4808 106.558 28.7532C106.558 28.7532 97.7439 30.3697 94.2187 36.6884L94.0741 36.9794C94.0741 36.9794 94.0596 36.997 94.0273 37.0283C94.075 36.9912 94.1015 36.9697 94.1015 36.9697C94.1015 36.9697 94.1115 36.9691 94.1269 36.9638H94.1328C94.1328 36.958 94.1333 36.9579 94.1387 36.9579C94.277 36.8419 95.666 35.6506 96.5136 35.1786C97.7484 34.4895 99.1258 34.0637 100.472 33.6553C101.872 33.2373 103.51 32.9083 104.962 32.7706C109.882 32.3044 114.748 33.1255 119.312 34.6728C123.753 36.1788 127.841 38.4852 132.394 39.7038C132.974 39.8595 133.556 39.9992 134.143 40.1237C134.252 40.1465 134.362 40.1679 134.472 40.1901C134.02 40.0651 133.431 39.8829 132.911 39.6784C132.196 39.3971 131.48 39.0904 130.934 38.8308C130.806 38.772 130.686 38.7132 130.573 38.6492C128.81 37.6739 127.66 36.349 127.13 35.4696C127.13 35.4696 127.044 36.2647 127.218 36.8797C127.218 36.8797 123.598 35.288 121.654 33.6982C120.153 32.474 119.449 30.4328 119.449 29.4582V29.3781C119.184 29.6324 118.941 29.9204 118.777 30.2277C118.241 31.2135 118.283 31.96 118.283 31.96C118.283 31.96 117.821 31.7637 117.404 31.4405C117.404 31.4405 117.615 32.3314 118.369 32.7081C118.369 32.7081 118.798 33.2756 118.613 33.7041C118.613 33.7041 117.292 33.5977 116.984 33.3487C116.677 33.0939 115.697 32.7393 115.697 32.7393C115.697 32.7393 116.024 32.6863 116.374 32.7081C116.374 32.7081 116.02 31.8452 115.681 31.5538C115.342 31.2667 114.656 30.7414 114.81 30.0734C114.81 30.0734 115.617 30.1301 116.003 30.2843C116.003 30.2843 114.732 29.1818 113.953 29.007L115.017 28.9504C115.017 28.9504 114.874 28.1977 116.226 27.5402C117.583 26.8829 118.001 26.4641 118.288 26.0403C118.569 25.616 118.685 25.1813 119.04 24.927C119.04 24.927 119.704 25.3031 120.228 25.7005C120.228 25.7005 119.926 24.8052 118.966 24.1478C118.966 24.1478 118.746 24.1218 118.376 24.1128ZM101.076 35.8894C100.605 35.8735 100.127 35.8889 99.6559 35.9207C99.6188 35.9265 99.0778 35.9845 99.0778 35.9792C99.4963 37.3359 101.351 39.3385 101.351 39.3385C100.471 39.4021 99.3414 39.0905 99.3414 39.0905C100.974 41.2847 105.491 44.0455 109.005 44.7348C112.519 45.424 115.716 45.2973 115.716 45.2973C115.217 45.5515 114.401 45.8636 114.401 45.8636C114.401 45.8636 115.779 45.7995 117.661 46.1761C117.905 46.2238 118.169 46.2886 118.456 46.3675C119.702 46.6859 121.244 47.2 122.151 47.5179C122.257 47.5528 122.356 47.5892 122.442 47.6195C122.006 47.3286 121.568 47.04 121.118 46.7699C120.196 46.1919 118.929 45.4293 117.757 44.8148C115.982 43.8767 114.157 43.0029 112.286 42.2602C111.119 41.6669 109.974 41.0413 108.845 40.3892C107.319 39.504 105.804 38.5705 104.363 37.5475C103.679 37.0654 102.884 36.6618 102.291 36.0691C102.252 36.0315 102.204 35.9904 102.168 35.9851C101.797 35.9268 101.425 35.8995 101.076 35.8894ZM114.598 36.8425C115.379 37.0221 116.206 37.6474 116.831 38.0865C117.213 38.3572 117.556 38.6754 117.922 38.9615C117.997 39.0193 118.95 39.6041 118.993 39.6041C119.125 39.6518 119.268 39.6841 119.401 39.6841C119.866 39.6841 120.216 39.3654 120.248 38.8404H120.25C120.283 38.3107 119.608 38.0143 119.608 38.0143C119.104 37.876 118.59 37.7321 118.038 37.5885C116.942 37.2972 115.076 36.9325 114.598 36.8425ZM77.0476 50.296C77.9747 50.5397 78.9011 50.7992 79.8229 51.0694C81.1314 51.4561 82.519 51.8064 83.7427 52.421C82.3071 52.315 80.8093 52.1767 79.3737 52.3409C79.9882 52.5846 80.6977 52.8336 81.2116 53.2627C78.7694 53.2892 76.3212 53.3485 73.8739 53.4385C69.5989 53.5869 65.3025 53.7564 61.0544 54.3233C63.1892 55.0066 65.5685 56.0129 67.269 57.5809C67.5126 57.8034 67.7406 58.037 67.9525 58.286C66.2627 58.3866 64.5625 58.5336 62.8726 58.7137L62.8765 58.7196C63.2102 59.403 63.3218 60.0926 63.3218 60.0926C62.8768 60.8554 61.6578 61.5593 61.6578 61.5593C62.2352 61.6865 63.0034 61.5593 63.0034 61.5593C62.6802 62.6453 62.9409 63.1588 62.9409 64.2447C62.9409 65.336 61.5943 65.7862 59.4859 66.104C57.3776 66.4219 56.4821 65.7232 56.4821 65.7232L56.8005 65.0123C56.0959 65.1394 54.0467 65.2095 54.0467 65.2095C55.3922 64.6268 57.1189 63.4127 57.1189 63.4127C56.2925 63.7358 54.5702 64.149 54.5702 64.149C54.5702 64.149 54.0509 63.779 53.537 63.2916C53.537 63.2916 50.9733 64.0223 49.7656 64.4303C46.1475 65.6539 42.6298 67.2217 39.452 69.3246C39.8652 69.4041 40.2739 69.4988 40.6766 69.5941C41.2858 69.7372 41.8943 69.8964 42.4929 70.0765C42.869 70.1931 43.2451 70.3099 43.6159 70.4476C43.6159 70.4476 43.6262 70.4535 43.6315 70.4535C44.193 69.8231 45.19 69.3676 45.19 69.3676C44.6709 70.0192 44.6074 70.707 44.6022 70.85C44.6075 70.8553 44.6125 70.8559 44.6178 70.8559C45.7408 69.076 47.6372 69.2192 47.6372 69.2192C47.2452 69.3199 46.7583 69.6118 46.7583 69.6118C46.7583 69.6118 47.5887 69.9033 48.4203 70.147C49.252 70.3959 51.1069 70.5376 52.1878 70.5376C53.2632 70.5376 55.2658 70.9301 55.2658 70.9301C56.1452 70.6388 58.8419 69.9556 58.8419 69.9556C57.9095 70.5383 56.2502 71.3696 56.2502 71.3696C59.6246 73.229 56.7384 77.0491 56.7384 77.0491C56.7384 77.0491 56.1444 77.1962 54.926 78.1233C53.7023 79.0556 53.4065 80.2755 53.4065 80.2755C54.0422 79.6928 54.926 79.1525 54.926 79.1525C54.677 79.5445 54.7788 79.7407 54.2385 80.9591C53.7035 82.1827 52.3786 82.1351 51.4515 82.2305C50.5244 82.3312 49.0082 81.2072 49.0082 81.2072C48.4679 81.4031 47.4887 82.3301 47.4887 82.3301C47.9284 80.8627 49.5434 79.3009 49.5434 79.3009C48.86 79.5923 47.6372 80.4708 47.6372 80.4708C46.9539 79.9358 44.5486 79.2467 42.9382 78.3674C41.3225 77.488 41.5184 75.7776 41.5184 75.7776C41.619 74.75 42.4988 73.3773 42.4988 73.3773C41.9585 73.674 41.3758 74.3109 41.3758 74.3109C41.36 74.1096 41.3658 73.9341 41.3817 73.7699V73.7543C41.3764 73.7596 41.3714 73.7641 41.3661 73.7641C41.3661 73.7641 40.1995 74.3845 39.6963 74.7289C39.1612 75.0891 38.6371 75.4649 38.1338 75.8675C37.8425 76.1059 37.2764 76.593 37.2022 76.6566C37.287 76.7519 37.3501 76.8201 37.3819 76.8519C40.0571 79.7337 43.2041 82.2501 46.4304 84.4961C47.9507 85.545 49.5024 86.5413 51.0864 87.4843C56.7176 90.8375 62.667 93.6767 68.6638 96.3043C72.3773 97.9359 75.9052 100.04 78.9934 102.689C80.9694 104.373 82.7645 106.276 84.3116 108.368C86.1128 110.81 87.4273 113.559 89.0537 116.118C91.7448 120.356 94.9491 124.308 98.7525 127.593C100.924 129.468 103.303 131.142 105.883 132.403C106.582 132.747 107.297 133.059 108.033 133.319C108.309 133.414 108.627 133.556 108.924 133.583C108.845 134.271 108.134 134.86 107.61 135.247C111.911 136.094 116.366 135.972 120.662 135.225C119.894 136.052 119.117 136.878 118.338 137.71C122.703 137.54 127.178 136.2 131.104 134.356C134.881 132.582 138.33 130.119 141.132 127.009C142.774 125.186 144.184 123.158 145.333 120.991C145.471 120.727 145.502 120.715 145.253 120.599C143.632 119.751 141.715 119.381 139.914 119.185C134.457 118.597 129.139 120.467 124.059 122.204C121.898 122.946 119.695 123.852 117.423 124.196C114.197 124.684 110.896 124.694 107.919 123.163C105.122 121.722 102.802 119.414 100.773 117.04C98.8606 114.794 97.1651 112.361 95.613 109.845C92.4876 104.786 89.971 99.3767 88.0214 93.7619C86.3792 89.0259 85.1031 84.0153 85.2832 78.9614C85.4315 74.9035 86.4539 70.6068 88.6151 67.1318C89.6852 65.4102 91.0926 63.8751 92.8357 62.8156C93.7733 62.2487 94.7814 61.819 95.8355 61.5383C96.3812 61.3953 96.9322 61.2902 97.4937 61.2161C92.3699 60.0501 86.7331 58.9431 80.5933 57.9892C76.5724 57.3642 72.8476 56.8812 69.3987 56.5112C72.9057 56.7284 76.7106 57.0472 80.8163 57.4975C115.764 61.3382 134.828 70.6451 134.828 70.6451C134.828 70.6451 136.381 71.6677 135.533 72.9497C135.125 73.5642 134.288 73.4889 133.69 73.3247C133.022 72.9962 131.708 72.3704 129.78 71.5493C127.597 70.5799 124.566 69.33 120.716 67.9421C121.462 69.4041 122.348 70.7926 123.354 72.0903C124.763 73.902 126.426 75.5344 128.36 76.7952C130.913 78.4586 133.874 79.3213 136.904 79.549C139.839 79.7715 142.769 79.3213 145.545 78.3889C147.505 77.732 149.343 76.7793 151.271 76.0589C153.936 75.0682 156.547 74.0077 159.349 73.4516C160.917 73.1443 162.518 72.9753 164.118 72.9965C164.32 73.0018 164.52 73.0074 164.722 73.018C164.87 73.0233 164.785 70.8246 164.753 70.6021C164.668 69.9452 164.494 69.2942 164.261 68.6744C163.773 67.3978 163.011 66.1468 161.909 65.3152C161.888 65.2939 161.872 65.2836 161.851 65.2624C161.316 64.7539 160.726 64.2923 160.107 63.8738C157.299 61.9666 154.144 60.5158 151.029 59.1649C150.748 59.0431 150.467 58.9215 150.181 58.7997C146.452 57.1946 142.648 55.7007 138.813 54.3976C139.438 54.7313 140.058 55.0797 140.672 55.4346C140.783 55.4982 140.894 55.5683 141 55.6319C141.154 55.7219 141.307 55.8172 141.461 55.9073C141.996 56.2198 142.536 56.5369 143.061 56.876C144.48 57.7659 145.974 58.7197 147.182 59.9169C146.964 59.9116 146.737 59.944 146.519 59.997C146.302 60.05 146.086 60.1125 145.885 60.1708C147.389 61.2302 148.756 62.4759 149.974 63.8425C150.133 64.0174 151.489 65.7761 151.531 65.7761C150.704 66.1575 149.867 66.5067 149.004 66.8033C148.58 66.9464 148.157 67.0794 147.728 67.1959C146.203 67.6144 144.665 67.7685 143.092 67.8639C143.049 67.8692 142.992 67.8628 142.918 67.8521L142.912 67.8639C142.869 67.9751 142.812 68.0905 142.732 68.2017C142.314 68.8109 141.481 68.7164 140.883 68.5416C140.22 68.1972 138.923 67.5399 137.016 66.6764C129.806 63.2795 113.246 56.5038 88.1433 52.0269C84.2285 51.328 80.6536 50.761 77.2837 50.316C77.2784 50.316 77.2676 50.3174 77.2622 50.3121C77.241 50.3121 77.1992 50.3057 77.1568 50.3004C77.1091 50.3004 77.0614 50.2945 77.0454 50.2945L77.0476 50.296ZM185.474 56.2763C185.474 56.2763 183.25 61.8362 177.415 64.6666C173.232 66.6971 169.392 69.0603 166.937 71.8753C166.587 72.278 166.264 72.6923 165.972 73.1155L166.015 73.1194C171.93 73.7765 174.835 76.2737 175.788 77.4883C175.853 77.5721 175.904 77.6474 175.952 77.7168C175.952 77.7168 175.957 77.7157 175.974 77.711C176.34 77.6463 182.276 76.5762 185.944 72.5314C185.811 72.5367 185.677 72.5367 185.546 72.5314C184.643 72.4943 181.177 72.5904 182.053 70.846C182.345 70.2633 183.384 70.4236 183.899 70.4554C184.79 70.5083 185.674 70.6027 186.563 70.555C187.794 70.4861 188.021 69.3735 188.329 68.3559C188.621 67.3706 188.794 66.442 188.875 65.5669C187.518 67.2949 185.08 67.8794 184.28 68.0219C184.226 68.0325 184.178 68.0381 184.141 68.0434C183.595 68.1281 182.531 67.9638 182.675 67.1899C182.76 66.7126 183.416 66.3086 183.829 66.1391C185.001 65.6624 186.151 65.2167 187.206 64.5064C187.587 64.2521 187.947 63.9765 188.276 63.6529C188.366 63.5681 188.849 63.1821 188.833 63.0396C188.688 61.852 188.377 60.8136 187.995 59.9284C187.868 60.2251 187.661 60.621 187.37 61.0612C186.722 62.1636 185.923 62.6731 185.635 62.8326C185.212 63.071 184.385 63.3201 184.008 62.5885C183.627 61.8622 184.676 61.2369 184.676 61.2369C186.224 60.1182 186.851 58.9845 187.106 58.243C186.273 56.9546 185.474 56.2763 185.474 56.2763ZM170.693 77.5605C169.495 77.5304 168.165 78.2501 167.377 78.7558C167.207 78.4008 166.883 78.0874 166.274 77.875C164.439 77.2557 162.17 79.0058 162.17 79.0058C162.361 77.6698 160.534 78.0505 160.459 78.0605C159.918 78.1029 157.648 78.8253 156.307 79.5781C154.32 80.2721 151.696 81.115 148.798 81.8143C149.343 84.9052 149.174 87.0778 149.174 87.0778C152.255 85.4833 154.803 82.206 156.356 79.8418C156.69 81.4316 158.03 83.58 158.03 83.58C160.182 82.2444 162.102 80.3028 162.102 80.3028C162.765 81.5012 162.654 84.0135 162.654 84.0135C164.17 83.5209 165.526 82.5449 166.4 81.8085C165.43 86.9391 162.324 91.9211 162.324 91.9211C165.961 90.5537 172.899 83.1653 173.349 81.1555C173.79 79.1472 173.127 78.0548 171.197 77.6205C171.033 77.5827 170.864 77.5648 170.693 77.5605ZM148.651 81.8495C145.28 82.6547 141.548 83.2701 138.012 83.2283C138.632 89.5195 133.046 95.1969 133.046 95.1969C142.099 92.6583 146.853 85.3761 148.311 82.7614C148.465 82.3752 148.582 82.0555 148.651 81.8495ZM129.112 102.733C129.112 102.733 126.222 109.822 122.887 113.289C119.554 116.755 117.73 117.642 117.518 118.135C117.306 118.618 117.265 120.376 121.177 119.873C125.088 119.369 127.85 116.453 127.85 116.453C127.85 116.453 133.204 115.458 137.911 116.1C137.911 116.1 139.215 117.519 141.075 117.387C142.936 117.26 146.805 109.977 146.514 103.102C146.514 103.102 140.938 112.03 138.426 113.873C138.426 113.873 137.826 112.417 137.091 111.695C137.091 111.695 134.03 113.757 133.421 114.891C133.484 114.775 132.871 113.926 132.808 113.814C132.462 113.248 132.111 112.69 131.686 112.182C130.469 112.903 129.059 113.952 128.417 115.24C128.931 114.207 129.318 113.147 129.599 112.029C129.768 111.34 129.891 110.64 129.96 109.936C130.208 107.508 129.896 105.038 129.112 102.733Z" fill="white"/>
<path d="M111.721 4.43408C107.212 4.43956 104.529 5.10398 104.529 5.10398C104.529 5.10398 106.55 5.22588 110.758 6.69962C111.023 6.61488 111.372 6.47148 111.685 6.24847C112.29 5.81409 112.682 5.72896 112.941 5.72896C113.201 5.72896 114.32 7.06481 114.32 7.06481C114.32 7.06481 114.197 6.03185 113.98 5.16258C113.98 5.16258 115.083 5.06721 115.502 5.16258C116.117 5.30613 116.626 5.51217 116.843 5.51217C117.061 5.51217 117.15 5.25046 117.15 5.25046C117.15 5.25046 117.537 5.5071 117.537 5.81489C117.537 5.81489 118.408 6.41794 118.408 6.98475C118.408 7.54681 118.275 8.283 118.408 8.63309C118.408 8.63309 118.189 8.76157 117.84 8.19952C117.84 8.19952 117.279 8.67606 116.717 8.67606C116.451 8.67606 116.213 8.73862 116.027 8.81278C117.967 9.67785 120.161 10.7431 122.627 12.0627C122.627 12.0627 122.906 12.2592 123.113 12.4123C123.113 12.4123 123.316 11.5921 123.449 11.465C123.449 11.465 123.703 11.692 123.755 11.8244C123.755 11.8244 123.802 11.4639 123.728 11.0549C123.728 11.0549 124.418 10.4946 124.953 10.4416C125.494 10.3881 125.701 10.3928 125.874 10.2873C125.874 10.2873 125.996 9.85817 125.816 9.4026C125.816 9.4026 126.719 9.92596 126.898 10.594C126.898 10.594 126.977 10.1874 126.951 9.77368C126.951 9.77368 127.895 9.62038 128.589 9.80103C129.278 9.98061 129.74 10.2128 129.894 10.467C130.048 10.7213 130.476 11.5809 130.238 11.7658C129.994 11.9517 129.558 12.026 129.431 12.2326C129.304 12.4339 129.252 12.6132 129.072 12.7404C128.897 12.8675 128.663 12.9005 128.663 12.9005C128.663 12.9005 128.616 13.6111 128.796 13.9708C128.796 13.9708 128.429 13.9227 128.249 13.4884C128.249 13.4884 128.335 13.8917 128.076 14.1778C127.821 14.4591 127.644 14.6349 127.39 14.709C127.39 14.709 126.759 14.1087 126.706 13.8751C126.706 13.8751 126.776 15.2908 126.533 15.0254C126.533 15.0254 125.202 13.8482 124.937 13.7052C124.937 13.7052 124.365 13.7897 124.138 13.7638C123.905 13.7426 123.114 13.436 122.961 13.1759C122.961 13.1759 122.932 13.4844 123.367 13.7911C123.367 13.7911 122.976 13.7277 122.828 13.6583C122.828 13.6583 122.6 13.9181 122.191 14.0235C122.191 14.0235 122.601 14.4854 122.781 14.6602C122.781 14.6602 121.973 14.5162 121.607 14.129C121.607 14.129 121.143 14.1523 120.632 13.9981C120.119 13.8445 119.81 13.8966 119.349 13.9708C118.89 14.045 118.814 13.997 118.48 13.9181C118.146 13.8434 117.23 13.3302 117.23 13.3302C117.23 13.3302 117.383 13.7387 117.537 13.8712C117.537 13.8712 117.458 14.2053 116.717 13.9981C115.974 13.791 115.946 13.5633 115.564 13.3302C115.178 13.1029 114.923 12.7678 115.004 12.4865C115.077 12.2057 115.31 11.9982 115.31 11.9982C115.31 11.9982 115.54 12.2053 115.947 12.3849C115.947 12.3849 115.259 11.517 115.18 11.2092C115.18 11.2092 115.54 11.2828 115.721 11.3088C115.721 11.3088 115.846 10.8217 116.922 10.594C117.283 10.5145 117.586 10.467 117.83 10.4299C114.87 9.50824 110.73 8.35288 105.95 7.39351C105.87 7.4841 105.807 7.57352 105.749 7.66889C105.68 7.78014 105.621 7.89665 105.562 8.01849C105.387 8.37925 105.254 8.74544 104.974 8.98329C104.974 8.98329 102.753 8.28892 102.038 7.93453C102.038 7.93453 103.162 8.85831 103.947 9.27628C103.947 9.27628 103.271 10.3941 100.923 10.1298C100.923 10.1298 99.8383 10.6017 98.9838 10.5106C98.1379 10.4211 96.8459 9.86444 96.5809 9.42476C96.3149 8.98397 96.3459 8.07221 97.2579 7.54193C97.2579 7.54193 98.5028 8.29968 99.1172 8.64929C99.1172 8.64929 98.0213 7.28243 98.1056 6.84275C98.1056 6.84275 98.4963 6.52002 98.963 6.23925C98.418 6.16505 97.867 6.09496 97.311 6.03616C92.2862 5.46878 87.8394 5.38398 83.8055 5.61227C84.1244 6.07315 84.0585 6.50238 84.3133 6.96383C84.6206 7.52535 84.1707 7.78021 84.1707 7.78021C83.8364 7.50423 82.4384 6.9111 82.4384 6.9111C82.9687 7.41488 83.4188 8.11415 83.4188 8.11415C83.0845 8.31071 82.1947 8.48638 81.2353 8.53406C80.2765 8.57749 78.9131 9.36997 78.9131 9.36997C78.3404 9.19992 77.8527 8.61775 77.3701 8.17271C77.2806 8.09378 77.1965 8.02394 77.1319 7.96569C77.1112 7.94447 77.0833 7.92886 77.0674 7.91296C77.0515 7.90236 77.0423 7.8923 77.0323 7.88171C77.0164 7.87643 76.9993 7.86052 76.9834 7.85046C77.0052 7.87111 77.0267 7.95036 77.042 8.00279C77.042 8.00863 77.0406 8.01311 77.0459 8.01842C77.0459 8.0237 77.0465 8.03072 77.0518 8.036C77.0836 8.12077 77.1147 8.19871 77.1475 8.27818C77.2153 8.4371 77.2913 8.60307 77.376 8.75668C77.6197 9.22286 77.9103 9.66157 78.2022 10.0964C78.207 10.1017 78.212 10.1126 78.2178 10.1179C78.3396 10.3134 78.452 10.4955 78.5479 10.6433C78.5897 10.7021 78.626 10.7535 78.6572 10.8113C78.6684 10.8277 78.6729 10.8397 78.6787 10.8503C78.6946 10.8715 78.7052 10.8858 78.7158 10.907C78.7323 10.9393 78.7487 10.9555 78.7588 10.9714C78.7641 10.982 78.775 10.9974 78.7803 11.0085C78.7961 11.0244 78.8009 11.0404 78.8057 11.0515C78.6843 10.8973 78.3036 10.8241 78.1182 10.7605C78.1076 10.7552 78.0956 10.7541 78.085 10.7487C77.7676 10.6216 77.4701 10.4581 77.1788 10.2722C77.1735 10.2669 77.1679 10.2624 77.1631 10.2624C77.0307 10.1719 76.6438 9.8155 76.4854 9.87378C76.4854 9.87378 76.4528 9.88527 76.3897 9.90698C76.3733 9.91282 76.3476 9.91592 76.3253 9.92651C76.2882 9.93711 76.2461 9.94859 76.2042 9.95971C76.156 9.97031 76.1076 9.98482 76.0499 10.0007C76.0022 10.0113 75.951 10.0233 75.8917 10.0339C75.8234 10.0498 75.7432 10.059 75.6632 10.0749C75.5255 10.1014 75.3922 10.1132 75.255 10.1238H75.2335C75.064 10.1338 74.873 10.1397 74.6828 10.1296C73.7018 10.0708 72.4999 9.23286 71.6619 8.38949C71.3599 8.0933 71.2649 7.76572 71.2589 7.46373C70.3849 7.67032 69.527 7.88581 68.689 8.1141C67.438 8.40549 60.6363 9.92654 53.6875 11.4848C53.7294 11.9674 53.5293 12.488 53.5293 12.7581C53.5293 13.2407 53.916 13.6058 53.916 13.6058C53.1209 13.6694 51.7169 13.139 51.7169 13.139C52.1147 13.7063 53.2599 14.3577 53.2599 14.3577C53.2599 14.3577 53.094 14.9896 52.5685 15.2073C52.044 15.4245 51.6479 15.339 50.9962 15.2913C50.3388 15.2484 49.7719 15.557 48.9397 15.5999C48.1075 15.6423 47.0882 15.1272 47.0882 15.1272C48.0057 15.2125 48.6897 14.5921 48.6897 14.5921C47.5132 14.4591 47.1465 14.0236 47.014 13.764C46.9186 13.5728 46.6285 13.3146 46.3636 13.1234C41.259 14.2635 37.3092 15.1467 37.3092 15.1467C34.0767 15.5816 31.4637 15.9104 31.4637 15.9104C31.3043 16.1069 31.0921 16.4316 31.3681 16.5276C31.3681 16.5276 31.9017 16.7006 32.5692 16.7482C33.2007 16.7906 33.9071 16.7482 33.9071 16.7482C33.9071 16.7482 31.3247 17.9525 31.0127 18.0373C30.7001 18.1268 30.2959 18.5295 30.2959 18.5295C30.2959 18.5295 30.287 18.5345 30.2764 18.5451C30.2658 18.5562 30.2434 18.5727 30.2275 18.5881C30.2222 18.5939 30.2127 18.6043 30.2021 18.6095L30.1533 18.6564C30.334 18.5769 30.5625 18.5032 30.7744 18.4767C31.1616 18.4243 31.622 18.7834 31.622 18.7834C31.622 18.7834 32.0305 18.8589 32.4384 18.7052C32.8569 18.5574 33.7092 18.578 33.6668 18.588C33.402 18.631 33.1385 18.8107 32.8837 18.8107C33.0903 18.8107 33.3718 18.9539 33.536 19.0705C34.294 19.5843 33.3328 20.2519 32.8407 20.4903C32.0884 20.4056 31.622 20.7032 31.622 20.7032C31.622 20.7032 32.5915 20.7037 32.5438 20.9844C32.4908 21.2652 32.0574 21.4448 31.5966 21.545C31.1352 21.6461 30.7743 22.1074 30.7743 22.1074C30.9809 22.1334 31.161 22.3359 31.161 22.3359C31.161 22.3359 30.6717 22.3884 30.5986 22.4414C30.5186 22.4891 30.2642 23.0563 30.0576 23.3105C29.8552 23.5654 29.1416 23.7461 29.1416 23.7461C29.47 23.9267 30.5185 24.0527 30.5185 24.0527C29.94 24.2598 29.264 24.2965 29.0303 24.3066C29.1945 24.4078 30.7961 25.4251 30.8544 25.4627C30.8592 25.4627 30.8589 25.4666 30.8642 25.4666C31.2038 25.5466 31.5427 25.6264 31.8818 25.7069C35.7299 26.5921 39.6731 27.4932 43.6214 27.7205C46.0068 27.8582 48.4197 27.4989 50.7617 27.0857C52.1988 26.8362 53.6297 26.5448 55.0388 26.1952C54.3984 26.8944 53.6987 27.6039 52.8924 28.1072C52.929 28.0966 52.9725 28.0865 53.0096 28.0759C57.7739 26.9047 62.5343 25.7178 67.3101 24.5937C70.3052 23.8891 73.3411 23.6012 76.384 23.5429C76.7177 23.3262 77.1486 23.1417 77.7413 23.121C78.8385 23.084 79.8823 23.3428 80.624 23.5976C81.8483 23.6495 83.0734 23.719 84.2977 23.8085C83.8411 23.0346 83.1529 22.2988 82.3212 21.9375C83.4183 21.9375 84.5144 21.9635 85.6121 22.0058C91.7603 22.2336 97.9526 22.6847 104 23.8613C105.49 24.1473 106.984 24.4765 108.469 24.8319C108.484 24.8261 108.581 24.7958 108.655 24.6464C108.729 24.4774 108.692 24.1059 109.035 24.0312C109.38 23.9517 109.996 24.2603 110.149 24.3398C110.303 24.4134 111.171 24.9593 111.447 25.0917C111.607 25.1659 111.675 25.4303 111.701 25.6581C112.518 25.8858 113.33 26.1195 114.141 26.369C114.136 26.369 114.135 26.364 114.129 26.3592C114.114 26.3529 114.098 26.3366 114.082 26.326C114.061 26.3101 114.04 26.295 114.014 26.2791C113.998 26.2632 113.975 26.2535 113.959 26.2381C113.918 26.2058 113.869 26.1717 113.816 26.1346C113.811 26.1346 113.806 26.1307 113.806 26.1307C113.748 26.0883 113.685 26.0461 113.621 26.0037C113.606 25.9926 113.589 25.9831 113.572 25.9725C113.525 25.9402 113.477 25.9027 113.424 25.8709C113.403 25.855 113.382 25.8386 113.355 25.828C113.307 25.7956 113.261 25.7641 113.213 25.7323C113.192 25.7169 113.166 25.7071 113.144 25.6913L112.937 25.5643C115.445 23.7516 118.968 24.1484 118.968 24.1484C118.968 24.1484 119.774 24.2551 120.367 24.4569C120.367 24.4569 121.174 24.058 121.773 24.121C122.372 24.1846 123.453 24.7479 123.554 25.0917C123.648 25.4371 123.351 26.5018 123.156 26.9314C122.953 27.3605 121.878 28.0167 121.269 28.2244C121.269 28.2244 121.242 28.1705 121.195 28.0916C121.178 28.0656 121.158 28.0394 121.136 28.0076C121.014 27.8222 120.797 27.5565 120.49 27.3435C120.495 27.36 120.506 27.3974 120.517 27.4451C120.528 27.4769 120.537 27.509 120.548 27.5467C120.553 27.5726 120.565 27.6047 120.57 27.6365C120.58 27.663 120.585 27.6906 120.591 27.7166C120.623 27.8278 120.649 27.9586 120.675 28.0857C120.695 28.1969 120.711 28.3023 120.722 28.3982C120.722 28.3982 120.594 28.4678 120.41 28.5955C124.014 30.1057 127.258 32.1989 130.358 34.5737C132.167 35.9569 134.016 37.4413 136.057 38.4642C136.183 38.5278 136.306 38.587 136.434 38.64C136.773 38.7835 137.124 38.9048 137.462 39.0208C139.498 39.7211 141.623 39.4823 143.606 38.7513H143.61C143.679 38.6925 143.723 38.6556 143.723 38.6556C143.854 38.5285 143.975 38.3954 144.086 38.2572C144.192 38.12 144.294 37.9822 144.389 37.8392V37.8333C144.442 37.7486 144.495 37.6602 144.538 37.5697C145.184 36.3613 145.227 34.9503 145.014 33.6518C145.009 33.593 145 33.5357 144.989 33.4721C144.962 33.3079 144.93 33.1486 144.893 32.9897C144.782 32.5129 144.65 32.0617 144.506 31.648C144.363 31.2337 144.215 30.864 144.083 30.5562C144.035 30.4556 143.993 30.3592 143.956 30.2691C143.934 30.2219 143.913 30.1801 143.893 30.1382C143.855 30.0583 143.817 29.9831 143.786 29.9136C143.764 29.8766 143.749 29.8394 143.727 29.8082C143.711 29.7764 143.695 29.7453 143.684 29.7183C143.664 29.6813 143.648 29.6492 143.631 29.6226C143.615 29.5914 143.606 29.5713 143.6 29.5601C144.13 30.0104 144.598 30.4441 145.022 30.8843C146.294 32.0508 148.387 34.2135 149.68 36.7943C151.625 40.68 152.34 43.2403 152.34 43.9561C152.34 44.6718 150.703 44.4708 149.473 44.3643C148.249 44.2642 142.004 44.8784 139.852 45.9014H139.862C141.289 45.5671 142.726 45.3445 144.046 45.3291C147.868 45.2814 153.215 46.3829 154.815 47.8095L154.886 47.8369C154.886 47.8369 156.035 48.6842 155.776 49.7235C155.559 50.587 154.705 51.2662 153.231 51.3562C153.231 51.3562 153.177 52.3204 153.761 53.2332C154.343 54.139 155.575 55.2507 155.575 55.2507C157.361 55.5209 159.135 55.8712 160.901 56.2585C160.917 56.2638 160.933 56.2693 160.954 56.2741C161.924 56.5972 162.994 56.7405 163.985 56.9948C164.542 57.1431 165.098 57.2859 165.655 57.4401C166.874 57.7733 168.088 58.1295 169.291 58.522C170.059 58.771 170.829 59.0258 171.592 59.3013C171.794 59.3707 172.748 59.8565 172.885 59.7564C173.267 59.4867 175.404 57.998 177.078 57.6744C178.924 57.3195 180.65 56.6244 180.65 54.5515C180.47 52.3838 178.758 50.1363 176.893 48.6357C176.893 48.6357 174.2 51.9657 172.863 50.9423C171.523 49.9199 173.564 48.5511 173.135 45.8897C172.709 43.2294 163.986 34.2672 152.966 27.6584C152.966 27.6584 158.064 29.7613 162.988 32.375C169.01 33.3656 170.419 31.7978 170.742 31.1505C170.557 30.8284 170.336 30.4984 170.08 30.1642C169.858 30.0153 169.54 29.8312 169.185 29.6935C168.49 29.4281 167.834 29.3164 167.373 29.088C167.373 29.088 166.313 28.018 165.963 27.5041C165.963 27.5041 165.851 27.9707 166.142 28.5275C166.142 28.5275 165.326 27.8111 164.578 27.6564C163.832 27.5028 162.93 27.2024 162.697 27.0275C162.469 26.8527 162.008 26.4494 162.008 26.4494C162.008 26.4494 162.029 26.8154 162.141 27.0861C162.141 27.0861 161.373 27.0266 161.24 26.2209C161.108 25.4152 161.738 25.0862 161.738 25.0862C161.738 25.0862 161.68 24.8591 161.738 24.5725C161.738 24.5725 162.428 25.3354 162.756 25.5315C162.756 25.5315 162.905 25.0448 162.623 24.2073C162.539 24.1596 162.454 24.1104 162.369 24.0628C162.114 23.9256 161.865 23.7991 161.631 23.6936C161.435 23.6026 150.082 17.169 144.702 14.4655C144.304 14.4289 143.758 14.3432 143.18 14.1471C143.18 14.1471 142.281 13.7286 142.131 13.2995C142.131 13.2995 142.068 13.5207 142.2 13.7643C142.428 14.1775 142.91 14.6188 143.053 15.192C143.053 15.192 142.156 14.6613 141.42 14.2799C140.773 13.9462 139.421 13.5571 138.649 12.985C138.49 12.868 138.373 12.7476 138.284 12.6315C138.252 12.5944 138.225 12.5617 138.204 12.5241C138.123 12.4076 138.076 12.2908 138.046 12.1901C138.029 12.143 138.019 12.0997 138.012 12.0573C138.007 12.0362 138.002 12.0205 138.002 11.9988C137.992 11.9405 137.991 11.8932 137.991 11.8562C137.991 11.7926 137.997 11.7566 137.997 11.7566C138.018 11.7725 138.023 11.7772 138.034 11.7878C138.044 11.799 138.055 11.8085 138.075 11.8191C138.086 11.8302 138.108 11.8462 138.129 11.862C138.448 12.1375 138.793 12.4441 139.196 12.5554C139.226 12.566 139.264 12.5774 139.295 12.5827C139.285 12.5663 139.275 12.5517 139.258 12.5358C139.247 12.52 139.233 12.5029 139.217 12.487C139.19 12.4552 139.153 12.4136 139.116 12.3718C138.91 12.144 138.623 11.7766 138.389 11.3093C134.009 9.13941 128.76 6.82489 121.64 5.42534C117.81 4.66807 114.45 4.43377 111.74 4.43707L111.721 4.43408ZM99.079 35.977C98.6923 36.0194 98.2998 36.0677 97.9131 36.1313C96.7529 36.3166 95.609 36.5915 94.5284 36.8617C94.5231 36.867 94.3634 36.9044 94.2999 36.9203C94.231 36.9362 94.1735 36.9468 94.1417 36.9574C94.1364 36.9574 94.1358 36.958 94.1358 36.9633H94.1299C94.114 36.9686 94.1045 36.9672 94.1045 36.9672C94.1045 36.9672 94.093 36.9742 94.0771 36.9848C94.0665 37.0007 94.0515 37.0099 94.0303 37.0258L94.0186 37.0375C94.008 37.0481 93.992 37.0582 93.9814 37.0688C93.9603 37.0847 93.9401 37.1056 93.919 37.1215C93.9137 37.1215 93.9126 37.122 93.9072 37.1274C93.8595 37.1698 93.797 37.2281 93.7334 37.2758C93.6804 37.3235 93.6276 37.3648 93.5694 37.4125C93.527 37.4549 93.4848 37.4829 93.4424 37.52C93.3735 37.5782 93.319 37.6305 93.2608 37.6781C92.8529 38.0172 92.4456 38.4999 92.2178 39.0297C92.2019 39.0615 92.1854 39.0975 92.1748 39.1293C92.1589 39.1823 92.1374 39.2521 92.1163 39.3051C92.1163 39.321 92.1059 39.3361 92.1006 39.352C92.0953 39.3732 92.0903 39.3952 92.085 39.4164C92.0691 39.4853 92.0591 39.5526 92.0538 39.6215C92.0538 39.6268 92.0479 39.6377 92.0479 39.643C92.0373 39.7489 92.0373 39.8612 92.0479 39.9672C92.1008 40.5287 92.5191 40.9883 92.9111 41.3538C93.6792 42.0796 94.6016 42.6583 95.4969 43.2093C98.0873 44.8091 100.726 46.2873 103.215 48.0568C128.481 53.2533 141.941 60.3673 141.941 60.3673C141.941 60.3673 143.457 61.4432 142.572 62.6935C142.143 63.2974 141.31 63.1958 140.716 63.0157C140.06 62.6608 138.769 61.9943 136.867 61.1096C131.527 58.5348 121.022 54.0205 105.675 49.936C107.985 51.8221 110.135 53.8778 112.317 55.928C115.644 56.7279 118.707 57.5387 121.499 58.3439C121.764 58.4181 122.029 58.4963 122.294 58.5704C123.952 59.0419 125.603 59.5406 127.25 60.0704C129.984 60.9498 132.688 61.9086 135.352 62.9629C135.516 63.0264 135.68 63.0952 135.844 63.164C136.072 63.2594 136.3 63.3435 136.512 63.4336C137.672 63.905 138.821 64.3982 139.965 64.912C140.622 65.2087 141.278 65.5051 141.93 65.8124C141.945 65.8124 141.957 65.8174 141.967 65.828C141.998 65.8439 142.027 65.8551 142.058 65.871C142.08 65.8816 142.09 65.8866 142.09 65.8866C142.09 65.8866 143.095 66.5862 143 67.5291C142.995 67.5927 142.979 67.662 142.963 67.7362C142.952 67.7732 142.942 67.8162 142.926 67.8533C143 67.8639 143.059 67.8684 143.101 67.8631C144.675 67.7678 146.21 67.6137 147.736 67.1952C148.165 67.0787 148.59 66.9476 149.013 66.8046C149.876 66.5081 150.713 66.1564 151.539 65.7753C151.496 65.7753 150.141 64.0166 149.982 63.8418C148.763 62.4751 147.397 61.2315 145.892 60.172C146.094 60.1137 146.31 60.0492 146.527 59.9962C146.744 59.9433 146.972 59.9128 147.189 59.9181C145.982 58.721 144.488 57.7672 143.068 56.8772C142.544 56.5382 142.004 56.2191 141.469 55.9066C141.315 55.8165 141.162 55.7212 141.008 55.6312C140.902 55.5676 140.791 55.4994 140.68 55.4359C140.065 55.0809 139.445 54.7306 138.82 54.3968L138.799 54.387C138.809 54.3817 138.819 54.3811 138.824 54.3811H138.793C138.036 53.3586 135.191 49.3008 131.282 49.4438C131.282 49.4438 131.266 49.3653 131.229 49.2329C131.223 49.2011 131.214 49.1639 131.198 49.1215C131.113 48.8408 130.953 48.3958 130.667 47.8872C130.63 47.813 130.588 47.7446 130.545 47.6704C130.318 47.2943 130.02 46.8911 129.639 46.5044C129.596 46.4567 129.55 46.4081 129.497 46.3658C129.412 46.281 129.326 46.203 129.231 46.1236C129.152 46.0547 129.068 45.984 128.983 45.9205C128.941 45.8886 128.898 45.8585 128.856 45.8267C128.782 45.7737 128.708 45.7195 128.633 45.6666C128.554 45.6136 128.475 45.5672 128.395 45.5142C128.316 45.4665 128.23 45.4135 128.145 45.3658C128.06 45.3181 127.972 45.2695 127.881 45.2271C127.701 45.1371 127.511 45.0468 127.309 44.9674C127.209 44.925 127.107 44.8892 127.001 44.8521C126.895 44.815 126.79 44.7765 126.678 44.7447C126.387 44.6547 126.08 44.5764 125.747 44.5182C125.62 44.4917 125.496 44.4696 125.364 44.4537C125.269 44.4378 125.174 44.4272 125.073 44.4166C124.771 44.3795 124.459 44.353 124.126 44.3424C124.131 44.3424 124.135 44.3488 124.145 44.3541C124.151 44.3594 124.157 44.358 124.157 44.358C124.565 44.4905 124.899 45.0365 125.174 45.3385C125.519 45.7146 125.862 46.0859 126.19 46.4673C126.64 47.0023 127.076 47.5536 127.489 48.1099C128.225 49.1058 128.897 50.1429 129.485 51.2288C129.776 51.7692 130.047 52.326 130.286 52.8929C130.407 53.1736 130.513 53.4642 130.629 53.7503C130.682 53.888 130.737 54.0266 130.774 54.1643C130.795 54.2385 130.805 54.4819 130.858 54.5295C130.222 53.931 129.639 53.2909 128.993 52.6976C128.595 52.3321 128.187 51.9705 127.774 51.6156C126.349 50.3865 124.856 49.2277 123.288 48.1842C123.023 47.9988 122.753 47.8188 122.471 47.6334C122.471 47.6334 122.466 47.6275 122.461 47.6275C122.456 47.6275 122.451 47.6216 122.446 47.6216C122.361 47.5898 122.261 47.5538 122.155 47.522C121.249 47.2042 119.707 46.6889 118.456 46.3658C118.17 46.2864 117.905 46.2241 117.661 46.1764C115.78 45.8003 114.403 45.8639 114.403 45.8639C114.403 45.8639 115.22 45.5499 115.718 45.2956C115.718 45.2956 112.524 45.4237 109.007 44.735C105.495 44.0463 100.975 41.2858 99.3431 39.0926C99.3431 39.0926 100.471 39.4062 101.351 39.3426C101.351 39.3426 99.4975 37.3331 99.079 35.977Z" fill="#D7A22A"/>
<path d="M88.1924 10.9551C87.9805 11.8772 88.1612 14.4804 88.1612 14.4804C87.7368 13.9824 87.1534 12.6562 87.1534 12.6562C87.1534 12.6562 86.6651 12.4443 86.1671 12.5508C85.6697 12.6567 84.8526 13.1547 84.7784 13.4726C84.7101 13.7963 84.2863 14.1152 84.2863 14.1152C84.2863 14.8256 84.7784 15.9589 84.7784 15.9589C84.2487 15.6781 83.5031 14.7187 83.5031 14.7187C83.3595 14.9677 83.221 15.7163 83.5754 16.6015C83.9303 17.492 86.0929 17.953 86.0929 17.953C87.4071 18.0584 88.2613 16.8511 88.9717 16.957C89.6821 17.0629 89.9521 17.0507 89.9521 17.0507C90.1635 17.3373 91.1709 18.2382 91.1709 18.2382V16.7597C91.1709 16.7597 91.3511 16.706 92.0302 16.4258C92.7035 16.1392 93.0584 14.8613 93.1279 14.3633C93.2021 13.8648 93.0575 13.2623 92.5595 12.7638C92.0616 12.2706 91.3198 12.1969 90.4658 12.34C89.6124 12.483 89.0206 12.545 89.0206 12.545C88.7326 12.1541 88.1916 10.9561 88.1916 10.9561L88.1924 10.9551ZM67.9981 13.33C67.1977 13.2617 65.5975 13.9251 65.1466 14.2382C64.6905 14.5512 63.8597 14.8944 63.1975 14.9315C62.5343 14.9691 61.3525 15.5945 61.0023 16.0448C60.6532 16.5014 60.6214 16.7752 60.6214 16.7752C60.6214 16.7752 60.1336 17.0588 60.0961 17.5779C60.0637 18.1024 60.0912 18.3557 60.2347 18.5994C60.2347 18.5994 61.2574 18.4462 62.1585 18.0642C62.1585 18.0642 60.7262 19.6333 59.0512 20.3279C59.0512 20.3279 60.7902 20.3426 61.6273 19.9607C61.6432 19.9607 61.8089 19.9822 62.1956 20.6931C62.6041 21.4406 63.9601 21.5461 65.1467 21.5837C66.3286 21.6154 66.7106 21.5831 67.0978 21.6149C67.4792 21.652 68.5241 21.4094 68.8361 21.1657C69.1285 20.9379 69.7912 20.4031 69.8712 20.3337C69.7701 20.366 69.0014 20.5976 68.4553 20.4646C68.4553 20.4646 68.9748 19.9079 69.3556 19.8767C69.7429 19.8391 70.3683 19.4583 70.5431 18.865C70.7184 18.2759 71.3062 17.8588 71.6193 17.6463C71.9371 17.4397 73.1148 16.6278 73.2208 15.7108C73.3268 14.7944 72.8379 14.063 71.2736 13.957C71.2736 13.957 69.9497 14.5824 68.4182 14.7578C68.4182 14.7578 69.2548 14.3747 70.5743 13.3301C70.5743 13.3301 69.5681 13.5053 69.1174 13.5371C69.1174 13.5371 68.798 13.3994 67.9981 13.33ZM107.435 13.8495C107.577 14.019 108.134 14.328 108.134 14.328C108.134 14.328 107.519 14.3859 106.931 14.5819C106.342 14.7779 106.118 15.2818 105.812 15.4784C105.505 15.6749 104.413 15.6424 104.413 15.6424C104.806 16.2882 106.341 17.2947 106.341 17.2947C105.17 17.0139 103.152 16.0662 103.152 16.0662C103.152 16.0662 102.425 16.0082 101.587 16.4002C100.746 16.7927 100.659 17.661 100.941 18.4138C101.221 19.1708 102.759 19.9254 102.759 19.9254C102.081 19.9254 101.032 19.7284 100.9 19.7067C101.026 19.802 102.16 20.6142 103.294 20.8786C104.497 21.1598 105.558 20.6833 105.558 20.6833C105.335 20.349 105.421 19.6755 105.421 19.6755C106.307 20.5866 108.463 21.5298 108.628 21.5992C107.987 21.1484 107.212 20.0368 107.212 20.0368C107.212 20.0368 108.08 19.7014 108.499 19.3942C108.918 19.0875 109.619 18.1916 109.677 17.9685C109.73 17.7455 110.206 17.2107 110.206 17.2107C110.742 17.5184 111.384 17.5759 111.384 17.5759C111.049 17.2363 110.966 16.6502 110.966 16.6502C110.966 16.6502 111.663 16.373 112.235 15.9021C112.807 15.4254 113.089 14.4977 112.39 14.2694C111.69 14.0464 110.852 14.3282 110.401 14.2753C109.956 14.2165 108.95 14.1581 108.95 14.1581C108.584 14.1581 107.435 13.8495 107.435 13.8495ZM137.401 15.6326C137.121 15.6333 136.867 15.6771 136.713 15.7303C136.406 15.8309 135.186 15.8319 135.186 15.8319C135.694 16.3086 136.373 17.2576 136.373 17.2576C135.595 16.6802 133.999 15.8319 133.352 15.8319H133.215C132.578 15.8631 131.737 16.0916 131.45 16.4412C131.142 16.8173 130.501 16.9861 130.501 16.9861C130.533 17.2881 131.381 18.2439 131.381 18.2439C130.873 18.1056 129.922 17.6658 129.922 17.6658C129.922 17.6658 130.533 18.4806 131.11 18.7243C131.683 18.9738 132.23 19.2603 133.045 19.5993C133.863 19.9383 135.047 19.8376 135.047 19.8376C134.879 19.462 134.163 18.5446 134.163 18.5446C135.017 18.9896 136.983 20.2087 136.983 20.2087C137.291 20.1398 137.597 19.8695 137.799 19.5993C138 19.3291 138.34 19.5638 138.918 19.4997C139.496 19.4314 139.837 19.0532 139.873 18.5818C139.904 18.1044 139.702 17.7965 138.885 17.2244C138.069 16.647 138.071 16.2401 138.071 16.2401C138.451 16.3349 138.954 16.5461 139.018 16.5721C138.987 16.5085 138.717 16.0172 138.241 15.7948C137.986 15.6753 137.68 15.632 137.401 15.6326ZM123.811 17.0896C124.32 17.2909 124.522 17.5681 124.522 17.5681C124.522 17.5681 124.219 17.5998 123.907 17.5622C123.593 17.5309 123.535 17.3972 123.063 17.3278C122.587 17.259 122.385 17.2594 121.807 17.4977C121.23 17.7367 120.684 17.7008 120.684 17.7008C120.006 17.499 118.678 17.361 118.678 17.361C119.363 17.7371 119.973 18.2458 119.973 18.2458C119.734 18.4153 118.785 18.7866 118.579 18.8883C118.377 18.9937 117.933 19.4017 118.171 19.8043C118.41 20.2127 118.479 20.5875 118.479 20.5875C117.87 20.3809 116.847 20.2125 116.847 20.2125C117.36 20.5886 118.819 21.9448 118.819 21.9448C118.241 21.8442 117.255 21.4683 117.255 21.4683C117.255 21.4683 116.983 21.8075 117.02 22.1147C117.053 22.4167 117.492 22.6567 117.97 22.7944C118.446 22.9326 119.565 22.9311 119.565 22.9311C120.791 22.7553 121.532 22.3862 121.532 22.3862C121.278 21.9407 120.7 21.3737 120.626 21.3043C120.737 21.3308 122.034 21.7128 122.686 21.8082C123.365 21.9088 124.048 21.5378 124.319 21.2301C124.589 20.9281 124.729 20.79 125.221 20.6793C125.714 20.5675 126.356 20.1422 126.356 20.1422C126.256 19.8132 125.836 19.2105 125.784 19.1305C126.058 19.2264 126.764 19.4001 126.764 19.4001C126.764 19.4001 127.31 18.717 126.796 18.2185C126.286 17.7206 125.407 17.5681 125.407 17.5681C124.898 17.2286 123.811 17.0896 123.811 17.0896ZM146.365 17.1267C146.465 17.471 146.727 17.8103 146.727 17.8103C146.727 17.8103 146.562 17.9912 145.957 17.7634C145.359 17.5351 144.881 17.6306 144.881 17.6306C144.881 18.1974 145.551 19.152 145.551 19.152C145.18 19.0037 144.42 18.4724 144.42 18.4724C144.5 19.0773 144.924 19.5485 144.924 19.5485C144.924 19.5485 145.246 19.952 146.02 20.3493C146.794 20.7418 147.469 20.5876 147.469 20.5876C148.576 20.6516 149.223 21.4313 149.223 21.4313C149.01 21.399 148.756 21.3824 148.756 21.3824C148.545 21.3824 149.36 21.9037 149.928 22.3434C150.495 22.7825 151.539 22.7437 151.539 22.7437C151.454 22.4688 150.914 21.1872 150.914 21.1872C151.301 21.5257 152.408 22.5016 152.408 22.5016C152.408 22.5016 152.619 22.2735 152.619 21.9509C152.619 21.6272 152 20.8318 152 20.8318C152 20.8318 152.473 20.3606 152.394 20.0682C152.31 19.7768 151.873 19.322 151.646 19.2049C151.433 19.099 150.961 18.7908 150.902 18.7538C151.004 19.1511 151.379 19.6545 151.428 19.7186C151.369 19.6762 150.887 19.3105 150.766 19.1717C150.638 19.0234 149.825 18.2295 149.111 17.9218C148.396 17.615 147.453 17.9061 147.453 17.9061C147.129 17.7631 146.365 17.1267 146.365 17.1267ZM44.829 18.9136C44.3592 18.9349 43.9501 19.021 43.8095 19.1773C43.534 19.4951 42.9401 20.0521 42.245 20.6088C41.5463 21.1651 41.7587 21.5951 41.7587 21.5951C41.202 21.8012 39.4268 22.0717 39.4268 22.0717C39.9836 22.2783 41.4931 22.6322 41.4931 22.6322C41.4931 22.6322 41.5841 22.7293 41.2021 23.1166C40.8149 23.498 40.6299 24.3567 40.6299 24.3567C41.2232 24.7016 43.0614 25.1262 43.0614 25.1262C42.0548 25.2629 40.6455 25.5168 40.6455 25.5168C40.6455 25.5168 40.9201 26.0041 42.1024 26.1789C43.2896 26.349 44.8543 25.4114 44.8543 25.4114C46.1422 25.7244 47.0477 24.9602 47.0477 24.9602C46.7717 24.9231 46.1414 24.6106 46.1414 24.6106C46.9784 24.6795 47.8172 24.5052 47.8172 24.5052C48.6489 24.0173 48.9983 23.6024 48.7918 23.0091C48.5793 22.4153 48.7917 22.0353 48.7547 21.1654C48.7176 20.2961 48.0769 19.9349 48.0769 19.9349C49.2429 19.6282 49.5925 19.0775 49.5925 19.0775C49.5925 19.0775 47.8103 19.2514 47.3914 19.2514C46.9729 19.2514 46.9779 19.2509 46.2098 19.0385C45.8281 18.9354 45.2987 18.8924 44.829 18.9136ZM140.388 22.0815C140.864 22.3522 141.591 22.7983 141.591 22.7983C141.564 22.7983 140.722 22.8036 140.319 23.5405C139.911 24.2879 140.489 24.2181 140.659 25.2357C140.829 26.2534 141.846 25.9837 141.846 25.9837C141.544 25.7448 141.655 25.3841 141.655 25.3841C142.111 25.7396 142.492 25.8513 143.137 25.9837C143.779 26.1209 144.018 26.3919 144.018 26.3919C143.479 26.3919 142.799 26.3607 142.799 26.3607C142.799 26.3607 143.541 26.938 144.299 27.0911C145.056 27.2505 145.376 26.7688 145.376 26.7688C146.091 26.7688 146.907 27.1067 146.907 27.1067C146.77 26.8313 146.532 26.222 146.532 26.222C146.871 26.0202 147.316 25.237 146.569 24.7279C145.821 24.2194 145.783 23.6092 144.803 22.9311C143.818 22.252 142.932 22.5229 142.932 22.5229C143.239 22.7931 143.338 23.3022 143.338 23.3022C142.051 22.5235 140.388 22.0815 140.388 22.0815ZM77.7468 23.1206C77.154 23.1413 76.7251 23.3277 76.3913 23.5444C76.163 23.6938 75.9811 23.8626 75.8386 23.9956C75.489 24.324 74.7409 24.4565 74.7409 24.4565C74.3225 24.4935 73.2312 24.5463 73.2312 24.5463C74.7992 24.986 75.2469 25.5264 76.2057 25.892C75.3253 25.759 73.7781 25.4643 73.7781 25.4643C73.5709 26.3277 72.9611 26.6028 72.5008 26.9466C72.0389 27.2968 72.0028 27.5618 72.0028 27.5618C72.8239 27.7371 74.9109 28.9134 74.9109 28.9134C74.1423 28.701 72.0028 28.6966 72.0028 28.6966C71.8862 29.0774 71.7901 29.0774 72.4051 29.7883C73.0154 30.4987 72.9602 30.789 72.7489 31.0168C72.5364 31.2451 72.0551 31.8247 72.9774 32.5558C73.8998 33.2821 75.627 33.1484 76.1843 33.0695C76.741 32.9948 77.2819 33.1163 77.2819 33.1163C76.8624 32.8086 76.2058 32.1476 76.2058 32.1476C76.6301 32.1853 78.0065 32.4972 78.0065 32.4972C78.0065 32.4972 77.584 32.0721 77.8542 31.7648C78.119 31.4576 78.9664 31.5759 79.5963 31.0774C80.233 30.5789 80.0942 29.4436 80.233 29.1946C80.3654 28.9451 81.0181 28.5638 81.0181 28.5638C81.2676 28.5421 81.6548 28.5638 81.6548 28.5638C81.0763 28.2137 79.1725 27.2982 79.1725 27.2982C79.8617 27.3141 81.0396 27.4076 81.0396 27.4076C80.9814 27.1004 80.594 26.2422 80.4615 25.855C80.3286 25.4741 80.4446 25.1286 80.4987 24.896C80.5564 24.6677 80.5201 24.2652 80.5201 24.2652C80.3294 24.0527 79.985 23.8629 79.985 23.8629C80.6737 23.8788 81.69 24.0328 81.69 24.0328C81.5888 23.9857 81.1983 23.7947 80.6315 23.5992C79.8898 23.3444 78.8439 23.0835 77.7468 23.1206ZM154.223 23.6303C154.435 23.8634 154.414 24.1284 154.414 24.1284C154.244 24.1119 154.031 24.1123 153.592 24.2241C153.147 24.3406 152.786 24.726 152.786 24.726C153.109 25.0285 154.149 26.2806 154.149 26.2806C153.762 26.1058 152.993 25.7396 152.993 25.7396C152.993 26.0098 153.38 26.5068 153.858 26.8353C154.339 27.159 155.68 27.4876 155.68 27.4876C155.988 27.9061 157.18 28.0813 157.18 28.0813C157.084 27.8324 156.391 26.7572 156.391 26.7572C156.756 26.9325 158.139 27.7592 158.139 27.7592C158.139 27.7591 158.367 27.7578 158.522 27.5248C158.676 27.297 158.308 26.5294 158.176 26.2963C158.038 26.0685 157.811 25.5706 157.35 25.1304C156.889 24.6854 155.891 24.4351 155.891 24.4351L156.047 24.9761C155.47 24.3775 154.223 23.6303 154.223 23.6303ZM132.91 23.7729C132.502 23.7485 132.102 23.8301 131.832 24.0502C131.288 24.4894 131.054 24.5365 131.054 24.5365C130.482 24.3087 130 24.3569 130 24.3569C130.779 24.9978 131.558 25.7826 131.558 25.7826C130.848 25.6825 129.66 25.2729 129.66 25.2729C129.316 25.6437 129.421 25.9533 129.453 26.2923C129.491 26.6313 129.115 26.8685 129.115 26.8685C129.385 27.2764 130.678 28.2258 130.678 28.2258C130.301 28.2258 128.846 28.0247 128.846 28.0247C129.863 29.0428 131.224 29.0263 131.558 29.0422C131.897 29.0581 132.241 29.175 132.75 29.1438C133.258 29.1062 133.73 28.4954 133.73 28.4954C134.176 28.3258 134.573 27.712 134.716 27.4466C134.865 27.1764 135.326 26.8001 135.326 26.8001C135.093 26.3605 134.203 25.5502 134.203 25.5502C135.179 25.6879 136.414 26.4935 136.414 26.4935C135.942 25.7148 135.226 25.3432 135.226 25.3432C135.226 25.3432 134.647 24.5251 134.037 24.1284C133.732 23.9266 133.317 23.7973 132.91 23.7729ZM109.042 24.0327C108.698 24.1074 108.735 24.4789 108.661 24.6479C108.587 24.7972 108.491 24.8296 108.475 24.8354C108.856 25.1373 109.435 25.428 109.573 25.4916C109.19 25.3538 107.903 25.3119 107.903 25.3119C107.711 25.4661 107.622 25.9109 107.813 26.6791C107.824 26.7056 107.824 26.7312 107.829 26.7572C107.998 27.4994 107.891 28.2532 107.891 28.2532L107.511 28.3704C107.856 28.7889 108.507 29.0957 108.772 29.3294C109.027 29.5407 109.244 30.0671 109.27 30.1301C109.19 30.0771 108.565 29.6731 108.352 29.636C108.141 29.5989 107.907 29.2875 107.86 29.2239C107.887 29.3193 108.146 30.0818 108.544 30.4427C108.967 30.8235 110.384 31.5177 111.153 31.8625C111.922 32.2074 112.344 32.7004 112.344 32.7004C112.821 32.5896 111.974 31.7187 111.889 31.634C112.308 31.7505 113.049 32.2277 113.049 32.2277C112.986 31.9417 113.269 31.2849 113.114 30.8606C112.96 30.4426 111.999 29.5571 111.692 29.2922C111.384 29.0215 111.216 28.3272 111.268 28.0247C111.433 27.087 111.714 26.72 111.714 26.72C111.841 26.5606 112.149 26.2548 112.288 26.1165C112.754 26.1806 113.749 26.3178 114.231 26.4349C114.231 26.4349 114.222 26.424 114.206 26.4134C114.201 26.4134 114.194 26.4095 114.194 26.4095C114.178 26.3984 114.169 26.3863 114.147 26.3704C113.336 26.1209 112.524 25.8892 111.708 25.6615C111.681 25.4337 111.613 25.1673 111.454 25.0931C111.178 24.9607 110.309 24.4148 110.155 24.3412C110.002 24.2618 109.387 23.9532 109.042 24.0327ZM93.2452 24.1205C93.0046 24.1319 92.75 24.2001 92.5089 24.3881C92.021 24.7642 91.216 24.9814 90.7492 25.1928C90.283 25.41 90.1652 25.7338 90.1652 25.7338C90.526 25.8768 91.0832 26.7044 91.0832 26.7044C90.458 26.5609 89.0422 26.2904 89.0422 26.2904C89.0422 26.2904 89.0095 26.6816 88.8294 27.0052C88.6487 27.3289 88.1686 27.3497 87.7337 27.5833C87.3041 27.8164 86.9435 28.2101 86.9642 28.7298C86.996 29.588 88.0713 30.244 88.2043 30.3235C87.8388 30.2335 87.0169 30.095 87.0169 30.095C87.303 30.4346 89.2063 31.9621 89.2063 31.9621C88.9197 31.9245 87.9662 31.8567 87.9662 31.8567C88.364 31.9785 89.6733 32.5186 90.2454 32.6457C90.8233 32.7681 91.4113 32.5344 91.4113 32.5344C91.1999 32.3007 90.6594 31.8352 90.6594 31.8352C91.0732 31.9242 92.1106 32.2317 92.1106 32.2317C92.937 32.1946 93.5095 31.7659 93.8332 31.2786C94.1563 30.796 94.8781 30.3665 94.8781 30.3665C95.2436 30.4142 96.5159 30.5786 96.6749 30.595C95.9963 30.1972 95.3429 29.9153 95.3429 29.9153C95.8473 29.6823 96.331 29.3599 96.4894 28.9837C96.6536 28.6071 96.8496 28.4954 96.9386 27.9233C97.0297 27.3506 96.5265 26.7944 96.5265 26.7944C96.9932 26.8998 97.3898 27.0268 97.3898 27.0268C97.1196 26.7937 96.4897 26.3816 96.5109 26.1479C96.5268 25.9154 96.7956 25.8776 97.0128 25.5386C97.2247 25.1937 96.993 24.7268 96.548 24.5308C96.0977 24.3348 95.2003 24.2808 95.2003 24.2808C95.3434 24.5833 95.7726 24.9449 95.7726 24.9449C94.9462 24.6953 94.2481 24.2599 93.8938 24.191C93.7131 24.1536 93.4859 24.1092 93.2452 24.1205ZM121.777 24.1225C121.179 24.0595 120.373 24.4565 120.373 24.4565C119.78 24.2547 118.975 24.1479 118.975 24.1479C119.934 24.8054 120.234 25.7026 120.234 25.7026C119.71 25.3053 119.049 24.9292 119.049 24.9292C118.694 25.1834 118.575 25.6161 118.295 26.0404C118.008 26.4642 117.59 26.883 116.232 27.5404C114.88 28.1978 115.026 28.9524 115.026 28.9524L113.959 29.0091C114.738 29.1839 116.01 30.2863 116.01 30.2863C115.624 30.1322 114.819 30.0754 114.819 30.0754C114.664 30.7434 115.348 31.2667 115.688 31.5538C116.027 31.8452 116.381 32.7081 116.381 32.7081C116.031 32.6864 115.703 32.7413 115.703 32.7413C115.703 32.7413 116.683 33.0959 116.99 33.3507C117.299 33.5996 118.619 33.7042 118.619 33.7042C118.805 33.2756 118.375 32.7081 118.375 32.7081C117.622 32.3314 117.41 31.4425 117.41 31.4425C117.828 31.7657 118.289 31.9621 118.289 31.9621C118.289 31.9621 118.248 31.2136 118.783 30.2277C118.947 29.9205 119.192 29.6344 119.457 29.3801C119.796 29.0469 120.166 28.7717 120.416 28.5969C120.601 28.4692 120.728 28.3997 120.728 28.3997C120.717 28.3038 120.7 28.1984 120.68 28.0872C120.653 27.96 120.627 27.8273 120.596 27.7161C120.59 27.6901 120.585 27.6625 120.574 27.636C120.569 27.6042 120.56 27.5721 120.555 27.5462C120.543 27.5085 120.532 27.4764 120.521 27.4446C120.51 27.3969 120.501 27.3614 120.496 27.345C120.803 27.558 121.021 27.8217 121.143 28.0071C121.164 28.0389 121.184 28.0671 121.201 28.093C121.249 28.172 121.275 28.2258 121.275 28.2258C121.885 28.0182 122.96 27.36 123.162 26.931C123.357 26.5014 123.653 25.4366 123.558 25.0913C123.457 24.7475 122.377 24.1861 121.777 24.1225ZM60.3014 30.2973C60.6097 30.6782 61.9146 31.5473 61.9146 31.5473C60.9447 31.3672 60.3776 31.1118 60.3776 31.1118C60.3776 31.1118 59.9691 31.1127 59.487 31.2133C58.9997 31.3192 58.5163 31.8129 58.5163 31.8129C57.4722 31.797 56.8729 32.6235 56.3113 33.0844C55.7493 33.5452 55.1356 33.5453 55.1356 33.5453C55.4693 34.2344 56.3855 35.0022 56.3855 35.0022C55.6704 34.8221 54.2391 34.1331 54.2391 34.1331C54.0055 34.541 54.1599 35.2568 54.2664 35.7718C54.3666 36.2803 53.8094 36.6291 53.8094 36.6291C54.2867 37.2124 55.9245 37.717 55.9245 37.717C54.3983 37.8071 52.452 37.6213 52.452 37.6213C53.2424 38.0398 54.6746 38.3635 54.6746 38.3635C54.6746 38.3635 55.9237 38.9624 57.4987 39.1955C59.0725 39.4286 60.5103 38.3635 60.5103 38.3635C60.5103 38.3635 61.9406 38.608 62.5551 37.8928C63.1701 37.1771 62.6825 36.1517 62.5766 35.8714C62.4766 35.5904 62.5776 35.2294 63.0656 35.2034C63.5529 35.1774 63.9874 34.7425 63.9874 34.7425C64.6867 34.6524 65.8539 34.7476 66.0557 34.7639C65.7951 34.6999 63.9937 34.2446 63.7335 33.7991C63.4522 33.3118 64.2413 32.5708 64.2413 32.0082C64.2413 31.4467 63.6542 30.779 62.7844 30.5513C61.9151 30.3181 61.3801 30.4712 61.3801 30.4712C60.8928 30.4976 60.3014 30.2973 60.3014 30.2973ZM81.6186 37.0959C81.4812 37.1096 81.3576 37.1455 81.2554 37.2092C80.8427 37.4634 80.7937 37.926 80.5601 38.1056C80.3328 38.2852 79.6386 38.1837 79.3101 38.1837C78.9764 38.1837 78.8491 38.3583 78.7437 38.5919C78.7437 38.5919 80.1262 39.1277 80.816 39.5626C80.816 39.5626 78.6946 39.0804 77.9997 39.0275C77.9997 39.0275 78.6951 39.4092 78.9235 39.5157C78.9235 39.5157 80.2807 40.1499 80.5132 40.5372C80.5132 40.5372 79.9264 40.4314 79.4645 40.4102C79.4645 40.4102 80.5612 40.9986 81.2769 41.6348C81.2769 41.6348 81.5101 43.0927 82.1987 43.1992C82.8879 43.2999 83.4284 43.4262 83.7632 43.1719C84.0906 42.9171 84.1967 42.5039 84.1967 42.5039C84.1967 42.5039 84.6314 42.5835 84.9604 42.3028C85.2936 42.022 85.5287 41.5076 85.8354 41.4552C86.1378 41.4075 86.4979 41.6359 86.7045 41.6094C86.9063 41.5883 87.0599 41.4552 87.0599 41.4552C87.0599 41.4552 86.2162 41.1264 85.0932 40.6915C85.0932 40.6915 86.5982 40.818 87.4681 40.9981C87.4681 40.9981 87.7527 40.7399 87.0111 40.4591C86.2689 40.1783 86.6204 39.6527 85.7299 39.1017C84.8617 38.5667 83.9366 38.1055 82.9937 37.8772C82.9937 37.8772 83.7842 37.8775 84.5523 37.8245C84.5523 37.8245 83.7374 37.5163 83.0699 37.3362C82.5725 37.2051 82.0309 37.0548 81.6186 37.0959ZM66.4742 41.1113C65.6274 41.1508 64.9996 41.3867 64.9996 41.3867C66.261 41.578 66.4469 42.039 66.4469 42.039C66.4469 42.039 64.4319 42.3876 64.0134 42.5254C63.5949 42.6636 63.6482 42.6425 63.6482 42.9238C63.6482 43.2045 63.4621 43.6717 63.1814 44.2284C62.9006 44.7894 62.9529 46.1835 62.9529 46.1835C63.7009 46.5072 65.0309 46.4706 65.0309 46.4706C64.2357 46.6554 63.1326 47.117 63.1326 47.117C63.318 47.7739 64.3945 48.749 65.2321 49.5446C66.069 50.334 66.4136 51.0231 66.4136 51.0231C65.8516 51.1126 65.2789 51.4098 65.2789 51.4098C65.2789 51.4098 67.1445 52.1099 68.1675 52.2476C69.1967 52.3854 70.9994 51.5738 70.9994 51.5738C71.9636 51.6899 73.7613 51.4575 74.2063 50.779C74.6512 50.1009 73.7608 49.2625 73.1086 48.7067C72.457 48.1441 72.0695 46.7302 72.0695 46.7302C72.8435 46.7885 74.0617 45.5798 74.0617 45.5798C74.0617 45.5798 72.1327 46.0449 71.6183 45.6736C71.1045 45.2975 70.3162 44.4122 69.8918 43.6229C69.4722 42.8277 68.6343 41.3376 67.3782 41.1522C67.0629 41.1059 66.7565 41.0982 66.4742 41.1113ZM48.7858 41.1191C48.6342 41.0987 48.5067 41.0971 48.4245 41.125C48.096 41.2299 47.5032 41.782 47.0475 41.7344C46.5914 41.6867 45.4947 41.5529 45.2664 42.0508C45.0386 42.5546 44.9266 43.0488 44.9266 43.0488C44.9266 43.0488 45.9087 43.2382 46.7722 43.5136C46.7722 43.5136 44.901 43.3777 43.8993 43.4668C43.8993 43.4668 44.2176 43.5567 44.493 43.7421C44.493 43.7421 43.8994 44.7931 44.4032 45.4765C44.9012 46.1604 45.403 47.1662 46.3152 47.2557C47.2269 47.3458 48.325 47.1678 48.325 47.1678C48.325 47.1678 47.2767 46.8429 46.5027 46.6151C46.5027 46.6151 48.0493 46.616 49.237 47.0292C49.237 47.0292 51.197 46.9385 51.5202 46.5253C51.8385 46.1168 51.8765 45.8306 52.2897 45.5605C52.7082 45.2951 53.0258 44.5176 52.8404 43.9238C52.6598 43.3305 51.4733 42.7364 51.4733 42.7364L49.6921 42.2383C49.6921 42.2383 50.4232 42.0994 50.9265 42.1465C50.9265 42.1465 50.8784 41.7329 50.3328 41.5528C49.9231 41.4141 49.2408 41.1806 48.7858 41.1191ZM76.9998 44.121C80.4336 44.6036 84.1398 45.212 88.1424 45.9648C94.5507 47.1729 100.391 48.531 105.669 49.9353C121.014 54.0223 131.52 58.5331 136.863 61.1089C138.761 61.9942 140.053 62.6627 140.71 63.0171C141.304 63.1977 142.137 63.2993 142.568 62.6948H142.566C143.451 61.4436 141.933 60.3668 141.933 60.3668C141.933 60.3668 128.477 53.2541 103.211 48.0552C98.6468 47.117 93.7068 46.2425 88.3797 45.4791C84.2881 44.8964 80.5025 44.456 76.9991 44.1218L76.9998 44.121ZM144.038 45.33C142.719 45.3454 141.284 45.568 139.857 45.9022H139.845C138.033 46.3313 136.246 46.9192 134.539 47.6561C134.051 47.8685 133.571 48.0915 133.1 48.3299C132.527 48.6154 131.963 48.923 131.449 49.3045C131.386 49.3521 131.328 49.4008 131.275 49.4431C131.275 49.4431 138.505 47.3596 143.875 47.8416C149.249 48.3236 154.258 50.9377 155.2 48.9919C155.396 48.584 155.232 48.1864 154.808 47.8104C153.208 46.3837 147.861 45.2823 144.038 45.33ZM39.4221 48.3109C38.9339 48.279 38.5333 48.3099 38.3109 48.4691C37.8654 48.7922 36.9002 50.0061 36.5824 50.3245C36.2652 50.6477 36.0105 51.5432 36.1372 52.18C36.1372 52.18 35.3064 52.6311 34.729 52.6311C34.729 52.6311 35.8154 52.8845 37.9301 52.5667C37.9301 52.5667 36.8385 53.1398 36.393 53.59C36.393 53.59 37.0336 54.7401 37.0336 55.9532C37.0336 57.1728 36.9591 58.6893 36.9321 59.209C36.9321 59.209 38.3123 58.9649 39.3988 58.9649C39.3988 58.9649 37.3517 59.9243 36.9009 60.5605C36.9009 60.5605 37.1611 63.0563 38.8891 63.5018C40.6171 63.9521 41.444 62.9934 42.2132 62.0976C42.9808 61.2018 44.4535 59.9875 45.0256 59.5372H45.0276C45.6061 59.0922 46.1832 56.8497 45.2874 55.9533C44.9854 55.6572 44.7038 55.3976 44.4495 55.1428C43.1299 55.5994 41.8949 55.6349 41.8949 55.6349C42.6111 55.3807 43.4632 54.9087 43.9612 54.6116C43.691 54.2826 43.4793 53.9389 43.3675 53.5257C43.1084 52.5663 42.5999 50.7113 42.5999 50.7113C42.5999 50.7113 41.8951 50.7109 41.0629 50.5785C41.0629 50.5785 42.8543 50.0065 43.5589 49.4927C43.5589 49.4927 42.9796 49.5568 42.4027 49.4302C42.4027 49.4302 42.2135 48.7239 41.063 48.5337C40.488 48.4381 39.9103 48.3428 39.4221 48.3109ZM77.1098 50.2893C77.1257 50.2946 77.1408 50.2938 77.1567 50.2991C77.1991 50.3044 77.2409 50.3108 77.2621 50.3108C77.2674 50.3161 77.2783 50.3147 77.2836 50.3147C80.6531 50.7597 84.2299 51.3263 88.1442 52.0256C113.244 56.5018 129.805 63.2782 137.019 66.6731C138.927 67.5365 140.224 68.1939 140.887 68.5382C141.485 68.713 142.316 68.8076 142.734 68.1984C142.814 68.0871 142.871 67.9717 142.914 67.8605L142.92 67.8488C142.936 67.8117 142.946 67.7706 142.957 67.7335C142.973 67.6594 142.989 67.5901 142.994 67.5265C143.089 66.5836 142.082 65.884 142.082 65.884C142.082 65.884 142.072 65.879 142.051 65.8683C142.019 65.8525 141.993 65.8412 141.961 65.8254C141.951 65.8148 141.94 65.8097 141.924 65.8097C141.272 65.5025 140.614 65.206 139.957 64.9094C138.813 64.3955 137.664 63.9024 136.504 63.4309C136.292 63.3409 136.064 63.2567 135.836 63.1614C135.672 63.0925 135.508 63.0238 135.344 62.9602C132.68 61.9061 129.978 60.9471 127.245 60.0678C125.597 59.538 123.944 59.0393 122.286 58.5678C122.021 58.4937 121.756 58.4154 121.491 58.3413C119.775 57.8592 118.058 57.4027 116.331 56.9683C112.241 55.9423 108.111 54.9254 103.971 54.1044C99.4286 53.2044 94.8618 52.4305 90.269 51.7945C86.6291 51.2915 82.9802 50.8785 79.3203 50.4915C79.2197 50.4809 79.1177 50.4695 79.0118 50.4642C78.3708 50.4006 77.7307 50.3433 77.1056 50.2904L77.1098 50.2893ZM52.6557 51.9084C52.4828 51.9157 52.3454 51.9471 52.2553 52.008C51.7732 52.3311 51.6936 52.9762 51.683 53.045V53.0509C51.683 53.0509 52.7959 52.9872 53.4369 52.8654C53.4475 52.8654 53.4575 52.8595 53.4681 52.8595C53.4681 52.8595 52.2539 53.7545 49.8277 54.0723L49.8336 54.0782C49.9183 54.0994 50.242 54.1888 50.6128 54.2364C50.83 54.2682 51.063 54.285 51.2749 54.2638H51.2964C51.2964 54.2638 51.0407 55.1643 50.9136 55.7364C50.7865 56.3139 51.0415 57.3997 51.6772 57.9082L51.6831 57.9141C51.6831 57.9141 52.7531 57.8506 53.8921 57.6017C53.9027 57.6017 53.9069 57.5958 53.9175 57.5958C53.9175 57.5958 53.5368 58.2324 53.023 58.6191C53.023 58.6191 53.6 58.9353 53.2769 59.4492C52.959 59.9577 52.1918 61.3038 52.6421 62.1991C52.8222 62.5646 53.1764 62.9571 53.5366 63.2908C54.0505 63.7782 54.5698 64.1482 54.5698 64.1482C54.5698 64.1482 56.2921 63.7351 57.1185 63.4119C57.1185 63.4119 55.3899 64.626 54.0444 65.2088C54.0444 65.2088 56.0956 65.1386 56.8002 65.0115L56.4818 65.7224C56.4818 65.7224 57.3773 66.4211 59.4856 66.1033C61.594 65.7854 62.9386 65.3352 62.9386 64.2439C62.9386 63.158 62.6799 62.6445 63.0031 61.5585C63.0031 61.5585 62.2348 61.6857 61.6574 61.5585C61.6574 61.5585 62.8765 60.8546 63.3215 60.0918C63.3215 60.0918 63.2099 59.4021 62.8762 58.7188L62.8703 58.7129C62.6583 58.2732 62.3463 57.8297 61.9172 57.586C61.7742 57.5012 61.6199 57.4375 61.4504 57.4004C61.3603 57.3792 61.2664 57.3572 61.1711 57.336C60.9857 57.2989 60.789 57.2522 60.593 57.1993C60.2911 57.1198 59.9784 57.0178 59.6712 56.8907C59.5652 56.8483 59.4652 56.8016 59.3645 56.754C59.2586 56.7116 59.1572 56.6574 59.0618 56.5938C58.8128 56.4508 58.5753 56.282 58.3528 56.086C58.3475 56.086 58.3406 56.0815 58.3353 56.0762C57.8532 55.6259 57.4464 55.0277 57.1869 54.2013C57.1869 54.2013 56.7356 52.9229 55.7768 52.5997C55.7662 52.5997 55.7679 52.5958 55.7572 52.5958C55.4235 52.4846 54.9556 52.3416 54.4682 52.2091C54.3357 52.172 54.2041 52.1394 54.0717 52.1076C53.7909 52.0387 53.5155 51.9864 53.2612 51.9494C53.036 51.9176 52.8285 51.9011 52.6557 51.9084ZM72.635 67.7828C72.2206 67.804 71.7986 67.9085 71.3616 68.0992C70.1908 68.6078 68.4594 69.1012 68.4594 69.1012C68.4594 69.1012 66.8589 69.8681 66.647 70.1753C66.6788 70.1012 66.9698 69.4974 67.3989 69.1637C67.3989 69.1637 65.9314 69.1688 64.856 69.2164C63.7912 69.2641 62.6269 69.3706 62.4733 70.3823C62.3249 71.3994 62.6251 71.9082 63.0807 72.2632C63.5362 72.6181 65.2686 73.6835 65.6236 74.0385C65.6236 74.0385 66.789 73.275 67.7055 73.0737C67.7055 73.0737 65.7257 74.493 65.2701 75.2611C65.2701 75.2611 66.1335 74.8061 66.7427 74.8061C66.7427 74.8061 68.3148 75.7709 69.3267 75.7709C70.3438 75.7709 72.2718 75.4623 72.2718 75.4623C72.2718 75.4623 73.3898 74.705 74.6136 74.599C74.6136 74.599 73.3374 75.4626 73.0355 75.8705C73.0355 75.8705 73.5447 75.8182 73.8519 76.0248C74.1538 76.2261 75.1698 76.4266 76.0862 76.0717C76.9974 75.7167 77.9093 75.3633 77.8616 74.2455C77.8086 73.1278 77.1526 71.8081 77.1526 71.8081C77.1526 71.8081 78.3498 70.8063 79.0119 70.4937C78.853 70.5149 77.555 70.7107 76.7444 71.0444C76.7444 71.0444 75.7326 69.01 74.6625 68.3531C73.9936 67.9426 73.3254 67.7474 72.635 67.7828ZM47.6359 69.2182C47.6359 69.2182 45.7395 69.075 44.6165 70.8549C44.6112 70.8549 44.6061 70.8543 44.6008 70.849C44.6061 70.706 44.6696 70.0182 45.1887 69.3666C45.1887 69.3666 44.1936 69.8221 43.6322 70.4525C43.6322 70.4525 43.3615 70.7544 43.2767 71.0775C43.2291 71.2682 43.1767 71.4275 43.1185 71.5599C43.1026 71.6023 43.085 71.6445 43.0638 71.6868C43.0426 71.7398 43.018 71.787 42.9915 71.8294C42.9704 71.8665 42.9483 71.8992 42.9271 71.931C42.89 71.984 42.8529 72.0267 42.8158 72.0638C42.7098 72.1803 42.5981 72.2438 42.4974 72.302C42.2537 72.4451 41.9571 72.4978 41.7611 72.7415C41.6128 72.9269 41.4386 73.2287 41.3803 73.7531V73.7688C41.3644 73.933 41.3585 74.1085 41.3744 74.3098C41.3744 74.3098 41.957 73.6728 42.4973 73.3762C42.4973 73.3762 41.6175 74.7489 41.5169 75.7765C41.5169 75.7765 41.321 77.4869 42.9367 78.3662C44.5471 79.2456 46.9524 79.9347 47.6358 80.4697C47.6358 80.4697 48.8605 79.5911 49.5439 79.2998C49.5439 79.2998 47.9271 80.8615 47.4874 82.329C47.4874 82.329 48.4685 81.402 49.0088 81.206C49.0088 81.206 50.5231 82.3301 51.4501 82.2294C52.3772 82.134 53.7022 82.1817 54.2371 80.9579C54.7775 79.7395 54.6756 79.5434 54.9246 79.1514C54.9246 79.1514 54.0409 79.6917 53.4052 80.2744C53.4052 80.2744 53.701 79.0564 54.9246 78.124C56.1431 77.197 56.7371 77.0479 56.7371 77.0479C56.7371 77.0479 59.6252 73.2278 56.2507 71.3684C56.2507 71.3684 57.9082 70.5371 58.8405 69.9543C58.8405 69.9543 56.1438 70.6376 55.2644 70.9289C55.2644 70.9289 53.2618 70.5363 52.1864 70.5363C51.1055 70.5363 49.2526 70.3947 48.4209 70.1457C47.592 69.9017 46.759 69.6097 46.759 69.6097C46.759 69.6097 47.2459 69.3179 47.6379 69.2172L47.6359 69.2182ZM61.5924 80.8488C61.5182 80.8488 60.3103 80.8587 59.5104 81.5051C59.5104 81.5051 57.0582 81.7604 56.5867 83.4132C56.11 85.0713 57.3275 86.2473 57.6824 86.5069C57.6824 86.5069 58.1767 85.7326 59.1725 85.2452C59.1725 85.2452 58.6045 86.162 58.6257 86.9249C58.6257 86.9249 60.7186 88.0329 64.8931 88.6103C69.0726 89.1877 68.7712 88.8788 70.2386 89.79C70.2386 89.79 71.7905 88.6941 72.6487 88.4345C72.6487 88.4345 71.4397 90.1509 71.3284 90.7918C71.3284 90.7918 73.2676 92.4454 74.8674 92.5672C76.4725 92.6943 77.8454 92.0736 77.6759 90.4207L78.254 89.7118L77.2306 89.786L77.5275 89.2294C77.5275 89.2294 77.48 88.3869 77.0139 87.7353C77.0933 87.7777 77.893 88.2115 78.6505 88.0049L78.4278 88.4248C78.4278 88.4248 79.303 88.323 79.9493 87.2158L79.4181 87.0732C79.4181 87.0732 79.3757 85.8551 78.2579 84.7003C77.1454 83.5455 76.06 83.1629 75.4084 83.8039C75.4084 83.8039 75.0806 82.5752 74.3283 82.2414C73.5714 81.9064 73.0574 81.9704 73.0574 81.9704C73.0574 81.9704 70.1124 82.5574 68.8993 83.3044C69.1377 83.1507 71.0862 81.89 71.7801 81.445L70.1435 81.822C70.1435 81.822 68.4212 81.828 66.8213 81.7009C65.2268 81.579 61.5401 81.1974 60.8567 81.3298C60.8567 81.3298 61.3176 81.0117 61.593 80.8474L61.5924 80.8488Z" fill="black"/>
<path d="M109.441 36.3664C108.257 36.3618 107.61 36.4465 107.61 36.4465C107.61 36.4465 114.378 41.8012 118.327 42.8192C122.271 43.8369 127.719 40.4052 127.719 40.4052C127.719 40.4052 125.87 39.7814 122.276 38.7569C122.493 39.0546 122.62 39.4215 122.62 39.8194C122.62 40.8211 121.806 41.6357 120.804 41.6357C119.796 41.6357 118.979 40.8211 118.979 39.8194C118.979 39.7447 118.99 39.6759 118.995 39.6065C118.952 39.6065 117.999 39.0236 117.925 38.9659C117.558 38.6798 117.215 38.3616 116.833 38.0909C116.208 37.6517 115.376 37.0191 114.597 36.8448C114.56 36.839 114.523 36.8287 114.485 36.8234C112.343 36.4658 110.624 36.371 109.441 36.3664ZM157.084 57.5456C155.324 57.5993 154.025 58.3386 154.025 58.3386C154.025 58.3386 160.322 58.3378 162.623 60.3307C164.929 62.3295 164.314 63.8658 164.314 63.8658C164.314 63.8658 166.612 67.5504 167.228 69.0824C167.228 69.0824 171.526 65.0922 171.835 62.3306C171.835 62.3306 163.493 58.084 157.863 57.5691C157.595 57.5447 157.335 57.538 157.084 57.5456ZM95.839 70.5142C93.4081 70.5232 92.2241 71.2031 92.2241 71.2031C92.2241 71.2031 97.0964 72.368 99.8469 77.3767C103.997 84.915 101.044 98.245 104.14 105.364C107.971 114.168 114.979 116.543 114.979 116.543C124.17 111.604 126.143 103.927 126.143 103.927C118.277 99.852 122.055 88.5193 119.708 81.1246C117.359 73.7351 108.63 72.3046 108.63 72.3046C108.63 72.3046 115.78 75.2205 115.97 95.8818C116.033 102.831 118.161 105.772 118.161 105.772C114.551 103.848 113.602 96.7559 113.278 91.2645C113.113 88.4713 111.98 74.8691 101.576 71.5092C99.2063 70.742 97.2981 70.5073 95.8396 70.5132L95.839 70.5142ZM131.709 106.568L132.031 110.128L134.507 111.736C135.217 108.863 131.709 106.568 131.709 106.568Z" fill="#006778"/>
</svg>
