<svg width="75" height="75" viewBox="0 0 500 500" fill="none" xmlns="http://www.w3.org/2000/svg">
<g clip-path="url(#clip0_483_1076)">
<path d="M370.311 343.713C365.109 343.713 360.886 347.93 360.886 353.136C360.886 358.335 365.109 362.557 370.311 362.557C375.513 362.557 379.729 358.335 379.729 353.136C379.729 347.93 375.513 343.713 370.311 343.713ZM370.311 360.536C369.339 360.537 368.376 360.346 367.478 359.974C366.58 359.603 365.764 359.058 365.076 358.37C364.389 357.683 363.844 356.867 363.472 355.969C363.101 355.07 362.91 354.108 362.911 353.136C362.911 349.047 366.217 345.74 370.311 345.74C374.4 345.74 377.71 349.047 377.71 353.136C377.71 357.226 374.4 360.536 370.311 360.536ZM374.183 350.952C374.182 350.532 374.099 350.117 373.939 349.729C373.778 349.342 373.542 348.99 373.245 348.693C372.948 348.397 372.596 348.162 372.208 348.002C371.821 347.842 371.405 347.759 370.986 347.76H366.446V358.514H368.464V354.146H369.912L371.951 358.514H374.183L372.054 353.96C372.676 353.74 373.214 353.332 373.595 352.793C373.976 352.255 374.181 351.612 374.183 350.952ZM370.986 352.128H368.464V349.774H370.986C371.634 349.774 372.164 350.301 372.164 350.952C372.163 351.264 372.039 351.563 371.818 351.783C371.597 352.004 371.298 352.127 370.986 352.128Z" fill="#A2AAAD"/>
<path d="M381.368 331.44L465 138.976C465 138.976 404.475 174.82 335.325 202.214L454.149 113.871L379.357 126.741C368.654 120.33 331.452 101.049 271.361 101.049C271.361 101.049 266.095 101.174 261.599 101.282C259.393 94.7953 248.933 64.0811 248.933 64.0811L229.757 103.837C120.245 117.919 35 182.598 35 252.39C35 283.58 48.3849 324.6 110.009 346.754L78.9227 423.585L161.167 358.728C178.84 361.113 198.41 362.36 219.548 362.36C244.287 362.36 268.615 360.488 291.974 356.898L381.967 435.919L351.259 343.261C351.259 343.261 369.364 337.416 381.368 331.44Z" fill="#A2AAAD"/>
<path d="M449.554 156.355C449.554 156.355 379.021 197.426 300.472 224.552L297.71 216.937L432.42 123.505L282.683 161.852L366.477 128.096C366.477 128.096 330.995 108.294 271.362 108.294C266.379 108.294 261.407 108.414 256.45 108.647L247.774 83.1631L201.152 179.825L130.025 200.026L196.039 172.943L217.689 128.812L222.225 119.571L226.167 111.541C126.789 125.774 42.2441 185.015 42.2441 252.391C42.2441 290.152 63.013 324.748 119.91 342.537L90.5171 406.588L158.999 351.164C176.733 353.732 196.84 355.121 219.548 355.121C248 355.121 273.04 352.699 294.288 349.256L370.226 416.743L341.849 338.578C363.936 332.08 375.771 326.142 375.771 326.142L449.555 156.355L449.554 156.355Z" fill="#041E42"/>
<path d="M163.891 246.724L169.763 233.924L135.379 224.465C135.379 224.465 125.597 241.945 163.891 246.724Z" fill="#A2AAAD"/>
<path d="M374.007 151.283L264.46 177.822L245.165 117.504L214.601 190.457L131.49 211.256L189.668 225.496L178.507 247.803C179.513 247.827 180.541 247.854 181.587 247.875C182.985 247.897 184.412 247.916 185.894 247.916C189.91 247.916 193.985 247.787 198.128 247.535C208.271 246.925 218.78 245.589 229.486 243.682C237.625 242.23 245.879 240.445 254.17 238.393C265.115 235.692 276.135 232.51 287.072 229.011L280.769 212.238L374.007 151.283ZM330.874 345.467C327.933 346.559 325.526 347.572 323.58 349.172C321.745 350.687 320.324 352.731 319.288 355.871C318.893 357.097 318.574 358.347 318.334 359.612L343.731 379.649L330.874 345.467V345.467ZM133.934 346.891C133.139 346.62 132.321 346.417 131.491 346.286C130.772 346.179 130.048 346.116 129.322 346.095L115.507 373.698L141.459 354.361C139.813 351.346 137.897 348.303 133.934 346.891Z" fill="#A2AAAD"/>
<path d="M261.275 307.699C229.126 301.62 209.892 295.4 209.892 295.4C209.892 295.4 224.733 289.651 246.669 279.587C266.249 270.6 291.486 258.177 316.841 243.335C337.233 231.409 357.705 217.928 375.38 203.409C375.38 203.409 272.493 259.543 187.036 259.543C129.631 259.543 103.063 232.918 103.063 215.058C103.063 161.848 196.725 134.314 217.689 128.812L222.225 119.57C132.233 137.285 98.7672 172.639 98.7672 172.639C98.7672 172.639 68.6861 190.833 57.2966 224.598C54.6335 232.483 52.9941 241.211 52.9941 250.759C52.9941 291.443 79.6572 344.648 216.363 344.648C313.317 344.648 364.928 318.929 364.928 318.929C349.141 318.465 333.375 317.434 317.661 315.84C296.219 313.672 277.165 310.702 261.276 307.699H261.275ZM341.924 127.388C341.924 127.388 313.737 113.667 258.774 115.478L261.305 122.909C267.382 122.208 300.478 119.061 341.924 127.388Z" fill="#C8102E"/>
<path d="M169.756 289.527C203.626 289.527 231.96 283.474 246.668 279.588C266.248 270.6 291.486 258.177 316.84 243.335C295.536 251.414 228.11 275.448 180.348 275.448C107.895 275.448 85.257 233.479 85.257 209.795C85.257 188.619 98.7675 172.64 98.7675 172.64C98.7675 172.64 73.8022 190.079 73.8022 219.129C73.8022 266.919 121.546 289.527 169.756 289.527Z" fill="white"/>
<path d="M197.624 311.896C62.9876 311.896 57.0036 240.176 57.2963 224.598C54.6331 232.483 52.9932 241.211 52.9932 250.759C52.9932 250.759 54.3932 330.113 208.212 330.113C258.291 330.113 303.372 319.553 317.661 315.841C296.219 313.672 277.165 310.703 261.276 307.699C250.598 309.379 229.355 311.896 197.624 311.896ZM367.045 254.366C362.664 245.178 349.894 243.585 338.501 250.779C327.115 258.002 321.404 271.273 325.776 280.461C330.128 289.657 342.886 291.246 354.287 284.042C365.692 276.812 371.365 263.549 367.045 254.366Z" fill="white"/>
<path d="M253.074 288.603L252.986 285.377L250.147 288.926L245.707 289.505L248.47 290.996L245.707 294.594L250.431 292.121L253.702 294.462L253.114 290.613L257.508 288.112L253.074 288.603ZM287.244 272.414L287.142 269.118L284.196 272.784L279.566 273.37L282.408 274.945L279.556 278.665L284.498 276.093L287.861 278.544L287.298 274.527L291.838 271.923L287.244 272.414ZM312.092 275.072L311.998 272.043L309.322 275.372L305.132 275.916L307.728 277.357L305.132 280.736L309.579 278.399L312.663 280.607L312.147 276.983L316.25 274.611L312.092 275.072ZM277.802 293.702V290.706L275.063 293.989L270.867 294.403L273.428 295.903L270.73 299.257L275.25 297.016L278.283 299.301L277.84 295.631L282.014 293.345L277.802 293.702ZM302.4 297.167L302.373 294.138L299.621 297.443L295.414 297.865L297.976 299.358L295.325 302.696L299.813 300.433L302.843 302.73L302.407 299.086L306.582 296.772L302.4 297.167ZM322.705 251.035L322.574 247.201L319.201 251.448L313.851 252.116L317.146 253.946L313.851 258.219L319.516 255.254L323.434 258.087L322.742 253.453L328.01 250.434L322.705 251.035ZM356.218 231.142L353.163 236.715L359.547 232.49L365.279 235.436L363.201 229.935L369.069 225.669L362.482 226.996L361.317 222.384L358.139 227.917L351.545 229.33L356.218 231.142ZM409.607 203.638L401.713 204.534L401.04 198.697L396.486 205.162L388.566 206.207L393.787 208.963L389.397 215.534L397.516 210.999L403.769 215.289L402.146 208.264L409.607 203.638ZM367.819 300.086L367.791 295.445L363.551 300.495L357.071 301.178L361.039 303.449L356.89 308.6L363.808 305.146L368.503 308.642L367.826 303.029L374.272 299.504L367.819 300.086ZM380.184 269.53L380.074 265.284L376.264 270L370.321 270.781L374.035 272.784L370.307 277.562L376.641 274.282L381.017 277.421L380.261 272.262L386.083 268.888L380.184 269.53ZM390.839 239.476L390.705 234.835L386.581 239.972L380.125 240.802L384.134 242.984L380.125 248.201L386.984 244.615L391.718 248.04L390.926 242.436L397.256 238.768L390.839 239.476ZM333.484 296.707L330.313 300.52L325.464 301L328.401 302.72L325.32 306.57L330.522 303.976L334.048 306.603L333.521 302.41L338.321 299.777L333.504 300.186L333.484 296.707ZM245.165 127.771L229.486 198.999L260.227 179.053L245.165 127.771ZM356.19 160.548L229.486 198.999C229.486 198.999 276.04 209.16 277.456 209.357C278.89 209.565 356.19 160.548 356.19 160.548Z" fill="white"/>
<path d="M254.17 238.394L229.486 198.999V243.682C237.624 242.23 245.879 240.445 254.17 238.394ZM181.586 247.875C182.984 247.897 184.412 247.916 185.893 247.916C189.91 247.916 193.985 247.787 198.128 247.535L229.486 198.999L192.676 226.095L181.586 247.875Z" fill="white"/>
<path d="M216.189 191.709L147.895 210.148L229.486 198.999L216.189 191.709ZM319.287 355.872L336.127 369.199L323.58 349.173C321.744 350.687 320.324 352.731 319.287 355.872ZM120.972 366.961L133.934 346.892C133.138 346.62 132.321 346.418 131.49 346.287L120.972 366.96V366.961Z" fill="white"/>
<path d="M340.211 253.427C330.936 259.274 326.068 270.228 329.335 277.879C332.575 285.519 342.736 286.96 352.001 281.101C361.266 275.239 366.108 264.292 362.872 256.674C359.574 249.01 349.469 247.583 340.211 253.427Z" fill="#C8102E"/>
</g>
<defs>
<clipPath id="clip0_483_1076">
<rect width="500" height="500" fill="white"/>
</clipPath>
</defs>
</svg>
