<svg width="50" height="50" viewBox="0 0 194 138" fill="none" xmlns="http://www.w3.org/2000/svg">
<path d="M62.4946 80.018C62.682 82.2626 63.4798 86.7288 66.0626 91.7128C69.2538 97.8673 75.9396 106.074 89.7281 110.721C91.9167 114.156 94.4918 117.366 97.4068 120.272C107.888 130.722 121.812 136.467 136.614 136.445C151.418 136.424 165.325 130.64 175.774 120.157C186.225 109.677 191.973 95.7523 191.949 80.9515C191.926 66.147 186.142 52.24 175.662 41.789C167.357 33.5075 156.939 28.1795 145.478 26.3308C129.962 12.2812 111.848 17.3153 111.071 17.5413C110.811 17.6147 110.422 17.7267 109.939 17.8736C104.364 19.728 101.482 17.6031 99.6141 16.1388C97.5451 14.5161 95.2869 12.8685 93.1079 11.6436C85.7074 7.48076 75.1885 7.33201 66.33 10.9038C60.4942 12.8916 57.5521 10.3203 55.8116 9.1188C44.254 1.14455 30.0437 -0.758259 14.9679 2.56051C4.81647 4.79744 0.755859 6.86247 0.755859 6.86247C0.755859 6.86247 7.71015 7.87085 14.9754 10.9076C20.9407 13.3995 25.6831 16.5986 29.2737 22.3436C29.2737 22.3436 31.5339 25.6624 30.0657 26.6417C28.4218 27.7371 26.7103 25.0558 26.7103 25.0558C26.6543 26.9856 26.6543 28.9058 26.7818 30.3642C27.6163 45.6887 30.742 54.8935 38.1328 61.927C41.496 65.126 47.1696 68.238 55.936 71.6824C59.9348 73.2819 62.0983 75.3316 62.4925 80.0179" fill="white"/>
<path d="M173.166 44.294C165.126 36.2773 154.92 31.2195 143.874 29.667C129.473 15.8875 112.058 20.9374 112.058 20.9374C115.747 21.4861 118.199 23.6863 117.254 26.1241C116.626 27.7352 113.947 27.8202 112.722 27.8318C108.832 27.8743 105.472 25.4887 102.791 23.3096C100.004 21.0417 95.4543 17.0178 91.3782 14.7269C83.7902 10.4596 71.7414 10.9909 63.0216 16.5582C68.2355 16.9117 74.5098 18.4126 78.2511 21.5113C80.3393 23.2421 83.0032 26.7212 80.8243 28.3458C78.9099 29.7753 74.2061 29.0374 71.8146 27.6523C68.0129 25.452 64.5878 22.1159 62.5364 19.6973C48.7343 3.43784 29.1812 2.53036 13.0542 6.51273C23.6382 9.48376 30.7011 15.5128 35.0622 25.9058C39.4261 36.2986 42.8144 40.7229 50.003 43.5391C54.504 45.3008 55.721 45.6272 55.3695 47.6228C54.8518 50.5436 49.5202 49.1411 45.4538 47.5532C40.4988 45.6195 33.9714 40.2781 30.0843 30.26C30.7913 43.222 33.2639 52.413 40.5698 59.3678C43.6741 62.3195 49.3748 65.3736 58.2955 68.8064C63.9903 70.9989 68.4991 72.326 72.7413 76.1258C77.6885 80.5573 75.581 83.4838 72.299 82.9294C68.5861 82.3035 65.9356 78.5114 65.9356 78.5114C65.9356 78.5114 65.9419 99.6295 92.0448 107.758C94.218 111.363 96.8451 114.724 99.9032 117.77C109.716 127.557 122.752 132.932 136.608 132.911C150.467 132.89 163.486 127.477 173.273 117.662C183.058 107.848 188.438 94.8123 188.414 80.954C188.395 67.0969 182.978 54.0773 173.163 44.2926" fill="#002244"/>
<path d="M170.404 46.9191C162.617 39.1341 152.622 34.3608 141.835 33.1808C132.553 23.9296 123.292 24.3643 123.292 24.3643C127.356 26.9123 125.26 32.584 116.219 33.8338C107.266 35.0701 95.8938 32.0353 90.3552 25.5833C84.6469 18.9343 80.3372 18.6309 80.3372 18.6309C85.2882 21.7237 85.6399 25.4365 88.6456 31.0926C91.6514 36.7507 97.8389 38.781 103.229 39.1345C108.906 39.5073 109.045 42.0765 104.467 44.7926C99.4736 47.752 95.0538 44.9549 91.8414 41.7907C86.7685 36.7874 81.7171 35.8292 74.7357 35.9181C67.7543 36.007 58.5262 36.9245 50.7352 34.0095C42.9444 31.0926 37.8081 20.8412 37.8081 20.8412C41.66 34.452 50.2196 40.9043 58.1649 42.463C68.6602 44.5203 75.9156 47.0181 80.3555 50.6131C84.6904 54.1289 86.9988 57.635 88.6272 62.4741C89.8848 66.2044 90.1089 71.1574 88.8687 71.4549C87.4218 71.7987 87.1243 69.8051 85.4186 66.328C83.5351 62.4876 81.2866 59.4741 76.7509 57.0556C70.6041 53.7774 64.5885 53.9667 58.4552 54.0517C53.5968 54.1193 50.7475 53.5629 50.7475 53.5629C50.7475 53.5629 50.9503 54.2197 58.8667 55.9969C67.687 57.9751 76.2199 62.9474 81.8985 75.0689C86.7298 85.3787 84.2088 92.6346 73.505 89.3509C73.505 89.3509 78.5043 100.464 94.833 104.423C96.9406 108.128 99.56 111.572 102.655 114.669C111.703 123.715 123.732 128.697 136.529 128.697C149.325 128.697 161.352 123.715 170.404 114.669C179.45 105.619 184.432 93.5896 184.432 80.7913C184.432 67.9967 179.45 55.9676 170.404 46.9191Z" fill="#4B92DB"/>
<path d="M136.53 35.2318C148.7 35.2318 160.141 39.9704 168.747 48.5764C177.355 57.1823 182.094 68.6245 182.094 80.7929C182.094 105.917 161.655 126.359 136.53 126.359C124.36 126.359 112.918 121.618 104.309 113.012C95.7034 104.406 90.9648 92.9637 90.9648 80.7916C90.9648 68.6235 95.7034 57.1811 104.309 48.5751C112.917 39.9691 124.359 35.2305 136.53 35.2305" fill="white"/>
<path d="M136.592 122.429C113.603 122.464 94.9335 103.851 94.8985 80.8592C94.8656 57.8649 113.48 39.1993 136.472 39.1655C159.464 39.1308 178.132 57.7449 178.166 80.7367C178.201 103.731 159.588 122.397 136.592 122.428" fill="#16243E"/>
<path d="M126.343 72.3682H114.004L109.938 79.6181L104.469 64.1136H168.458L162.999 79.6181L158.966 72.3682H146.836L136.563 117.311L126.343 72.3682Z" fill="white"/>
<path d="M168.466 64.1182H104.477L105.514 67.0563H136.026L126.35 72.3726L136.571 117.309V67.0564H167.432L168.466 64.1182Z" fill="#A5ACAF"/>
<path d="M31.5506 7.2088C29.7315 7.18416 27.8517 7.36191 25.9121 7.7205C25.9121 7.7205 34.5951 7.50939 42.1826 21.1261C48.5613 32.5717 60.729 34.8636 69.6327 32.3407C69.6327 32.3407 57.9041 32.0376 51.4873 20.6651C46.1585 11.2214 39.4334 7.31579 31.5506 7.2088ZM79.5671 13.7359C76.3792 13.6435 73.4645 14.3245 71.4151 15.4975C71.4151 15.4975 79.2387 13.9195 86.2916 19.5853C92.056 24.2138 95.837 27.8946 105.115 28.1592C100.784 26.5443 97.876 23.7232 91.9474 18.5247C88.2149 15.2518 83.666 13.8547 79.5671 13.7359ZM136.419 41.024L134.111 48.3207L126.412 48.4125L132.685 52.8752L130.345 60.2109L136.531 55.6252L142.784 60.1133L140.329 52.8147L146.536 48.3208H138.837L136.419 41.024ZM35.3125 44.1849C35.3125 44.1849 35.4341 57.8105 51.056 61.9984C61.9667 64.923 69.9714 66.6013 75.0692 73.65C75.0692 73.65 73.8411 60.9964 55.8059 57.3265C37.6504 53.6336 35.3125 44.1849 35.3125 44.1849ZM115.32 85.9176L110.223 91.6908L103.174 88.5971L107.088 95.2278L101.969 100.978L109.482 99.3039L113.371 105.948L114.1 98.2843L121.621 96.6437L114.557 93.5813L115.32 85.9176ZM157.538 85.9879L158.416 93.6381L151.399 96.8098L158.948 98.3352L159.795 105.987L163.578 99.2824L171.117 100.839L165.91 95.1692L169.721 88.4819L162.721 91.681L157.538 85.9879Z" fill="#C60C30"/>
</svg>
