<svg width="50" height="50" viewBox="0 0 286 221" fill="none" xmlns="http://www.w3.org/2000/svg">
<g clip-path="url(#clip0_487_1494)">
<mask id="mask0_487_1494" style="mask-type:luminance" maskUnits="userSpaceOnUse" x="0" y="0" width="287" height="222">
<path d="M0.944336 221.321H286.973V0.469015H0.944336V221.321Z" fill="white"/>
</mask>
<g mask="url(#mask0_487_1494)">
<path d="M278.908 210.067L278.79 210.139C278.913 210.067 279.022 209.965 279.147 209.888L278.908 210.067V210.067ZM164.497 196.938C164.497 196.938 157.041 197.941 151.086 196.713C136.081 219.643 95.287 218.095 70.9042 198.734C70.4428 198.388 69.9711 198.05 69.4928 197.712C67.8095 199.011 60.49 204.089 46.4699 206.246C34.7005 208.516 29.8708 200.901 31.2775 195.696C27.803 188.053 26.8417 185.38 25.6976 181.066C24.9896 178.009 25.4261 175.721 25.721 174.502C22.2418 167.843 18.5468 159.544 15.5928 150.072C-26.702 15.0289 149.229 -41.2391 206.435 60.5121C207.551 60.6106 208.221 60.8755 208.568 61.5906L210.135 60.9623L217.027 76.5297C216.179 76.3567 213.825 76.1603 213.248 76.1148C213.257 76.1413 213.264 76.1664 213.273 76.1926C212.883 76.1598 212.495 76.1209 212.096 76.0848L211.533 76.0551C210.038 71.4458 208.087 65.5987 206.751 62.1757C205.986 62.0059 204.631 61.9839 204.289 61.9792C204.309 62.0167 204.326 62.0416 204.345 62.0791C205.391 64.0297 208.57 73.8485 209.644 76.5681C211.111 80.2912 211.008 82.3825 211.008 82.3825L204.162 82.2545C204.058 80.2569 202.165 76.487 202.165 76.487L199.623 71.3291L198.929 69.8614L196.285 64.2815L196.263 64.2909C195.979 63.6672 195.503 62.3355 195.367 61.2243C194.912 57.6325 198.448 57.6325 198.537 57.6325C200.371 57.6684 201.871 58.3405 203.367 60.4271C203.696 60.4318 204.023 60.4365 204.319 60.4381C202.185 56.1945 200.985 54.905 199.583 52.5605C173.043 14.6734 128.779 3.32607 89.8602 12.9385C139.095 5.71745 176.607 26.9117 195.363 58.6093C193.792 59.3877 191.199 60.6866 189.97 61.3383C189.431 61.3275 187.415 61.2868 186.744 61.343C185.572 61.4396 184.475 61.4973 185.272 64.283C185.863 66.3415 186.083 66.8245 186.547 68.1046C187.101 69.6332 188.892 74.2472 190.195 78.1859C189.735 78.2717 189.276 78.3603 188.817 78.4461C188.58 77.7522 188.315 77.0207 188.015 76.2564C186.486 72.3551 184.639 67.3004 184.1 65.5655C183.824 64.6792 183.41 62.9818 183.907 61.5189C183.907 61.5189 182.045 62.9865 183.707 66.9581L187.918 78.6337C187.35 78.7444 186.783 78.855 186.215 78.969C173.461 81.5292 160.942 84.924 153.908 87.8312C153.908 87.8312 148.657 89.7302 144.905 92.7546C144.765 92.8671 144.703 92.9637 144.69 93.0496C143.626 93.3567 142.603 94.0764 141.914 95.0049C141.389 95.418 140.179 96.3881 139.645 96.993C138.168 98.6951 136.878 100.205 135.228 102.479C133.788 104.627 128.616 112.842 123.974 120.297C123.579 120.445 123.191 120.65 122.825 120.94C121.611 121.901 120.814 123.556 121.109 125.272C117.367 131.321 115.154 134.885 114.263 136.338C112.2 136.493 111.159 138.116 111.056 138.322C110.151 140.132 106.226 146.574 105.523 147.278C105.107 147.694 104.168 149.421 104.576 151.39L104.223 152.089C104.223 152.089 95.5485 164.983 95.5954 164.983C94.8498 166.034 94.7373 167.215 95.2615 168.331C95.9742 169.837 97.7561 170.962 99.5941 171.089C100.588 171.152 101.488 170.901 102.201 170.39C105.709 170.971 129.913 175.004 148.153 178.033C148.913 178.159 149.663 178.284 150.399 178.407C151.637 178.612 152.838 178.811 153.996 179.003C155.004 179.17 155.975 179.333 156.908 179.49C156.459 184.789 155.14 189.431 153.128 193.417L153.935 193.524C166.642 194.556 175.645 192.301 181.928 188.038C182.467 189.061 183.035 190.05 183.635 191.011C178.758 194.242 172.475 196.31 164.738 196.826L164.497 196.938ZM215.607 87.6844C215.822 90.2446 215.644 93.405 214.331 95.7964C212.798 98.5769 210.697 100.368 206.688 101.095C206.59 101.115 206.37 101.129 206.121 101.145V101.149C205.977 101.165 205.863 101.185 205.729 101.201C205.43 101.22 205.143 101.245 204.867 101.285C208.904 110.851 222.216 142.361 222.216 142.361C219.66 142.821 216.87 143.013 216.87 143.013L200.084 103.625C199.661 104.046 199.385 104.418 199.235 104.643C199.071 104.836 198.909 105.02 198.733 105.238C196.131 108.502 194.541 112.694 193.669 117.195C193.604 117.485 193.504 117.941 193.395 118.546C201.319 130.737 211.963 135.285 211.963 135.285L214.603 141.756C204.006 138.68 195.191 129.096 192.706 126.189C192.706 126.451 192.71 126.714 192.715 126.986C192.682 132.331 193.334 137.395 194.201 141.006C194.708 142.591 195.153 144.18 195.542 145.789C194.319 145.915 193.114 146.037 191.927 146.155C191.111 142.986 190.099 139.966 188.959 137.293C182.957 123.132 166.639 129.603 167.765 138.137L153.932 107.612C155.386 106.027 158.345 103.021 163.123 99.9686C159.794 101.441 157.168 103.762 157.168 103.762C155.869 104.765 154.692 105.806 153.618 106.871C153.333 106.238 153.055 105.624 152.783 105.028C151.813 102.89 150.955 100.996 150.237 99.4013C152.676 97.8352 155.161 96.2268 158.302 95.0968C167.352 91.4065 177.856 88.9073 187.89 86.7972C188.448 86.6786 189.006 86.5647 189.564 86.4526C189.871 91.4698 187.337 93.3454 182.999 94.2832C180.158 94.8694 177.841 94.9678 176.669 95.3617L179.37 95.4536C179.506 95.4708 182.493 95.4334 186.638 94.0235C189.358 93.0106 191.421 91.1772 190.539 86.2397C191.004 86.1445 191.477 86.0465 191.937 85.9528C192.673 90.6277 191.99 95.1432 182.934 96.0341C184.486 97.1032 198.595 94.4867 207.082 96.4336C207.287 96.5255 210.847 97.7512 206.781 99.533C214.659 97.7794 215.081 89.9206 213.58 84.1062L213.905 84.1452C215.368 84.2498 216.629 84.4383 217.637 84.6188C217.64 84.6266 217.645 84.6328 217.649 84.639C218.404 84.7216 219.323 84.8229 220.271 84.9481C226.132 85.5342 225.616 78.571 222.517 77.6801C220.167 76.9955 219.563 76.9768 218.972 76.8783L218.147 76.7845L210.832 60.4668L214.888 58.5865L225.391 77.4832C230.268 85.22 222.188 88.4085 217.748 86.064C216.73 86.5845 216.182 87.0722 215.708 87.7286L215.607 87.6844ZM235.207 140.201C231.676 141.083 223.531 141.969 223.531 141.969L221.862 138.147C230.396 139.324 236.773 138.635 236.773 138.635C235.31 138.827 235.211 140.201 235.211 140.201H235.207ZM242.85 139.113C241.926 138.363 241.007 138.26 240.763 138.241C240.743 138.241 240.716 138.24 240.699 138.238C240.699 138.238 240.726 138.239 240.763 138.241C243.384 138.427 251.173 137.65 251.173 137.65C249.705 138.241 242.826 139.113 242.826 139.113H242.85ZM260.246 139.835C260.316 140.264 260.098 141.889 258.319 142.222L257.676 142.364C256.068 142.866 252.847 143.621 249.658 144.226C247.665 144.606 245.827 144.962 245.991 144.863C245.569 143.93 245.274 142.969 244.055 140.596C247.59 139.992 252.12 139.077 255.262 138.158C256.242 137.862 258.084 137.633 258.084 137.633C259.486 137.87 260.096 138.702 260.26 139.837L260.246 139.835ZM276.657 197.979C276.657 196.807 274.833 194.617 271.687 193.965C271.687 193.965 271.749 192.76 271.656 191.288C270.873 183.317 268.003 168.827 268.003 168.827C272.439 167.388 272.05 158.324 264.477 158.371C262.653 150.165 260.004 143.601 260.004 143.601C264.121 141.345 262.194 137.552 259.935 136.849C259.935 136.849 264.052 135.967 265.937 143.085C272.83 162.404 278.175 188.85 276.628 197.946L276.657 197.979ZM267.186 167.407C267.186 167.407 264.94 168.551 254.572 170.408C254.572 170.408 253.728 167.172 253.339 165.531C253.339 165.531 262.107 163.702 265.53 162.422C265.53 162.422 265.467 161.283 263.772 161.316C263.772 161.316 254.863 163.571 252.8 163.768L252.312 162.399C252.312 162.399 259.955 160.931 262.487 160.336C262.487 160.336 267.88 158.479 269.052 162.596C269.052 162.596 270.224 166.15 267.19 167.425L267.186 167.407ZM269.605 203.606C266.834 204.394 257.836 206.752 257.836 206.752C258.328 204.59 258.229 201.172 258.229 201.172C275.578 197.454 259.106 195.874 259.106 195.874C262.932 197.051 262.829 198.415 262.829 198.415C261.164 198.514 258.229 197.632 258.229 197.632C258.327 196.554 258.037 192.146 258.037 192.146C262.538 194.106 263.242 193.543 267.931 194.594C272.714 195.672 270.374 197.632 270.374 197.632C267.931 200.67 258.933 201.946 258.933 201.946C274.031 199.986 272.624 195.897 272.624 195.897C278.814 199.911 272.72 202.743 269.591 203.634L269.605 203.606ZM149.098 115.922L163.212 147.01C156.694 146.273 152.427 144.37 147.973 141.242C146.331 132.755 145.863 124.127 149.103 115.922H149.098ZM147.326 112.016L148.273 114.107C143.996 122.125 144.057 131.081 145.712 139.568C145.572 139.458 145.435 139.356 145.293 139.246C144.782 138.767 144.219 138.233 143.638 137.675C139.811 133.999 134.729 128.813 131.259 125.155C136.088 117.371 140.73 109.916 140.73 109.963C141.987 107.989 143.323 105.958 144.055 104.852L147.314 112.026L147.326 112.016ZM145.759 94.2912C146.388 94.2959 146.964 94.491 146.993 94.5425L170.86 147.528C170.86 147.528 167.563 147.678 164.998 147.138C154.823 124.912 142.913 98.8414 142.913 98.8414C142.421 97.9552 142.426 97.083 142.929 96.2296C143.595 95.123 144.903 94.4572 145.784 94.476L145.759 94.2912ZM201.558 86.9295C201.558 86.9295 203.326 85.7244 203.42 84.449C203.42 84.449 207.532 84.449 209.609 84.4833C209.609 84.4833 208.067 87.3858 201.544 86.931L201.558 86.9295ZM221.768 78.8175L221.835 78.8425L221.897 78.8518C222.924 79 223.534 80.3289 223.435 81.4261C223.378 82.0169 223.024 83.358 220.997 83.358C219.164 82.9538 214.386 82.4952 211.901 82.2654C211.901 80.2116 210.639 77.2482 210.639 77.2482C213.359 77.5089 220.298 78.3126 221.752 78.7956L221.768 78.8175ZM192.087 61.14L193.84 60.2256C193.84 60.2256 193.989 60.1319 193.982 60.1572C193.884 60.3522 193.906 60.8183 193.906 60.8183C193.869 61.4373 193.892 61.7514 194.553 63.5379C195.589 66.342 201.024 77.558 201.633 79.1992C204.766 87.3112 196.663 88.8585 195.819 85.248C204.447 84.5915 200.93 75.5887 196.048 76.8547C194.187 72.2501 192.715 67.6643 192.715 67.6643C192.715 67.6643 190.806 62.647 192.077 61.1466L192.087 61.14ZM190.703 61.7965C189.977 64.141 191.355 67.7515 191.355 67.7515L194.713 77.1295L192.949 77.4568C192.949 77.4568 190.769 71.4549 189.39 67.2816C188.345 64.1072 189.099 62.5926 189.099 62.5926L190.702 61.8283L190.703 61.7965ZM196.33 78.5362C197.985 78.3083 199.364 79.4458 199.547 80.6415C199.698 81.7013 199.157 82.9438 197.123 83.2627L196.175 83.4512C183.703 85.9457 169.636 88.7497 157.819 93.5794C154.106 94.9158 152.146 96.0458 150.036 97.626C150.036 97.626 148.892 95.1362 148.474 94.4094C147.818 93.2465 147.729 93.1293 147.18 92.8198C148.887 91.6757 151.095 90.5925 154.073 89.3406C162.748 85.7066 180.753 81.041 196.321 78.5559L196.33 78.5362ZM141 96.8233C141 96.8233 140.895 98.1174 141.581 99.5054C142.139 100.612 143.26 103.397 143.26 103.397C143.449 103.213 140.747 106.572 139.242 108.93L130.145 123.841L127.702 121.159C127.702 121.159 126.656 119.907 125.681 119.907C130.417 112.217 134.778 105.324 136.231 103.121C137.779 100.579 141.483 96.2278 140.967 96.7904L141 96.8233ZM182.732 174.192C182.732 174.192 180.538 174.621 176.824 174.324C175.061 170.995 173.12 166.447 168.149 155.568C171.53 155.955 174.104 155.6 174.104 155.6L182.732 174.168V174.192ZM197.315 156.889C197.327 157.158 197.337 157.429 197.349 157.701L222.998 162.108C223.486 163.51 225.324 167.688 225.324 167.688L197.377 162.952C197.376 163.234 197.371 163.529 197.368 163.82C197.198 167.018 196.721 170.103 195.933 173.01C194.7 173.141 193.453 173.266 192.201 173.386C194.043 167.337 194.25 160.632 193.425 154.114C194.601 153.991 195.788 153.863 196.983 153.728C197.116 154.787 197.213 155.842 197.289 156.893L197.315 156.889ZM234.077 167.486L232.117 162.976C238.681 163.08 243.417 163.013 243.417 163.013C244.205 165.92 241.495 166.023 241.495 166.023L234.461 167.43L234.077 167.486ZM232.797 167.879C231.92 168.271 227.639 168.892 227.639 168.892C226.607 166.937 220.089 150.98 220.089 150.98C220.868 150.885 225.247 150.169 225.247 150.169C228.572 159.406 232.843 167.893 232.843 167.893L232.797 167.879ZM110.883 157.423C115.947 160.461 123.168 164.925 123.168 164.925C128.138 168.09 131.983 163.542 133.202 161.929C134.14 160.672 137.033 156.771 136.935 153.442C136.83 150.207 134.351 148.472 132.152 147.018L121.836 140.219C122.788 138.672 124.331 136.177 126.666 132.388C131.308 137.026 136.653 142.095 136.7 142.141C139.865 145.574 143.077 148.097 146.313 149.972C147.077 150.418 147.841 150.821 148.601 151.191C150.655 157.475 152.901 163.054 153.853 167.134C153.065 162.351 151.644 157.24 150.251 151.988C155.738 154.361 161.13 155.088 166.053 155.364C166.279 155.38 166.51 155.394 166.743 155.407L167.069 156.129C165.118 161.333 161.489 166.913 156.8 170.289C156.818 170.561 156.829 170.833 156.842 171.11C155.477 170.892 154.047 170.664 152.565 170.43C151.482 170.257 150.376 170.082 149.241 169.9C148.711 169.818 148.176 169.731 147.637 169.644C130.991 166.995 110.735 163.783 106.984 163.173L110.899 157.359L110.883 157.423ZM112.824 143.778C116.655 146.183 124.734 151.046 127.032 152.359C129.526 153.747 130.028 154.413 130.028 154.413C132.921 157.16 132.372 159.899 130.961 161.821C129.357 163.969 126.286 165.343 123.74 163.641L120.261 161.493L120.265 161.482L119.009 160.727L108.224 154.116L108.196 154.092L108.162 154.072C108.143 154.064 106.361 153.237 105.906 151.573C105.605 150.452 105.962 149.177 106.961 147.765C109.245 144.553 110.351 142.701 110.844 141.857C111.336 142.936 112.851 143.812 112.851 143.812L112.824 143.778ZM119.248 143.29L130.783 151.027C132.513 152.27 134.215 154.399 133.202 157.264C133.054 154.572 129.709 152.434 129.709 152.434C129.709 152.434 117.33 145.119 113.532 142.775C111.356 141.41 111.581 139.525 112.721 138.536C112.554 141.508 117.11 143.881 119.285 143.318L119.248 143.29ZM131.486 149.996C129.226 148.481 120.42 142.634 120.42 142.634L121.353 141.729C125.325 144.284 130.544 147.731 132.794 149.419C136.841 152.485 134.656 156.171 134.656 156.171C135.06 153.953 134.056 151.745 131.472 149.981L131.486 149.996ZM121.405 127.113C122.971 129.27 125.475 131.535 125.475 131.535L119.192 141.523C118.343 142.193 116.561 141.507 115.45 140.435C115.192 140.188 113.973 138.925 114.704 138.048L114.742 138.001L114.771 137.948C114.866 137.795 116.234 135.524 121.43 127.117L121.405 127.113ZM99.4133 169.455C98.152 169.375 96.8578 168.569 96.3936 167.589C96.1081 166.998 96.1737 166.398 96.5948 165.797L104.801 153.231C105.316 154.225 109.452 156.701 109.452 156.701C107.717 159.266 101.528 168.47 101.528 168.47C100.956 169.347 100.051 169.483 99.3941 169.441L99.4133 169.455ZM190.38 185.397C189.973 184.732 189.578 184.047 189.203 183.344L188.645 182.237C189.555 182.137 190.075 182.05 190.075 182.05C191.041 181.95 192.03 181.846 193.034 181.74C192.246 183.024 191.355 184.244 190.38 185.402V185.397ZM232.018 176.629C233.097 176.431 237.551 175.447 237.551 175.447C242.24 182.481 249.789 187.592 249.789 187.592C249.981 189.364 250.144 193.875 250.144 193.875C238.28 188.108 232.044 176.62 232.044 176.62L232.018 176.629ZM249.836 208.327C237.176 211.586 223.578 211.782 212.137 208.756C201.774 206.013 189.489 199.987 182.643 184.889C182.643 184.889 181.771 183.248 181.574 182.46C181.574 182.46 185.058 182.528 187.341 182.338C197.939 204.986 225.182 209.253 248.767 203.251C248.767 203.251 250.905 202.884 251.506 202.238C251.989 201.113 251.939 198.22 251.939 198.22C251.91 197.563 251.372 183.59 248.793 174.306C248.564 173.326 248.254 172.725 248.005 172.496C248.005 172.496 247.302 172.199 246.796 172.187C245.548 172.141 243.907 172.488 243.907 172.488C229.512 175.92 207.192 178.771 189.515 180.553C189.482 180.553 188.132 180.76 185.754 180.861L183.855 180.916C180.517 180.952 175.79 180.744 169.835 179.8C169.835 179.8 104.189 169.109 104.658 169.109L108.17 164.279L171.471 174.642C181.131 176.086 185.585 175.392 185.726 175.369C202.747 174.421 234.023 169.742 241.994 167.726C241.994 167.726 246.116 166.75 246.636 166.225C246.973 165.885 246.12 162.793 246.12 162.793C246.084 162.69 242.997 152.618 241.455 148.726L241.477 148.807C241.439 148.646 240.769 146.486 240.065 146.162L239.549 146.172C239.549 146.172 238.64 146.348 237.528 146.599C222.664 149.295 195.562 153.07 179.854 154.054C181.232 153.969 173.383 154.332 167.334 153.911C158.66 153.428 149.047 151.276 139.482 140.875C139.377 140.769 128.791 130.7 124.524 126.011C123.464 124.501 124.027 122.842 125.143 121.965C125.93 121.336 127.496 121.05 128.369 122.074C130.24 124.573 140.935 135.625 146.234 140.549C152.095 145.12 156.315 147.488 164.474 148.426C168.905 148.951 174.133 148.877 174.415 148.886C185.199 149.158 224.587 144.352 235.84 142.087C237.308 141.892 238.185 141.543 238.185 141.543L238.163 141.322L238.23 140.834C238.25 140.664 238.915 140.131 239.468 139.878C240.528 139.39 241.944 139.381 243.13 140.351C251.383 155.544 259.495 183.724 257.619 205.059C257.516 206.189 257.061 207.108 256.189 207.549C256.189 207.549 254.304 208.403 252.396 207.426C252.396 207.426 252.469 207.58 250.417 208.265L249.836 208.327ZM287.489 193.416L287.477 193.172C286.192 175.776 282.319 158.192 275.566 139.249L275.49 139.06L275.414 138.873L274.626 137.007L274.72 137.211C271.916 129.944 266.092 126.802 257.464 127.88C257.464 127.88 253.45 128.32 253.591 128.305L252.006 128.447C245.395 129.052 235.829 129.905 227.436 129.127L216.979 104.416C219.132 103.004 220.96 101.354 222.09 99.2578C223.023 97.5791 223.6 95.802 223.952 94.053C227.164 93.6099 230.188 92.1821 232.345 89.8376C235.52 86.3771 237.316 80.1314 232.833 73.0041L233.059 73.3769L219.086 48.1501L210.833 51.6668C177.072 -1.31886 113.771 -9.75905 67.3497 10.4036C24.9611 28.6907 -16.1145 76.9874 7.79942 152.48C10.3033 160.452 13.52 168.282 17.3181 175.831C17.0827 178.19 17.2182 180.52 17.7687 182.912L17.7936 183.04L17.8327 183.168C19.0424 187.73 20.149 190.764 22.9906 197.047C22.8316 201.178 24.3644 205.394 27.3466 208.582C32.0028 213.599 39.3974 215.569 47.6031 213.975L47.2083 214.034C58.0868 212.505 65.1671 209.298 68.8715 207.188C85.1892 218.582 106.477 223.693 125.608 220.551C137.94 218.502 147.928 213.19 154.774 205.031C160.026 205.388 164.761 204.825 165.699 204.708C171.514 204.284 176.812 203.058 181.548 201.065C188.535 209.224 198.006 215.085 209.354 218.086C222.624 221.579 237.628 221.34 251.93 217.509C254.696 217.768 257.416 217.012 259.339 216.107C274.343 212.675 277.719 211.231 279.923 209.355C279.95 209.338 279.982 209.31 280.004 209.277C285.35 205.62 287.085 198.727 286.897 193.663" fill="white"/>
</g>
<mask id="mask1_487_1494" style="mask-type:luminance" maskUnits="userSpaceOnUse" x="0" y="-76" width="288" height="373">
<path d="M0.850586 296.345H287.817V-75.0239H0.850586V296.345Z" fill="white"/>
</mask>
<g mask="url(#mask1_487_1494)">
<path d="M137.301 206.785C141.99 204.337 146.022 200.924 149.07 196.375C149.062 196.372 149.05 196.369 149.041 196.366C150.428 194.401 151.441 192.371 152.168 190.317C149.083 197.866 143.822 203.259 137.304 206.776" fill="#FF3C00"/>
<path d="M131.205 125.196C134.637 128.859 139.739 134.059 143.584 137.716C142.717 132.23 142.506 126.556 143.651 121.305C144.425 117.75 145.719 114.693 147.271 112.02L144.012 104.846C143.281 105.943 141.944 107.978 140.688 109.957C140.688 109.948 136.046 117.366 131.216 125.15" fill="#FF3C00"/>
<path d="M143.396 152.392C145.633 157.222 147.959 163.318 149.257 170.07C150.387 170.252 151.499 170.427 152.582 170.6C152.233 168.893 151.865 167.346 151.579 166.019C150.974 163.248 148.512 157.344 146.327 150.17C143.11 148.29 139.856 145.758 136.714 142.339C136.666 142.29 131.322 137.228 126.68 132.586C124.335 136.375 122.793 138.869 121.85 140.417L132.166 147.216C134.384 148.679 136.855 150.414 136.949 153.64C137.044 156.974 134.154 160.861 133.216 162.127C132.002 163.74 128.152 168.269 123.182 165.123C123.182 165.123 115.961 160.645 110.897 157.621L106.981 163.435C110.705 164.026 130.989 167.257 147.635 169.906C146.754 163.482 144.639 157.621 143.359 152.51" fill="#FF3C00"/>
</g>
<mask id="mask2_487_1494" style="mask-type:luminance" maskUnits="userSpaceOnUse" x="0" y="0" width="287" height="222">
<path d="M0.944336 221.321H286.973V0.469015H0.944336V221.321Z" fill="white"/>
</mask>
<g mask="url(#mask2_487_1494)">
<path d="M160.276 99.4068C166.184 96.1995 169.842 94.4365 179.267 93.2642C179.226 93.2689 181.607 92.9416 181.607 92.9416C183.205 92.7015 186.258 92.0648 187.14 90.4752C187.641 89.5702 187.829 88.3558 187.768 86.9069C177.733 89.0076 167.277 91.5208 158.18 95.2064C155.048 96.3365 152.554 97.9448 150.115 99.5109C150.833 101.096 151.691 102.99 152.661 105.138C155.057 102.831 157.444 101.194 159.179 100.12C159.519 99.8645 160.253 99.3984 160.253 99.3984" fill="#FF3C00"/>
<path d="M91.8167 166.46C90.7242 166.823 89.5472 167.008 88.3421 166.994C85.0223 166.969 81.7307 165.484 79.2455 162.91C74.4158 157.893 74.1345 150.109 78.5468 145.608C80.5397 143.577 83.2358 142.466 86.1899 142.485C89.5097 142.505 92.8014 143.995 95.2866 146.564C97.767 149.157 99.0471 152.472 99.1081 155.708L91.8401 166.492L91.8167 166.46ZM108.228 177.854C99.1784 187.466 81.1727 187.372 70.9507 174.295C88.2531 190.331 104.383 179.734 108.228 177.854ZM81.5947 192.39C80.8163 193.041 79.766 193.281 78.6734 193.191C77.459 193.951 75.5693 193.527 74.2236 192.108C72.9763 190.791 72.6059 189.046 73.2154 187.865C72.9552 185.956 73.5446 184.048 74.8988 183.082C76.9479 181.642 80.0567 182.529 81.8385 185.056C83.6203 187.593 83.5359 190.777 81.5952 192.371L81.5947 192.39ZM124.171 175.275C127.158 175.294 129.563 177.713 129.563 180.714C129.557 182.937 128.203 184.84 126.286 185.684C125.638 186.374 124.733 186.8 123.73 186.796C122.319 186.796 121.114 185.942 120.551 184.718C119.449 183.724 118.75 182.299 118.755 180.7C118.764 177.713 121.193 175.308 124.194 175.308L124.171 175.275ZM181.845 61.3322C182.12 60.9031 182.521 60.5773 182.976 60.31C167.502 34.0516 130.459 6.85542 81.6932 14.8267C35.0376 29.8315 -1.3021 75.7837 14.6405 140.492C21.4395 165.203 29.3639 178.285 37.9917 190.664C37.9917 190.664 37.6016 196.619 47.8855 193.51C57.2166 190.692 62.8903 190.481 72.5965 197.726C89.5238 210.339 118.689 216.06 137.305 206.307C143.822 202.79 149.121 197.398 152.169 189.848C153.486 186.116 153.843 182.346 153.711 178.782C152.553 178.589 151.353 178.389 150.115 178.187C149.318 193.567 134.079 208.337 106.836 206.649C95.4882 206.226 83.3437 200.694 76.1226 196.755C72.7981 194.523 63.4154 189.253 58.914 188.268C62.8246 188.475 72.6059 193.614 76.6853 195.958C85.0786 200.291 96.848 204.445 106.789 204.867C124.982 206.579 145.614 197.271 147.817 177.812C129.577 174.768 105.382 170.731 101.865 170.169C101.152 170.68 100.252 170.928 99.2581 170.867C97.42 170.739 95.6382 169.611 94.9255 168.11C94.4003 166.994 94.5138 165.812 95.2594 164.762C95.2453 164.786 103.887 151.867 103.887 151.867L104.24 151.169C103.833 149.199 104.77 147.469 105.187 147.056C105.9 146.344 109.829 139.882 110.72 138.1C110.823 137.891 111.864 136.272 113.927 136.117C114.842 134.649 117.045 131.147 120.773 125.051C120.477 123.335 121.27 121.675 122.489 120.718C122.856 120.43 123.244 120.226 123.638 120.076C128.261 112.574 133.438 104.415 134.892 102.258C136.542 99.993 137.836 98.4831 139.309 96.7716C139.843 96.1668 141.053 95.1961 141.578 94.7835C142.267 93.8551 143.29 93.133 144.354 92.8282C144.367 92.7424 144.429 92.6458 144.569 92.5333C148.297 89.4901 153.572 87.6098 153.572 87.6098C160.606 84.6698 173.078 81.2797 185.879 78.7476C184.984 76.164 182.147 68.0098 182.147 68.0098C182.005 67.6544 180.037 63.6303 181.589 61.2107" fill="#FF3C00"/>
</g>
<mask id="mask3_487_1494" style="mask-type:luminance" maskUnits="userSpaceOnUse" x="0" y="-76" width="288" height="373">
<path d="M0.850586 296.345H287.817V-75.0239H0.850586V296.345Z" fill="white"/>
</mask>
<g mask="url(#mask3_487_1494)">
<path d="M147.616 169.742C148.155 169.828 148.69 169.915 149.22 169.998C147.902 163.293 145.576 157.15 143.358 152.32C144.638 157.431 146.753 163.293 147.635 169.716" fill="#2B1D14"/>
<path d="M106.822 205.378C96.8344 204.961 85.1119 200.802 76.7186 196.469C72.6204 194.097 62.8391 188.967 58.9473 188.779C63.444 189.773 72.8267 195.016 76.1559 197.266C83.3769 201.205 95.5214 206.738 106.869 207.16C134.112 208.862 149.351 194.078 150.148 178.698C149.412 178.575 148.667 178.45 147.902 178.324C145.558 197.549 124.926 206.927 106.639 205.52" fill="#2B1D14"/>
<path d="M86.1899 142.546C83.264 142.527 80.5631 143.634 78.5468 145.669C74.1157 150.175 74.4346 157.954 79.2455 162.971C81.6932 165.541 85.013 167.027 88.3422 167.055C89.5472 167.071 90.7195 166.886 91.8167 166.521L99.0847 155.736C99.0256 152.515 97.7436 149.171 95.2631 146.592C92.8155 144.023 89.4957 142.532 86.1665 142.513" fill="#2B1D14"/>
<path d="M71.1855 173.962C81.4076 187.044 99.3664 187.138 108.463 177.521C104.604 179.411 88.4879 189.994 71.1855 173.962Z" fill="#2B1D14"/>
<path d="M124.171 176.306C127.692 176.299 130.126 180.817 127.205 183.856C128.48 181.117 127.437 177.619 124.072 177.479C120.579 177.341 119.416 180.845 120.026 182.683C118.844 181.572 119.247 176.306 124.166 176.306H124.171ZM125.92 180.231C125.16 179.382 123.247 178.984 122.145 179.72C121.653 180.024 121.142 179.625 121.769 178.984C123.007 177.901 125.309 177.962 126.364 179.528C126.894 180.32 126.33 180.859 125.92 180.231ZM123.58 186.186C121.953 186.186 120.635 184.854 120.635 183.204C120.635 181.563 121.948 180.226 123.58 180.226C125.203 180.226 126.52 181.563 126.52 183.204C126.52 184.854 125.203 186.186 123.58 186.186ZM120.415 184.733C120.978 185.956 122.183 186.81 123.594 186.81C124.602 186.813 125.503 186.384 126.15 185.699C128.068 184.878 129.423 182.974 129.427 180.728C129.438 177.727 127.022 175.289 124.035 175.289C121.053 175.284 118.643 177.704 118.596 180.681C118.591 182.285 119.294 183.71 120.392 184.7" fill="#2B1D14"/>
<path d="M121.826 178.651C121.198 179.293 121.71 179.692 122.202 179.387C123.3 178.651 125.218 179.047 125.977 179.898C126.387 180.527 126.952 179.989 126.422 179.195C125.367 177.629 123.064 177.568 121.826 178.651Z" fill="white"/>
<path d="M124.171 177.244C127.533 177.389 128.579 180.878 127.304 183.621C130.244 180.583 127.787 176.072 124.27 176.072C119.346 176.092 118.924 181.324 120.129 182.449C119.52 180.616 120.678 177.104 124.176 177.244" fill="white"/>
<path d="M123.703 185.216C122.404 185.216 121.353 184.165 121.353 182.862C121.353 181.563 122.409 180.513 123.703 180.513C125.006 180.513 126.061 181.563 126.061 182.862C126.061 184.165 125.006 185.216 123.703 185.216ZM126.671 182.885C126.671 181.244 125.353 179.908 123.731 179.908C122.104 179.908 120.786 181.244 120.786 182.885C120.786 184.536 122.099 185.867 123.731 185.867C125.353 185.867 126.671 184.536 126.671 182.885Z" fill="white"/>
<path d="M121.827 183.34C121.893 183.038 122.03 183.187 122.097 183.417C122.74 184.434 124.526 184.509 125.061 183.727C125.342 183.329 125.337 183.872 125.337 183.872C124.216 186.085 121.651 184.688 121.825 183.342L121.827 183.34ZM123.567 180.911C122.268 180.911 121.218 181.962 121.218 183.26C121.218 184.564 122.273 185.614 123.567 185.614C124.87 185.614 125.926 184.564 125.926 183.26C125.926 181.962 124.87 180.911 123.567 180.911Z" fill="#2B1D14"/>
<path d="M125.109 183.34C124.57 184.123 122.783 184.043 122.146 183.029C122.079 182.8 121.941 182.651 121.876 182.953C121.703 184.299 124.262 185.696 125.388 183.483C125.388 183.483 125.392 182.939 125.111 183.338" fill="white"/>
<path d="M80.5636 192.249C84.1741 187.56 77.15 182.074 74.3741 186.435C76.6905 179.354 86.0028 188.249 80.5636 192.249ZM79.6727 188.545C79.3173 187.776 78.1581 186.791 77.5111 186.664C76.8546 186.538 77.1041 185.478 77.8918 185.745C78.6233 185.999 79.7533 186.96 80.0347 187.419C80.7568 188.606 79.9879 189.206 79.676 188.54L79.6727 188.545ZM74.843 191.771C73.5817 190.439 73.3613 188.596 74.3554 187.649C75.3541 186.711 77.1781 187.021 78.4395 188.352C79.7008 189.684 79.9212 191.532 78.9271 192.469C77.9378 193.417 76.1044 193.098 74.843 191.766V191.771ZM75.1703 183.19C73.8152 184.146 73.2244 186.05 73.487 187.973C72.8774 189.154 73.2469 190.899 74.4951 192.216C75.8408 193.637 77.7305 194.059 78.945 193.299C80.0375 193.388 81.0878 193.15 81.8662 192.497C83.8074 190.884 83.8918 187.715 82.1096 185.183C80.323 182.655 77.233 181.769 75.1698 183.209" fill="#2B1D14"/>
<path d="M77.75 185.684C76.9623 185.415 76.7138 186.477 77.3693 186.604C78.0164 186.728 79.1792 187.715 79.5309 188.484C79.8427 189.15 80.6141 188.548 79.8896 187.363C79.612 186.903 78.4782 185.942 77.7467 185.689" fill="white"/>
<path d="M73.999 186.153C76.7749 181.807 83.799 187.279 80.1885 191.968C85.6277 187.959 76.3154 179.026 73.999 186.153Z" fill="white"/>
<path d="M78.2193 191.78C77.394 192.39 75.9967 191.891 74.9745 190.95C73.8679 189.937 73.7788 188.381 74.5379 187.64C75.3867 186.829 76.8965 187.337 77.8015 188.371C78.533 189.215 79.166 191.063 78.2179 191.78H78.2193ZM78.2552 187.949C76.9938 186.618 75.1698 186.308 74.171 187.246C73.177 188.193 73.3927 190.036 74.6587 191.368C75.92 192.699 77.7534 193.018 78.7428 192.071C79.7369 191.133 79.5212 189.286 78.2552 187.954" fill="white"/>
<path d="M77.7503 191.78C76.0576 191.941 74.5384 189.886 75.1667 188.976C75.1667 188.976 75.6314 188.338 75.7153 188.929C75.8635 189.938 76.9251 190.993 77.9379 191.265C78.1827 191.322 78.2605 191.692 77.7522 191.78L77.7503 191.78ZM74.7681 188.043C74.0085 188.784 74.0976 190.345 75.2047 191.354C76.2269 192.296 77.6242 192.793 78.4495 192.183C79.3966 191.466 78.766 189.614 78.0331 188.775C77.1281 187.738 75.6183 187.232 74.7695 188.043" fill="#2B1D14"/>
<path d="M75.4052 188.499C75.3194 187.908 74.8567 188.546 74.8567 188.546C74.2333 189.455 75.752 191.508 77.4395 191.349C77.9458 191.258 77.8699 190.889 77.6252 190.833C76.6174 190.565 75.5533 189.506 75.4033 188.499" fill="white"/>
<path d="M66.9657 197.407C67.3009 197.174 67.6503 196.919 67.9175 196.727C63.2848 193.768 57.5549 191.851 48.1769 194.917C48.032 194.965 47.8993 195.004 47.7572 195.05C50.0032 194.597 53.1027 194.079 55.0251 194.211C57.4962 194.388 61.1208 194.745 64.5438 196.921L62.8183 197.859C54.6594 201.807 47.8135 202.923 43.9216 203.204C40.1001 203.478 40.8362 201.244 43.3542 199.978C44.7375 199.275 45.905 197.934 46.4161 195.486C45.9998 195.701 45.9998 195.611 45.3892 195.725C45.3659 195.731 45.344 195.736 45.3222 195.742C44.4829 201.744 32.7557 201.134 34.0217 192.952C34.0217 192.952 32.3337 189.482 31.3677 187.466C31.3864 187.55 31.1258 186.204 31.2571 186.172C31.2571 186.172 34.1267 190.828 35.3084 192.314C33.7235 197.894 41.873 200.192 44.0768 196.018C36.9026 197.355 36.6213 193.683 36.7151 192.45C36.6574 192.269 36.6152 192.069 36.5702 191.873C35.3182 190.598 31.2716 185.215 26.6295 176.728C26.0059 181.698 31.5998 193.139 32.0687 194.265L32.547 195.446C30.8543 200.131 35.7309 206.278 44.504 204.871C53.1317 204.055 62.7911 200.445 66.9174 197.463" fill="white"/>
<path d="M187.941 182.402L188.499 183.509C188.874 184.212 189.268 184.897 189.676 185.562C190.652 184.404 191.543 183.185 192.33 181.9C191.332 182.006 190.337 182.111 189.372 182.211C189.372 182.211 188.856 182.298 187.941 182.398" fill="#2B1D14"/>
<path d="M192.162 173.493C193.419 173.373 194.661 173.248 195.894 173.117C196.682 170.196 197.156 167.115 197.329 163.926C197.332 163.633 197.337 163.34 197.338 163.059L225.285 167.795C225.285 167.795 223.447 163.64 222.959 162.215L197.17 157.526C197.157 157.253 197.148 156.982 197.135 156.715C197.059 155.664 196.962 154.609 196.83 153.55C195.634 153.685 194.443 153.813 193.271 153.937C194.096 160.407 193.894 167.159 192.047 173.208" fill="#2B1D14"/>
<path d="M143.396 137.857C143.978 138.415 144.54 138.949 145.051 139.427C145.193 139.538 145.33 139.639 145.471 139.75C143.816 131.263 143.755 122.307 148.031 114.289L147.084 112.197C145.527 114.842 144.233 117.918 143.464 121.482C142.32 126.733 142.531 132.36 143.397 137.893" fill="#2B1D14"/>
<path d="M152.774 170.68C154.251 170.915 155.686 171.143 157.051 171.36C157.038 171.083 157.027 170.811 157.008 170.539C161.697 167.144 165.355 161.583 167.277 156.378L166.951 155.656C166.717 155.644 166.487 155.63 166.262 155.614C161.339 155.338 155.946 154.611 150.46 152.238C151.853 157.537 153.274 162.648 154.061 167.383C153.091 163.281 150.845 157.724 148.81 151.441C148.05 151.067 147.286 150.667 146.521 150.222C148.702 157.396 151.168 163.304 151.773 166.071C152.062 167.398 152.43 168.945 152.777 170.652" fill="#2B1D14"/>
<path d="M190.755 131.292C189.062 123.414 190.856 108.785 196.616 104.612C188.41 105.606 186.113 126.181 190.755 131.292Z" fill="white"/>
<path d="M163.09 147.235L148.976 116.147C145.736 124.352 146.205 132.98 147.846 141.467C152.32 144.609 156.568 146.531 163.085 147.235" fill="#2B1D14"/>
<path d="M190.756 131.292C186.113 126.181 188.397 105.596 196.617 104.612C190.896 108.785 189.068 123.414 190.756 131.292ZM217.905 85.9494C222.35 88.2751 230.425 85.0913 225.548 77.3685L215.045 58.4719L210.989 60.3522L218.303 76.6699L219.129 76.7636C219.72 76.8635 220.32 76.8804 222.674 77.5655C225.759 78.4611 226.298 85.3961 220.428 84.8334C219.48 84.7087 218.561 84.6074 217.806 84.5244C217.802 84.5182 217.797 84.5119 217.794 84.5042C216.786 84.3218 215.524 84.1328 214.062 84.0306L213.737 83.9916C215.238 89.806 214.801 97.6835 206.938 99.4184C211.003 97.6366 207.444 96.4128 207.239 96.319C198.752 94.373 184.638 96.9895 183.091 95.9195C192.14 95.0426 192.844 90.5271 192.094 85.8381C191.632 85.9319 191.16 86.0299 190.696 86.1251C191.568 91.0485 189.519 92.8772 186.795 93.9088C182.641 95.3202 179.668 95.3577 179.527 95.339L176.826 95.2471C177.998 94.8508 180.315 94.7547 183.156 94.1686C187.517 93.2589 190.049 91.3505 189.721 86.338C189.163 86.4505 188.61 86.564 188.047 86.6826C188.111 88.1362 187.921 89.346 187.419 90.2509C186.537 91.8405 183.485 92.4735 181.886 92.7174C181.886 92.7174 179.504 93.0446 179.546 93.04C170.121 94.245 166.51 95.9846 160.555 99.1825C160.555 99.1825 159.824 99.6472 159.482 99.9047C157.714 100.96 155.346 102.596 152.964 104.922C153.235 105.517 153.512 106.132 153.799 106.765C154.872 105.696 156.045 104.659 157.348 103.656C157.348 103.656 159.988 101.335 163.303 99.8625C158.52 102.92 155.566 105.911 154.113 107.506C157.897 115.852 162.975 127.059 167.945 138.031C166.801 129.497 183.138 123.026 189.139 137.187C190.279 139.883 191.296 142.861 192.108 146.049C193.294 145.93 194.499 145.809 195.723 145.682C195.333 144.093 194.888 142.503 194.382 140.9C193.519 137.284 192.863 132.225 192.895 126.88C192.891 126.611 192.886 126.345 192.886 126.082C195.352 128.957 204.186 138.555 214.784 141.65L212.144 135.179C212.144 135.179 201.5 130.621 193.575 118.439C193.685 117.839 193.784 117.38 193.85 117.089C194.745 112.625 196.335 108.414 198.914 105.132C199.09 104.913 199.252 104.73 199.415 104.536C199.565 104.313 199.841 103.941 200.264 103.519L217.051 142.907C217.051 142.907 219.855 142.716 222.396 142.255L205.047 101.179C205.321 101.139 205.61 101.113 205.91 101.095C206.044 101.079 206.158 101.059 206.301 101.043V101.038C206.549 101.023 206.769 101.009 206.869 100.989C210.878 100.271 212.964 98.4754 214.512 95.6902C215.825 93.2988 216.003 90.1572 215.787 87.5782C216.265 86.9218 216.809 86.4341 217.827 85.9136" fill="#2B1D14"/>
<path d="M115.731 152.861C115.341 157.738 119.806 158.488 122.296 157.541C122.84 161.503 126.286 161.606 127.969 161.344C125.883 162.666 121.874 161.778 121.124 158.052C117.963 159.013 114.418 156.467 115.731 152.847V152.861ZM116.599 151.82C117.358 151.183 117.963 150.897 119.098 150.953C118.615 151.703 118.437 152.824 118.366 153.963C118.136 153.768 117.95 153.764 117.719 153.514L117.716 154.33C117.864 154.597 118.101 154.678 118.401 154.879C118.41 155.596 118.441 156.14 118.577 156.623C118.423 156.571 118.334 156.441 118.171 156.366C115.822 155.043 116.601 151.822 116.601 151.822L116.599 151.82ZM120.519 151.094C122.202 151.628 123.426 153.105 123.346 154.625L123.536 154.643C123.401 155.745 122.238 157.246 119.87 156.885C119.746 156.402 119.734 155.928 119.706 155.398C120.094 155.534 120.527 155.607 120.991 155.585C120.978 155.369 121.038 154.896 121.038 154.896C120.569 154.859 120.147 154.704 119.692 154.504C119.734 153.224 120.005 152.057 120.517 151.096L120.519 151.094ZM124.481 154.718C127.871 154.617 130.53 158.01 128.818 160.486L128.199 160.589C125.245 160.974 123.576 159.806 123.088 157.161C123.548 156.831 124.303 155.923 124.486 154.709L124.481 154.718ZM120.509 159.074C120.509 159.074 120.687 159.576 121.058 160.275L121.061 160.269C121.39 160.873 121.943 161.436 122.557 161.811C127.101 164.512 129.59 161.07 129.637 161.042C129.658 161.011 131.724 158.313 128.704 155.369C128.625 155.292 126.782 153.652 124.273 153.966C124.01 152.93 122.698 150.018 118.928 150.14H118.9L118.875 150.148C115.864 150.355 115.161 151.981 114.819 152.919C114.819 152.919 114.045 154.987 115.187 156.778C115.202 156.803 116.664 159.695 120.532 159.099" fill="white"/>
<path d="M200.133 66.115C199.134 65.4773 197.62 63.2922 197.854 61.5151C200.18 61.5463 200.865 64.9427 200.133 66.115Z" fill="#2B1D14"/>
<path d="M202.478 72.2107C201.31 71.0431 200.696 69.7584 200.574 67.8921C202.431 68.2649 203.552 70.5742 202.478 72.2107Z" fill="#2B1D14"/>
<path d="M192.632 67.5216C192.632 67.5216 194.104 72.1262 195.966 76.7121C200.842 75.4413 204.359 84.4489 195.736 85.1054C196.576 88.7018 204.692 87.1967 201.551 79.0566C200.922 77.4201 195.502 66.1618 194.47 63.3953C193.809 61.6088 193.786 61.2946 193.823 60.6757C193.823 60.6757 193.801 60.211 193.9 60.0145C193.906 59.9896 193.758 60.083 193.758 60.083L192.004 60.9974C190.733 62.5166 192.642 67.5151 192.642 67.5151" fill="#2B1D14"/>
<path d="M189.349 67.5216C190.723 71.6902 192.908 77.6968 192.908 77.6968L194.671 77.3695L191.314 67.9915C191.314 67.9915 189.935 64.3763 190.662 62.0365L189.058 62.8008C189.058 62.8008 188.308 64.3388 189.35 67.4898" fill="#2B1D14"/>
<path d="M201.54 87.2156C208.058 87.6728 209.605 84.7679 209.605 84.7679C207.514 84.7336 203.416 84.7336 203.416 84.7336C203.32 86.009 201.554 87.2141 201.554 87.2141" fill="#2B1D14"/>
<path d="M125.578 120.039C126.558 120.039 127.599 121.291 127.599 121.291L130.042 123.973L139.139 109.062C140.644 106.698 143.345 103.341 143.157 103.529C143.157 103.529 142.037 100.743 141.479 99.6367C140.789 98.2488 140.897 96.9546 140.897 96.9546C141.385 96.3732 137.694 100.725 136.161 103.285C134.689 105.489 130.347 112.335 125.611 120.071" fill="#2B1D14"/>
<path d="M240.928 138.326C241.171 138.341 242.091 138.448 243.014 139.198C243.014 139.198 249.86 138.326 251.361 137.735C251.361 137.735 243.577 138.513 240.951 138.326" fill="#2B1D14"/>
<path d="M240.928 138.326C240.891 138.324 240.864 138.322 240.864 138.322C240.881 138.324 240.908 138.326 240.928 138.326Z" fill="#2B1D14"/>
<path d="M243.272 163.177C243.272 163.177 238.536 163.244 231.972 163.14L233.932 167.651L241.34 166.188C241.34 166.188 244.046 166.083 243.263 163.177" fill="#2B1D14"/>
<path d="M225.454 150.048C225.454 150.048 221.079 150.765 220.296 150.859C220.296 150.859 226.814 166.802 227.845 168.771C227.845 168.771 232.15 168.148 233.003 167.758C233.003 167.758 228.75 159.318 225.407 150.034" fill="#2B1D14"/>
<path d="M236.708 175.838C236.708 175.838 232.272 176.822 231.175 177.019C231.175 177.019 237.458 188.46 249.274 194.275C249.274 194.275 249.112 189.764 248.92 187.991C248.92 187.991 241.371 182.88 236.682 175.847" fill="#2B1D14"/>
<path d="M272.344 196C272.344 196 273.718 200.108 258.652 202.049C258.652 202.049 267.655 200.778 270.094 197.735C270.094 197.735 272.438 195.775 267.651 194.697C262.985 193.646 262.258 194.209 257.757 192.249C257.757 192.249 258.047 196.657 257.949 197.735C257.949 197.735 260.884 198.617 262.549 198.518C262.549 198.518 262.654 197.154 258.825 195.977C258.825 195.977 275.284 197.543 257.949 201.275C257.949 201.275 258.047 204.703 257.556 206.855C257.556 206.855 266.559 204.497 269.325 203.709C272.453 202.832 278.515 199.991 272.359 195.972" fill="#2B1D14"/>
<path d="M168.248 155.675C173.218 166.553 175.141 171.102 176.923 174.431C180.641 174.727 182.831 174.298 182.831 174.298L174.203 155.73C174.203 155.73 171.648 156.085 168.248 155.699" fill="#2B1D14"/>
<path d="M142.927 96.1247C142.426 96.9781 142.416 97.8549 142.912 98.7364C142.927 98.7676 154.822 124.854 164.997 147.033C167.581 147.572 170.858 147.423 170.858 147.423L146.476 94.4376C146.444 94.386 145.871 94.1909 145.242 94.1862C144.361 94.1691 143.053 94.8286 142.387 95.9399" fill="#2B1D14"/>
<path d="M254.995 207.723C255.862 207.282 256.322 206.363 256.425 205.233C258.305 183.945 250.189 155.53 241.936 140.525C240.75 139.554 239.334 139.564 238.274 140.051C237.721 140.304 237.055 140.834 237.036 141.008L236.969 141.495L236.991 141.717C236.991 141.717 236.109 142.065 234.646 142.261C223.111 144.535 184.005 149.341 173.22 149.06C172.962 149.05 167.734 149.123 163.28 148.6C155.121 147.676 150.901 145.289 145.039 140.722C139.741 135.799 129.05 124.733 127.174 122.248C126.298 121.225 124.731 121.507 123.948 122.138C122.832 123.015 122.27 124.68 123.329 126.185C127.587 130.85 138.147 140.908 138.287 141.049C147.853 151.412 157.465 153.569 166.14 154.084C172.236 154.505 180.066 154.142 178.66 154.228C194.602 153.267 221.705 149.492 236.334 146.772C237.446 146.521 238.355 146.345 238.355 146.345L238.871 146.336C239.574 146.66 240.245 148.821 240.282 148.98L240.261 148.899C241.803 152.787 244.889 162.873 244.926 162.966C244.926 162.966 245.779 166.056 245.442 166.399C244.921 166.924 240.8 167.899 240.8 167.899C233.204 169.93 201.694 174.604 184.532 175.542C184.413 175.567 179.932 176.26 170.277 174.815C170.263 174.815 106.976 164.453 106.976 164.453L103.464 169.282C103.191 169.289 168.641 179.973 168.641 179.973C174.596 180.921 179.332 181.127 182.661 181.089L184.56 181.035C186.942 180.934 188.288 180.726 188.321 180.726C205.904 178.945 228.224 176.098 242.713 172.661C242.713 172.661 244.354 172.315 245.601 172.36C246.103 172.373 246.811 172.669 246.811 172.669C247.059 172.9 247.369 173.504 247.599 174.479C250.173 183.763 250.712 197.737 250.745 198.393C250.745 198.393 250.797 201.286 250.311 202.412C249.711 203.054 247.573 203.424 247.573 203.424C224.222 209.426 196.932 205.187 186.147 182.511C183.859 182.702 180.38 182.633 180.38 182.633C180.573 183.421 181.449 185.062 181.449 185.062C188.248 200.161 200.533 206.163 210.943 208.929C222.384 211.954 235.982 211.761 248.642 208.5C250.691 207.816 250.621 207.661 250.621 207.661C252.529 208.636 254.414 207.784 254.414 207.784" fill="#2B1D14"/>
<path d="M114.794 152.862C115.139 151.924 115.84 150.297 118.85 150.09L118.875 150.083H118.903C122.669 149.958 123.967 152.873 124.249 153.909C126.757 153.598 128.6 155.236 128.68 155.311C131.695 158.274 129.632 160.984 129.613 160.984C129.59 161.014 127.09 164.454 122.533 161.753C121.914 161.381 121.365 160.816 121.037 160.211L121.034 160.217C120.662 159.518 120.485 159.017 120.485 159.017C116.631 159.612 115.186 156.724 115.14 156.696C114 154.909 114.771 152.837 114.771 152.837L114.794 152.862ZM110.917 141.936C110.429 142.785 109.318 144.623 107.034 147.844C106.035 149.256 105.679 150.531 105.979 151.652C106.43 153.316 108.216 154.142 108.234 154.151L108.269 154.171L108.297 154.195L119.082 160.806L120.338 161.561L120.333 161.572L123.813 163.72C126.373 165.422 129.439 164.05 131.034 161.9C132.445 159.992 132.994 157.258 130.101 154.492C130.101 154.492 129.599 153.826 127.104 152.438C124.783 151.148 116.742 146.248 112.897 143.857C112.897 143.857 111.382 142.98 110.89 141.902" fill="#2B1D14"/>
<path d="M133.081 149.579C130.826 147.863 125.626 144.421 121.64 141.889L120.707 142.794L131.773 150.156C134.357 151.9 135.36 154.113 134.957 156.345C134.957 156.345 137.142 152.655 133.095 149.593" fill="#2B1D14"/>
<path d="M113.856 142.546C117.654 144.928 130.033 152.205 130.033 152.205C130.033 152.205 133.377 154.338 133.527 157.035C134.539 154.156 132.837 152.017 131.107 150.798L119.572 143.061C117.415 143.648 112.867 141.256 113.008 138.279C111.863 139.268 111.643 141.153 113.819 142.518" fill="#2B1D14"/>
<path d="M123.234 157.082C123.727 159.726 125.396 160.894 128.345 160.509L128.964 160.406C130.666 157.921 128.017 154.545 124.627 154.639C124.448 155.853 123.689 156.763 123.229 157.091" fill="#2B1D14"/>
<path d="M121.358 158.019C122.104 161.742 126.141 162.633 128.204 161.311C126.535 161.576 123.093 161.475 122.531 157.508C120.022 158.432 115.544 157.72 115.966 152.829C114.63 156.439 118.198 158.971 121.358 158.033" fill="#2B1D14"/>
<path d="M255.464 138.326C252.322 139.249 247.774 140.159 244.257 140.764C245.476 143.141 245.771 144.098 246.193 145.031C246.028 145.126 247.867 144.772 249.86 144.393C253.077 143.788 256.284 143.033 257.878 142.532L258.521 142.39C260.303 142.056 260.518 140.434 260.448 140.003C260.281 138.868 259.674 138.034 258.272 137.799C258.272 137.799 256.429 138.028 255.449 138.324" fill="#2B1D14"/>
<path d="M262.497 160.364C259.947 160.955 252.322 162.427 252.322 162.427L252.81 163.796C254.868 163.601 263.782 161.344 263.782 161.344C265.48 161.313 265.541 162.45 265.541 162.45C262.118 163.731 253.349 165.559 253.349 165.559C253.737 167.219 254.582 170.436 254.582 170.436C264.945 168.584 267.196 167.435 267.196 167.435C270.23 166.164 269.057 162.605 269.057 162.605C267.88 158.484 262.493 160.345 262.493 160.345" fill="#2B1D14"/>
<path d="M265.779 143.015C263.89 135.887 259.777 136.778 259.777 136.778C262.033 137.468 263.96 141.256 259.846 143.53C259.846 143.53 262.495 150.095 264.319 158.301C271.868 158.244 272.29 167.304 267.845 168.757C267.845 168.757 270.715 183.246 271.498 191.217C271.592 192.69 271.529 193.895 271.529 193.895C274.666 194.542 276.499 196.732 276.499 197.909C278.033 188.765 272.683 162.319 265.809 143.047" fill="#2B1D14"/>
<path d="M222.172 138.326L223.841 142.147C223.841 142.147 232 141.261 235.517 140.379C235.517 140.379 235.616 139.006 237.078 138.813C237.078 138.813 230.701 139.503 222.167 138.326" fill="#2B1D14"/>
<path d="M109.636 156.613C109.636 156.613 105.505 154.132 104.984 153.143L96.7787 165.709C96.3577 166.31 96.2911 166.91 96.5776 167.501C97.039 168.481 98.336 169.287 99.5973 169.367C100.254 169.409 101.159 169.275 101.731 168.396C101.739 168.387 107.92 159.206 109.655 156.627" fill="#2B1D14"/>
<path d="M147.148 92.8422C147.697 93.1508 147.786 93.2694 148.443 94.4318C148.858 95.1586 150.004 97.6484 150.004 97.6484C152.086 96.0682 154.065 94.9429 157.788 93.6018C169.604 88.8191 183.671 86.0057 196.144 83.4736L197.091 83.2851C199.121 82.9625 199.665 81.7237 199.515 80.664C199.334 79.4683 197.954 78.3288 196.299 78.5586C180.731 81.0719 162.725 85.7328 154.051 89.3433C151.054 90.5952 148.846 91.6784 147.158 92.8225" fill="#2B1D14"/>
<path d="M114.793 137.857L114.756 137.903C114.025 138.785 115.244 140.046 115.502 140.29C116.613 141.364 118.395 142.048 119.243 141.378L125.527 131.39C125.527 131.39 123.023 129.126 121.457 126.969C116.252 135.362 114.892 137.66 114.798 137.8L114.769 137.853" fill="#2B1D14"/>
<path d="M210.449 77.3685C210.449 77.3685 211.711 80.3085 211.711 82.3857C214.168 82.6197 218.979 83.075 220.807 83.4783C222.833 83.4783 223.189 82.1372 223.245 81.5464C223.345 80.4492 222.734 79.1222 221.708 78.9722L221.645 78.9628L221.578 78.9378C220.134 78.4549 213.185 77.653 210.465 77.3905" fill="#2B1D14"/>
<path d="M120.889 155.206C120.425 155.228 119.989 155.154 119.604 155.019C119.633 155.549 119.645 156.022 119.768 156.505C122.136 156.869 123.299 155.371 123.435 154.264L123.245 154.245C123.326 152.731 122.1 151.249 120.417 150.714C119.906 151.676 119.634 152.843 119.592 154.123C120.047 154.323 120.464 154.477 120.938 154.515C120.938 154.515 120.878 154.988 120.891 155.204" fill="#2B1D14"/>
</g>
<mask id="mask4_487_1494" style="mask-type:luminance" maskUnits="userSpaceOnUse" x="0" y="0" width="287" height="222">
<path d="M0.944336 221.321H286.973V0.469015H0.944336V221.321Z" fill="white"/>
</mask>
<g mask="url(#mask4_487_1494)">
<path d="M118.076 156.144C118.238 156.219 118.327 156.35 118.481 156.401C118.346 155.923 118.314 155.374 118.305 154.657C118.005 154.456 117.77 154.375 117.62 154.108L117.624 153.292C117.856 153.542 118.041 153.546 118.271 153.742C118.341 152.602 118.52 151.481 119.002 150.731C117.872 150.677 117.263 150.96 116.503 151.599C116.503 151.599 115.72 154.82 118.074 156.142" fill="#2B1D14"/>
<path d="M204.822 70.8039C205.446 73.5189 203.481 74.9865 201.531 72.7405C200.719 71.8027 200.33 70.9306 199.988 69.8239L199.926 69.6523C199.598 68.2316 199.754 67.064 199.754 67.064C198.54 65.9715 198.038 65.0055 197.635 64.2084C196.481 60.7948 197.635 60.0118 198.15 59.8242C200.035 59.3581 202.675 62.164 202.488 66.3888C203.533 67.4344 204.298 68.4144 204.827 70.8152L204.822 70.8039ZM26.6404 176.775C31.2731 185.262 35.3619 190.655 36.5811 191.968C36.6279 192.169 36.6749 192.372 36.7213 192.544C36.6275 193.778 36.8929 197.468 44.083 196.117C41.8839 200.309 33.7203 197.988 35.3146 192.404C34.147 190.936 31.2774 186.261 31.2774 186.261C31.1372 186.294 31.4021 187.649 31.3866 187.555C32.3525 189.567 34.0359 193.041 34.0359 193.041C32.7417 201.2 44.4924 201.81 45.2895 195.831C45.3207 195.814 45.3363 195.814 45.3519 195.799C45.9614 195.689 45.9755 195.785 46.3834 195.565C45.8676 198.012 44.7141 199.358 43.3262 200.057C40.7988 201.318 40.0674 203.564 43.8889 203.283C47.7714 203.018 54.6267 201.909 62.7855 197.937L64.5017 197.004C61.0553 194.833 57.4213 194.477 54.9362 194.289C53.0043 194.164 49.9189 194.679 47.6682 195.133C47.8084 195.086 47.9491 195.057 48.0893 195.009C57.4204 191.923 63.1879 193.855 67.83 196.818C67.5491 197.007 67.2063 197.257 66.8781 197.489C62.7471 200.467 53.0456 204.054 44.4647 204.898C35.6963 206.318 30.8197 200.162 32.5546 195.473L32.0717 194.286C31.6037 193.152 26.0229 181.72 26.6324 176.75L26.6404 176.775ZM216.545 76.4307L209.652 60.8633L208.091 61.4869C207.732 60.7836 207.059 60.521 205.952 60.4131C148.747 -41.807 -27.0908 14.9299 15.1102 149.973C18.0877 159.492 21.7685 167.744 25.2384 174.403C24.9421 175.603 24.5069 177.896 25.2228 180.967C26.3622 185.291 27.3281 187.954 30.8027 195.597C29.3819 200.802 34.2491 208.398 45.995 206.147C59.9683 203.981 67.2831 198.926 69.018 197.613C69.486 197.94 69.9558 198.284 70.42 198.626C95.2248 217.992 135.597 219.539 150.602 196.614C156.557 197.829 164.012 196.834 164.012 196.834C171.796 196.319 178.033 194.246 182.909 191.02C182.318 190.054 181.742 189.069 181.207 188.042C174.924 192.286 165.921 194.56 153.214 193.529L152.402 193.421C154.414 189.412 155.722 184.793 156.177 179.494C155.239 179.338 154.273 179.167 153.275 179.011C153.399 182.57 153.039 186.373 151.713 190.078C150.996 192.122 149.983 194.148 148.595 196.126C148.611 196.143 148.611 196.143 148.626 196.143C145.583 200.664 141.546 204.068 136.857 206.506C118.101 216.306 89.0291 210.576 72.1487 197.972C62.3956 190.704 56.7219 190.939 47.4377 193.747C37.1688 196.866 37.5439 190.906 37.5439 190.906C28.9161 178.621 20.9917 165.538 14.1927 140.734C-2.07816 75.5565 34.496 30.0733 81.2453 15.0685C129.542 6.81583 167.054 34.012 182.528 60.3173C182.076 60.5822 181.67 60.9128 181.388 61.3489C179.846 63.7684 181.809 67.7728 181.951 68.1479L185.679 78.8857C186.255 78.7779 186.818 78.6672 187.395 78.5598L183.184 66.8842C181.515 62.9361 183.387 61.4919 183.387 61.4919C182.89 62.9548 183.293 64.6429 183.574 65.5291C184.118 67.2594 185.961 72.3282 187.489 76.22C187.785 76.9843 188.052 77.7158 188.3 78.4192C188.752 78.3254 189.205 78.2321 189.674 78.1524C188.366 74.223 186.57 69.6184 186.026 68.1179C185.56 66.8378 185.342 66.3548 184.746 64.2964C183.949 61.5064 185.042 61.4408 186.228 61.3517C186.898 61.3034 188.91 61.3345 189.44 61.3517C190.654 60.6952 193.261 59.4011 194.832 58.6227C176.076 26.9251 138.564 5.63701 89.3296 12.905C128.201 3.43318 172.325 14.654 199.052 52.527C200.454 54.8856 201.655 56.1797 203.788 60.4045H202.836C201.354 58.3132 199.859 57.6427 198.053 57.6146C197.96 57.6146 194.419 57.6146 194.87 61.2016C195.01 62.3082 195.479 63.6493 195.775 64.2729L195.79 64.2589L198.425 69.7919L199.129 71.2736L201.67 76.3847C201.67 76.3847 203.555 80.1452 203.668 82.1521L210.514 82.2769C210.514 82.2769 210.623 80.1902 209.158 76.4625C208.099 73.7804 204.915 63.9429 203.86 61.9735C203.844 61.9423 203.829 61.9111 203.813 61.8797C204.158 61.8797 205.496 61.9109 206.261 62.0809C207.602 65.4945 209.552 71.3651 211.044 75.9603L211.606 75.9915C212.012 76.0227 212.403 76.0539 212.793 76.0853C212.777 76.0681 212.777 76.037 212.761 76.0055C213.338 76.0538 215.692 76.2569 216.536 76.4266" fill="#2B1D14"/>
</g>
<mask id="mask5_487_1494" style="mask-type:luminance" maskUnits="userSpaceOnUse" x="0" y="-76" width="288" height="373">
<path d="M0.850586 296.345H287.817V-75.0239H0.850586V296.345Z" fill="white"/>
</mask>
<g mask="url(#mask5_487_1494)">
<path d="M202.477 72.2106C201.31 71.043 200.695 69.7582 200.574 67.892C202.43 68.2648 203.551 70.5741 202.477 72.2106ZM200.058 65.8804C199.059 65.2427 197.544 63.0576 197.779 61.2805C200.105 61.3117 200.789 64.7082 200.058 65.8804ZM204.719 70.6163C204.189 68.2155 203.424 67.2309 202.379 66.1899C202.566 61.9792 199.931 59.1564 198.041 59.6253C197.526 59.8124 196.372 60.5912 197.526 64.0095C197.931 64.8066 198.431 65.7726 199.645 66.8651C199.645 66.8651 199.489 68.0327 199.817 69.4534L199.879 69.6251C200.222 70.7317 200.611 71.6038 201.422 72.5416C203.372 74.7876 205.337 73.32 204.713 70.6051" fill="white"/>
</g>
<path d="M85.7212 166.272C79.7943 164.674 75.8556 159.595 75.8181 153.518C75.8045 151.08 75.985 150.217 76.8947 148.379C79.4867 143.09 85.5599 141.139 91.1117 143.727C95.1255 145.629 98.1264 149.542 98.8392 153.743C99.092 155.281 98.9615 155.547 95.3806 160.833C91.892 165.972 91.5544 166.31 90.1664 166.535C88.2458 166.852 87.8632 166.828 85.74 166.253L85.7212 166.272Z" fill="#311D00"/>
<path d="M104.852 212.787C92.6608 211.009 80.9195 206.11 70.8663 198.57C69.6209 197.639 69.5534 197.628 68.5218 198.291C61.4696 202.83 49.9534 206.356 42.3009 206.356C39.1387 206.356 38.5985 206.241 36.374 205.085C32.9567 203.314 31.6851 201.457 31.3474 197.695C31.1528 195.538 30.6422 193.831 29.243 190.568C26.4146 184.041 25.3793 180.177 25.6006 176.876C25.7765 174.224 25.7248 174.029 23.8488 170.274C21.7481 165.397 19.0473 159.02 17.2467 153.768C4.64266 116.632 7.5686 82.1205 25.6119 55.1119C35.4025 40.4822 48.6067 28.741 65.3746 20.4133C100.261 2.93276 142.274 4.69582 173.409 24.9148C185.3 32.6798 196.254 44.0084 203.869 56.3873C206.408 60.5136 207.387 61.4139 209.533 61.489C210.148 61.5129 210.947 62.9707 213.509 68.7288C215.269 72.705 216.653 76.0061 216.589 76.0811C216.524 76.1479 215.411 76.0826 214.113 75.9363L211.758 75.6696L209.567 69.18C208.363 65.6202 207.185 62.4654 206.952 62.2028C206.721 61.9241 206.007 61.6964 205.366 61.6964C204.409 61.6964 204.251 61.8187 204.484 62.3791C205.542 64.9449 210.523 79.4471 210.749 80.6099L211.011 82.0091H207.692H204.372L204.133 80.7412C204.002 80.0435 202.115 75.7896 199.932 71.2882C195.506 62.0978 194.943 60.1096 196.5 58.6467C197.059 58.1253 197.906 57.8102 198.743 57.8102C200.187 57.8102 202.494 59.0218 202.869 59.9671C202.991 60.2848 203.466 60.5448 203.919 60.5448C204.715 60.5448 204.7 60.4544 203.488 58.2978C198.574 49.52 189.234 38.6415 180.868 31.8894C158.511 13.8836 129.852 6.41875 100.218 10.7701C97.9631 11.0972 94.8158 11.7042 93.2028 12.1206L90.2731 12.8783L92.4188 12.6889C93.6005 12.5846 96.3201 12.3321 98.4583 12.1262C103.635 11.631 114.776 11.6348 119.803 12.1342C129.331 13.0795 138.821 15.1877 146.924 18.1737C155.702 21.4109 166.467 27.4766 173.82 33.366C177.549 36.3557 183.685 42.4439 187.174 46.5702C189.702 49.5937 195.502 57.7863 195.502 58.349C195.502 58.9229 190.663 60.9111 189.162 60.9448C186.48 61.0075 185.554 61.3987 185.422 62.5203C185.358 63.068 186.458 66.7217 187.864 70.6604C189.271 74.5617 190.423 77.8627 190.423 77.9377C190.423 78.0259 190.196 78.0979 189.92 78.0979C189.143 78.0979 184.856 66.2441 184.631 63.4682C184.463 61.3938 184.388 61.2288 183.911 61.8852C182.977 63.1606 183.318 64.965 185.752 71.6383C187.058 75.2207 188.033 78.2405 187.917 78.353C187.242 79.0282 186.439 77.494 184.439 71.7134C181.964 64.5861 181.686 62.4479 183.025 61.0225L183.847 60.1484L181.101 56.1346C167.972 37.6412 148.465 23.5367 126.709 17.1222C115.83 14.1212 103.451 12.7708 92.9477 13.5586C83.9449 14.1963 81.319 14.7964 74.942 17.3098C50.5592 26.9878 31.8032 43.7557 20.9247 66.0753C12.8972 82.168 9.5211 100.774 11.1716 119.717C13.066 141.85 21.4874 165.857 34.0914 184.988C36.2859 188.334 38.0677 191.328 38.0677 191.665C38.0677 192.446 39.4857 193.916 40.6673 194.366C42.2766 194.978 44.0509 194.79 48.8824 193.496C52.6186 192.494 54.2841 192.254 57.5852 192.232C63.3996 192.197 65.8754 193.218 74.5781 199.247C81.0677 203.786 91.7586 208.174 100.349 209.9C112.54 212.346 123.531 211.896 132.834 208.568C145.551 204.029 153.053 194.726 154.216 182.085L154.496 179.024L155.531 179.284C156.101 179.427 156.63 179.606 156.705 179.682C157.036 180.012 155.794 185.834 154.743 188.835C154.113 190.662 153.502 192.44 153.389 192.774C152.89 194.319 165.393 194.008 172.183 192.308C173.901 191.877 176.834 190.774 178.672 189.855L182.052 188.186L182.694 189.529C183.046 190.268 183.283 190.917 183.219 190.973C182.589 191.532 177.067 193.981 175.041 194.612C169.602 196.296 160.149 197.241 154.785 196.641L151.465 196.271L150.302 197.719C142.012 208.072 129.971 213.099 113.915 212.986C110.937 212.963 106.901 212.709 104.913 212.42L104.852 212.787ZM49.3344 204.422C56.1241 203.112 64.5643 199.92 67.5278 197.519L68.4468 196.777L65.8922 195.531C62.6812 193.967 60.7156 193.513 57.1144 193.502C54.2335 193.492 48.9743 194.447 48.2616 195.104C48.0328 195.319 48.4188 195.341 49.2369 195.16C51.919 194.567 58.6524 194.814 61.0157 195.595C64.493 196.735 64.5606 197.155 61.4958 198.547C55.9065 201.079 46.416 203.498 43.2275 203.198C41.2581 203.007 41.4194 201.968 43.6626 200.351C44.9755 199.406 45.8083 198.442 46.2435 197.358C46.5961 196.476 46.8136 195.685 46.7274 195.598C46.3335 195.205 45.3619 196.004 44.803 197.174C43.7264 199.428 40.4516 200.374 37.7507 199.222C35.7476 198.367 34.716 196.964 34.3822 194.608C34.2175 193.456 33.7895 191.828 33.4294 190.992C32.5628 188.978 32.8292 188.827 34.0333 190.654C34.5847 191.49 35.0986 192.964 35.2224 194.067C35.3924 195.583 35.7026 196.239 36.6329 197.072C38.7373 198.955 41.547 199.011 43.6101 197.213L44.7017 196.252L42.2409 196.24C38.696 196.222 37.1018 195.235 37.1018 193.074C37.1018 192.665 36.0815 190.951 34.8323 189.248C33.5832 187.563 31.2837 184.033 29.7307 181.445C28.1702 178.834 26.7935 176.681 26.6772 176.681C26.2458 176.681 26.9901 181.033 27.9339 184.033C28.4665 185.725 29.6969 188.91 30.6647 191.123C32.0377 194.263 32.424 195.625 32.424 197.275C32.424 199.631 32.9942 200.989 34.6335 202.527C37.5482 205.292 41.8733 205.843 49.3382 204.402L49.3344 204.422ZM204.259 73.5048C205.534 72.6645 205.163 69.566 203.494 67.0902C202.991 66.3475 202.477 64.9783 202.353 64.0443C201.971 61.2046 199.382 58.6425 197.889 59.5803C196.775 60.2931 196.985 63.5566 198.264 65.4697C198.83 66.3288 199.419 67.7129 199.569 68.542C200.214 72.1056 202.581 74.5814 204.258 73.456L204.259 73.5048Z" fill="#311D00"/>
<path d="M91.3473 184.653C91.831 184.559 92.5361 184.563 92.9073 184.661C93.2804 184.759 92.8832 184.835 92.026 184.831C91.1673 184.826 90.8635 184.746 91.3473 184.653Z" fill="#311D00"/>
<path d="M75.5927 178.276C75.3013 178.567 80.4693 181.712 82.57 182.515C83.7141 182.954 85.706 183.542 86.9964 183.824C92.8483 185.107 99.5254 183.949 104.477 180.8C105.505 180.148 106.289 179.559 106.221 179.491C106.153 179.423 104.608 179.968 102.785 180.695C94.1949 184.146 86.3924 183.816 78.6275 179.667C77.0407 178.82 75.6753 178.197 75.589 178.28L75.5927 178.276ZM77.5584 182.552C77.271 182.558 76.9844 182.595 76.6993 182.667C74.985 183.102 73.901 184.547 73.6346 186.756C73.4317 188.437 73.4422 188.459 74.0773 187.6C74.4711 187.071 75.1426 186.719 75.7803 186.719C76.5193 186.716 76.9657 186.426 77.2845 185.743C77.6747 184.903 77.6416 184.772 77.0441 184.772C76.6652 184.772 75.8887 185.136 75.3223 185.582C74.0469 186.584 73.9794 185.961 75.2079 184.535C77.3798 182.011 81.81 184.5 82.3727 188.549C82.5482 189.858 82.4143 190.286 81.5286 191.25C80.7521 192.094 80.5533 192.188 80.7634 191.614C81.3748 189.959 81.3748 188.358 80.7649 187.187C80.4172 186.516 79.9509 185.964 79.7296 185.964C79.5082 185.964 79.6013 186.354 79.9355 186.831C80.697 187.915 80.7158 188.695 79.9816 188.695C79.5578 188.695 79.4752 189.032 79.644 190.072C79.8072 191.077 79.6793 191.655 79.1676 192.218C78.4887 192.968 78.4962 192.99 79.4996 192.99C80.0848 192.99 81.0789 192.499 81.8066 191.85C82.917 190.856 83.082 190.466 83.082 188.796C83.082 185.458 80.3399 182.532 77.5677 182.569L77.5584 182.552ZM75.6678 187.504C75.3163 187.504 74.2911 188.772 74.3061 189.192C74.3129 189.445 74.5968 189.301 74.9363 188.871C75.4239 188.256 75.5965 188.207 75.7578 188.644C75.8703 188.949 76.508 189.751 77.1757 190.426C78.2711 191.537 78.4024 191.582 78.5224 190.888C78.7074 189.815 77.896 188.453 76.7669 187.939C76.2417 187.701 75.7465 187.504 75.664 187.504L75.6678 187.504Z" fill="#311D00"/>
<path d="M116.481 158.77C107.703 153.405 106.165 152.167 106.165 150.629C106.165 150.146 107.253 148.049 108.581 145.978L110.997 142.189L111.998 143.12C112.55 143.63 116.687 146.256 121.189 148.971C125.69 151.668 129.891 154.373 130.492 155.011C133.102 157.738 132.288 161.688 128.736 163.526C126.455 164.711 125.525 164.355 116.507 158.8L116.481 158.77ZM129.31 161.362C131.561 159.111 130.507 155.435 127.239 154.122C126.373 153.775 125.416 153.492 125.109 153.492C124.803 153.492 124.257 152.989 123.893 152.374C122.978 150.828 121.159 149.849 119.204 149.849C117.126 149.849 115.644 150.802 114.89 152.625C113.682 155.517 115.963 158.965 119.092 158.965C119.936 158.965 120.622 159.127 120.622 159.325C120.622 159.523 121.076 160.225 121.631 160.886C123.556 163.17 127.296 163.41 129.321 161.373L129.31 161.362Z" fill="#311D00"/>
<path d="M97.7245 168.523C97.068 168.065 96.8617 167.607 96.978 166.865C97.149 165.754 104.705 153.923 105.231 153.923C105.411 153.922 106.026 154.28 106.596 154.718C107.166 155.157 108.052 155.825 108.558 156.204L109.484 156.894L105.321 163.009C101.382 168.785 101.082 169.123 99.8814 169.123C99.1912 169.123 98.2196 168.838 97.7245 168.489V168.523Z" fill="#311D00"/>
<path d="M119.857 156.144C119.704 155.746 119.878 155.559 120.401 155.559C121.403 155.559 121.395 154.763 120.392 154.501C119.777 154.34 119.665 154.084 119.86 153.267C120.366 151.14 120.606 151.027 121.908 152.332C122.576 153 123.12 153.912 123.12 154.358C123.12 156.057 120.392 157.55 119.856 156.144H119.857Z" fill="#311D00"/>
<path d="M117.607 155.393C116.841 154.471 116.59 152.006 117.22 151.605C118.638 150.704 119.321 151.783 118.102 153C117.558 153.544 117.539 153.777 117.972 154.591C118.554 155.679 118.302 156.23 117.606 155.393H117.607Z" fill="#311D00"/>
<path d="M124.358 159.145C123.784 158.462 123.379 157.794 123.458 157.663C123.537 157.529 123.848 156.849 124.145 156.151C124.771 154.688 125.39 154.583 127.127 155.645C128.638 156.564 129.291 157.693 129.13 159.1C129.02 160.056 128.839 160.165 127.205 160.27C125.592 160.375 125.292 160.257 124.358 159.149V159.145Z" fill="#311D00"/>
<path d="M220.764 210.536C214.199 209.793 206.172 207.584 201.445 205.209C192.705 200.82 185.128 192.905 181.564 184.315L180.952 182.852H183.683H186.414L187.378 184.758C188.92 187.8 192.93 192.823 195.593 195.111C202.158 200.663 209.998 204.039 219.826 205.539C224.177 206.196 234.231 206.098 239.107 205.359C244.134 204.597 249.648 203.299 250.361 202.729C251.933 201.427 249.761 178.909 247.559 173.62C247.071 172.457 246.846 172.314 245.492 172.314C244.655 172.314 241.44 172.851 238.365 173.504C228.199 175.657 214.432 177.705 196.726 179.73C185.173 181.043 179.546 181.178 172.681 180.312C166.116 179.487 104.784 169.396 104.409 169.096C104.047 168.733 107.039 164.894 107.684 164.894C107.989 164.894 122.764 167.303 140.507 170.259L172.767 175.623L180.982 175.637C185.484 175.644 191.298 175.423 193.849 175.145C215.118 172.85 236.613 169.519 243.74 167.455L245.841 166.829L245.605 165.107C245.276 162.71 240.353 147.927 239.565 146.951C238.92 146.167 238.913 146.167 234.989 146.922C225.236 148.797 201.491 152.061 187.724 153.411C180.109 154.165 166.642 154.259 161.953 153.595C155.388 152.664 148.374 149.693 143.647 145.905C139.858 142.847 123.353 126.173 123.091 125.198C122.758 123.874 123.965 122.219 125.383 122.051C126.264 121.946 126.864 122.396 129.032 124.785C135.109 131.462 145.163 141.291 147.751 143.091C155.253 148.268 161.405 149.581 176.185 149.206C187.326 148.898 203.756 147.229 223.075 144.442C235.979 142.577 237.33 142.318 237.33 141.662C237.33 141.359 237.9 140.84 238.601 140.507C241.31 139.216 242.577 140.792 246.479 150.41C252.893 166.202 256.532 183.458 256.607 198.425C256.642 204.802 256.562 205.777 255.943 206.753C255.313 207.713 255.02 207.822 253.208 207.777C252.094 207.748 249.48 208.171 247.394 208.715C240.154 210.609 229.051 211.359 221.286 210.481L220.764 210.536Z" fill="#311D00"/>
<path d="M254.15 168.147L253.598 165.893L259.413 164.456C262.609 163.665 265.302 162.926 265.415 162.813C265.865 162.363 265.115 161.399 264.319 161.399C263.858 161.399 261.191 161.936 258.392 162.596C254.859 163.425 253.178 163.665 252.916 163.383C252.691 163.159 252.584 162.907 252.677 162.821C253.214 162.329 265.131 160.21 266.181 160.413C268.616 160.87 269.914 164.276 268.451 166.377C267.671 167.491 262.712 169.01 256.109 170.166L254.688 170.414L254.136 168.16L254.15 168.147Z" fill="#311D00"/>
<path d="M275.156 195.531C274.515 195.01 273.506 194.474 272.909 194.342C271.896 194.12 271.829 193.974 271.825 192.084C271.824 189.998 270.452 180.643 269.094 173.478L268.318 169.389L269.315 168.463C272.673 165.349 271.041 159.873 266.352 158.522C264.717 158.049 264.626 157.941 264.124 155.893C263.836 154.718 262.882 151.504 262.008 148.765C260.433 143.814 260.421 143.739 261.202 143.213C262.425 142.358 262.845 140.7 262.263 139.012C261.674 137.298 261.96 137.197 263.317 138.648C264.762 140.19 265.257 141.334 267.481 148.213C271.116 159.467 274.121 171.959 275.696 182.462C276.63 188.689 277.174 196.529 276.675 196.491C276.484 196.484 275.805 196.049 275.164 195.527L275.156 195.531Z" fill="#311D00"/>
<path d="M245.522 143.39C245.106 142.471 244.761 141.522 244.757 141.282C244.752 141.041 245.582 140.73 246.602 140.595C247.623 140.457 250.654 139.83 253.317 139.196C258.419 137.984 259.169 138.029 259.994 139.609C260.534 140.618 259.657 142.111 258.34 142.418C257.845 142.534 255.328 143.086 252.751 143.641C250.174 144.196 247.649 144.744 247.161 144.857C246.411 145.029 246.149 144.795 245.511 143.39H245.522Z" fill="#311D00"/>
<path d="M223.015 140.389C222.675 139.575 222.444 138.873 222.501 138.828C222.557 138.782 225.539 138.853 229.14 138.986C234.354 139.179 235.592 139.33 235.367 139.736C235.042 140.257 230.678 141.146 226.214 141.608L223.675 141.868L223.056 140.39L223.015 140.389Z" fill="#311D00"/>
<path d="M191.13 143.015C189.138 136.262 186.291 131.799 182.69 129.96C180.469 128.813 176.538 128.595 173.874 129.473C171.057 130.407 168.248 133.209 167.76 135.512L167.431 137.178L160.716 122.398L154.001 107.618L155.423 106.144C156.203 105.334 158.199 103.668 159.849 102.445C161.507 101.222 162.802 100.157 162.727 100.086C162.408 99.7674 159.238 101.729 156.462 103.95C154.121 105.833 153.386 106.245 153.124 105.818C152.002 104.006 163.439 96.9274 170.717 94.9392C172.326 94.5003 175.856 93.8026 178.519 93.39C184.709 92.4372 186.622 91.702 187.334 89.9802C187.632 89.2674 187.875 88.2433 187.875 87.6994C187.875 87.0805 188.094 86.7091 188.46 86.7091C189.326 86.7091 189.21 89.3612 188.278 90.8729C187.202 92.636 184.962 93.6413 180.438 94.3803C178.293 94.7322 176.537 95.1906 176.537 95.4006C176.537 95.9146 181.564 95.4667 184.527 94.6879C188.991 93.5138 190.604 91.7657 190.604 88.0858C190.604 86.7166 190.747 86.3152 191.238 86.3152C191.771 86.3152 191.842 86.6892 191.699 88.6635C191.432 92.3659 189.336 94.4778 185.097 95.3781C181.008 96.2221 182.595 96.5485 189.149 96.2146C204.153 95.4494 210.493 96.3827 207.379 98.893L206.442 99.647L207.417 99.3825C209.274 98.8799 211.318 97.5032 212.256 96.1115C213.711 93.9733 214.147 91.9101 213.993 87.9339L213.854 84.3177L216.393 84.6403C220.895 85.2105 222.47 85.0755 223.595 84.0251C224.398 83.2711 224.601 82.7122 224.601 81.253C224.601 78.7359 223.543 77.6556 220.437 77.0141L218.051 76.5077L215.489 70.8059C214.082 67.6624 212.484 64.0913 211.937 62.8534L210.946 60.6139L212.484 59.8299C213.332 59.3985 214.184 59.0459 214.382 59.0459C214.58 59.0459 217.342 63.7349 220.534 69.4742C225.636 78.6647 226.311 80.1276 226.349 81.7406C226.371 83.2786 226.181 83.7963 225.223 84.7941C223.674 86.4109 221.435 87.0036 219.184 86.4034C217.65 85.9983 217.331 86.0324 216.449 86.6881C215.557 87.3521 215.429 87.7797 215.223 90.7769C215.041 93.4027 214.773 94.4831 213.962 95.8785C212.244 98.812 209.836 100.455 206.347 101.018C205.458 101.168 204.734 101.408 204.742 101.55C204.75 101.693 208.568 110.853 213.257 121.919C220.272 138.5 221.66 142.063 221.135 142.251C220.795 142.381 219.698 142.578 218.7 142.686L216.881 142.885L209.378 125.254C205.252 115.576 201.463 106.686 200.938 105.485L199.989 103.34L198.853 104.705C197.176 106.723 195.143 110.782 194.239 113.896C192.813 118.847 192.723 118.322 195.675 122.148C199.539 127.137 203.365 130.513 209.33 134.19C211.712 135.66 211.925 135.915 212.938 138.466C213.531 139.97 213.944 141.276 213.857 141.366C213.77 141.457 211.862 140.619 209.618 139.501C204.704 137.063 200.616 134.062 196.077 129.523C194.22 127.674 192.599 126.162 192.468 126.162C191.778 126.162 193.004 137.19 194.239 142.105C194.689 143.886 194.993 145.398 194.91 145.466C194.83 145.534 194.137 145.685 193.368 145.804L191.973 146.019L191.095 143.04L191.13 143.015ZM190.549 130.561C190.012 128.745 189.888 123.996 190.288 120.432C191.019 113.868 192.516 109.404 195.089 106.14C196.301 104.599 196.057 104.313 194.302 105.225C190.745 107.074 187.962 114.415 187.962 121.955C187.962 126.269 189.237 131.221 190.344 131.221C190.566 131.221 190.656 130.913 190.545 130.538L190.549 130.561Z" fill="#311D00"/>
<path d="M158.494 146.015C154.799 145.036 153.88 144.661 150.616 142.812L147.826 141.225L147.387 138.273C146.648 133.284 146.46 127.62 146.929 124.319C147.488 120.38 148.542 116.554 148.958 116.966C149.242 117.25 161.412 143.75 162.238 145.888C162.662 146.983 162.254 146.995 158.498 145.999L158.494 146.015Z" fill="#311D00"/>
<path d="M165.247 146.766C164.399 146.128 142.627 98.3753 142.627 97.25C142.615 96.0946 144.345 94.4966 145.602 94.4966C146.194 94.4966 146.663 94.8586 146.993 95.5694C147.269 96.1584 152.508 107.686 158.585 121.228C164.699 134.732 169.876 146.098 170.063 146.511C170.415 147.167 170.257 147.227 168.165 147.227C166.909 147.227 165.592 147.007 165.232 146.74L165.247 146.766Z" fill="#311D00"/>
<path d="M155.118 170.773C152.883 170.383 152.793 170.301 152.492 168.391C152.35 167.48 151.075 163.252 149.66 159.013C148.246 154.775 147.181 151.211 147.293 151.098C148.01 150.382 148.888 152.149 151.12 158.826C153.438 165.728 154.597 168.579 154.079 166.141C153.543 163.616 151.135 153.762 150.909 153.199C150.689 152.633 151.04 152.67 153.633 153.493C157.076 154.588 162.561 155.609 164.999 155.609C165.926 155.609 166.781 155.769 166.901 155.964C167.591 157.082 162.512 165.267 159.248 168.306C158.104 169.367 157.084 170.421 156.975 170.65C156.849 170.917 156.184 170.961 155.115 170.773H155.118Z" fill="#311D00"/>
<path d="M105.227 206.785C100.951 206.412 94.6113 204.947 90.1474 203.285C84.1079 201.046 74.5799 196.458 75.03 196.008C75.1148 195.923 76.8606 196.649 78.8938 197.621C98.4 206.849 116.781 208.124 131.035 201.158C137.187 198.146 141.501 194.293 144.69 189.004C146.134 186.603 148.013 181.314 148.013 179.626C148.013 178.868 148.214 178.67 148.989 178.67C149.821 178.67 149.964 178.849 149.964 179.881C149.964 182.935 147.897 188.322 145.275 192.185C138.073 202.651 122.618 208.278 105.137 206.777L105.227 206.785Z" fill="#311D00"/>
<path d="M122.858 183.527C122.321 183.166 121.811 182.815 121.725 182.743C121.375 182.465 123.027 181.048 123.702 181.048C125.071 181.048 126.83 183.617 125.495 183.67C125.226 183.68 124.741 183.8 124.418 183.936C124.095 184.071 123.39 183.887 122.858 183.527V183.527Z" fill="#311D00"/>
<path d="M120.232 182.027C119.894 181.479 120.649 178.974 121.268 178.591C121.546 178.419 121.605 178.563 121.438 179C121.21 179.592 121.376 179.645 122.837 179.431C124 179.26 124.724 179.359 125.264 179.76C125.969 180.285 125.879 180.315 124.195 180.125C122.233 179.903 121.321 180.335 120.804 181.73C120.609 182.255 120.432 182.349 120.233 182.029L120.232 182.027Z" fill="#311D00"/>
<path d="M119.482 182.777C118.769 181.401 118.702 180.084 119.269 178.576C119.858 177.023 120.087 177.619 119.562 179.334C119.175 180.587 119.217 181.003 119.833 182.147C120.23 182.886 120.452 183.591 120.324 183.719C120.198 183.845 119.818 183.413 119.48 182.758L119.482 182.777Z" fill="#311D00"/>
<path d="M126.609 183.903C126.72 183.074 126.609 182.02 126.363 181.558C126.069 181.011 126.054 180.722 126.319 180.722C126.541 180.722 126.728 180.328 126.735 179.844C126.746 179.034 126.78 179.022 127.163 179.68C127.391 180.074 127.517 181.173 127.441 182.122C127.295 183.96 127.611 184.328 128.27 183.094C128.799 182.107 128.788 179.714 128.252 178.705C128.02 178.27 127.93 177.816 128.052 177.696C128.529 177.219 129.515 180.475 129.275 181.747C129.039 183.004 127.366 185.404 126.724 185.404C126.549 185.404 126.497 184.725 126.608 183.9L126.609 183.903Z" fill="#311D00"/>
<path d="M172.749 165.522L168.547 156.331C168.46 156.161 169.654 156.072 171.203 156.136L174.017 156.252L176.928 162.516C178.529 165.952 180.428 170.056 181.167 171.594L182.479 174.426H179.64H176.8L172.749 165.536V165.522Z" fill="#311D00"/>
<path d="M192.63 173.024C192.63 172.88 192.906 171.287 193.245 169.487C193.68 167.176 193.823 164.498 193.733 160.409L193.607 154.594L194.729 154.37C196.837 153.95 196.927 154.02 196.927 156.081C196.927 157.953 196.967 158.024 198.195 158.253C198.893 158.384 204.722 159.401 211.137 160.515L222.803 162.541L223.741 164.851C224.258 166.123 224.589 167.252 224.48 167.361C224.371 167.47 218.365 166.558 211.126 165.331C203.886 164.105 197.771 163.107 197.509 163.115C197.251 163.122 196.987 164.345 196.856 166.153C196.735 167.819 196.432 170.092 196.181 171.217C195.727 173.265 195.727 173.265 194.196 173.265C193.356 173.265 192.666 173.147 192.666 173.003L192.63 173.024Z" fill="#311D00"/>
<path d="M188.879 183.903L188.227 182.533L189.96 182.396C190.912 182.32 191.693 182.354 191.693 182.471C191.693 182.588 191.205 183.266 190.612 183.979L189.532 185.273L188.879 183.904V183.903Z" fill="#311D00"/>
<path d="M227.141 167.773C226.905 167.184 225.28 163.271 223.532 159.107C220.299 151.38 220.205 150.892 221.983 150.892C222.332 150.889 223.142 150.782 223.78 150.654C224.939 150.422 224.947 150.432 226.635 154.667C227.565 156.997 229.257 160.932 230.386 163.408L232.453 167.909L230.217 168.382C228.987 168.641 227.887 168.862 227.775 168.869C227.661 168.879 227.374 168.404 227.137 167.812L227.141 167.773Z" fill="#311D00"/>
<path d="M233.519 165.522C233.08 164.528 232.72 163.65 232.72 163.571C232.72 163.491 235.181 163.426 238.196 163.426C243.898 163.426 244.311 163.564 243.186 165.102C242.788 165.635 236.321 167.331 234.67 167.331C234.489 167.331 233.98 166.517 233.541 165.522L233.519 165.522Z" fill="#311D00"/>
<path d="M246.272 192.155C242.667 189.965 237.307 184.916 234.193 180.714C232.805 178.861 231.74 177.274 231.826 177.188C231.914 177.1 233.094 176.798 234.448 176.513C236.556 176.074 236.954 176.081 237.224 176.559C238.481 178.802 244.501 184.811 248.178 187.475C249.213 188.229 249.258 188.394 249.145 191.034L249.029 193.807L246.294 192.145L246.272 192.155Z" fill="#311D00"/>
<path d="M258.276 204.159C258.409 202.801 258.628 201.586 258.76 201.454C258.894 201.322 259.882 201.004 260.955 200.742C263.881 200.036 266.244 198.896 266.244 198.18C266.244 197.347 264.106 196.492 261.292 196.195L259.019 195.957L260.677 196.816C262.658 197.84 262.86 198.542 261.067 198.178C258.453 197.653 258.509 197.713 258.351 195.136C258.27 193.8 258.24 192.653 258.284 192.581C258.328 192.51 258.749 192.659 259.222 192.912C259.694 193.165 262.193 193.793 264.773 194.307C267.354 194.821 269.725 195.44 269.988 195.684C271.878 197.252 268.963 199.394 262.523 201.161L259.769 201.915L261.859 201.69C263.007 201.567 265.381 201.015 267.148 200.464C269.616 199.687 270.648 199.128 271.762 197.973L273.184 196.484L274.054 197.41C274.534 197.92 274.924 198.791 274.924 199.35C274.924 201.507 272.771 202.654 264.608 204.826C261.735 205.595 259.094 206.316 258.719 206.424C258.108 206.604 258.063 206.379 258.28 204.159L258.276 204.159Z" fill="#311D00"/>
<path d="M148.741 94.9993L147.529 92.6773L150.301 91.3156C157.916 87.5756 171.758 83.5131 187.813 80.3246C196.441 78.6065 197.642 78.5428 198.617 79.7206C200.429 81.9563 199.236 82.6503 190.477 84.4471C179.673 86.6791 169.77 89.2112 163.168 91.4619C157.129 93.5175 151.202 96.0759 150.752 96.8636C150.275 97.6364 149.968 97.3513 148.73 94.9768L148.741 94.9993Z" fill="#311D00"/>
<path d="M191.13 71.3668C188.887 64.8022 188.654 63.1517 189.87 62.514C190.601 62.1238 190.65 62.2169 190.65 64.0332C190.65 65.3686 191.25 67.6418 192.582 71.348C194.412 76.4497 194.525 77.3124 193.373 77.3499C193.26 77.3533 192.252 74.6641 191.126 71.3855L191.13 71.3668Z" fill="#311D00"/>
<path d="M197.132 86.7465C195.882 86.2476 196.213 85.6174 198.058 84.9872C200.14 84.2745 200.973 83.1641 200.973 81.0859C200.973 78.8427 199.547 77.1097 197.447 76.7721C196.591 76.6352 195.837 76.2582 195.695 75.8943C194.562 72.9984 192.037 65.1659 191.831 63.8529C191.6 62.48 191.69 62.0899 192.405 61.3734L193.253 60.5256L194.127 63.0052C194.607 64.3669 196.411 68.5569 198.141 72.3081C202.53 81.9112 202.717 82.5864 201.551 84.8371C201.074 85.7599 198.842 87.2567 198.171 87.1066C198.11 87.093 197.649 86.9176 197.15 86.7165L197.132 86.7465Z" fill="#311D00"/>
<path d="M202.759 85.9965C203.385 85.1374 203.749 85.0324 206.12 85.0211C207.958 85.0127 208.697 85.1416 208.513 85.4375C208.048 86.1915 205.692 86.9605 203.862 86.9605H202.072L202.774 85.9965H202.759Z" fill="#311D00"/>
<path d="M216.263 82.6203C214.177 82.3731 212.399 82.0914 212.324 81.9939C211.996 81.6113 211.255 78.0176 211.462 77.7925C211.583 77.671 214.009 77.8698 216.863 78.2352C221.14 78.7829 222.152 79.0379 222.715 79.7169C223.593 80.771 223.582 81.7238 222.684 82.5378C221.889 83.2543 221.672 83.258 216.27 82.6203H216.263Z" fill="#311D00"/>
<path d="M201.633 70.2407C201.276 69.4907 201.108 68.7557 201.258 68.6057C201.663 68.2007 202.593 69.2957 202.897 70.5295C203.279 72.0895 202.421 71.8907 201.633 70.2415L201.633 70.2407Z" fill="#311D00"/>
<path d="M199.007 64.6146C198.084 63.1328 197.863 61.9287 198.508 61.9287C199.198 61.9287 200.14 63.8081 200.008 64.9297L199.882 66.0288L199.005 64.6146H199.007Z" fill="#311D00"/>
<path d="M128.11 121.633L126.204 119.682L127.101 118.122C129.216 114.438 137.341 101.879 138.954 99.8159L140.691 97.5764L141.171 99.0619C141.435 99.8796 141.974 101.189 142.368 101.973L143.084 103.398L141.659 105.263C140.875 106.29 137.964 110.814 135.169 115.353C132.394 119.892 130.105 123.568 130.068 123.568C130.038 123.568 129.156 122.691 128.11 121.618V121.633Z" fill="#311D00"/>
<path d="M116.481 140.764C114.478 139.361 114.553 139.023 118.192 133.074C120.06 130.017 121.605 127.485 121.624 127.485C121.644 127.458 122.509 128.381 123.548 129.533L125.439 131.63L122.378 136.506C119.782 140.633 119.167 141.383 118.327 141.383C117.783 141.387 116.95 141.118 116.474 140.783L116.481 140.764Z" fill="#311D00"/>
<path d="M132.611 154.643C131.643 153.184 130.781 152.603 121.695 147.253C117.606 144.845 113.893 142.527 113.405 142.077C112.869 141.589 112.527 140.824 112.527 140.119V138.956L113.416 140.272C114.591 142.013 116.654 143.367 118.143 143.367C119.009 143.367 120.998 144.466 125.345 147.343C131.422 151.395 133.035 152.82 133.485 154.546C133.836 155.945 133.526 155.986 132.645 154.663L132.611 154.643Z" fill="#311D00"/>
<path d="M134.862 153.518C134.34 151.871 132.435 150.198 126.759 146.391C123.567 144.256 121.057 142.339 121.17 142.152C121.501 141.615 130.66 147.591 133.361 150.104C134.546 151.207 135.739 153.683 135.297 154.118C135.188 154.227 134.982 153.951 134.839 153.503L134.862 153.518Z" fill="#311D00"/>
<path d="M147.616 168.148C147.479 167.341 146.945 164.963 146.427 162.858C144.746 156.031 145.538 156.856 147.631 164.138C149.192 169.577 149.199 169.614 148.43 169.614C148.078 169.614 147.766 169.055 147.612 168.151L147.616 168.148Z" fill="#311D00"/>
<path d="M144.24 138.138C143.749 137.772 143.497 136.593 143.212 133.299C142.8 128.535 143.125 123.884 144.139 119.982C144.874 117.146 146.663 112.855 147.113 112.855C147.867 112.855 147.852 114.483 147.084 115.987C144.934 120.189 143.892 128.441 144.694 134.893C144.932 136.81 145.073 138.434 145.006 138.502C144.94 138.568 144.593 138.405 144.237 138.138L144.24 138.138Z" fill="#311D00"/>
<path d="M119.857 178.276C119.795 177.743 119.859 177.604 120.435 177.027C121.522 175.939 122.404 175.601 124.163 175.601C125.409 175.601 125.795 175.664 126.399 175.961C127.314 176.411 128.44 177.409 128.166 177.525C128.057 177.571 127.968 177.745 127.968 177.911C127.968 178.159 127.856 178.103 127.367 177.616C126.52 176.768 125.702 176.415 124.404 176.348C122.6 176.25 121.069 177.008 120.203 178.426L119.929 178.872L119.859 178.276H119.857Z" fill="#311D00"/>
<path d="M126.609 179.401C126.576 179.047 125.315 178.268 124.598 178.163C123.676 178.025 122.948 178.175 122.25 178.647C121.819 178.94 121.68 178.978 121.68 178.801C121.68 178.673 121.595 178.568 121.491 178.568C121.059 178.568 122.402 177.788 123.134 177.612C124.15 177.368 125.197 177.514 126.06 178.021C126.712 178.403 127.253 179.045 126.923 179.045C126.839 179.045 126.738 179.17 126.698 179.322C126.658 179.474 126.617 179.511 126.607 179.402L126.609 179.401Z" fill="#311D00"/>
<path d="M122.858 185.403C122.679 185.326 122.306 185.002 122.025 184.687C121.597 184.199 121.519 183.985 121.519 183.295C121.519 182.541 121.537 182.504 121.751 182.785C121.879 182.954 121.986 183.291 121.989 183.539C121.999 184.492 122.728 185.073 123.917 185.073C124.509 185.073 124.667 184.989 125.271 184.338C125.646 183.933 125.954 183.693 125.954 183.798C125.954 184.116 125.481 184.811 125.046 185.137C124.596 185.472 123.362 185.621 122.855 185.404L122.858 185.403Z" fill="#311D00"/>
<path d="M122.483 186.528C121.894 186.254 121.488 185.85 120.532 184.604C120.218 184.195 120.203 184.124 120.43 184.124C120.608 184.124 120.665 184.041 120.6 183.873C120.547 183.734 120.461 183.359 120.41 183.036C120.329 182.526 120.357 182.451 120.628 182.451C120.896 182.451 120.929 182.533 120.862 183.032C120.708 184.184 121.579 185.669 122.674 186.131C123.893 186.641 125.57 186.164 126.29 185.103L126.681 184.529V184.96C126.681 185.199 126.763 185.392 126.864 185.392C126.964 185.392 126.6 185.692 126.053 186.06C125.202 186.634 124.924 186.735 124.088 186.776C123.382 186.813 122.94 186.745 122.482 186.53L122.483 186.528Z" fill="#311D00"/>
<path d="M125.858 180.901C125.554 180.653 125.535 180.597 125.756 180.597C125.933 180.597 125.996 180.513 125.937 180.359C125.887 180.229 125.917 180.122 126.004 180.122C126.213 180.122 126.349 180.495 126.284 180.891C126.233 181.204 126.228 181.204 125.857 180.902L125.858 180.901Z" fill="#311D00"/>
<path d="M78.594 188.779C77.945 187.804 77.0147 187.181 75.9607 187.027C75.4355 186.951 75.2892 186.896 75.5867 186.884C75.8504 186.873 76.2169 186.757 76.4044 186.627C76.7109 186.413 76.8058 186.423 77.3947 186.739C78.0512 187.09 79.0678 188.003 79.2966 188.45C79.3634 188.58 79.339 188.87 79.2422 189.091L79.0663 189.496L78.5899 188.78L78.594 188.779Z" fill="#311D00"/>
<path d="M78.5933 186.153C78.2146 185.864 77.7721 185.628 77.6033 185.628C77.3986 185.628 77.2988 185.518 77.2988 185.292C77.2988 184.998 77.363 184.968 77.8013 185.056C78.4538 185.186 79.7588 185.952 79.5526 186.083C79.4648 186.139 79.367 186.296 79.3351 186.433C79.289 186.631 79.1382 186.575 78.5926 186.156L78.5933 186.153Z" fill="#311D00"/>
<path d="M124.359 161.395C122.975 160.964 121.782 159.801 121.343 158.455L121.159 157.892L119.854 157.892C118.316 157.892 117.686 157.662 116.669 156.725C115.9 156.016 115.45 155.007 115.472 154.04C115.485 153.499 115.495 153.511 115.682 154.266C116.043 155.725 116.713 156.618 117.914 157.24C118.657 157.623 121.012 157.811 121.777 157.545C122.235 157.386 122.25 157.399 122.355 157.954C122.7 159.792 124.148 160.997 126.331 161.259C127.078 161.349 127.19 161.395 126.872 161.486C126.238 161.667 125.105 161.626 124.366 161.395L124.359 161.395Z" fill="#311D00"/>
<path d="M144.99 157.269C143.875 153.33 143.894 153.18 145.123 156.204C145.64 157.472 145.858 158.192 145.749 158.259C145.644 158.325 145.619 158.614 145.685 159.025C145.743 159.388 145.764 159.685 145.731 159.685C145.698 159.685 145.365 158.597 144.992 157.269H144.99Z" fill="#311D00"/>
<path d="M75.593 195.907C75.2179 195.743 75.0229 195.724 74.9478 195.843C74.8811 195.952 74.0551 195.555 72.7159 194.77C70.2251 193.311 65.9637 191.083 63.9756 190.231C63.2141 189.897 62.6214 189.594 62.6589 189.56C62.8161 189.403 67.1604 191.259 70.2738 192.816C72.6371 193.998 76.0507 195.836 76.2758 196.042C76.4941 196.245 76.2191 196.197 75.5855 195.921L75.593 195.907Z" fill="#311D00"/>
<path d="M73.7171 177.15C72.9968 176.46 72.4379 175.868 72.4754 175.83C72.5128 175.793 72.9518 176.094 73.4507 176.501C73.9496 176.908 74.7411 177.496 75.2063 177.803C75.6714 178.113 76.0541 178.388 76.0541 178.418C76.0541 178.446 75.8222 178.454 75.5401 178.436C75.135 178.409 74.7449 178.136 73.7171 177.149V177.15Z" fill="#311D00"/>
<path d="M32.1916 188.779C31.1975 186.618 31.28 186.18 32.3499 187.92C32.8413 188.719 33.1039 189.293 33.0063 189.353C32.9103 189.412 32.8874 189.659 32.9512 189.95C33.0108 190.222 33.0364 190.445 33.0078 190.445C32.9792 190.444 32.6102 189.694 32.1901 188.779H32.1916Z" fill="#311D00"/>
</g>
<defs>
<clipPath id="clip0_487_1494">
<rect width="286" height="221" fill="white"/>
</clipPath>
</defs>
</svg>
