<svg width="50" height="50" viewBox="0 0 250 250" fill="none" xmlns="http://www.w3.org/2000/svg">
<path fill-rule="evenodd" clip-rule="evenodd" d="M125.046 186.361L37.8215 161.357L27.303 162.398C21.7454 164.977 22.8868 168.253 22.8868 168.253C25.1695 164.93 29.3367 166.467 37.8215 171.974C54.8235 183.011 83.5178 194.469 125.046 194.469C166.576 194.469 195.269 183.011 212.271 171.974C220.755 166.467 224.922 164.929 227.205 168.253C227.205 168.253 228.347 164.978 222.79 162.398L212.273 161.357L125.046 186.361Z" fill="black"/>
<path fill-rule="evenodd" clip-rule="evenodd" d="M38.1543 124.225C38.1543 98.438 76.8898 77.5347 124.673 77.5347C172.456 77.5347 211.193 98.438 211.193 124.225C211.193 150.011 172.456 170.913 124.673 170.913C76.8898 170.913 38.1543 150.011 38.1543 124.225Z" fill="black"/>
<path fill-rule="evenodd" clip-rule="evenodd" d="M125.071 191.82C89.3614 191.82 57.1082 182.098 33.6744 166.659C26.7109 162.071 23.0742 166.185 23.0742 166.185C24.1792 159.235 52.2432 149.96 52.2432 149.96C69.6525 162.831 96.9526 169.846 125.076 169.846C153.2 169.846 180.357 162.415 197.765 149.548C197.765 149.548 227.011 159.235 227.072 166.185C227.072 166.185 223.434 162.071 216.47 166.659C193.034 182.098 160.782 191.82 125.071 191.82Z" fill="#D26E38"/>
<path fill-rule="evenodd" clip-rule="evenodd" d="M235.34 91.6159C221.377 85.7216 206.962 80.9623 192.234 77.3842L188.484 62.2913C167.623 57.7863 146.341 55.5207 125 55.5328C103.658 55.5214 82.3754 57.7871 61.5141 62.2913L57.7671 77.3842C43.0381 80.9609 28.6217 85.7203 14.6582 91.6159L11.0293 93.2865L18.2625 100.483V165.681C23.3947 157.872 42.826 149.937 55.9929 145.608L63.5815 134.161V130.323C83.1477 124.986 166.611 135.088 186.179 140.428L186.421 134.161L194.008 145.608C207.175 149.937 226.608 157.871 231.74 165.681V100.483L238.972 93.2865L235.34 91.6159Z" fill="black"/>
<path fill-rule="evenodd" clip-rule="evenodd" d="M134.333 76.252H115.908V112.969L118.957 116.02H137.383V96.0101L134.333 92.9596H126.644V99.0593H131.281V109.919H122.008V82.3516H131.281V85.3723H137.383V79.3011L134.333 76.252ZM189.1 124.59V114.993L183.001 113.438V116.933L176.469 115.2V80.8783L170.369 79.7188V120L189.1 124.59ZM104.052 76.929V98.9322L94.7791 81.0274V77.7954L88.6781 78.5152V118.533L94.7791 117.825V94.9375L104.052 112.842V116.792L110.153 116.317V76.4413L104.052 76.929ZM61.832 83.3438V101.144L59.5234 101.712V107.813L61.832 107.245V124.368L82.9234 119.603V110.316L76.8224 111.432V114.731L67.933 116.728V105.858L79.8418 103.171V97.071L67.933 99.7571V88.3696L76.8224 86.6667V89.7146L82.9234 88.6225V79.2596L61.832 83.3438ZM161.896 78.5865L143.685 76.7876V93.4927L141.499 93.2774V99.3783L143.685 99.5949V116.549L149.785 117.024V100.24L158.513 101.22V118.079L164.612 119.074V81.5799L161.896 78.5865ZM149.785 94.1386V83.5111L158.513 84.3996V95.1191L149.785 94.1386ZM218.771 114.894L203.012 109.534V96.0257L215.931 100.179V105.771L224.427 108.7V99.8232L218.738 92.2839L194.514 84.3658V115.675L215.931 122.752V137.459L203.012 132.236V126.158L194.514 123.636V132.36L199.912 140.033L224.427 150.062V122.423L218.771 114.894ZM25.5711 93.9842V116.371L22.5518 117.402V126.245L25.5711 125.214V150.062L31.4127 147.698L50.0879 140.061L55.4859 132.359V113.2L51.5392 114.475L55.4859 107.684V84.3658L25.5711 93.9842ZM34.0702 100.179L46.9881 96.0257V109.106L34.0702 113.488V100.179ZM34.0702 137.459V122.331L46.9881 117.95V132.236L34.0702 137.459Z" fill="#D26E38"/>
<path fill-rule="evenodd" clip-rule="evenodd" d="M113.037 75.396L115.053 79.3012V113.322L118.604 116.873H138.237V95.6561L134.686 92.1049H125.791V99.914H130.428V109.063H122.862V83.2064H130.428V86.227H138.237V78.9471L134.686 75.396H113.037ZM136.53 96.3642V115.165H119.311L116.761 112.615V77.1054H133.979L136.53 79.6553V84.5189H132.135V81.4983H121.154V110.774H132.135V98.2072H127.499V93.8144H133.979L136.53 96.3642ZM167.012 78.073L169.517 82.7148V120.671L189.955 125.681V114.329L182.147 112.339V115.823L177.326 114.543V80.1805L167.012 78.073ZM183.854 118.044V114.537L188.247 115.655V123.501L171.224 119.33V80.7421L175.617 81.5774V115.858L183.854 118.044ZM111.007 113.266V75.5153L103.198 76.1405V95.4265L95.6325 80.82V76.8356L85.8675 77.9523L87.8234 81.5657V119.493L95.6325 118.587V98.4446L103.198 113.051V117.715L110.22 117.168L113.078 117.057L111.007 113.266ZM109.299 115.527L104.906 115.869V112.636L93.9243 91.3734V117.065L89.5315 117.576V79.274L93.9243 78.7565V81.2363L104.906 102.275V77.7176L109.299 77.3661V115.527ZM58.9202 83.0495L60.9785 85.8574V100.474L58.6699 101.042V108.902L60.9785 108.334V125.439L83.7781 120.284V109.29L75.969 110.719V114.048L68.7889 115.657V106.538L80.6978 103.852V95.9985L68.7889 98.6845V89.07L75.969 87.7004V90.7327L83.7781 89.3346V78.2195L58.9202 83.0495ZM77.6758 115.413V112.143L82.0687 111.339V118.92L62.6867 123.297V106.155L60.378 106.723V102.381L62.6867 101.813V84.0481L82.0687 80.296V87.9079L77.6758 88.6939V85.6291L67.0782 87.6654V100.827L78.9884 98.1411V102.491L67.0782 105.177V117.799L77.6758 115.413ZM140.044 75.4297L142.832 79.6592V92.5511L140.645 92.3358V100.153L142.832 100.368V117.339L150.64 117.946V101.194L157.659 101.983V118.803L165.467 120.076V81.2505L162.307 77.7695L140.044 75.4297ZM148.932 99.2837V116.1L144.539 115.758V98.8194L142.352 98.6028V94.219L144.539 94.4343V77.728C144.539 77.728 159.313 79.1871 161.483 79.4037L163.757 81.9094V118.068L159.365 117.352V100.457L148.932 99.2837Z" fill="white"/>
<path fill-rule="evenodd" clip-rule="evenodd" d="M159.366 83.6279L148.932 82.5657V94.9026L159.366 96.075V83.6279ZM157.659 94.1633L150.64 93.3747V84.4567L157.659 85.1713V94.1633ZM193.659 88.3554V116.294L215.075 123.371V136.194L203.865 131.66V125.523L193.659 122.493V132.632L199.357 140.733L225.283 151.331V122.138L219.295 114.17L203.866 108.922V97.1969L215.076 100.801V106.381L225.285 109.898V99.5367L219.26 91.5551L189.342 81.855L193.659 88.3554ZM202.158 94.8533V110.145L218.246 115.618L223.573 122.708V148.796C223.573 148.796 202.598 140.214 200.466 139.34L195.366 132.089V124.78L202.157 126.795V132.812L216.783 138.727V122.135L195.365 115.058V85.5384C195.365 85.5384 215.994 92.2827 218.216 93.0129L223.571 100.11V107.503L216.783 105.163V99.5561L202.158 94.8533ZM21.2793 94.3825L24.7176 97.6288V115.759L21.6982 116.789V127.435L24.7176 126.406V151.328L31.7342 148.49L50.6441 140.756L56.3418 132.626V112.027L53.3989 112.977L56.3418 107.915V83.1948L21.2793 94.3825ZM49.5326 139.367L31.0896 146.907C31.0922 146.907 28.1312 148.106 26.4244 148.795V124.022L23.4063 125.053V118.013L26.4244 116.984V94.6069L54.6323 85.5384V107.455L49.6805 115.975L54.6323 114.375V132.091L49.5326 139.367Z" fill="white"/>
<path fill-rule="evenodd" clip-rule="evenodd" d="M33.2158 99.556V114.68L47.8418 109.718V94.8532L33.2158 99.556ZM46.1337 97.1968V108.493L34.9239 112.296V100.801L46.1337 97.1968ZM33.2158 121.72V138.726L47.8418 132.811V116.758L33.2158 121.72ZM46.1337 119.14V131.658L34.9239 136.192V122.943L46.1337 119.14ZM74.7256 67.7607C74.247 67.2237 73.4727 67.0279 72.675 67.1705C72.0074 67.2863 71.402 67.6341 70.9657 68.1525C70.5293 68.671 70.29 69.3268 70.2899 70.0044C70.2938 71.3753 71.273 72.1911 72.7243 71.9317C73.4856 71.7968 74.247 71.3027 74.7333 70.6516L74.7411 73.3584C73.9681 73.7267 73.4091 73.9991 72.6828 74.1288C71.4325 74.3519 70.2406 74.1042 69.3094 73.4531C68.3185 72.7657 67.8632 71.7177 67.8594 70.4272C67.8568 69.2405 68.3172 68.0175 69.1719 67.0123C70.05 65.9799 71.3223 65.2225 72.5842 64.9968C73.3339 64.8632 74.0965 64.9229 74.7139 63.9826L74.7256 67.7607ZM84.0327 63.443C83.5191 63.5753 83.2402 64.111 83.222 64.6674L83.0132 70.8202C82.9769 71.8863 83.2519 72.1704 83.7253 72.1717L79.8707 72.7151C80.5075 72.4272 80.6501 72.0731 80.6826 71.1224L80.8875 65.0616C80.9121 64.3431 80.5684 63.9774 80.1534 63.9916L84.0327 63.4326V63.443ZM89.5772 70.0628L90.0325 63.9592C90.1025 63.0163 89.7419 62.788 89.3671 62.7699L92.4539 62.4456L96.3163 67.3677L96.3397 67.3651L96.6522 63.172C96.7041 62.4858 96.4382 62.0968 95.9804 62.076L99.0672 61.7518L98.5173 69.1251C98.4602 69.8942 98.6198 70.4428 99.1956 70.4519L96.0842 70.7787L92.2218 65.845L92.1984 65.8476L91.7977 71.2288L88.7212 71.5517C89.1492 71.3675 89.502 71.0641 89.5772 70.0628ZM110.822 63.8425C110.403 63.2394 109.665 62.945 108.874 62.9917C107.46 63.076 106.415 64.2082 106.3 65.5765C106.184 66.9682 107.067 67.9163 108.505 67.8307C109.26 67.7866 110.046 67.3793 110.577 66.7775L110.347 69.5258C109.561 69.8047 108.992 70.0135 108.272 70.0563C107.033 70.1302 105.893 69.7321 105.044 68.9565C104.138 68.1368 103.786 67.0175 103.895 65.7088C103.996 64.5039 104.552 63.3198 105.473 62.4041C106.42 61.4638 107.726 60.8504 108.977 60.7764C109.721 60.7323 110.459 60.8867 111.142 60.0073L110.822 63.8425ZM119.841 60.5975C119.335 60.6688 119.063 61.1785 119.047 61.7401L118.872 67.9578C118.842 69.0356 119.115 69.3559 119.581 69.4156L115.783 69.4973C116.409 69.282 116.548 68.9396 116.575 67.9798L116.748 61.8555C116.767 61.1292 116.427 60.7168 116.019 60.6792L119.841 60.5858V60.5975ZM124.948 67.9254L125.04 61.7881C125.055 60.84 124.684 60.565 124.31 60.5002L127.354 60.5456L131.479 66.0071H131.502L131.566 61.792C131.576 61.1007 131.289 60.6753 130.834 60.5975L133.879 60.6428L133.77 68.0564C133.757 68.8294 133.948 69.4065 134.52 69.4856L131.453 69.4389L127.328 63.9657H127.305L127.225 69.3767L124.192 69.3313C124.602 69.1964 124.934 68.9318 124.948 67.9254ZM139.848 68.2963L139.952 62.172C139.97 61.2252 139.598 60.9308 139.224 60.8491L142.272 61.0488L146.391 66.714L146.415 66.7153L146.486 62.5079C146.499 61.8179 146.212 61.3782 145.757 61.2771L148.808 61.4768L148.68 68.8761C148.665 69.6478 148.856 70.2327 149.43 70.3403L146.358 70.1393L142.238 64.4624L142.215 64.4611L142.124 69.8605L139.087 69.6607C139.499 69.5492 139.83 69.3015 139.848 68.2963ZM153.971 70.745L157.543 62.3626L160.932 62.7621C160.1 63.0993 160.453 63.7919 160.509 63.9501L162.627 70.0239C162.829 70.6879 163.412 71.6179 164.339 71.9226L160.785 71.5271L160.235 69.937L157.059 69.5725C157.043 69.6867 156.801 70.7787 157.761 71.1808L153.971 70.745ZM158.753 65.2173L158.727 65.2147L157.985 67.1939C157.906 67.5583 157.419 67.7347 156.972 67.8125L159.642 68.1186L158.753 65.2173ZM172.315 67.129L172.239 73.0977L169.174 72.6204C169.684 72.5841 169.926 72.2158 169.934 71.4635L170.005 65.9358L168.894 65.762C168.585 65.714 168.205 65.7828 168.083 66.1693L168.113 63.7167L174.266 64.6739L174.243 66.5934L171.781 66.2108C172.24 66.4689 172.32 66.7127 172.315 67.129ZM182.962 66.2536C182.449 66.2147 182.187 66.6608 182.187 67.2133L182.199 73.3195C182.199 74.3765 182.489 74.7514 182.965 74.9109L179.1 74.1794C179.733 74.1016 179.862 73.7929 179.86 72.85L179.849 66.8359C179.849 66.1226 179.49 65.6414 179.071 65.5182L182.962 66.2432V66.2536ZM75.4687 176.155C76.09 176.148 76.3169 175.523 76.5686 175.239C76.8202 174.957 77.1146 174.731 77.4401 174.564C78.0886 174.237 78.8824 174.194 79.7202 174.42C81.1884 174.818 82.1131 175.978 81.6994 177.511C81.523 178.164 81.0743 178.79 80.383 178.967C81.1923 179.43 81.3894 180.559 81.1637 181.394C80.6787 183.19 78.8733 183.693 77.2417 183.254C76.3053 183.004 75.5245 182.522 75.0433 181.668C74.6892 181.035 74.4506 180.062 74.6659 179.347L77.2534 180.059C77.1805 180.068 77.1106 180.094 77.0494 180.135C76.9882 180.175 76.9374 180.23 76.9008 180.293C76.8643 180.357 76.8432 180.428 76.8391 180.502C76.835 180.575 76.848 180.648 76.8772 180.716C77.0004 181.042 77.2793 181.303 77.671 181.41C78.3247 181.585 78.9316 181.282 79.1093 180.62C79.2779 179.998 78.8733 179.376 78.2754 179.214C78.1483 179.184 78.0177 179.174 77.8876 179.181L78.2728 177.755L78.4894 177.813C79.0341 177.96 79.5166 177.73 79.6696 177.162C79.8045 176.663 79.5334 176.24 79.0549 176.11C78.5114 175.961 78.0614 176.285 77.9278 176.82L75.4687 176.155ZM90.1648 181.582C89.6965 183.743 88.1467 185.84 85.6668 185.303C83.1883 184.766 82.6449 182.212 83.1131 180.054C83.58 177.893 85.1416 175.799 87.611 176.333C90.0779 176.868 90.6317 179.424 90.1648 181.582ZM85.2635 180.508C85.0897 181.314 84.9665 183.155 86.0793 183.396C87.1921 183.64 87.8432 181.911 88.0183 181.106C88.1921 180.303 88.3101 178.482 87.1973 178.241C86.0845 177.997 85.4373 179.705 85.2635 180.508ZM94.498 183.363L93.9467 186.552L91.1466 186.079C91.843 186.086 92.0078 185.725 92.1232 185.058L92.6225 182.17L91.9676 182.055L92.2555 180.391L92.9118 180.503L93.2075 178.794L95.2295 179.144L94.9337 180.853L96.0777 181.05L95.7897 182.717L94.0012 182.408C94.4993 182.63 94.5784 182.897 94.498 183.363ZM100.542 178.096L99.979 182.364L100.001 182.367C100.554 181.804 101.162 181.586 101.954 181.692C103.407 181.882 103.984 182.936 103.793 184.39L103.332 187.898L101.298 187.632L101.686 184.691C101.774 184.022 101.765 183.315 100.949 183.206C100.144 183.099 99.7961 183.761 99.7079 184.429L99.3201 187.37L96.5926 187.011C97.0828 186.996 97.3526 186.588 97.4395 185.929L98.289 179.48C98.4706 178.104 99.088 177.901 99.8039 177.995L100.542 178.096ZM110.929 188.647L114.621 180.32L117.863 180.495C117.054 180.87 117.371 181.518 117.419 181.668L119.266 187.405C119.438 188.033 119.969 188.897 120.85 189.133L117.449 188.973L116.972 187.472L113.932 187.32C113.915 187.431 113.647 188.5 114.556 188.83L110.929 188.647ZM115.693 183.006L115.671 183.004L114.896 184.962C114.81 185.319 114.337 185.522 113.902 185.626L116.458 185.753L115.693 183.006ZM122.151 187.775L122.111 181.867C122.104 180.956 121.741 180.697 121.38 180.644L124.312 180.624L128.392 185.793H128.415L128.389 181.735C128.384 181.068 128.097 180.666 127.66 180.6L130.592 180.582L130.639 187.718C130.645 188.46 130.839 189.012 131.392 189.076L128.439 189.097L124.357 183.914L124.335 183.917L124.37 189.125L121.45 189.143C121.843 189.007 122.157 188.745 122.151 187.775ZM133.665 187.605L133.267 181.713C133.206 180.801 132.829 180.568 132.467 180.535L135.39 180.338L139.775 185.252L139.799 185.25L139.528 181.202C139.482 180.538 139.174 180.153 138.73 180.115L141.656 179.918L142.135 187.036C142.185 187.778 142.413 188.317 142.969 188.348L140.023 188.545L135.635 183.621L135.612 183.623L135.962 188.819L133.049 189.014C133.432 188.852 133.73 188.574 133.665 187.605ZM147.21 179.289C146.736 179.398 146.543 179.908 146.604 180.447L147.273 186.395C147.39 187.426 147.691 187.71 148.147 187.727L144.517 188.125C145.089 187.867 145.176 187.527 145.072 186.61L144.413 180.748C144.334 180.054 143.954 179.69 143.557 179.687L147.21 179.277V179.289ZM153.436 183.616L154.318 179.816C154.455 179.212 154.161 178.425 153.436 178.389L157.056 177.826L154.771 186.783L153.078 187.046L148.805 180.098C148.516 179.63 148.228 179.311 147.763 179.267L150.616 178.823L153.436 183.616ZM161.299 178.853L161.588 180.244L164.028 179.739L164.408 181.57L161.439 182.186C161.79 182.275 162.042 182.43 162.156 182.981L162.265 183.511L164.836 182.979L165.216 184.81L159.775 185.937C160.291 185.658 160.37 185.262 160.253 184.699L159.002 178.591C158.86 178.022 158.617 177.624 158.052 177.613L163.493 176.486L163.873 178.32L161.299 178.853ZM174.957 182.382L172.292 183.071L169.453 180.429L168.863 180.583C169.4 180.583 169.564 180.948 169.726 181.572L170.25 183.6L167.413 184.334C167.99 184 167.926 183.444 167.763 182.812L166.293 177.135C166.068 176.273 165.708 176.098 165.28 176.104L169.177 175.096C170.803 174.673 172.239 175.128 172.693 176.887C172.987 178.022 172.61 179.17 171.494 179.678L174.957 182.382ZM169.075 179.062L169.283 179.006C169.979 178.826 170.732 178.493 170.501 177.595C170.267 176.701 169.449 176.774 168.75 176.954L168.542 177.008L169.075 179.062ZM179.629 174.307C179.14 174.11 178.577 174.052 178.061 174.214C177.673 174.338 177.229 174.726 177.372 175.176C177.521 175.65 178.153 175.663 178.552 175.655L179.143 175.644C180.376 175.621 181.428 175.916 181.843 177.225C182.098 178.033 182.167 178.923 181.696 179.675C181.233 180.412 180.455 180.909 179.637 181.167C178.877 181.403 178.073 181.459 177.288 181.332C177.014 181.289 176.594 181.42 176.355 181.792L176.86 179.161C177.534 179.458 178.276 179.634 178.995 179.406C179.489 179.249 179.94 178.836 179.757 178.266C179.569 177.673 178.678 177.731 178.187 177.747C176.746 177.79 175.765 177.721 175.266 176.152C174.747 174.507 175.577 173.061 177.201 172.547C177.728 172.384 178.278 172.306 178.83 172.314C179.218 172.309 179.755 172.175 180.066 171.663L179.629 174.307ZM183.895 179.583L183.935 170.475L186.978 169.335C186.387 170.004 186.937 170.47 187.044 170.586L191.033 175.102C191.443 175.612 192.277 176.187 193.178 176.049L190 177.267L188.958 176.082L186.111 177.163C186.141 177.272 186.324 178.359 187.289 178.295L183.895 179.583ZM185.997 172.503L185.974 172.511L186.05 174.619C186.114 174.978 185.761 175.353 185.407 175.621L187.799 174.715L185.997 172.503ZM200.803 172.541L198.303 173.686L195.045 171.578L194.49 171.831C195.019 171.741 195.244 172.07 195.51 172.655L196.382 174.563L193.717 175.781C194.226 175.35 194.068 174.813 193.796 174.22L191.359 168.889C190.989 168.078 190.604 167.969 190.184 168.051L193.844 166.376C195.372 165.677 196.863 165.877 197.618 167.527C198.104 168.593 197.932 169.789 196.924 170.485L200.803 172.541ZM194.435 170.297L194.63 170.209C195.286 169.908 195.967 169.446 195.582 168.608C195.199 167.768 194.404 167.981 193.748 168.282L193.553 168.37L194.435 170.297ZM197.382 164.767L199.718 163.513L202.213 164.799L202.373 163.358C202.426 162.882 202.187 162.51 201.597 162.507L204.858 160.759L204.182 166.136L205.766 169.087C205.93 169.396 206.249 169.584 206.549 169.497L204.165 170.776L202.235 167.179L197.382 164.767ZM111.293 173.063L111.377 171.868L113.566 172.022L113.246 176.535C113.224 176.844 113.187 177.376 113.685 177.485L111.77 177.349L112.068 173.115L111.293 173.063ZM117.323 177.67L118.932 175.887L118.917 175.871C118.676 175.973 118.416 176.02 118.155 176.01C117.087 175.973 116.442 175.032 116.477 174.038C116.523 172.703 117.645 172.021 118.885 172.071C119.412 172.089 120.02 172.241 120.421 172.587C120.847 172.955 121.116 173.542 121.096 174.105C121.069 174.89 120.637 175.643 120.148 176.238L119.522 177.004C119.295 177.277 119.235 177.572 119.531 177.748L117.323 177.67ZM117.95 174.045C117.943 174.161 117.96 174.277 117.999 174.387C118.038 174.496 118.099 174.597 118.177 174.682C118.256 174.768 118.35 174.837 118.456 174.886C118.561 174.934 118.676 174.961 118.792 174.965C119.027 174.969 119.254 174.881 119.424 174.72C119.595 174.558 119.695 174.336 119.703 174.101C119.711 173.866 119.627 173.638 119.468 173.465C119.309 173.292 119.089 173.188 118.854 173.176C118.737 173.173 118.621 173.193 118.512 173.235C118.403 173.277 118.304 173.34 118.219 173.421C118.135 173.502 118.068 173.599 118.022 173.706C117.975 173.813 117.951 173.929 117.95 174.045ZM126.367 172.399L124.823 174.239L124.837 174.254C125.074 174.143 125.333 174.086 125.594 174.087C126.662 174.087 127.34 175.004 127.34 176C127.34 177.334 126.243 178.054 125.003 178.054C124.476 178.054 123.863 177.925 123.453 177.586C123.231 177.405 123.05 177.178 122.924 176.921C122.798 176.663 122.73 176.381 122.724 176.095C122.724 175.31 123.129 174.545 123.597 173.931L124.195 173.15C124.411 172.869 124.462 172.576 124.159 172.401H126.367V172.399ZM125.868 176.041C125.87 175.925 125.85 175.81 125.807 175.702C125.764 175.595 125.7 175.496 125.619 175.414C125.537 175.331 125.44 175.265 125.333 175.221C125.226 175.176 125.111 175.154 124.995 175.154C124.759 175.154 124.532 175.247 124.365 175.413C124.197 175.579 124.102 175.805 124.101 176.041C124.101 176.541 124.505 176.943 124.995 176.943C125.492 176.944 125.868 176.541 125.868 176.041ZM133.113 173.562C133.126 173.831 133.054 174.098 132.908 174.325C132.761 174.551 132.548 174.727 132.297 174.826V174.839C132.953 175.034 133.405 175.517 133.429 176.229C133.467 177.356 132.345 177.914 131.407 177.947C130.47 177.976 129.313 177.498 129.274 176.373C129.248 175.659 129.664 175.145 130.305 174.906V174.894C130.047 174.812 129.822 174.652 129.661 174.436C129.499 174.219 129.41 173.957 129.406 173.687C129.368 172.648 130.275 172.106 131.205 172.074C132.138 172.041 133.077 172.524 133.113 173.562ZM130.663 173.689C130.664 173.768 130.681 173.847 130.713 173.92C130.745 173.993 130.791 174.059 130.848 174.114C130.906 174.169 130.974 174.213 131.048 174.241C131.122 174.27 131.202 174.284 131.282 174.281C131.361 174.278 131.439 174.259 131.511 174.225C131.584 174.192 131.648 174.144 131.702 174.085C131.756 174.026 131.797 173.957 131.824 173.882C131.851 173.807 131.863 173.728 131.859 173.648C131.857 173.569 131.84 173.49 131.808 173.417C131.776 173.344 131.73 173.279 131.673 173.223C131.615 173.168 131.547 173.125 131.473 173.096C131.399 173.068 131.32 173.054 131.24 173.056C131.08 173.063 130.929 173.134 130.82 173.253C130.712 173.371 130.655 173.528 130.663 173.689ZM130.697 176.144C130.71 176.511 131.008 176.797 131.368 176.784C131.455 176.781 131.539 176.761 131.618 176.725C131.696 176.689 131.767 176.637 131.825 176.574C131.883 176.51 131.929 176.436 131.958 176.355C131.987 176.273 132 176.187 131.996 176.101C131.981 175.726 131.682 175.432 131.322 175.445C130.961 175.458 130.684 175.768 130.697 176.144ZM141.232 174.252L141.323 175.331L139.268 175.504L139.175 174.428L141.232 174.252ZM147.612 172.148L147.447 170.962L149.621 170.661L150.242 175.143C150.285 175.449 150.359 175.979 150.867 175.979L148.967 176.245L148.385 172.043L147.612 172.148ZM154.473 175.403L155.671 173.322L155.656 173.311C155.433 173.46 155.215 173.556 154.938 173.606C153.887 173.794 153.059 173.01 152.887 172.03C152.653 170.715 153.606 169.813 154.829 169.603C155.348 169.512 155.975 169.532 156.435 169.789C156.932 170.06 157.317 170.576 157.416 171.131C157.552 171.907 157.286 172.729 156.932 173.414L156.48 174.293C156.316 174.609 156.318 174.909 156.645 175.021L154.473 175.403ZM154.327 171.73C154.346 171.845 154.386 171.954 154.447 172.053C154.508 172.151 154.588 172.236 154.682 172.303C154.777 172.37 154.884 172.418 154.997 172.443C155.11 172.468 155.227 172.471 155.34 172.45C155.573 172.409 155.78 172.278 155.916 172.085C156.052 171.893 156.107 171.654 156.068 171.422C156.027 171.187 155.894 170.978 155.7 170.841C155.505 170.704 155.264 170.65 155.029 170.69C154.538 170.776 154.239 171.239 154.327 171.73ZM160.74 174.223L161.859 172.097L161.841 172.087C161.626 172.244 161.413 172.348 161.137 172.409C160.093 172.634 159.237 171.885 159.026 170.912C158.742 169.607 159.662 168.669 160.876 168.414C161.39 168.302 162.016 168.3 162.489 168.538C162.994 168.789 163.399 169.291 163.518 169.84C163.683 170.611 163.449 171.441 163.122 172.14L162.705 173.034C162.553 173.355 162.566 173.655 162.897 173.753L160.74 174.223ZM160.456 170.558C160.478 170.672 160.523 170.78 160.588 170.876C160.652 170.972 160.736 171.054 160.833 171.118C160.93 171.181 161.039 171.225 161.153 171.245C161.267 171.266 161.384 171.264 161.497 171.239C161.728 171.189 161.929 171.05 162.057 170.852C162.185 170.654 162.23 170.413 162.181 170.183C162.131 169.95 161.991 169.747 161.792 169.618C161.592 169.488 161.35 169.443 161.117 169.492C161.003 169.517 160.895 169.565 160.8 169.632C160.704 169.7 160.624 169.786 160.562 169.885C160.5 169.985 160.459 170.095 160.441 170.211C160.423 170.326 160.428 170.444 160.456 170.558ZM166.12 168.642C165.758 168.735 165.461 168.924 165.4 169.23L165.002 167.691L169.326 166.577L167.662 172.624L166.16 173.012L167.107 169.668C167.223 169.258 167.393 168.47 168.324 168.073L166.12 168.642Z" fill="white"/>
<path fill-rule="evenodd" clip-rule="evenodd" d="M58.0668 164.192C57.7114 164.542 57.1058 164.501 57.1058 164.501C56.4845 164.584 55.8282 164.617 55.1551 164.602C51.1643 164.514 49.0282 165.856 47.9387 166.999L47.6443 167.307L47.2228 167.36C44.0452 167.77 41.9 168.812 40.8456 170.451C40.522 170.949 40.3047 171.508 40.2074 172.093L40.1504 172.447L39.9078 172.713C39.1787 173.487 38.7484 174.495 38.6939 175.557L38.69 175.636L38.6757 175.713L38.6602 175.796C38.4423 176.976 38.5772 178.74 39.6082 180.141L39.7911 180.389L39.8326 180.695C39.9364 181.473 40.2684 182.61 41.2619 183.6C42.2437 184.58 43.7845 185.168 45.4874 185.208L45.8584 185.218L46.1593 185.436C47.4563 186.372 49.1151 186.654 50.8297 186.231C50.8297 186.231 51.984 185.945 51.984 185.947L51.9892 185.966L53.1474 185.7L53.3834 185.644L55.801 185.086L56.2977 182.631L56.4313 181.97L57.0668 181.739L60.1562 180.625C61.7567 179.926 63.1613 178.765 64.649 177.534C66.1885 176.26 67.7812 174.94 69.7163 174.031C72.3712 172.779 76.8782 171.796 80.1686 171.08C81.6549 170.759 82.8274 170.503 83.5913 170.275C84.9181 169.879 86.2125 168.747 87.5445 166.814L88.0659 166.057L88.9323 166.363C93.6623 168.037 100.682 169.765 107.247 168.491L107.698 168.403L107.882 168.368C107.954 168.294 108.013 168.236 108.013 168.236L108.321 167.922L108.336 167.906C108.386 167.856 108.649 167.58 109.019 167.061L109.357 166.585L109.939 166.559C113.461 166.395 116.944 165.762 120.298 164.677C131.438 161.055 136.942 154.251 139.903 150.593L140.56 149.788L140.567 149.78C142.792 147.093 147.56 146.514 151.903 148.403C156.035 150.201 160.531 150.941 162.842 151.222L163.429 151.293L163.73 151.803C167.482 158.153 171.603 158.597 173.726 158.298L173.971 158.263L174.212 158.33C176.791 159.039 178.845 158.829 180.317 157.702C182.143 156.306 182.25 154.148 182.239 153.519L182.237 153.481L182.239 153.441C182.282 152.562 182.221 151.78 182.064 151.116L181.669 149.476C181.392 148.506 182.52 148.339 183.042 148.939L184.086 149.993C186.089 152.007 188.037 154.076 189.928 156.196C193.904 160.69 197.664 159.664 198.72 159.241L198.991 159.135L199.283 159.162C201.37 159.367 202.956 158.947 204 157.911C204.524 157.392 204.879 156.752 205.049 156.013L205.113 155.74L205.291 155.524C205.916 154.756 206.707 153.374 206.901 151.134C207.193 147.803 204.021 146.204 200.551 144.973C200.366 144.907 199.983 144.774 199.708 144.667C199.708 144.667 199.341 144.526 199.346 144.535L199.134 144.203C199.134 144.203 198.977 143.955 198.972 143.95C198.336 142.95 197.271 141.273 194.6 140.309C192.591 139.587 190.357 137.577 188.726 136.107C188.265 135.695 187.832 135.304 187.442 134.975C185.486 133.333 184.292 133.542 182.649 134.544C182.195 134.821 181.57 135.201 180.569 135.608L180.389 135.679L180.199 135.692C178.872 135.783 177.364 134.398 173.18 129.245L172.005 127.804C171.118 126.727 170.167 125.705 169.155 124.744L167.508 123.18L169.727 122.7C174.57 121.654 181.645 119.693 187.842 116.297C193.471 113.216 197.232 108.799 199.026 103.174C199.538 101.566 200.187 99.1719 199.903 96.9644C199.512 93.9321 197.304 92.023 194.411 92.2149C191.299 92.4211 190.592 94.5067 189.91 96.5209L189.75 96.9904C188.727 100.023 187.762 102.888 184.757 106.106C180.093 111.103 160.236 113.973 152.978 114.658L152.789 114.676L152.603 114.634C150.642 114.197 143.421 112.867 132.891 114.1C125.595 114.955 120.062 117.058 115.18 118.913C111.941 120.144 108.881 121.307 105.863 121.848C100.396 122.826 93.1552 121.206 88.3642 120.135C86.7546 119.774 85.3643 119.463 84.3488 119.322L81.699 118.964L80.8119 118.844L80.6744 117.96C80.5791 117.357 80.3961 116.771 80.131 116.221C79.2348 114.349 77.8989 113.797 76.9378 113.663C75.554 113.471 74.113 114.011 72.6552 115.265L72.3089 115.56L71.8576 115.557L70.4452 115.545H70.3596L68.3013 115.528H68.2442L68.2027 115.529C65.9096 115.62 64.016 115.944 62.4143 116.519L61.784 116.746L61.26 116.328C59.7386 115.114 57.7465 113.808 55.8386 114.481C55.0332 114.767 53.9917 115.49 53.6 117.328C53.2965 118.752 53.5559 120.187 54.3704 121.591L54.7958 122.326L54.2446 122.973C53.3056 124.071 52.2875 125.676 51.9814 126.869L50.6883 132.642L50.6805 132.687L50.6689 132.73C49.9348 135.585 50.8362 138.63 52.53 140.846L53.8348 142.653L56.478 145.326L57.6012 146.504L59.452 149.508L59.4689 149.543L59.4792 149.563L59.4922 149.589C59.7256 150.06 60.0992 150.572 60.544 151.033L61.439 151.96C60.2341 152.97 58.3937 154.288 57.4248 157.926C56.4547 161.562 57.1213 161.645 57.8061 162.455C58.4883 163.265 58.3755 163.887 58.0668 164.192Z" fill="white"/>
<path fill-rule="evenodd" clip-rule="evenodd" d="M76.0949 153.386L63.2807 163.924C62.5324 164.402 60.3599 166.796 55.1098 166.68C49.8609 166.56 48.848 169.292 48.848 169.292C40.9416 169.796 42.3177 173.406 42.3177 173.406C41.1362 174.128 40.7548 175.006 40.7639 175.853L40.7043 176.175C40.6705 176.36 40.4047 178.006 41.4889 179.164C41.6083 179.294 41.7393 179.408 41.878 179.509L41.869 180.097C41.8677 180.216 41.8754 181.28 42.7301 182.133C43.3981 182.8 44.5615 183.167 45.7845 183.146L46.7132 183.119C47.3033 183.882 48.6936 184.78 50.5639 184.297L52.9153 183.622L51.4873 182.591C51.4847 182.591 51.3524 182.492 51.1566 182.317C53.2927 181.595 54.2797 179.769 54.2797 179.769C54.2797 179.769 56.4496 179.969 59.3081 178.733C62.1666 177.494 64.745 174.076 68.8292 172.154C72.9134 170.232 80.6797 168.978 82.9961 168.287C85.3112 167.598 87.7469 162.27 87.7469 162.27L76.0949 153.386Z" fill="black"/>
<path fill-rule="evenodd" clip-rule="evenodd" d="M52.5084 170.19C54.3462 170.446 55.9869 170.047 55.9869 170.047C55.9869 170.047 55.4058 172.742 52.8067 174.065C52.8067 174.065 55.2178 175.564 60.5665 173.708C60.5665 173.708 60.5302 175.651 57.6288 177.761C63.3576 174.987 64.7194 171.069 64.7194 171.069C64.7194 171.069 63.2733 170.598 57.8986 172.586C57.8986 172.586 57.8934 171.01 60.2993 169.427C62.7649 167.805 64.3757 166.607 65.6792 164.173C65.8231 163.904 66.0605 163.562 66.3614 163.174L64.1565 164.987L64.093 165.04L64.0242 165.083C63.9762 165.113 63.8427 165.219 63.7363 165.303C62.6468 166.162 60.0957 168.168 55.0777 168.057C53.2126 168.014 52.0298 168.363 51.2853 168.761C50.7185 169.266 51.144 170 52.5084 170.19ZM44.6448 171.599C44.3063 172.062 44.5333 172.58 45.4943 172.774C46.685 173.019 47.956 172.936 48.5578 172.875C48.2232 172.1 48.2828 171.337 48.3697 170.712C46.4554 170.882 45.3179 171.246 44.6448 171.599Z" fill="#D26E38"/>
<path fill-rule="evenodd" clip-rule="evenodd" d="M47.9787 182.603C48.3664 183.074 49.2121 183.74 50.7386 183.345C50.7386 183.345 50.3495 183.061 49.8917 182.582C49.2559 182.646 48.6157 182.653 47.9787 182.603ZM51.1498 170.735L49.6051 170.095C49.6051 170.095 48.4624 172.261 51.0084 174.127C51.0084 174.127 50.4637 172.187 51.1498 170.735ZM45.2161 173.997L43.4613 173.503C43.4613 173.503 43.0424 176.082 46.1201 176.839C46.1214 176.84 45.1966 175.799 45.2161 173.997ZM41.7091 176.359C41.7091 176.359 41.1293 179.498 44.6727 179.075C44.6727 179.075 43.4418 178.1 43.211 176.919L41.7091 176.359ZM42.9801 180.15C42.9801 180.15 42.9477 182.288 45.7673 182.237C45.7673 182.237 44.792 181.533 44.6662 180.324L42.9801 180.15Z" fill="white"/>
<path fill-rule="evenodd" clip-rule="evenodd" d="M204.831 150.954C205.094 147.953 199.228 147.017 198.133 146.204C197.039 145.391 196.897 143.344 193.892 142.265C190.887 141.186 187.878 138.061 186.1 136.565C184.322 135.07 184.734 136.162 181.332 137.538C177.928 138.911 174.64 134.288 170.394 129.12C166.149 123.956 161.778 121.926 161.778 121.926C161.778 121.926 175.816 120.514 186.841 114.475C193.049 111.073 196.441 106.195 197.53 100.728C198.078 97.9931 197.389 96.2292 196.165 95.473L196.162 95.4951C196.124 95.4616 196.084 95.4296 196.043 95.3991C195.753 95.2412 195.439 95.1346 195.113 95.0839C193.276 94.7999 192.195 96.7648 191.437 99.4677C190.688 102.136 188.952 104.649 186.27 107.523C179.884 114.362 152.625 116.776 152.625 116.776C152.625 116.776 145.12 114.756 133.125 116.162C121.131 117.567 113.991 122.502 106.223 123.891C98.4569 125.281 87.8775 121.911 84.0579 121.378C80.2383 120.846 74.0997 120.049 74.0997 120.049L65.3711 145.121C67.942 146.454 70.3585 148.065 72.5771 149.927C72.507 150.572 72.2645 151.381 71.5875 151.958C71.035 152.038 70.4876 152.094 69.9662 152.115C64.6071 152.338 62.9626 153.103 60.8368 155.243C60.8368 155.243 60.6604 155.753 60.558 156.459C60.0444 157.015 59.5425 157.828 59.2779 159.026L58.9977 160.288C58.8953 160.681 59.0457 161.046 59.475 160.825L60.7344 160.086L61.2674 159.775C61.379 159.899 61.5074 160.016 61.6513 160.125C60.9471 161.021 60.4166 162.402 60.4854 164.451L60.5735 167.043L62.2363 165.052C62.2376 165.049 62.5242 164.717 63.0923 164.287C63.6539 164.715 64.4567 165.016 65.5864 165.079L66.2906 167.278L66.8833 169.127L67.9858 167.529L68.8327 166.304C69.5019 166.293 70.3476 166.123 71.4072 165.687C71.5735 166.674 72.0269 167.589 72.7107 168.319L73.8792 169.484L74.4369 167.931L74.9518 166.499C75.9401 166.423 77.0879 166.056 78.3188 165.119C78.3188 165.119 79.5107 163.371 80.4199 161.92C80.4199 161.92 82.425 161.454 86.3172 163.118C90.2095 164.78 98.8538 168.008 106.85 166.454C106.85 166.454 107.442 165.848 108.127 164.532C112.041 164.527 115.93 163.911 119.653 162.706C131.094 158.982 136.248 151.74 138.964 148.457C141.68 145.177 147.131 144.067 152.729 146.501C158.327 148.936 164.736 149.321 164.736 149.321C169.132 158.033 174.033 156.107 174.033 156.107C180.449 158.265 180.159 153.495 180.159 153.495C180.344 150.496 179.194 150.497 179.194 150.497C179.323 148.313 176.868 148.187 176.868 148.187C178.904 145.862 182.723 145.713 182.723 145.713C182.723 145.713 187.51 150.333 191.483 154.817C195.453 159.304 198.578 156.976 198.578 156.976C203.627 157.911 203.072 154.777 203.072 154.777C203.072 154.777 204.568 153.952 204.831 150.954Z" fill="black"/>
<path fill-rule="evenodd" clip-rule="evenodd" d="M60.6388 158.983L62.3093 157.915C62.6686 156.963 62.6504 156.485 62.3703 156.57C62.3703 156.57 60.8295 157.18 60.3444 158.776C60.2393 159.069 60.3379 159.183 60.6388 158.983ZM62.4157 163.597L63.9655 161.783C63.9655 161.783 64.1562 160.109 63.5336 160.208C63.5336 160.208 62.0305 161.17 62.1174 163.506C62.1264 163.789 62.286 163.748 62.4157 163.597ZM67.6736 165.995L68.4661 163.603C67.5737 161.931 67.2378 162.524 66.9901 163.674C66.9901 163.674 66.8098 164.921 67.2715 165.977C67.4155 166.305 67.5283 166.355 67.6736 165.995ZM73.5684 166.962L74.0482 164.403C73.7966 163.744 73.3881 163.16 73.0055 163.497C72.6203 163.839 72.3946 164.647 72.5087 165.328C72.6306 166.06 72.8628 166.646 73.0911 167.023C73.3388 167.429 73.4698 167.432 73.5684 166.962Z" fill="white"/>
<path fill-rule="evenodd" clip-rule="evenodd" d="M192.596 100.267C193.17 100.011 194.536 99.5728 195.378 100.655C195.037 101.941 194.574 103.192 193.995 104.391C193.57 103.665 192.779 102.95 191.338 103.067C191.857 102.133 192.279 101.204 192.596 100.267ZM191.7 107.829C191.7 107.829 191.844 106.29 190.089 105.864C190.089 105.864 191.63 105.269 192.977 106.264L191.7 107.829ZM187.269 108.453C187.53 108.173 187.783 107.896 188.027 107.619C188.667 107.709 189.964 108.067 190.44 109.451C189.874 110.022 189.273 110.56 188.641 111.059C187.177 112.144 185.485 113.025 183.78 113.79C183.799 113.113 183.634 112.086 182.608 111.578C184.564 110.654 186.182 109.617 187.269 108.453ZM178.813 113.107C179.446 113.388 180.14 113.987 180.24 115.26L179.905 115.392C179.15 115.686 178.319 115.976 177.436 116.258C176.009 114.71 173.899 115.117 173.899 115.117C174.641 115.658 174.887 116.397 174.951 117C173.54 117.391 172.122 117.75 170.695 118.075C170.363 116.827 169.573 116.142 168.712 115.777C172.148 115.073 175.685 114.191 178.813 113.107ZM122.397 152.374C121.196 152.898 120 153.251 118.782 153.499C120.074 146.23 117.308 139.804 117.308 139.804C116.891 145.951 115.562 150.595 113.955 154.078L112.671 154.161C112.131 154.194 111.235 154.124 110.165 153.994C110.143 153.158 110.09 152.323 110.007 151.491C109.243 146.156 107.302 142.536 107.302 142.536C107.829 148.325 107.451 158.48 105.535 160.527C104.411 161.728 94.2449 161.476 88.5123 159.635C82.624 157.742 79.7265 158.269 78.4879 158.882C78.497 161.524 76.5334 163.297 76.1287 163.706C75.5166 163.301 75.0341 162.802 74.715 162.201L74.466 161.221L74.3778 161.271C74.2364 160.607 74.2598 159.85 74.4868 158.986C74.4868 158.986 71.9758 159.956 71.0511 163.948C71.0511 163.948 68.6387 161.468 70.1678 158.515C70.1678 158.515 67.6569 158.996 66.2497 162.165L66.0227 162.428C65.8554 161.747 65.3314 159.066 66.9111 157.256C66.9111 157.256 66.4312 157.258 65.7179 157.388C65.0007 157.518 64.0461 157.773 63.1045 158.287C63.1045 158.287 65.0707 153.707 74.4712 154.284C73.0951 153.12 69.8449 153.335 69.8449 153.335C74.7708 152.383 77.3427 151.255 79.7006 150.595C82.2414 150.618 85.1972 151.113 86.4955 153.077C86.4955 153.077 86.5188 151.549 85.1194 150.052L85.2711 150.023C86.3113 150.076 86.93 149.995 87.524 149.82C88.9442 149.953 93.4693 150.758 95.4952 155.654C95.4952 155.654 95.6508 150.77 91.446 148.713C93.6249 147.923 97.0464 146.899 100.386 146.81C100.386 146.81 93.9492 144.846 86.0739 145.596C80.5709 146.12 79.2363 142.009 79.2363 142.009L79.4101 143.638C78.392 142.402 78.5229 141.684 75.6216 140.808L69.4065 137.677L75.0224 121.545L78.0599 121.95L78.7603 127.541L82.6525 128.734C82.6525 128.734 88.9078 130.161 93.9323 140.513C93.9323 140.513 93.3098 126.449 80.8614 122.324L83.8704 122.726C84.1596 122.767 84.502 122.828 84.8833 122.902C88.8028 124.022 93.7339 126.108 94.8584 129.68C94.8584 129.68 104.911 135.199 102.431 150.72C102.431 150.72 109.748 137.4 99.0813 128.302C99.0813 128.302 99.0748 126.888 98.1683 125.374C99.9905 125.556 101.827 125.632 103.601 125.543C107.531 128.217 112.174 133.817 112.195 145.37C112.195 145.37 118.081 131.398 109.089 124.634C110.908 124.144 112.716 123.507 114.563 122.817C116.769 124.756 119.343 128.249 120.206 134.306L121.05 129.315C121.052 129.318 125.416 137.644 122.397 152.374Z" fill="#D26E38"/>
<path fill-rule="evenodd" clip-rule="evenodd" d="M140.501 139.83C139.537 140.009 138.578 140.212 137.623 140.438C137.725 139.774 137.786 139.083 137.783 138.371C137.765 132.494 134.918 131.389 133.214 129.377C131.18 126.978 131.944 125.061 129.764 122.357C128.079 120.268 124.62 119.768 124.62 119.768C124.62 119.768 128.358 122.633 128.818 126.25C129.281 129.865 130.966 130.995 132.901 133.217C134.482 135.035 136.197 139.712 134.993 145.072C134.127 145.45 133.228 145.918 132.277 146.501C132.214 146.542 132.155 146.582 132.092 146.623C132.819 138.921 129.471 133.524 129.471 133.524C131.031 139.793 129.904 145.125 128.025 149.245C126.732 150.049 125.415 150.813 124.075 151.535C125.121 149.499 126.224 146.56 126.652 142.73C127.495 135.161 125.79 125.97 118.707 121.258C122.122 119.993 125.913 118.727 130.386 117.942C132.935 119.133 135.721 121.408 136.565 125.747C136.565 125.747 137.12 121.069 134.437 117.39C135.465 117.286 136.461 117.207 137.416 117.151C139.787 118.725 142.634 121.317 143.111 124.876C143.903 130.782 140.329 133.294 140.501 139.83Z" fill="#D26E38"/>
<path fill-rule="evenodd" clip-rule="evenodd" d="M149.481 139.613C146.858 139.023 143.812 139.259 140.955 139.752C141.5 138.011 142.65 134.946 144.504 132.892C147.219 129.886 147.81 125.576 147.057 122.682C146.371 120.043 145.15 118.269 143.903 117.081C147.419 117.218 149.957 117.619 151.265 117.872C151.89 119.44 152.49 122.137 150.953 124.996C148.843 128.925 145.729 133.004 149.481 139.613Z" fill="#D26E38"/>
<path fill-rule="evenodd" clip-rule="evenodd" d="M203.425 151.239C202.758 151.609 202.085 151.71 201.426 151.807C199.177 152.428 196.72 150.981 194.668 149.555L191.795 146.908C190.769 146.093 187.874 144.011 186.445 143.79C179.279 142.685 171.828 149.444 161.55 146.225C153.945 141.335 153.805 134.582 153.805 134.582C153.306 137.837 153.659 140.294 154.342 142.122C153.319 141.342 152.278 140.608 151.073 140.097C150.913 140.033 150.746 139.98 150.579 139.924C150.042 137.647 149.773 134.3 151.905 132.038C155.082 128.669 157.189 123.328 152.313 118.1C152.454 118.134 152.602 118.148 152.746 118.134C153.189 118.095 157.535 117.699 163.066 116.804C164.224 117.733 164.446 118.637 164.347 119.341C160.547 119.988 157.123 120.363 155.083 120.309C155.899 120.694 157.93 121.446 159.126 122.117C159.67 122.421 160.29 122.717 160.932 122.987C161.015 123.053 161.105 123.114 161.203 123.161C161.236 123.176 164.215 124.6 167.544 127.989C164.743 128.276 160.286 128.066 156.746 124.805C156.746 124.805 159.074 131.098 169.963 130.751L170.505 131.415C171.002 132.026 171.488 132.626 171.97 133.203C169.676 134.5 165.232 135.972 160.002 132.36C160.002 132.36 160.308 141.902 167.274 145.15C167.274 145.15 163.442 141.344 163.153 136.575C163.153 136.575 168.348 139.661 174.785 136.33C176.526 138.032 178.246 139.152 180.064 139.155C179.495 140.239 178.336 141.42 176.029 142.286C176.029 142.286 181.291 142.379 183.476 138.038C183.869 137.826 184.183 137.635 184.433 137.483C184.55 137.409 184.681 137.331 184.788 137.273C184.876 137.334 185.013 137.435 185.221 137.61C185.566 137.902 185.978 138.272 186.417 138.666C188.261 140.325 190.786 142.597 193.428 143.548C194.993 144.113 195.512 144.928 196.062 145.794C196.399 146.326 196.748 146.878 197.316 147.299C197.775 147.641 198.454 147.881 199.394 148.216C200.853 148.732 203.569 149.698 203.47 150.836C203.461 150.971 203.445 151.105 203.425 151.239ZM178.807 153.341C177.784 153.592 175.294 153.944 173.754 151.994C173.754 151.994 177.457 153.091 178.164 151.627C178.243 151.111 178.26 149.325 174.825 148.881C172.423 149.453 169.43 149.562 167.692 149.572C167.692 149.572 170.663 155.462 173.587 154.821C173.648 154.8 173.709 154.781 173.77 154.768C173.805 154.755 173.844 154.747 173.879 154.736L173.911 154.754C174.099 154.733 174.29 154.754 174.469 154.815C176.231 155.407 177.562 155.466 178.216 154.977C178.827 154.52 178.801 153.571 178.801 153.576C178.796 153.498 178.798 153.419 178.807 153.341ZM62.3867 155.599C62.3867 155.599 64.0002 152.19 68.6809 154.052C68.6809 154.051 65.7329 153.555 62.3867 155.599Z" fill="#D26E38"/>
<path fill-rule="evenodd" clip-rule="evenodd" d="M109.715 158.915L109.18 161.645C109.18 161.645 126.499 162.674 136.403 148.46C136.403 148.461 126.488 159.268 109.715 158.915ZM81.4385 160.405C81.4385 160.405 86.4461 160.783 90.6794 162.518C95.6235 164.544 100.964 165.793 106.462 164.402C106.462 164.402 101.147 164.631 94.5678 162.632C87.9882 160.633 83.8158 159.888 81.4385 160.405Z" fill="white"/>
<path fill-rule="evenodd" clip-rule="evenodd" d="M87.0529 139.709C83.8649 139.635 82.66 140.631 82.66 140.631L83.8999 142.278C83.0621 142.281 81.0401 142.478 79.7665 143.171L80.4863 144.28C76.4488 143.562 74.0857 144.756 73.0105 146.111C72.6318 146.587 72.1234 147.615 72.5332 148.966L71.6267 148.522C70.008 151.03 67.5256 151.512 64.8927 151.199C62.5115 150.918 61.3559 149.115 61.3559 149.115L62.2171 148.4L60.4973 147.483L61.6205 146.356C61.758 144.892 59.4247 141.583 57.7905 143.521C57.7905 143.521 56.0007 141.775 54.4158 139.726C52.718 137.53 51.9334 134.665 53.2018 131.984C54.5247 129.191 55.8152 128.354 55.3275 127.698C54.8619 127.073 53.8179 127.363 53.8179 127.363C55.1693 124.488 57.4351 122.738 57.4572 122.566C57.6336 122.064 55.085 120.297 55.6271 117.754C56.2004 115.061 58.6569 116.885 60.3274 118.24C60.6439 118.497 61.1108 118.864 61.5193 119.186C63.0355 118.331 65.0043 117.729 68.2817 117.598L70.3401 117.615L69.6838 118.225C69.6838 118.225 71.3945 118.19 72.4437 118.411C72.7109 118.143 72.9742 117.882 73.1688 117.66C74.4878 116.164 76.952 114.397 78.2529 117.112C79.0415 118.758 78.9727 120.598 78.4124 121.566C78.4124 121.566 79.0687 122.03 80.8443 123.352C83.8779 125.612 87.3551 128.746 87.0529 139.709Z" fill="black"/>
<path fill-rule="evenodd" clip-rule="evenodd" d="M61.4172 141.33C61.0149 141.26 60.6182 141.161 60.2305 141.033C60.2875 141.405 60.3848 141.809 60.5495 142.147C60.9659 143.003 61.4029 143.122 61.5871 143.072C61.7726 143.021 61.4717 142.567 61.4237 141.748C61.4145 141.609 61.4123 141.469 61.4172 141.33ZM66.7037 141.235C66.74 141.337 66.775 141.443 66.8061 141.554C67.0746 142.479 66.9203 143.097 67.1434 143.082C67.3664 143.064 67.8009 142.763 67.9267 141.653C67.9517 141.422 67.9547 141.188 67.9358 140.957C67.5304 141.072 67.1191 141.165 66.7037 141.235ZM63.1668 141.484C62.7319 141.48 62.2975 141.45 61.866 141.396C61.8427 141.402 61.8194 141.407 61.7959 141.412L62.1759 142.215L62.613 141.763L63.0034 141.984L63.4937 141.748L64.4418 142.045L64.8477 141.809L65.7932 142.224L65.814 141.363C64.9352 141.461 64.0509 141.502 63.1668 141.484Z" fill="white"/>
<path fill-rule="evenodd" clip-rule="evenodd" d="M75.1173 137.384C80.6178 131.651 76.4415 124.584 76.4415 124.584H76.4584C75.3676 123.638 74.4312 123.171 74.2873 123.101C74.8566 122.621 75.0797 121.991 75.1549 121.704L75.1562 121.701C75.161 121.681 75.1661 121.661 75.1718 121.641L75.1731 121.632L75.1822 121.592L75.1848 121.58L75.19 121.549L74.976 121.546L73.9086 121.537C74.1499 121.283 74.3574 120.999 74.5259 120.691C74.583 120.59 74.6375 120.489 74.6906 120.387L74.7684 120.23C74.8817 119.989 74.9877 119.744 75.0862 119.497C75.1734 119.27 75.2535 119.041 75.3261 118.81C75.1843 118.902 75.0389 118.989 74.8904 119.07L74.8696 119.081C74.7269 119.158 74.5843 119.228 74.4429 119.293L74.4131 119.308C74.2779 119.369 74.1412 119.427 74.0032 119.481L73.9747 119.493C73.8398 119.545 73.7114 119.592 73.5895 119.632C73.037 119.82 72.6375 119.898 72.6375 119.898L71.3678 120.667L71.9994 119.511C70.0021 119.145 67.8115 119.627 66.6494 119.959C66.3862 120.002 66.1262 120.063 65.8712 120.142L66.4509 119.304C66.4509 119.304 62.857 119.38 61.2799 121.44C59.5783 123.663 59.4096 124.92 59.4096 124.92C59.4096 124.92 59.957 123.424 61.5471 122.328C61.7273 122.193 61.9271 122.057 62.1346 121.946C62.1346 121.946 62.7079 121.545 63.975 121.335C64.0243 121.326 64.0671 121.313 64.1164 121.305C64.1126 121.309 64.1091 121.312 64.106 121.317C64.7982 121.218 65.4985 121.187 66.1967 121.226C67.6883 121.298 71.0409 120.327 71.7685 122.02C72.6751 124.128 69.386 127.214 69.386 127.214C70.1875 124.782 69.718 122.322 66.0126 122.344C64.4795 122.353 63.1164 123.008 62.2124 123.581L61.6975 124.263C60.3227 126.079 61.3824 127.774 61.3824 127.774C62.2137 127.357 62.8933 127.516 63.2863 127.676C62.6741 127.726 62.2461 127.965 62.0334 128.608C61.7792 129.381 62.5107 130.373 63.3291 131.248C62.6197 131.25 62.2578 130.923 61.8155 132.101C61.3733 133.276 60.695 135.26 60.695 135.26C60.3046 134.399 60.7287 133.076 60.8337 132.578C60.8337 132.578 60.4498 132.209 60.1191 132.639C59.4032 133.577 58.682 134.443 57.7158 135.755C57.5718 136.041 57.5264 136.371 57.8273 136.783L57.8105 136.773C58.4084 137.596 59.2125 138.227 60.0517 138.691C60.0517 138.691 58.638 138.587 57.3799 137.583L57.4071 137.679C58.1269 138.54 59.3059 139.595 60.9803 139.97C60.9803 139.97 59.9725 139.952 58.7352 139.622C59.4045 140.159 60.385 140.61 61.8078 140.787C62.0451 140.754 62.3149 140.673 62.5639 140.492C61.7611 139.821 60.3824 138.504 59.7417 136.908L60.0555 136.461C60.0555 136.461 60.3513 136.249 60.8091 136.35C61.2384 136.443 61.6923 136.988 62.2876 137.033C63.237 137.107 63.2617 136.364 65.0515 136.464L66.3096 137.158C66.3096 137.158 65.3096 137.804 64.6507 138.503C64.0827 139.103 63.8751 139.883 63.7986 140.38C63.9594 140.529 64.6079 140.929 66.7894 140.568C68.4612 140.324 69.3549 139.957 70.2913 139.308C67.8141 140.241 65.1799 139.965 65.1799 139.965C69.7349 139.313 71.6777 136.874 72.2199 136.039L72.2186 136.033C69.7141 138.266 66.6948 138.491 66.6948 138.491C68.5732 137.802 70.239 136.633 71.5273 135.102C71.753 134.752 71.8399 134.517 71.8204 134.241C71.8163 134.222 71.8115 134.204 71.8061 134.185C71.3289 132.386 70.2135 132.888 67.9827 134.469C67.9827 134.469 68.0968 133.499 68.0722 132.919C68.0332 132 66.9749 132.643 66.3576 133.034C66.3576 133.034 66.757 131.587 66.2603 131.253C65.9308 131.032 64.8544 131.25 64.8544 131.25C66.3394 129.799 67.2862 129.685 67.0333 128.686C66.7804 127.687 65.5716 127.7 65.5716 127.7C65.5716 127.7 68.3186 126.978 68.6623 129.165C68.6623 129.165 69.8088 129.119 70.9891 128.511C72.893 127.53 73.2121 124.96 73.2121 124.96C74.0901 125.725 74.784 130.36 71.3431 131.572C72.9695 131.8 74.1991 134.28 72.8762 137.844C72.5467 138.734 72.2821 139.197 72.2821 139.197C72.085 139.566 71.635 140.483 71.2951 141.549C72.1719 141.4 73.5843 140.972 75.2302 139.748C77.1821 137.994 77.5077 136.262 77.5077 136.262L75.1173 137.384Z" fill="#D26E38"/>
<path fill-rule="evenodd" clip-rule="evenodd" d="M59.7469 136.91L59.7767 136.867C59.0193 136.487 58.4162 135.932 57.9713 135.413L57.7171 135.756C57.5744 136.045 57.5291 136.372 57.83 136.784L57.8131 136.774C58.411 137.597 59.2151 138.228 60.0543 138.692C60.0543 138.692 58.6406 138.588 57.3838 137.587L57.411 137.68C58.1308 138.542 59.3085 139.596 60.9829 139.971C60.9829 139.971 59.979 139.953 58.743 139.623C59.4123 140.16 60.385 140.614 61.8026 140.788C62.0412 140.755 62.3136 140.676 62.5665 140.493C61.7676 139.823 60.3876 138.505 59.7469 136.91ZM66.7921 140.57C68.4392 140.326 69.3536 139.954 70.2822 139.316C67.8089 140.243 65.1825 139.967 65.1825 139.967C69.7375 139.316 71.6804 136.876 72.2225 136.041L72.2212 136.036C69.7167 138.268 66.6974 138.494 66.6974 138.494C68.5758 137.804 70.2416 136.636 71.5299 135.105C71.7556 134.754 71.8425 134.52 71.823 134.243C71.8189 134.225 71.8141 134.206 71.8088 134.188L71.7945 134.145C69.9878 136.25 67.687 136.924 66.2655 137.137L66.3122 137.163C66.3122 137.163 65.3122 137.809 64.6533 138.508C64.0853 139.108 63.8778 139.888 63.8012 140.385C63.9608 140.532 64.6092 140.932 66.7921 140.57ZM64.2474 122.632C63.5315 122.856 62.8485 123.175 62.2163 123.58L61.7001 124.263C60.3253 126.079 61.385 127.774 61.385 127.774C61.4909 127.721 61.6006 127.675 61.7131 127.638C61.6418 126.617 61.8791 124.615 64.2811 122.625L64.2474 122.632ZM71.858 123.424C71.4521 125.277 69.3873 127.215 69.3873 127.215C70.063 125.161 69.8257 123.095 67.508 122.512C68.8594 124.871 68.5365 126.906 68.1124 128.087C68.3809 128.325 68.5871 128.666 68.6649 129.166C68.6649 129.166 69.8114 129.12 70.9917 128.512C72.8956 127.532 73.2147 124.961 73.2147 124.961C74.0927 125.726 74.7866 130.362 71.3457 131.573C71.6713 131.618 71.9787 131.758 72.2549 131.974C73.4689 131.455 74.2263 130.533 74.487 128.866C74.8541 126.519 74.0175 123.908 71.858 123.424Z" fill="white"/>
<path fill-rule="evenodd" clip-rule="evenodd" d="M65.9787 124.433C64.7505 124.35 64.2537 124.279 63.0903 125.12C62.6351 125.449 62.1072 126.113 62.5469 126.459C62.6351 126.637 62.8841 126.419 63.1474 126.329C64.1979 125.8 64.9619 125.736 66.1045 126.521C66.3691 126.696 67.2783 126.716 67.4521 126.277C67.8878 125.665 67.478 124.586 65.9787 124.433Z" fill="black"/>
<path fill-rule="evenodd" clip-rule="evenodd" d="M61.0842 124.428C61.0842 124.428 63.2813 122.362 66.014 122.345C69.7194 122.323 70.189 124.783 69.3874 127.215C69.3874 127.215 72.6766 124.13 71.77 122.021C71.0424 120.328 67.6897 121.298 66.1982 121.227C63.3604 121.088 62.1347 121.947 62.1347 121.947C61.4927 122.293 60.8857 122.89 60.8857 122.89L61.0842 124.428Z" fill="black"/>
<path fill-rule="evenodd" clip-rule="evenodd" d="M67.1664 145.981C68.2326 145.763 68.3674 144.591 68.3674 144.591C68.7838 145.915 68.1068 146.409 68.1068 146.409C65.3144 146.199 63.8708 146.545 63.8708 146.545C62.9772 146.046 63.0421 144.95 63.0421 144.95C63.5557 145.455 64.138 145.897 64.6879 146.037L64.5375 145.622C64.5375 145.622 65.387 146.22 67.0601 145.579L67.1664 145.981Z" fill="white"/>
<path fill-rule="evenodd" clip-rule="evenodd" d="M56.4741 133.855L55.4054 135.116C55.2316 132.403 56.2017 130.101 56.2017 130.101C50.5235 136.616 57.7308 140.36 57.7308 140.36C57.7308 140.36 55.4676 137.166 56.4741 133.855Z" fill="#D26E38"/>
<path fill-rule="evenodd" clip-rule="evenodd" d="M82.5854 128.492C81.2975 125.882 77.1225 123.142 76.0253 122.452C76.3702 122.103 76.682 121.723 76.9565 121.317C77.6646 120.275 77.5752 119.216 77.5752 119.216L76.7723 119.539C77.5194 118.188 77.2107 117.222 76.3884 117.131C75.0305 117.316 73.3042 119.168 72.6752 119.89C72.897 119.843 74.2173 119.54 75.3275 118.81C75.3275 118.81 74.7841 120.655 73.9099 121.536L75.1913 121.548C75.1913 121.548 75.0486 122.461 74.2886 123.1C74.5947 123.247 78.4558 125.153 79.758 129.707L79.7943 129.89C80.3455 131.848 80.2119 133.35 80.2119 133.35L81.4557 132.611C81.4557 132.611 81.4025 135.843 78.972 138.463C78.2707 139.21 77.4652 139.853 76.5804 140.371L76.6997 140.333C75.9578 140.695 75.2468 141.117 74.5739 141.595C72.0799 143.033 71.5611 144.883 71.5611 144.883L70.7699 143.591C70.7275 144.071 70.6578 144.548 70.5611 145.02C69.9736 147.021 68.9931 147.561 68.2732 147.766C67.3952 148.016 66.5924 148.007 66.5924 148.007C65.0451 148.042 64.2824 147.954 63.4524 147.752C63.1165 147.82 63.1009 148.225 63.2967 148.469C63.5017 148.785 63.4446 148.639 63.6158 148.859C63.9323 148.7 64.857 148.508 65.1735 148.347C64.9024 148.552 64.4718 149.025 64.3538 149.381C64.4264 149.452 64.5003 149.513 64.5756 149.569C64.9945 149.478 65.5885 149.159 65.9504 148.902C65.9011 149.181 65.6741 149.361 65.63 149.667C66.1929 149.733 66.8505 149.789 68.1617 149.478C68.7574 149.335 69.2911 149.003 69.6831 148.532C70.5676 147.836 71.0838 145.495 71.0838 145.495L71.6648 146.521C72.2018 143.887 74.1524 142.931 74.1524 142.931L74.1615 142.92C76.0498 141.839 78.2204 141.353 80.3896 141.525L79.2431 140.266C81.3844 138.586 83.9848 138.004 83.9848 138.004C83.9848 138.004 84.7007 132.704 82.7306 128.744L82.5854 128.492Z" fill="white"/>
<path fill-rule="evenodd" clip-rule="evenodd" d="M69.6091 131.183C69.7667 131.175 69.9212 131.135 70.0637 131.067C70.2062 130.999 70.3338 130.904 70.4394 130.786C70.5449 130.669 70.6262 130.532 70.6787 130.383C70.7312 130.234 70.7538 130.076 70.7452 129.918C70.7426 129.881 70.7322 129.842 70.7271 129.807C70.5416 129.804 70.338 129.828 70.159 129.886C70.22 130.064 70.2077 130.26 70.1248 130.429C70.0419 130.598 69.8951 130.728 69.7167 130.789C69.5383 130.85 69.343 130.837 69.1738 130.754C69.0045 130.672 68.8751 130.525 68.814 130.346C68.5598 130.407 68.517 130.527 68.5442 130.638C68.6591 130.814 68.8177 130.956 69.0045 131.052C69.1912 131.147 69.3995 131.192 69.6091 131.183Z" fill="white"/>
<path fill-rule="evenodd" clip-rule="evenodd" d="M69.6901 130.245C69.7095 130.245 69.7287 130.241 69.7466 130.233C69.7645 130.226 69.7808 130.215 69.7945 130.201C69.8081 130.187 69.8189 130.171 69.8263 130.153C69.8336 130.135 69.8374 130.116 69.8373 130.097C69.8372 130.077 69.8333 130.058 69.8258 130.04C69.8183 130.022 69.8073 130.006 69.7935 129.992C69.7797 129.978 69.7634 129.968 69.7454 129.96C69.7275 129.953 69.7082 129.949 69.6888 129.949C69.6694 129.949 69.6502 129.953 69.6323 129.961C69.6144 129.968 69.5981 129.979 69.5844 129.993C69.5708 130.007 69.5599 130.023 69.5526 130.041C69.5452 130.059 69.5415 130.078 69.5416 130.098C69.5417 130.117 69.5456 130.136 69.5531 130.154C69.5606 130.172 69.5716 130.188 69.5854 130.202C69.5991 130.216 69.6155 130.227 69.6335 130.234C69.6514 130.241 69.6707 130.245 69.6901 130.245ZM60.7007 130.532C60.6233 130.658 60.5084 130.757 60.3719 130.815C60.2355 130.874 60.0843 130.888 59.9394 130.856C59.8351 130.832 59.7373 130.785 59.6535 130.719C59.5697 130.652 59.5019 130.568 59.4552 130.472C59.4085 130.375 59.3841 130.27 59.3837 130.163C59.3833 130.056 59.407 129.95 59.4531 129.853C59.2806 129.767 59.096 129.708 58.9057 129.678C58.8941 129.716 58.8785 129.75 58.8694 129.787C58.7456 129.922 58.6544 130.084 58.6029 130.26C58.5514 130.436 58.541 130.621 58.5725 130.802C58.6039 130.982 58.6764 131.153 58.7844 131.301C58.8923 131.449 59.0328 131.571 59.1951 131.656C59.3573 131.741 59.537 131.788 59.7202 131.793C59.9034 131.798 60.0853 131.76 60.2518 131.684C60.4183 131.607 60.565 131.494 60.6806 131.351C60.7963 131.209 60.8777 131.042 60.9186 130.864C60.964 130.759 60.942 130.633 60.7007 130.532Z" fill="white"/>
<path fill-rule="evenodd" clip-rule="evenodd" d="M59.8687 130.277C59.8881 130.277 59.9073 130.273 59.9252 130.266C59.9431 130.258 59.9594 130.247 59.9731 130.233C59.9867 130.22 59.9976 130.203 60.0049 130.185C60.0123 130.167 60.016 130.148 60.0159 130.129C60.0158 130.109 60.0119 130.09 60.0044 130.072C59.9969 130.054 59.9859 130.038 59.9722 130.024C59.9584 130.011 59.942 130 59.924 129.992C59.9061 129.985 59.8868 129.981 59.8674 129.981C59.7857 129.981 59.7196 130.05 59.7196 130.131C59.7196 130.211 59.787 130.277 59.8687 130.277ZM58.0166 119.489L58.8856 119.298L57.7754 117.713C61.263 119.017 59.5821 121.843 59.5821 121.843C59.5821 121.843 59.4653 119.942 58.0166 119.489Z" fill="white"/>
</svg>
