<svg width="75" height="75" viewBox="0 0 159 101" fill="none" xmlns="http://www.w3.org/2000/svg">
<path d="M152.434 44.543C151.095 43.3392 150.001 42.6748 149.656 42.3801C147.678 40.8016 149.336 42.0594 147.438 40.8316C146.075 39.9774 145.7 39.2831 144.312 38.5088C141.824 37.0902 141.559 36.6906 139.556 34.2879C137.818 31.106 135.12 30.6514 132.413 30.037C129.796 29.4476 127.922 27.3646 127.468 26.6453C126.079 24.3725 123.806 23.2786 122.602 22.6092C118.886 20.5762 114.61 20.9258 111.263 17.9337C106.218 14.3522 104.87 15.0216 99.5748 14.8617C96.6376 14.7818 92.8313 12.9086 91.5825 11.8696C90.5385 10.9855 89.3097 10.426 88.2407 10.0813C84.4993 8.93244 81.9468 10.9105 76.7019 8.37298C75.1783 7.6237 73.7897 6.60968 72.2911 5.72554C71.7916 5.34091 71.2921 5.07616 69.7935 4.75647C66.7964 4.16704 64.2989 4.54168 61.3018 4.8364C59.3037 4.96627 58.8042 4.13707 57.3056 3.36282C55.8071 2.64352 54.3085 2.10903 52.81 1.78934C50.3623 1.35976 47.7648 1.65447 45.1174 2.18896C39.8725 3.23295 35.1271 0.585505 30.032 1.06504C29.1828 1.14496 27.5344 2.21393 26.935 3.41777C26.1857 5.02122 26.1857 5.95532 26.2956 7.55877C26.4559 9.72167 26.6962 9.88152 27.1248 11.2752C28.0339 14.3222 28.5134 15.9806 29.2377 18.0187C30.0919 20.3964 30.0669 23.3135 28.0339 24.2626C27.0698 24.7172 25.4414 24.7172 24.5323 24.0219C23.1137 22.9279 22.3394 21.4294 20.736 21.1097C18.598 20.6821 16.0305 22.873 13.7427 23.4874C11.4699 24.0768 11.1752 22.848 9.60172 22.1237C8.55773 21.6427 7.54371 22.3375 6.95428 22.6831C5.88531 23.2726 5.64555 24.5014 5.37581 25.8101C5.18899 26.8541 5.08209 27.8132 5.34908 28.9621C5.72322 30.6205 6.28318 31.6095 6.31315 32.7584C6.42005 35.6456 5.93901 37.8035 4.76465 39.3021C4.01537 40.2662 3.00135 42.9635 2.70664 43.9526C1.66265 47.2644 1.77254 46.7049 1.26303 49.7969C0.995791 51.3754 1.04924 53.1387 0.915368 54.6073C0.888644 54.8745 1.10219 58.2138 1.26303 59.2328C1.66365 61.7204 2.11721 63.2939 2.65169 65.3769C3.40097 68.399 3.72066 70.2672 3.64073 72.5699C3.56081 74.9476 2.06226 77.1955 3.48039 78.8638C4.36453 79.9078 6.68729 80.8419 8.57546 80.0127C10.4986 79.1586 11.8873 78.1695 13.3858 77.9547C16.1382 77.5806 17.9314 78.7539 19.1303 78.6241C20.1992 78.4902 22.0424 77.4502 22.9266 77.3703C23.6209 77.3168 25.1444 77.2364 25.6789 77.6375C26.5331 78.2769 27.0426 78.9762 26.9077 81.1391C26.9077 81.1659 26.3982 83.4619 26.3982 83.4919C25.5141 86.3491 24.58 89.0365 24.1254 90.9846C23.6444 93.0426 21.3981 97.5283 25.9687 99.3266C27.8918 100.101 29.9248 99.941 32.4624 99.2998C33.7461 98.9792 34.2806 98.9257 35.4845 98.7104C35.4845 98.6305 37.2727 98.657 37.2727 98.5765L38.8762 98.4966C41.7084 98.1759 42.3778 98.3627 44.8704 98.7104C47.2231 99.0041 49.4659 99.4597 51.8137 99.1914C52.9875 99.0576 54.1364 98.8438 55.2603 98.4721C58.5222 97.4281 60.0457 96.0145 63.9519 95.48C67.2138 95.0255 67.2138 95.5869 70.096 95.4533C73.0881 95.3194 74.7465 94.0347 75.9903 93.3403C77.5138 92.5111 77.9134 92.4312 78.9275 91.8967C82.6139 89.9187 86.9697 90.1584 91.1157 89.1444C94.0279 88.4251 95.1768 87.0614 98.4586 86.1773C99.7673 85.8296 101.186 85.8566 102.575 85.6678C103.644 85.5074 105.512 84.5738 106.556 83.6098C108.344 81.9514 108.159 81.8714 109.548 81.0972C111.871 79.7884 114.518 79.8134 116.891 78.7195C119.084 77.7055 121.326 76.8513 123.035 75.113C125.547 72.5754 129.529 71.8511 132.775 70.6773C134.699 69.9829 137.236 68.7241 139.369 65.0827C141.452 61.5011 143.295 60.9666 146.962 59.8877C149.419 59.1384 150.488 58.6339 152.406 56.8406C154.115 55.2372 154.729 54.1932 155.508 53.0743C156.393 51.7905 158.101 49.6526 156.283 48.0291C155.483 47.3098 154.654 45.9961 152.941 44.6624" fill="black"/>
<path d="M149.941 47.6399C147.803 46.1164 147.618 45.8517 146.495 45.1024C143.607 43.1792 143.048 42.7496 141.629 41.1212C140.241 39.5427 139.866 39.0083 138.287 38.1541C137.698 37.8064 133.717 36.4457 134.441 36.5756C130.805 35.9362 130.675 35.157 129.246 33.8233C128.042 32.085 126.629 30.002 125.4 29.1977C125.881 29.4915 123.182 27.7292 123.207 27.7791C121.149 27.0598 120.43 27.2446 117.812 27.1397C117.892 27.1397 114.98 26.7391 114.231 26.3905C112.892 25.801 112.173 25.1067 111.264 24.4124C109.231 22.8888 109.795 23.2385 107.787 21.7649C105.06 19.7868 104.715 20.2664 101.243 19.9217C98.3061 19.628 96.1982 18.9327 93.9004 17.2743C89.8093 14.3071 85.8082 15.3511 83.3106 14.9765C79.7041 14.442 77.1665 12.9734 75.8179 12.1193C72.9057 10.276 73.575 11.1302 70.473 9.68661C66.7566 7.92331 63.28 10.8605 58.9342 9.63316C56.6364 8.99378 55.7822 7.78994 54.3086 7.25546C49.8629 5.95671 48.3644 6.65604 44.7679 6.70599C40.472 6.70599 36.6257 5.5571 32.5297 5.60705C31.3808 5.60705 30.4967 6.57112 30.6615 7.87985C30.6615 7.87985 30.7149 9.45833 30.7149 9.4833C30.9287 10.792 31.4093 12.1807 31.8089 13.6243C32.3184 15.3876 32.5831 15.977 33.3074 18.7693C33.5747 21.0122 33.3074 21.6266 33.1471 22.5906C33.0132 23.3649 32.5077 24.8884 32.1331 25.4479C31.7055 26.0873 31.144 26.332 30.3948 26.7866C29.111 27.5608 27.7773 27.9105 26.3886 27.8805C24.945 27.8271 25.3197 27.8271 23.0469 26.9964C22.2177 26.6757 20.5093 25.7126 18.796 26.4369C15.5091 27.8256 15.1345 26.6777 13.3512 26.8111C12.8167 26.8378 12.2823 27.1048 11.7728 27.3455C10.9436 27.6932 10.5689 28.2297 10.0344 29.3236C9.71374 29.993 9.47497 31.0869 9.60685 32.076C9.42003 32.076 9.92754 33.6245 9.92754 33.6794C10.3282 35.7924 10.437 37.4458 9.63382 39.324C8.85957 41.0873 8.64478 41.7017 7.65573 43.1453C6.69167 44.5339 5.00829 48.5401 4.87842 52.2365C5.01229 52.1026 4.85169 56.6172 5.38793 59.2797C5.97736 62.2168 6.83153 62.4616 7.01635 67.3219C7.09627 69.1651 6.90946 70.7686 6.85601 72.417C6.82928 73.4859 7.1767 74.9845 8.5144 74.7697C10.4375 74.476 12.6054 73.406 14.109 73.3511C14.8583 73.3243 16.142 73.5649 16.6765 73.7252C19.7236 74.7942 18.7095 73.9924 23.4699 73.1657C25.0484 72.872 27.2363 73.2192 28.0955 73.7252C30.9028 75.3536 30.663 78.9202 29.8588 82.4668C29.7249 83.0262 29.0296 86.7426 28.8697 87.3021C28.3887 89.1703 28.4421 89.2802 28.2004 91.2832C28.0935 92.2473 28.1469 92.9916 28.6814 93.8757C29.136 94.595 29.6455 95.1045 30.3398 95.1045C33.4418 95.1845 35.1502 95.1045 38.3321 94.5451C42.4481 93.7958 44.5261 93.7958 47.3733 94.064C50.2855 94.3313 54.4165 94.2509 56.1149 93.6095C57.6634 93.05 59.7214 91.8462 61.3598 91.4965C66.7546 90.3476 66.9544 90.8821 71.3502 90.3227C74.8518 89.8681 76.6451 88.1048 78.4433 87.1707C80.9009 85.862 83.0688 85.4074 85.8861 85.4074C87.5445 85.4074 89.9222 84.848 91.0811 84.3135C95.7316 82.2005 93.9933 82.3354 100.472 81.1315C103.759 80.5171 106.117 77.8997 108.165 76.7758C109.473 76.0265 110.622 75.4371 112.091 74.9875C114.069 74.3981 116.287 74.0784 118.185 73.439C121.232 72.37 122.166 71.326 123.829 69.8325C125.218 68.5787 125.673 68.6037 127.221 67.6396C128.8 66.6505 131.097 65.9312 131.977 65.6615C133.98 65.0471 136.922 61.6803 139.669 58.918C142.901 55.6062 145.913 56.1657 149.51 54.2425C151.702 53.0936 153.116 52.3194 152.102 50.2364C151.701 49.4072 150.604 48.3932 149.724 47.7788" fill="white"/>
<path d="M77.0617 64.1241C70.2682 58.8292 72.1964 54.0838 75.0586 51.8859L75.9128 52.82L74.4692 54.3436L74.5761 59.8383H94.1571L96.6697 57.4306V51.4364H95.1712L88.3777 44.1434C101.415 41.3661 107.809 47.0556 111.655 53.3345H116.75L119.343 50.822V36.336H113.898L110.636 38.339C99.1473 32.7444 90.156 33.3439 81.1647 36.291L79.6961 34.7925L87.9881 29.8472L92.9833 29.8205L95.4409 27.4978V22.5825H75.4602L73.3472 24.7454V28.1122L54.6154 38.8518V30.6098L57.6374 27.5627V22.5925H38.0064L35.334 25.7195V29.6457H38.5409V50.8752H37.5518C37.5518 50.8752 34.9344 53.8423 35.0642 53.8973V59.3919H55.7443L57.8023 57.4688V50.8752H54.7552V49.1918L66.1442 42.6481L67.1083 43.6372C64.5707 45.4254 62.5627 47.1138 61.0641 49.7812C58.8213 53.4976 58.0171 58.6726 59.3258 62.8186C60.18 65.5959 61.2489 67.2793 63.1221 69.2125C64.9104 71.0557 66.4339 72.1246 69.3661 73.5133C71.7738 74.7171 77.4083 76.4255 81.8041 76.88C86.055 77.2007 91.3948 77.1473 94.8914 76.6932C98.7377 76.2926 102.734 74.9049 105.132 73.9159C107.055 72.9818 109.193 72.1276 110.826 70.8439C114.942 67.8767 119.318 63.4011 119.368 57.8065H111.675C109.268 66.3982 86 70.2944 76.659 63.6508" fill="black"/>
<path d="M77.0617 64.1241C70.2682 58.8292 72.1964 54.0838 75.0586 51.8859L75.9128 52.82L74.4692 54.3436L74.5761 59.8383H94.1571L96.6697 57.4306V51.4364H95.1712L88.3777 44.1434C101.415 41.3661 107.809 47.0556 111.655 53.3345H116.75L119.343 50.822V36.336H113.898L110.636 38.339C99.1473 32.7444 90.156 33.3439 81.1647 36.291L79.6961 34.7925L87.9881 29.8472L92.9833 29.8205L95.4409 27.4978V22.5825H75.4602L73.3472 24.7454V28.1122L54.6154 38.8518V30.6098L57.6374 27.5627V22.5925H38.0064L35.334 25.7195V29.6457H38.5409V50.8752H37.5518C37.5518 50.8752 34.9344 53.8423 35.0642 53.8973V59.3919H55.7443L57.8023 57.4688V50.8752H54.7552V49.1918L66.1442 42.6481L67.1083 43.6372C64.5707 45.4254 62.5627 47.1138 61.0641 49.7812C58.8213 53.4976 58.0171 58.6726 59.3258 62.8186C60.18 65.5959 61.2489 67.2793 63.1221 69.2125C64.9104 71.0557 66.4339 72.1246 69.3661 73.5133C71.7738 74.7171 77.4083 76.4255 81.8041 76.88C86.055 77.2007 91.3948 77.1473 94.8914 76.6932C98.7377 76.2926 102.734 74.9049 105.132 73.9159C107.055 72.9818 109.193 72.1276 110.826 70.8439C114.942 67.8767 119.318 63.4011 119.368 57.8065H111.675C109.268 66.3982 86 70.2944 76.659 63.6508" stroke="black" stroke-width="0.499517"/>
<path d="M94.8549 23.9276L76.3622 23.9539V27.1611H78.5264L54.0746 41.1105V27.1871L57.1206 27.1607V23.9536H39.1895V27.1607H42.2355V52.7886H39.1895V56.4762H57.1206V52.7886H54.2084V48.4593L68.1043 40.4951L79.6232 52.762L77.0567 52.7346V56.4759H95.6568V52.762H95.0689L78.2059 34.5634L90.7393 27.1871L94.8547 27.1334L94.8549 23.9276ZM94.9545 35.4649C89.1453 35.4257 85.0146 36.818 83.0156 37.4494L87.7999 42.6871C98.0883 40.2286 109.124 42.7939 113.961 50.0888L118.612 50.0371L118.665 37.1821H114.39L111.344 39.1871C105.007 36.3928 99.4726 35.4955 94.9545 35.4649ZM113.961 50.0888L113.856 50.0894H113.962C113.962 50.089 113.961 50.0892 113.961 50.0888ZM68.8546 44.9583C64.5788 47.8712 63.1364 50.5969 62.2009 53.2425C61.4794 55.4339 60.4635 59.8973 62.5212 64.0659C65.0332 68.3952 69.0954 70.9076 71.8215 71.8962C76.2844 73.7668 83.4989 75.4767 91.6767 75.156C97.5294 75.0224 102.634 73.9534 107.551 71.4947C110.411 69.9715 110.999 69.6246 113.858 66.979C115.996 64.5204 117.732 62.9972 118.454 59.2022H113.537C111.559 62.4625 108.834 65.0539 102.58 66.898L102.634 66.9253C90.5545 70.5064 78.9292 68.7162 73.7715 62.3558C69.4956 57.4386 71.4998 53.1085 74.2256 50.7569L68.8504 44.9628L68.8546 44.9583Z" fill="#E31837"/>
<path d="M113.961 50.0888C109.124 42.7939 98.0883 40.2286 87.7999 42.6871L83.0156 37.4494C85.0146 36.818 89.1453 35.4257 94.9545 35.4649C99.4726 35.4955 105.007 36.3928 111.344 39.1871L114.39 37.1821H118.665L118.612 50.0371L113.961 50.0888ZM113.961 50.0888L113.856 50.0894H113.962C113.962 50.089 113.961 50.0892 113.961 50.0888ZM94.8549 23.9276L76.3622 23.9539V27.1611H78.5264L54.0746 41.1105V27.1871L57.1206 27.1607V23.9536H39.1895V27.1607H42.2355V52.7886H39.1895V56.4762H57.1206V52.7886H54.2084V48.4593L68.1043 40.4951L79.6232 52.762L77.0567 52.7346V56.4759H95.6568V52.762H95.0689L78.2059 34.5634L90.7393 27.1871L94.8547 27.1334L94.8549 23.9276ZM68.8546 44.9583C64.5788 47.8712 63.1364 50.5969 62.2009 53.2425C61.4794 55.4339 60.4635 59.8973 62.5212 64.0659C65.0332 68.3952 69.0954 70.9076 71.8215 71.8962C76.2844 73.7668 83.4989 75.4767 91.6767 75.156C97.5294 75.0224 102.634 73.9534 107.551 71.4947C110.411 69.9715 110.999 69.6246 113.858 66.979C115.996 64.5204 117.732 62.9972 118.454 59.2022H113.537C111.559 62.4625 108.834 65.0539 102.58 66.898L102.634 66.9253C90.5545 70.5064 78.9292 68.7162 73.7715 62.3558C69.4956 57.4386 71.4998 53.1085 74.2256 50.7569L68.8504 44.9628L68.8546 44.9583Z" stroke="#E31837" stroke-width="0.267239"/>
</svg>
