<svg width="50" height="50" viewBox="0 0 344 200" fill="none" xmlns="http://www.w3.org/2000/svg">
<g clip-path="url(#clip0_486_1206)">
<path d="M0.0132296 53.873C0.0132296 53.873 -1.78977 87.529 37.5002 108.926C37.5002 108.926 53.3192 117.356 90.5492 124.204C123.251 130.226 140.813 142.955 147.782 150.954C156.693 161.179 165.434 179.713 169.366 195.963C169.366 195.963 169.366 200.184 172.395 199.994C172.395 199.994 175.047 200.183 174.857 196.396C174.857 196.396 173.909 170.837 181.292 158.532C186.946 148.425 197.084 139.686 213.858 133.538C213.858 133.538 225.03 142.06 240.933 142.06C252.48 142.06 262.706 137.135 262.706 137.135C262.706 137.135 282.963 144.141 285.238 155.119C285.238 155.119 285.428 157.773 284.67 159.665L310.039 160.992L323.861 148.495C323.861 148.495 298.113 146.601 297.545 139.216C297.545 139.216 297.145 135.79 304.095 135.79C304.095 135.79 320.115 135.524 335.032 157.832L343.575 135.391C343.575 135.391 337.023 132.116 337.156 126.099C337.156 126.099 337.023 122.425 339.901 115.076L329.279 110.251C329.279 110.251 323.524 104.852 289.046 83.343L293.515 80.468L255.365 63.956C255.365 63.956 243.148 44.704 209.072 44.57C209.072 44.57 182.471 0.930953 140.023 0.930953C140.023 0.930953 124.357 0.000952721 106.432 9.42895C106.432 9.42895 99.2592 12.704 92.3122 16.645C92.3122 16.645 77.7502 26.734 61.1092 4.73695C61.1092 4.73695 55.0462 30.716 73.2812 41.829C73.2812 41.829 55.8432 45.501 49.6912 30.544C49.6912 30.544 44.0692 19.124 45.6202 0.00195312C45.6202 0.00195312 32.2542 12.086 32.2542 35.277C32.2542 35.277 32.1212 50.06 41.9452 60.152C41.9452 60.152 36.9892 59.398 29.1102 64.357C29.1052 64.354 15.3422 74.314 0.0132296 53.873Z" fill="#002244"/>
<path d="M65.037 16.2482C65.037 16.2482 67.597 39.1612 87.101 39.1612C87.101 39.1612 94.766 39.1612 101.769 36.5072C108.775 33.8532 118.999 28.6412 132.631 28.6412C132.631 28.6412 150.425 26.9442 160.365 46.6392C160.365 46.6392 183.089 45.3982 204.386 49.3842C204.386 49.3842 180.153 6.68418 138.032 7.34518C138.032 7.34518 125.72 6.68418 109.339 14.9152L102.713 18.0392C97.892 20.3162 95.992 21.4472 95.992 21.4472C95.992 21.4472 89.176 25.5302 82.655 25.3292C82.655 25.3292 74.131 26.0002 65.037 16.2482ZM40.917 17.0132C40.917 17.0132 29.632 48.1372 54.337 62.0502C58.937 65.0432 66.281 67.8172 74.574 68.0292C74.574 68.0292 108.339 51.9392 145.087 47.6872C145.087 47.6872 140.837 38.6232 124.219 38.6232C124.219 38.6232 114.067 38.0252 95.654 43.1192C95.654 43.1192 90.666 44.3832 84.814 46.3852C76.45 48.4342 62.499 50.4952 53.494 44.8072C53.494 44.8072 41.232 38.7262 40.917 17.0132ZM9.18799 69.3982C9.18799 69.3982 12.246 86.0142 31.325 86.0142C31.325 86.0142 44.675 86.3322 63.505 74.8422C63.505 74.8422 57.005 72.3142 53.705 70.1702C53.705 70.1702 46.783 64.9342 39.441 66.9742C39.441 66.9742 38.175 67.2182 31.465 70.0662C31.465 70.0662 26.757 73.1222 20.047 73.1222C20.047 73.1222 13.229 73.0172 9.18799 69.3982Z" fill="#FB4F14"/>
<path d="M112.297 123.079C112.297 123.079 150.305 82.8771 205.182 96.8551C205.182 96.8551 207.895 128.329 241.805 130.243C241.805 130.243 253.352 130.938 264.266 123.251L285.586 131.218L263.224 117.132C263.224 117.132 256.062 124.12 243.125 124.12C230.187 124.12 214.472 111.009 215.862 92.4021C215.862 92.4021 192.353 80.6161 166.131 74.4951L173.99 86.9111C173.99 86.9111 123.045 83.6771 81.2794 116.087C81.2794 116.087 41.4274 107.253 36.6284 99.5701C36.6284 99.5701 118.67 32.8821 223.68 59.9321C223.68 59.9321 224.908 58.1311 221.856 55.6171C221.856 55.6171 217.916 52.6651 212.067 50.9111C212.067 50.9111 237.754 49.5391 251.156 69.0191L280.682 81.4331L277.581 83.618C277.581 83.618 322.721 111.684 325.741 115.609L332.038 118.241C332.038 118.241 327.56 131.354 336.746 138.428L333.338 147.451C333.338 147.451 318.243 131.189 303.184 130.542C303.184 130.542 292.053 130.28 292.053 139.209C292.053 139.209 290.721 148.747 312.89 151.505L308.312 155.73L291.403 154.656C291.403 154.656 291.793 140.895 262.287 130.152C262.287 130.152 238.069 144.556 215.127 126.787C215.127 126.787 173.32 136.831 169.546 175.317C169.546 175.317 164.951 160.773 154.729 148.364C154.729 148.364 160.234 128.737 189.995 118.876C189.995 118.876 163.277 117.506 144.503 138.869C144.504 138.867 132.059 128.735 112.297 123.079Z" fill="white"/>
<path d="M248.893 77.564C248.893 77.564 269.723 80.669 305.533 109.916L271.682 91.426C271.682 91.426 269.493 92.546 268.12 93.764C268.12 93.764 260.465 84.916 248.893 77.564Z" fill="#002244"/>
<path d="M265.868 83.7617C265.868 83.7617 264.126 85.2017 264.83 87.7157C264.83 87.7157 265.683 90.0857 268.369 90.1397C268.369 90.1397 271.405 90.1807 271.937 86.8647L270.499 86.0907L266.757 88.8897L267.809 84.7067L265.868 83.7617Z" fill="#FB4F14"/>
<path d="M326.031 119.147C326.031 119.147 323.158 120.214 323.158 122.79C323.158 122.79 322.465 125.471 328.241 131.245C328.241 131.245 319.658 124.968 318.051 121.188C318.051 121.188 316.571 118.416 320.751 118.416C320.751 118.416 323.291 118.416 326.031 119.147Z" fill="#002244"/>
<path d="M228.519 61.8961C228.519 61.8961 233.812 61.9731 234.424 60.6771C234.424 60.6771 235.719 59.3271 228.596 55.9961C228.596 55.9961 239.583 58.2401 244.569 67.1141C244.569 67.1141 237.448 63.8571 228.519 61.8961Z" fill="#002244"/>
</g>
<defs>
<clipPath id="clip0_486_1206">
<rect width="343.573" height="200" fill="white"/>
</clipPath>
</defs>
</svg>
