<svg width="50" height="50" viewBox="0 0 102 75" fill="none" xmlns="http://www.w3.org/2000/svg">
<path d="M-25.1573 0.920888C-32.2041 1.06595 -38.9828 3.2486 -44.1016 7.16286V2.17674H-89.8989L-89.9087 28.3688H-79.2531C-77.0585 28.3688 -75.2844 30.1509 -75.2844 32.3393V106.638H-44.0866V37.2141L-44.0846 36.4837H-44.0807C-44.0776 32.3265 -40.5561 28.9528 -36.208 28.9528C-31.9253 28.9528 -28.4469 32.2385 -28.3528 36.3236V92.9485C-28.3528 94.6039 -28.0378 96.1769 -27.4954 97.6378C-25.5862 102.773 -20.6643 106.436 -14.8708 106.436H14.3981V81.3142L13.7848 81.3103H7.00377H7.00176C4.81434 81.3092 3.03711 79.5382 3.03711 77.3476V76.7988C3.03401 76.7423 3.03121 76.6923 3.03121 76.6328C3.03431 75.711 3.03391 74.7636 3.03711 73.8106V54.7623C3.03401 52.458 3.03121 51.0319 3.03121 51.0319L3.03711 45.0399V22.4018C2.99311 21.7438 2.88512 20.7398 2.62112 19.5299C2.16714 17.467 1.26618 14.8041 -0.536755 12.1712C-4.29862 6.68455 -9.07944 3.69407 -15.5122 2.01653C-18.6961 1.21261 -21.954 0.85727 -25.1568 0.923268L-25.1573 0.920888ZM8.57343 2.17864V28.2947H16.7137C18.902 28.2947 20.6726 30.0717 20.6726 32.2633V83.3294C21.1961 91.7377 26.1909 99.4288 32.5391 103.034C38.9285 108.088 54.4273 110.401 62.798 107.448C62.798 107.448 66.663 106.231 68.8388 104.78V111.26C68.8388 112.806 68.7199 113.771 68.2998 114.975C67.237 117.266 64.9047 118.469 61.2023 118.56L-75.3026 118.554V148.922H72.6519C77.1538 148.69 81.3913 148.181 84.9564 147.174C89.8284 145.685 100.981 140.46 100.981 123.941C100.981 123.7 100.977 117.624 100.971 117.379H100.969L100.891 2.18324H68.9449V69.2418C68.9449 70.0506 68.9309 70.8559 68.8902 71.646C68.8776 71.9595 68.8586 72.2664 68.8336 72.5737C68.5232 75.0128 67.0457 77.0948 64.9451 78.302C63.7192 79.0042 62.2991 79.4152 60.7753 79.4152C56.3768 79.4152 52.6487 76.0567 52.6643 71.8901L52.7053 2.18168H8.57597L8.57343 2.17864Z" fill="#A71930"/>
<path d="M-24.9752 5.31533C-31.0987 5.41557 -36.9818 7.27216 -41.4216 10.6647L-48.5015 16.0864V6.58678H-85.4961C-85.4961 11.4525 -85.498 19.1023 -85.498 23.9651H-79.2503C-74.6323 23.9651 -70.8795 27.7197 -70.8795 32.3378V102.228H-48.4913V37.1876C-48.4913 37.1876 -48.4878 36.4544 -48.4815 36.4826C-48.4752 29.902 -42.973 24.547 -36.205 24.547C-29.59 24.547 -24.0894 29.7854 -23.9414 36.3216V92.9465C-23.9414 94.0062 -23.747 95.0723 -23.3614 96.1007C-22.0446 99.6465 -18.6295 102.026 -14.8676 102.026H9.9925V85.7199H7.0043C2.38958 85.7199 -1.36648 81.9622 -1.36648 77.3472H-1.36448V76.9077C-1.36768 76.8137 -1.37039 76.7203 -1.37039 76.7203L-1.36448 73.8102V54.7719C-1.36448 54.7719 -1.37039 51.047 -1.37039 51.022L-1.36448 45.0398V22.6347C-1.39585 22.4371 -1.67697 20.4745 -1.67697 20.4745C-2.14895 18.3476 -2.98792 16.3927 -4.17288 14.6658C-7.17877 10.2795 -10.9056 7.77201 -16.5904 6.28896C-19.3593 5.58839 -22.1932 5.2707 -24.9761 5.3163L-24.9752 5.31533ZM73.3451 6.58478V69.2385L73.2885 71.8654L73.2143 72.9942L73.1948 73.1192C72.7309 76.8406 70.4576 80.2041 67.1345 82.1228C65.2001 83.2326 63.0007 83.82 60.7714 83.82C57.3665 83.82 54.0528 82.4626 51.6858 80.08C49.4724 77.8572 48.2505 74.9585 48.2505 71.9241C48.2505 71.9115 48.2903 14.3222 48.2934 6.58848H12.9808V23.8908H16.7111C21.3259 23.8908 25.078 27.6485 25.078 32.2635V65.8343V83.1346C25.5075 89.7184 29.3702 96.1692 34.7125 99.204V99.202L35.0035 99.372L35.271 99.5751C40.5473 103.748 54.4293 105.734 61.3271 103.292L61.4677 103.251C62.7374 102.846 65.1975 101.915 66.3855 101.112L73.2426 96.5244V111.26C73.2426 113.063 73.1108 114.565 72.4556 116.433L72.3892 116.633L72.2935 116.83C71.0394 119.536 68.116 122.799 61.1999 122.968H-70.8952V144.517C-62.6215 144.532 72.2095 144.517 72.4995 144.517C76.6377 144.3 80.5241 143.846 83.6591 142.968C88.4776 141.488 96.5666 137.049 96.5666 123.942C96.5666 123.942 96.4908 14.7356 96.4846 6.5859H73.3444L73.3451 6.58478Z" fill="#0B2265"/>
</svg>
