<svg width="50" height="50" viewBox="0 0 127 157" fill="none" xmlns="http://www.w3.org/2000/svg">
<path d="M125.661 102.219C125.324 100.185 123.482 98.4065 122.045 98.086C121.944 98.0647 121.81 98.0379 121.666 98.0011C122.04 96.6548 122.221 95.5809 122.312 94.8284C123.14 94.4492 124.107 94.054 124.523 93.8879L125.938 93.317L125.655 91.8217C125.073 88.7336 123.456 86.181 122.53 84.9211C122.863 83.8691 123.06 83.1854 123.06 82.6039C123.06 81.4178 122.109 80.2055 120.24 79.004C120.091 78.9084 119.92 78.6355 119.92 77.3486C119.92 77.3272 119.898 76.1203 119.583 74.8919C120.598 74.203 121.868 73.0708 122.494 71.3086C123.119 69.5356 123.354 67.9655 123.444 67.0524C123.492 66.5557 123.422 65.3649 123.422 65.3649L123.231 63.0686C123.231 63.0686 122.077 63.9871 121.437 64.4784C121.266 64.6065 121.137 64.7027 121.067 64.7454C120.977 64.8148 120.876 64.8789 120.78 64.9376C120.309 65.2207 119.786 65.445 119.562 65.5625C119.059 65.8348 118.296 66.1232 117.457 66.3582C116.251 60.1152 111.829 49.1946 101.138 39.5603C88.2783 27.9718 67.0403 25.8247 66.1413 25.7341L64.1493 25.5472C64.1493 25.5472 64.1066 28.5325 63.9191 29.3817L63.8983 29.4778C63.8289 29.889 63.7488 30.2788 63.6521 30.642C61.2334 29.1306 59.5459 27.598 58.7288 26.1507C57.2174 23.4806 56.7262 21.0293 56.2561 18.6634C55.9254 16.9849 55.6038 15.3942 54.9529 13.856C53.2336 9.81878 50.7611 6.37412 47.6047 3.62386C47.0333 3.13255 46.4512 2.61987 45.5541 2.61987C45.1963 2.61987 44.6623 2.71067 44.1229 3.14323C43.7384 3.45831 42.5849 4.62257 43.8719 6.52896C43.8933 6.56099 45.9921 10.4008 46.7771 15.9013C47.0388 17.7117 47.0922 19.9439 47.1509 22.3044C47.2684 27.084 47.4072 32.4937 49.2977 36.5951C50.1308 38.3948 51.2042 40.0129 52.3257 41.4174C52.4378 41.5563 52.8651 42.0049 52.9398 42.0956C53.1321 42.3199 53.3297 42.5442 53.5219 42.7578C51.4553 42.5816 49.6821 42.0369 47.9198 41.049L47.845 41.0062C42.4196 38.2725 38.254 31.8746 37.485 25.0816L37.3826 24.1957C37.2384 22.9941 37.2277 21.7766 37.2117 20.4894C37.2063 19.7577 37.1957 19.0048 37.1636 18.2463C37.0782 16.3452 36.8699 14.4174 36.5335 12.516C36.3957 11.7148 36.2251 10.9083 36.0374 10.118L36.0214 10.0592C35.9203 9.47719 35.7589 8.92717 35.6263 8.48397C35.5305 8.14747 35.4229 7.81635 35.3114 7.48523C35.0331 6.65212 34.6644 5.85641 34.205 5.11412C33.5961 4.12614 33.0199 3.35183 32.3952 2.67371C31.9044 2.13963 31.4227 1.70706 30.9319 1.36L30.8571 1.31187C30.6488 1.17302 30.0827 0.863281 29.3777 0.863281C29.0039 0.863281 28.6461 0.94873 28.3204 1.11963L28.1117 1.24779C27.2946 1.82455 26.8033 3.09027 27.5403 4.60688L27.6097 4.73504C27.6257 4.76174 27.6631 4.83651 27.7112 4.9433C27.7539 5.04479 27.7966 5.16761 27.8393 5.30112C27.8767 5.4186 27.9034 5.55211 27.9355 5.73367C28.1811 7.05276 28.4107 10.1983 27.2145 16.5106L27.1504 16.8363C27.0169 17.9578 26.8994 18.8069 26.7659 19.5974C26.2532 22.62 25.7139 26.2247 25.6231 30.0806C25.6231 30.1981 25.6285 30.4437 25.6337 30.6466L25.6391 30.8282C25.6124 33.3808 26.0022 55.5053 47.8396 63.1815L47.8557 63.1869L47.7862 63.2136C46.7929 69.574 46.7235 73.4937 46.7876 75.4055C42.0506 77.264 37.3886 79.4963 32.9405 82.0436C25.9766 85.8565 19.5146 90.6041 13.7309 96.148C12.5613 97.2742 11.44 98.402 10.3077 99.598C10.0407 99.8757 9.77906 100.153 9.54943 100.405L9.47467 100.485C6.61035 103.567 4.02558 106.78 1.78794 110.038C1.71857 110.139 1.51562 110.465 1.43552 110.658C1.1792 111.244 0.906833 112.372 1.44085 112.965C1.76129 113.321 2.39144 113.627 3.58256 113.118C3.6413 113.102 3.87093 113.012 3.95638 112.964C4.18601 112.835 4.52781 112.622 4.63993 112.536C11.8709 107.004 28.4784 103.949 33.3277 103.666C37.3917 103.426 41.4236 102.832 42.9188 102.598C43.7306 102.983 45.3166 103.651 47.1057 104.045C47.864 104.211 48.6811 104.296 49.5408 104.296C50.2885 104.296 50.9881 104.233 51.5862 104.147C52.8252 108.061 55.2925 110.747 56.5741 111.949C56.494 114.309 56.8945 118.737 58.6623 121.61C60.1042 123.965 62.1656 125.764 63.3137 126.662C63.3137 127.788 63.4098 129.599 63.9758 131.131C64.4778 132.504 65.327 133.748 65.9572 134.565C65.7115 135.222 65.4659 136.093 65.4071 137.07C65.3377 138.17 65.594 139.057 65.9145 139.719C65.6368 140.221 65.3751 140.824 65.2736 141.428C65.1348 142.255 65.3057 143.158 65.4979 143.82C65.3057 144.242 65.1027 144.781 64.9901 145.294C64.8411 146.031 64.9639 146.768 65.1182 147.318C64.5474 148.979 63.922 152.285 66.0427 154.074C66.6835 154.613 67.4531 154.896 68.2643 154.896C69.8931 154.896 71.2169 153.737 71.853 153.064C72.7983 152.621 73.9299 151.756 74.5718 150.762C75.0572 150.009 75.2922 149.283 75.4097 148.734C75.8369 148.306 76.3811 147.654 76.8724 146.72C77.2895 145.93 77.4764 145.251 77.5565 144.739C78.4804 143.633 80.5258 140.92 81.4117 137.54L81.6205 136.605C81.6418 136.494 81.6632 136.376 81.6787 136.253C82.1647 133.187 81.77 130.325 81.519 128.99C82.24 127.697 83.6552 124.755 83.8259 121.342C85.3907 120.301 88.1196 118.619 91.452 117.107C91.5802 119.147 91.6181 121.246 90.9981 124.429C90.2344 128.317 87.3986 131.532 85.9728 132.942C85.4767 133.428 84.2531 134.816 84.2531 134.816C84.2531 134.816 83.7837 135.211 83.8745 136.018C83.8794 136.066 83.9172 136.205 83.9541 136.306C83.9701 136.343 84.0555 136.466 84.0929 136.498C84.7712 137.155 86.6349 136.915 86.6349 136.915C94.6614 136.055 100.098 129.31 102.41 123.74C103.852 120.269 105.155 115.639 105.929 112.813C110.581 111.97 114.885 111.548 117.806 111.26C119.109 111.131 120.14 111.03 120.818 110.923C122.596 110.661 125.907 110.165 126.116 107.024C126.185 106.026 126.036 104.499 125.656 102.218" fill="white"/>
<path d="M123.827 102.47C123.614 101.162 122.3 99.9922 121.643 99.8474C120.986 99.7037 119.309 99.2659 119.309 99.2659C120.548 95.7686 120.548 93.5784 120.548 93.5784C121.643 92.9958 123.827 92.121 123.827 92.121C123.101 88.2542 120.474 85.2635 120.474 85.2635C120.693 84.4624 121.205 83.0794 121.205 82.5665C121.205 82.0538 120.255 81.1834 119.235 80.5265C118.215 79.8696 118.07 78.7054 118.07 77.3169C118.07 75.9337 117.488 74.1821 117.269 74.1073C117.05 74.0378 119.87 73.146 120.746 70.6626C121.622 68.1847 121.643 66.1713 121.643 66.1713C120.479 67.8696 115.918 68.5691 115.918 68.5691C115.555 64.7041 112.452 52.235 99.9123 40.9339C87.3736 29.6341 66.0078 27.5894 66.0078 27.5894C66.0398 28.2196 65.9597 28.9672 65.7728 29.7898C65.5966 30.8525 65.2868 32.1073 64.7474 33.1222C64.7154 33.181 64.6727 33.2557 64.6299 33.3251C61.682 31.7283 58.5848 29.5815 57.164 27.0716C54.4145 22.2117 54.7557 18.0304 53.2976 14.6024C50.9104 8.98904 47.4666 5.93981 46.4403 5.04804C45.8537 4.53528 45.6555 4.36441 45.3511 4.61009C45.052 4.8504 45.2496 5.19753 45.4952 5.56067C45.7249 5.90245 47.8717 10.0413 48.6727 15.6592C49.4737 21.2719 48.411 30.131 51.0386 35.819C52.6728 39.3596 55.3749 42.1632 57.1853 43.7761C57.2494 43.8295 57.3135 43.8882 57.3722 43.9416L57.9596 44.5237C54.2106 44.8762 50.7233 44.7426 47.0172 42.6599C41.0576 39.6585 36.4852 32.6791 35.6479 25.293L35.5464 24.4065C35.3102 22.3814 35.406 20.3577 35.3154 18.3287C35.2354 16.4861 35.0333 14.6488 34.7117 12.8333C34.5739 12.0322 34.4073 11.2419 34.2157 10.4516C34.2104 10.4408 34.2104 10.4354 34.2104 10.4248C34.1304 9.94421 33.9912 9.46886 33.8521 8.99889C33.7616 8.68916 33.6605 8.37943 33.5581 8.06433C33.3232 7.37545 33.0201 6.71334 32.629 6.08313C32.1591 5.32482 31.642 4.58778 31.0383 3.93092C30.6801 3.54114 30.2955 3.17262 29.8637 2.86827C29.8637 2.86827 29.4632 2.61727 29.1908 2.76147C29.1908 2.76147 28.8331 3.01247 29.2122 3.79215C29.2122 3.79215 29.3083 3.94702 29.4205 4.21405C29.4846 4.36356 29.554 4.55047 29.6181 4.76409C29.6768 4.95636 29.7249 5.16462 29.7623 5.38891C30.0613 6.99109 30.2749 10.4409 29.0093 17.0256L28.9987 17.0469C28.8865 18.0029 28.7637 18.9588 28.5981 19.9094C28.0748 22.9909 27.5674 26.4886 27.482 30.1201C27.482 30.2804 27.5034 30.7503 27.498 30.8464C27.4606 34.0774 28.0801 55.2571 49.9807 61.928C49.8793 62.3819 49.7831 62.8198 49.7137 63.2417C48.2345 72.5819 48.7791 76.518 48.7791 76.518C48.7791 76.518 48.7845 76.5553 48.7898 76.6141C44.3091 78.3017 39.2413 80.5767 33.9006 83.6313C27.9247 86.905 21.4416 91.3589 15.0965 97.4365C13.9056 98.5846 12.7896 99.7114 11.7321 100.833C11.4757 101.1 11.2194 101.372 10.9631 101.645C10.9524 101.666 10.931 101.682 10.915 101.698C7.56655 105.303 5.04057 108.625 3.20898 111.327C13.1047 104.182 28.5646 102.04 33.2918 101.762C38.2477 101.474 43.2676 100.625 43.2676 100.625C43.2676 100.625 45.2276 101.671 47.5665 102.184C50.2206 102.772 52.9976 101.928 52.9976 101.928C53.9963 107.065 57.6064 110.365 58.5516 111.107C58.3059 112.651 58.557 117.746 60.2925 120.576C62.1616 123.625 65.2484 125.682 65.2484 125.682C65.2484 125.682 65.0347 128.443 65.761 130.419C66.4873 132.395 68.1748 134.194 68.1748 134.194C68.1748 134.194 67.4058 135.487 67.3043 137.11C67.2029 138.733 68.1748 139.636 68.1748 139.636C68.1748 139.636 67.2936 140.768 67.1441 141.65C66.9994 142.536 67.5447 143.865 67.5447 143.865C67.5447 143.865 67.0106 144.838 66.8558 145.585C66.6956 146.338 67.1441 147.263 67.1441 147.263C66.7863 147.962 65.7241 151.246 67.2883 152.565C68.8477 153.884 70.7917 151.422 70.7917 151.422C71.3898 151.246 72.516 150.504 73.05 149.671C73.7074 148.651 73.7074 147.7 73.7074 147.7C73.7074 147.7 74.5459 147.155 75.2717 145.767C75.8709 144.64 75.7849 143.898 75.7849 143.898C75.7849 143.898 79.176 140.336 79.881 135.887C80.4839 132.096 79.5921 128.597 79.5921 128.597C79.5921 128.597 82.14 124.721 82.0225 120.288C83.7582 119.075 87.945 116.358 93.1572 114.329C93.3067 117.319 93.7767 119.909 92.8421 124.715C91.6726 130.696 86.3482 135.071 86.3482 135.071C93.7869 134.27 98.7486 127.706 100.714 122.964C102.321 119.097 103.784 113.629 104.463 111.151C111.72 109.741 118.348 109.367 120.548 109.037C123.463 108.598 124.195 107.947 124.265 106.853C124.339 105.757 124.046 103.787 123.826 102.473L123.827 102.47Z" fill="black"/>
<path d="M50.9339 15.5044C51.4994 18.0469 51.6388 22.1433 51.6388 22.1433C51.4716 20.7014 50.8463 18.4511 50.3699 16.8783C50.5419 18.0169 50.6788 19.0848 50.7877 19.9595C51.1632 23.0017 50.4369 28.4398 52.5923 34.14C53.9872 37.8274 57.0182 40.53 58.8339 41.8939C60.3389 39.7732 62.2663 37.0476 63.5709 35.0422C56.2263 30.506 54.4008 26.1994 53.2896 20.0297C53.1123 19.0358 52.8727 18.0918 52.6052 17.1946C52.8119 19.5322 52.6283 21.7214 52.6283 21.7214C52.3447 19.4623 50.9339 15.5044 50.9339 15.5044ZM31.7912 15.9073C31.8051 16.3917 31.7824 16.8768 31.7604 17.3607C31.7065 18.6199 31.424 20.1176 31.299 21.3721C31.1751 22.6325 30.9615 23.873 30.7736 25.1248C30.7223 25.4703 30.6433 26.1597 30.6326 26.0476C30.6316 26.0246 30.6297 26.001 30.6275 25.9733C30.5596 25.2048 30.3664 22.7323 30.3814 19.9239L30.3737 19.3446C30.3566 19.454 30.3385 19.5652 30.3198 19.6752C29.86 22.378 29.3166 26.1354 29.2637 30.1924C29.2627 30.3083 29.2736 30.6476 29.2715 30.8281C29.2459 32.089 29.2945 37.3337 31.5502 43.1216C34.9792 51.9252 41.6301 57.7641 51.3136 60.4781C56.1098 61.8404 61.5086 62.8566 65.2658 63.9923C65.2658 63.9972 65.2709 63.9795 65.2709 63.9795C65.2709 63.9795 69.4255 65.1959 71.9329 67.1297C71.9329 67.1297 69.2072 66.5782 66.427 66.23C68.4259 69.2067 71.8169 71.1669 75.6727 71.1669C78.5924 71.1669 81.2441 70.0356 83.2319 68.1986C82.7539 68.5324 82.3078 68.787 81.9553 68.9574C81.0037 69.4177 80.0673 69.5767 79.3613 69.6264C77.7698 70.1332 76.1736 69.9123 75.7624 69.8391C75.7955 69.8317 75.8282 69.8209 75.8624 69.8161C80.651 68.9899 85.116 65.3288 84.6134 59.745C84.3961 57.3622 83.6682 54.8155 82.1655 53.2086C84.0416 54.8064 85.3185 57.0921 85.5568 59.7219C85.6759 61.0207 85.5263 62.2817 85.162 63.4566C85.7703 62.1455 86.126 60.6958 86.1463 59.1606C86.4993 60.7995 86.37 62.2049 85.9823 63.4054C86.4576 62.2204 86.732 60.9335 86.7513 59.5835C86.7855 59.7406 86.7994 59.8891 86.8256 60.0424C86.8256 60.0323 86.8282 60.0243 86.8282 60.0142C86.8282 59.2073 86.7421 58.4211 86.577 57.6637L86.5744 57.5535C85.9378 53.3858 82.8859 49.4225 78.9948 47.6746C77.829 47.0696 74.2859 45.7625 70.4513 45.4164C68.713 45.2193 66.8494 45.2422 64.5711 45.483C63.5538 45.5904 62.5634 45.7169 61.5926 45.8419C56.3884 46.5089 51.474 47.1392 46.2073 44.186C39.6821 40.8974 34.8518 33.5544 33.9343 25.4948L33.8343 24.6156C33.703 23.5053 33.6549 22.3289 33.5908 21.1937C33.4974 20.1892 33.3128 19.6419 33.2909 19.7685C33.2781 19.8422 33.3012 19.9347 33.3012 20.0095C33.3076 20.8682 33.0962 21.7209 32.9654 22.5625C32.8105 23.5633 32.6045 25.4626 32.5911 25.3975C32.574 25.3185 32.5495 25.238 32.5399 25.1643C32.495 24.886 32.4867 24.6121 32.4835 24.3312C32.4765 23.7689 32.4662 23.2049 32.4373 22.642C32.3663 21.2326 32.1286 17.116 32.0169 16.5927C31.9881 16.4591 31.9306 15.9901 31.7912 15.9073Z" fill="white"/>
<path d="M99.8627 69.3745C99.1792 69.3867 96.7146 69.6882 96.0204 69.7283C96.0103 69.7678 95.7605 69.8071 95.3771 69.8487C95.3781 69.924 95.3775 69.999 95.3797 70.0743C95.3797 70.0743 94.3457 78.0191 90.5813 83.2036C91.5671 83.7504 94.0532 84.4941 94.9312 85.2953C96.5585 86.7799 96.6483 88.9258 96.5691 89.7733C96.4933 90.6235 96.3681 92.1375 95.5874 95.1408C95.5874 95.1408 95.3967 90.8235 95.0106 89.5502C94.6256 88.2787 93.1801 87.1028 91.7912 86.6793C91.161 86.4865 90.0053 86.1781 88.7204 85.8924C86.2393 88.7323 83.7378 90.6955 81.3869 92.7851C81.6363 93.1712 81.9884 93.4967 82.484 93.6259C83.897 93.9943 85.6829 93.1517 85.6829 93.1517C85.6829 93.1517 84.5487 98.4057 87.5644 102.884C89.8131 106.224 94.1571 105.368 94.1571 105.368C94.1571 105.368 95.0902 98.7673 99.2093 93.4798C103.006 88.6039 107.633 86.0803 110.865 85.1286C110.749 84.5299 110.551 83.2903 110.78 82.6883C111.088 81.8792 111.976 81.1452 113.056 81.1452C114.137 81.1452 115.368 81.7245 115.368 81.7245C114.791 81.6086 113.287 81.5327 112.515 82.3397C111.923 82.9629 112.196 84.2222 112.354 84.7722C115.327 84.2259 118.064 84.5963 118.588 84.726C119.149 84.8665 119.663 84.7716 119.852 84.0698C120.04 83.3687 120.038 82.5271 119.662 82.2473C119.286 81.9625 118.679 81.8693 118.07 81.4021C117.461 80.9349 116.949 79.8102 116.995 78.1723C117.042 76.5352 116.061 74.2927 116.059 74.2889C113.813 75.1776 108.569 73.5857 105.294 73.3508C102.017 73.1169 99.7211 74.6606 99.7211 74.6606C98.8314 72.4139 99.8621 69.3726 99.8621 69.3726L99.8627 69.3745ZM108.591 74.4472C110.092 74.48 111.11 74.8702 111.11 74.8702C109.529 74.9476 108.411 75.5622 108.411 75.5622C108.799 76.0258 109.49 77.0269 109.529 77.3745C109.534 77.4178 109.529 77.5135 109.521 77.6411C109.521 77.6411 109.518 77.6789 109.513 77.7334V77.7462C109.465 78.2792 109.206 80.7611 108.634 81.4527C108.55 81.5905 108.457 81.7247 108.337 81.8449C107.681 82.459 106.532 83.0427 104.364 84.5466C101.973 86.2059 100.083 89.5963 100.083 89.5963C100.083 89.5963 100.764 86.3911 102.241 84.5595C104.073 82.2905 106.46 80.7906 107.932 80.007L108.593 77.0515C108.086 76.7129 107.449 76.3674 106.832 76.2569C105.552 76.0315 103.395 76.0598 102.075 75.6289C102.081 75.6188 102.09 75.6032 102.09 75.6032C103.671 75.4104 104.597 74.9466 106.948 74.56C107.535 74.4637 108.09 74.4363 108.591 74.4472ZM118.454 94.6792C118.454 94.6792 109.729 98.4417 107.227 105.366C107.227 105.366 112.463 105.501 115.394 105.847C118.324 106.195 120.229 106.208 120.884 106.247C121.54 106.284 122.887 106.362 122.463 103.971C122.039 101.58 121.384 101.156 120.228 100.693C119.071 100.23 117.106 100.347 117.106 100.347C117.106 100.347 118.609 96.6829 118.454 94.6792ZM79.2922 94.7586C79.0989 94.9546 78.9052 95.1462 78.7129 95.3508C78.7129 95.3508 80.463 97.7812 81.5324 102.351C82.3463 105.83 80.1714 111.489 80.1714 111.489C80.1714 111.489 81.2997 114.33 81.799 117.787C81.8663 117.746 81.9384 117.7 82.0041 117.662C82.0041 117.662 88.0685 114.447 91.3267 113.086C91.8415 112.87 92.4905 112.636 93.2184 112.394C93.2857 111.034 93.4196 109.162 93.6952 107.424C93.0682 107.44 92.4914 107.447 92.006 107.447C88.6517 107.447 86.5629 105.503 85.0056 103.217H85.0082C83.4536 100.935 82.3808 96.3632 82.3808 96.3632C82.3808 96.3632 80.4394 96.3202 79.2922 94.7586ZM106.116 107.119C106.1 107.119 106.081 107.121 106.065 107.121C105.662 107.755 105.338 108.428 104.989 109.372C106.114 109.151 107.2 108.956 108.195 108.808C113.69 107.981 118.209 107.836 118.938 107.739C119.667 107.642 120.98 107.69 121.465 107.301C121.465 107.301 119.945 107.424 118.292 107.375C116.638 107.328 110.151 107.119 106.116 107.119Z" fill="#E9BF9B"/>
<path d="M67.5343 29.7637C67.5343 29.7637 67.3721 31.6861 66.2116 34.1443C65.7993 35.0164 65.2626 35.954 64.5609 36.8998C63.5526 38.2558 61.5328 41.0457 59.6752 43.854C59.6133 43.949 59.2676 44.3923 59.2676 44.3923C59.9576 44.3122 60.6576 44.2252 61.3721 44.1334C62.3558 44.0079 63.3579 43.8783 64.389 43.7694C66.7948 43.5147 68.7773 43.4918 70.6229 43.7028C74.2736 44.0312 77.7716 45.195 79.4329 45.9688C84.057 47.9238 87.7008 52.6323 88.3454 57.5574H88.3377C88.3639 57.6936 88.3907 57.8297 88.412 57.9675C88.42 58.0188 88.4276 58.0711 88.4351 58.1213C88.4613 58.2965 88.4836 58.4735 88.5017 58.6519C88.5017 58.6535 88.5044 58.6543 88.5044 58.657C89.6504 58.5214 95.6807 57.8379 100.711 57.8727C105.197 57.9026 109.178 58.3739 111.092 58.6852C109.126 54.3018 106.085 49.1585 101.488 44.8026C91.0964 34.9596 78.2526 30.2558 67.5343 29.7637ZM51.754 62.3558C51.707 62.5732 51.6653 62.7896 51.6258 63.0043C51.4998 63.7771 51.3935 64.5648 51.3054 65.3497C53.2845 64.836 55.624 64.2865 57.8776 63.8886C57.931 63.8801 57.9811 63.8715 58.034 63.863C57.9966 63.8529 57.9601 63.8439 57.9238 63.8348C57.5371 63.7376 57.1479 63.6383 56.7549 63.54C55.9699 63.3424 55.1754 63.1578 54.3813 62.9735C53.5007 62.769 52.6196 62.5668 51.754 62.3558ZM120.034 68.5384C120.034 68.5384 119.028 69.0013 116.794 69.5022C114.558 70.0031 110.048 69.3105 108.697 69.1562C107.348 69.0024 103.3 68.6937 102.143 69.4638C100.987 70.2338 101.256 72.5474 101.256 72.5474C101.256 72.5474 102.183 71.5858 104.457 71.0069C106.732 70.4291 109.74 70.8531 109.74 70.8531C108.004 71.1986 107.041 71.7784 107.041 71.7784C110.279 72.2024 110.856 73.2432 115.174 72.9345C119.493 72.6258 120.034 68.5384 120.034 68.5384ZM93.2809 70.2302C92.0991 70.3349 90.9741 70.4775 89.8436 70.5891C89.8356 70.6318 89.826 70.6775 89.818 70.7096C88.6778 74.5196 86.4744 77.2592 82.9741 78.8607C78.4032 83.5219 71.5823 86.7628 67.7765 89.201C61.0628 93.5053 59.961 101.994 59.961 101.994C60.6996 88.9661 68.6855 87.2849 77.4146 80.8804C77.5973 80.748 78.0376 80.4972 78.2144 80.3626L77.9427 80.4754C76.8516 80.4754 74.6223 80.2719 73.5953 80.0294C72.641 80.6857 71.711 81.2631 70.8527 81.7314C66.2845 84.2232 63.1167 88.2908 63.1167 88.2908C64.3514 84.1663 67.2415 82.4286 71.5731 79.3783C69.9538 78.7118 68.1413 77.5815 66.8899 76.3485C64.3383 77.6665 58.6984 81.0915 54.9425 84.6408C51.9396 87.4807 46.3691 91.5067 39.7829 94.612C44.9588 91.1878 53.6865 83.4954 56.7496 80.5785C56.7496 80.5785 45.2716 87.2068 41.9851 89.4321C41.9851 89.4321 46.2562 84.7194 51.5385 81.8115C51.5385 81.8115 39.8596 86.5972 33.1386 91.1854C29.662 93.5597 24.3356 98.3975 21.2579 101.69C22.5219 101.416 27.3201 100.447 28.5992 100.316C37.2366 99.4277 46.6775 100.099 54.9495 90.1396C55.0852 89.9789 55.2257 89.8167 55.3443 89.6731C54.6239 92.1355 54.3149 95.5865 54.4548 99.4341C54.7555 107.75 61.2137 111.034 63.7134 112.779C63.6509 111.756 63.4958 110.735 64.4106 107.142C65.4173 103.183 68.1447 99.9723 68.7887 99.4623C68.7887 99.4623 64.5538 105.112 65.7768 113.996C65.7768 113.996 66.9445 106.718 72.4311 99.5751C77.9177 92.4334 83.1888 89.0917 87.5539 83.7568C89.9806 80.7901 91.3568 77.9421 92.1755 75.3851C92.8452 73.4732 93.1453 71.6064 93.2809 70.2302ZM64.9698 73.8471C63.7821 74.0872 47.8391 76.1818 28.5547 89.1418C22.1659 93.4359 14.3296 101.057 10.4619 105.309C12.1196 104.585 15.6905 103.087 18.5161 102.215C21.4021 99.2512 26.1398 94.4504 30.4813 91.4083C40.5421 84.3633 57.749 77.0756 65.8242 74.872C65.651 74.6371 65.4817 74.3996 65.3215 74.1528L64.9698 73.8471ZM116.32 85.8381C114.644 85.8425 112.323 86.1409 109.74 87.3171C104.573 89.6684 99.6499 94.3605 97.5286 99.2185C95.4095 104.077 95.2406 109.214 95.009 112.993C94.7793 116.772 95.4103 122.419 93.9273 127.505C93.9273 127.505 96.3624 123.903 97.2467 113.727C98.0478 104.499 100.332 98.1502 104.573 95.1816C104.573 95.1816 101.179 99.8845 100.023 107.596C98.866 115.308 99.0979 118.316 97.6722 124.716L97.3184 125.915C97.3184 125.915 100.713 121.372 102.553 109.529C104.163 99.1744 107.194 94.5281 111.358 92.0988C111.358 92.0988 105.785 98.1551 104.508 106.828C104.508 106.828 107.668 99.0145 112.642 95.7365C117.616 92.4609 121.918 91.3661 121.918 91.3661C121.918 91.3661 121.75 88.678 119.027 86.1242C119.027 86.1242 117.996 85.8353 116.32 85.8397L116.32 85.8381ZM53.2553 93.9919C53.2553 93.9919 49.3996 98.6061 45.1322 99.6747L44.9656 99.6926C44.9656 99.6926 47.4159 100.974 49.4463 100.974C51.4767 100.974 53.1425 100.318 53.1425 100.318C53.1425 100.318 52.8041 95.5518 53.2553 93.9919ZM76.8877 96.66C76.8877 96.66 71.916 102.097 69.9669 106.529C68.2292 110.483 67.6202 113.667 67.5266 115.359C69.6056 116.652 72.1178 118.22 73.5042 119.319C73.8401 118.511 74.2036 117.709 74.5859 116.953C76.8076 112.572 78.9873 111.011 79.8509 106.447C80.7131 101.879 78.5427 98.3753 76.8877 96.66ZM60.0076 112.514C60.0076 112.514 59.9853 116.926 62.1454 120.293C63.7556 122.804 68.1467 125.093 71.0092 126.809C71.257 125.877 71.9232 123.481 72.8856 120.898C71.7267 120.019 68.3787 117.525 66.3287 116.387C63.817 114.994 61.0766 113.459 60.0076 112.514ZM78.7658 113.89C78.3967 114.482 77.8101 115.395 77.4662 115.859C76.3794 117.328 73.6988 123.169 72.5549 127.745C72.8972 127.958 73.2058 128.158 73.4674 128.339C74.7256 129.22 75.4719 129.927 75.8949 130.398C76.4428 129.424 77.5172 128.432 77.9455 127.655C79.5193 124.797 80.7257 121.422 80.3344 118.348C80.0663 116.237 79.1188 114.556 78.7658 113.89ZM67.2731 126.845C67.2619 127.78 67.3802 130.144 68.7137 132.069C70.4146 134.523 72.8483 135.786 72.8483 135.786C72.8483 135.786 73.9401 133.871 75.1501 131.725C74.3889 131.078 73.3639 130.305 72.1014 129.523C70.9531 128.81 68.9871 127.833 67.2731 126.845ZM77.8287 130.226C77.8287 130.226 75.8402 132.908 74.4452 135.419C73.4722 137.171 72.5988 139.474 72.1614 140.705C72.2538 140.758 72.3422 140.811 72.4228 140.866C73.3371 141.482 74.5068 143.124 74.5068 143.124C74.5068 143.124 77.0114 140.334 78.0288 137.172C79.0472 134.011 77.8287 130.226 77.8287 130.226ZM69.9185 135.229C69.4827 135.795 68.7159 136.448 69.2264 138.167C69.5394 139.221 70.3243 139.764 71.0976 140.169C71.5964 138.587 72.2408 136.837 72.2408 136.837C71.0606 136.236 69.9185 135.229 69.9185 135.229ZM69.2802 140.184C69.2802 140.184 68.5336 141.193 68.8086 142.389C69.0847 143.585 70.1958 144.102 71.377 144.703C72.5588 145.304 73.0046 146.503 73.0046 146.503C73.8441 145.913 74.2607 145.011 73.7966 144.029C73.3315 143.047 72.4379 142.214 71.1872 141.617C69.9375 141.02 69.2802 140.184 69.2802 140.184ZM68.8445 144.134C67.6263 146.23 68.2159 146.716 69.8954 147.961C71.0452 148.811 70.8259 149.922 70.8259 149.922C70.8259 149.922 72.4023 149.123 72.2972 148.11C72.2278 147.439 71.2603 146.059 70.3466 145.441C69.4323 144.824 68.8445 144.134 68.8445 144.134ZM68.5471 148.11C67.8598 148.962 67.5469 150.679 67.9832 151.191C68.4179 151.704 69.0231 151.643 69.4007 151.214C69.7783 150.788 69.8903 150.113 69.3649 149.402C68.9408 148.826 68.5471 148.11 68.5471 148.11Z" fill="#FFC62F"/>
<path d="M111.962 60.4038C110.579 60.1464 106.177 59.4815 100.711 59.4447C95.744 59.4111 89.7541 60.0321 88.5729 60.1635C88.5729 60.1699 88.5719 60.1768 88.5719 60.1843C88.5649 67.5731 82.2052 72.8474 76.2821 72.9355C67.337 73.069 64.0442 65.8595 63.9758 65.4339C63.3382 65.2481 62.6572 65.0622 61.9513 64.8732C60.7631 65.0184 59.4927 65.2006 58.1591 65.4361C55.6944 65.8702 53.1482 66.478 51.0762 67.0174C50.9774 68.1116 50.8194 69.8719 50.8129 70.022C50.5182 76.2436 50.9101 75.8093 50.9101 75.8093C52.7142 75.1038 59.3682 73.3971 59.3682 73.3971C61.3168 72.9437 63.6308 72.4566 66.3399 71.9562C68.2448 75.7954 72.2004 78.4351 76.776 78.4351C82.4896 78.4351 87.2376 74.321 88.232 68.8962C100.72 67.5402 106.623 67.5018 114.334 68.5277C113.525 64.2299 111.962 60.4038 111.962 60.4038Z" fill="#4F2683" stroke="black" stroke-width="0.205063"/>
</svg>
