<svg width="50" height="50" viewBox="0 0 180 162" fill="none" xmlns="http://www.w3.org/2000/svg">
<path d="M178.184 129.944C178.605 108.115 161.458 92.6081 161.458 92.6081C159.607 78.8082 154.592 58.8484 127.871 44.111C87.2965 21.75 64.8467 40.0145 0.884766 0.835162C2.21588 8.15997 6.43096 18.2962 11.8012 24.5924L5.18786 22.4237C9.99581 32.5561 17.6952 41.7473 21.7265 44.731L14.3137 42.4016C22.1663 61.6714 37.5084 73.0851 37.5084 73.0851C41.0044 102.587 62.6457 107.614 64.3944 125.758C92.5879 130.13 122.389 160.321 122.389 160.321C137.991 133.5 159.747 128.302 178.187 129.942" fill="black"/>
<path d="M124.485 47.8072C95.0902 31.6961 59.1655 42.1578 13.2622 13.7188C17.81 27.3087 46.2219 43.2247 46.2219 43.2247L21.0809 35.0508C27.4838 46.1624 53.6931 60.0856 53.6931 60.0856L30.2458 52.5084C39.9574 68.6383 61.9893 79.5244 61.9893 79.5244L48.4494 78.5452C50.2013 93.7113 71.1542 106.77 72.2679 118.474C81.7462 122.096 93.959 128.411 103.48 136.596C121.68 127.649 116.661 97.3788 81.9603 54.4392C129.689 57.3232 128.372 92.7076 155.767 87.6202C153.759 78.1151 152.462 63.1516 124.486 47.8055" fill="#97233F"/>
<path d="M142.085 91.9692C135.954 101.838 125.588 99.0874 121.893 86.7824L129.367 87.2376C122.814 83.317 116.863 77.5489 112.262 71.8651C110.908 99.0489 136.489 111.251 144.95 92.1601C143.994 92.1526 143.038 92.0877 142.085 91.9692Z" fill="white"/>
<path d="M155.907 95.4067C152.514 102.345 144.237 106.805 136.966 108.825C154.037 110.871 168.075 117.659 174.757 124.311C173.223 113.081 163.144 99.9847 155.907 95.4067ZM138.739 115.137C137.795 115.165 136.854 115.223 135.919 115.314C135.919 115.314 141.033 124.008 138.222 133.585C149.322 127.355 163.624 124.337 174.07 126.445C167.805 121.145 152.903 114.714 138.739 115.137Z" fill="#FFB612"/>
</svg>
