<svg width="50" height="50" viewBox="0 0 191 132" fill="none" xmlns="http://www.w3.org/2000/svg">
<g clip-path="url(#clip0_486_1257)">
<path d="M111.021 9.70097L101.731 19.4372C116.948 13.1147 150.128 2.26002 150.128 2.26002L139.497 12.6597C168.515 4.06785 190.566 -0.00278198 190.566 -0.00278198C190.566 -0.00278198 184.176 14.8682 174.629 29.7597C176.476 29.5604 188.529 28.1558 188.529 28.1558C188.529 28.1558 177.675 46.1364 165.141 59.0964L172.156 60.8418C172.156 60.8418 161.226 76.5934 146.8 89.4506C126.055 107.937 115.381 105.098 115.381 105.098C99.9817 116.252 87.6388 110.599 87.6388 110.599C87.6388 110.599 92.9714 97.1409 87.4621 95.7121C82.4961 94.4216 74.9408 98.3044 73.9974 99.8618C73.017 103.258 68.8883 111.882 64.623 117.102C56.4443 127.108 47.3752 131.198 47.3752 131.198C47.3752 131.198 40.2314 125.102 40.1849 114.725C40.1849 114.725 35.2783 119.922 27.2908 121.621C21.6996 122.81 14.0689 121.844 6.25176 115.318C1.0077 110.93 0.00488281 96.2084 0.00488281 96.2084C0.00488281 96.2084 4.93707 86.7859 14.4499 78.5284C12.3445 76.7219 11.0539 74.4493 10.6489 73.0465C35.9343 62.0102 35.9518 51.4752 56.0552 38.6684C75.8602 26.0506 88.3052 20.249 111.027 9.69651" fill="white"/>
<path d="M98.7051 18.6384L90.7614 26.9634C106.45 20.019 139.58 8.73998 139.58 8.73998L129.965 18.1465C163.933 7.62936 185.48 4.06623 185.48 4.06623C185.48 4.06623 178.439 19.7584 169.07 33.0881C173.606 32.6526 183.069 31.5533 183.069 31.5533C183.069 31.5533 173.606 47.4077 159.621 60.8371C161.175 61.0653 167.522 62.5133 167.522 62.5133C167.522 62.5133 159.087 75.028 144.429 87.8642C125.717 104.247 117.416 102.308 117.416 102.308C117.416 102.308 117.596 101.668 117.578 100.673C117.565 100.124 117.448 99.6254 117.443 99.5852C103.038 113.141 91.0378 108.567 91.0378 108.567C91.0378 108.567 96.3656 95.6683 88.1931 93.0649C81.8625 91.0495 72.165 96.2308 71.3922 99.0064C70.5516 102.025 66.5306 110.401 62.5431 115.309C55.6259 123.825 47.9697 127.711 47.9697 127.711C47.9697 127.711 41.0091 122.356 43.4231 106.684C43.9503 103.268 43.2737 101.935 42.9008 101.361C41.7581 99.6122 32.853 101.52 30.6802 106.488C29.147 109.996 37.9958 112.961 37.9958 112.961C37.9958 112.961 33.9121 117.466 26.7749 118.925C22.2877 119.847 15.3368 119.553 8.03863 113.235C3.72019 109.497 2.8252 96.847 2.8252 96.847C2.8252 96.847 8.15926 87.0755 18.5496 78.6364C16.4989 77.2945 14.9414 75.0202 14.5477 74.1267C35.4839 65.1089 38.3543 52.358 61.9883 38.108C73.0036 31.4674 84.6055 24.9327 98.7039 18.6392" fill="#004C54"/>
<path d="M154.336 62.6356C155.175 62.8092 158.614 63.4312 160.53 64.2251C153.338 75.8898 131.842 98.7939 119.83 99.7376C119.695 97.7287 118.916 96.0154 117.974 94.8342C113.466 103.074 99.7006 108.132 93.9856 106.809C100.925 81.387 71.484 91.0732 69.2259 98.0517C63.3647 116.172 48.4859 124.698 48.4859 124.698C48.4859 124.698 43.7303 119.28 45.7698 107.079C47.2741 98.0842 41.5833 98.3636 41.5833 98.3636C39.314 98.2591 30.7029 99.2973 27.9867 105.306C25.7962 110.145 33.4639 113.543 33.4639 113.543C33.4639 113.543 22.3923 122.382 9.58326 111.426C6.44139 108.739 5.27295 97.3926 5.27295 97.3926C11.4333 87.1807 19.5523 80.6863 22.9161 78.2726C19.3498 76.9049 18.2392 75.0535 18.2392 75.0535C35.4373 67.1673 42.1823 54.0595 56.8236 44.3185C72.9576 33.5845 85.3086 28.3129 85.3086 28.3129L80.648 34.1788C80.648 34.1788 84.5501 32.5107 86.252 31.6765C101.616 24.1359 127.649 15.9184 127.649 15.9184L119.531 23.7821C119.531 23.7821 132.989 19.1728 149.946 15.5503C158.977 13.6201 177.845 9.64871 177.845 9.64871C177.845 9.64871 173.412 22.6793 163.996 35.9078C169.684 35.5076 175.815 35.1733 175.815 35.1733C175.815 35.1733 169.223 48.4339 154.337 62.6361" fill="black"/>
<path d="M84.3985 44.9734C84.2025 45.0424 84.0225 45.1115 83.8296 45.1807C83.9967 45.1164 84.1719 45.0569 84.3407 44.9974C84.36 44.9878 84.3793 44.9798 84.3985 44.9734Z" fill="black"/>
<path d="M83.7358 45.2144C83.768 45.2015 83.7969 45.1919 83.8291 45.1806C83.7985 45.1919 83.768 45.2015 83.7358 45.2144Z" fill="black"/>
<path d="M104.002 75.6637C104.002 75.6637 95.7766 71.6684 82.8069 75.9064C82.8069 75.9064 100.698 65.2992 123.344 69.8105C108.65 64.8748 95.4219 67.2198 87.61 69.8474C83.0282 71.6153 80.3057 73.0778 80.3057 73.0778C80.3057 73.0778 81.4532 72.2388 83.5988 70.9659C88.9041 67.0638 96.1844 62.8387 103.388 59.8719C108.387 57.8131 118.35 55.1516 122.402 54.9188C122.402 54.9188 111.981 53.1541 102.475 55.5504C102.475 55.5504 117.526 49.6779 132.13 49.3532C137.02 49.2439 148.211 49.8369 148.211 49.8369C132.07 45.046 115.342 44.1026 103.911 45.856C97.4147 47.4664 92.2894 49.0719 92.2894 49.0719C92.2894 49.0719 93.1878 48.6171 94.9026 47.8875C99.0233 45.4414 115.927 36.3578 147.356 31.4543C147.356 31.4543 143.338 30.977 138.425 30.977C133.403 30.977 123.523 32.6742 123.523 32.6742C130.678 29.4054 144.162 26.236 160.836 24.6288C160.836 24.6288 135.358 21.6058 104.514 31.2729C104.249 31.3854 104.106 31.4497 104.106 31.4497C104.106 31.4497 107.358 29.0936 111.033 26.6556C113.741 24.8588 117.659 22.0544 117.659 22.0544C117.659 22.0544 101.84 25.8425 80.4119 36.0156C74.3707 38.8828 71.1804 40.5897 71.1804 40.5897C72.1077 39.5177 76.4054 35.7475 77.445 34.4069C61.5441 42.2047 55.7391 47.3638 46.2907 57.3794C37.8628 66.3169 38.2454 67.8741 25.4541 74.7881C25.4541 74.7881 34.8769 78.6566 44.4216 72.4401C46.0737 71.3665 47.631 69.8574 49.1097 68.2807C52.4863 64.3641 51.3694 60.3463 55.8516 57.4598C55.2119 58.9496 54.1593 60.8394 54.0644 62.7891C56.218 59.8223 60.4738 55.9169 65.2101 53.0916C77.2541 45.911 85.2463 44.6735 85.2463 44.6735C84.9378 44.7812 84.6404 44.8905 84.3399 44.9998C67.8796 51.8429 65.1924 60.7866 65.1087 61.7254C64.9303 63.7423 71.0584 59.2247 76.0693 58.6139C70.7977 60.475 66.2737 64.9574 64.0833 70.1339C63.1544 72.3261 62.8716 74.8236 60.2696 76.7764C59.5351 77.445 58.5724 78.1039 57.2899 78.6841C53.8299 80.2478 51.4368 79.4588 50.6268 78.9172C50.1399 78.5941 49.8393 78.0461 49.8393 78.0461C51.5156 78.5186 53.7946 78.1072 55.8743 76.7941C57.4107 75.825 58.5518 74.5441 59.1656 73.2457C59.1671 73.2457 59.1688 73.2457 59.1704 73.2472C59.5047 72.5545 60.1315 71.2013 59.2106 69.4785C58.7429 68.5993 57.7722 68.1253 56.6649 67.9517C56.734 67.7668 57.3109 66.3011 59.1174 64.1348C56.6633 65.8994 55.0736 68.0207 54.2477 68.9804C55.408 69.1106 56.4109 69.6538 56.9718 70.5859C58.0791 72.4325 57.0474 75.0778 54.6655 76.4969C52.2838 77.9192 49.4568 77.5737 48.348 75.7303C48.2098 75.4988 48.1054 75.2498 48.0314 74.9958C47.9044 75.0681 47.7807 75.1437 47.6521 75.2096C46.9064 75.5953 45.4038 76.2333 45.4038 76.2333C46.1157 76.3988 47.0688 76.4712 47.6618 76.3587C47.8579 78.9671 49.4891 83.1602 58.6724 80.7912C56.0495 83.3723 49.7302 83.2019 45.9005 81.1962C46.4213 81.5851 47.0223 81.9998 47.7375 82.4433C59.2544 89.5983 72.5166 82.8628 75.7547 80.9985C76.5454 80.4923 77.3442 80.0342 78.1526 79.6356C78.1526 79.6356 74.7969 82.596 72.5226 87.1875C76.5582 82.0269 88.2807 73.7534 104.001 75.6644" fill="white"/>
<path d="M104.002 75.6637C104.002 75.6637 95.7766 71.6684 82.8069 75.9064C82.8069 75.9064 100.698 65.2992 123.344 69.8105C108.65 64.8748 95.4219 67.2198 87.61 69.8474C83.0282 71.6153 80.3057 73.0778 80.3057 73.0778C80.3057 73.0778 81.4532 72.2388 83.5988 70.9659C88.9041 67.0638 96.1844 62.8387 103.388 59.8719C108.387 57.8131 118.35 55.1516 122.402 54.9188C122.402 54.9188 111.981 53.1541 102.475 55.5504C102.475 55.5504 117.526 49.6779 132.13 49.3532C137.02 49.2439 148.211 49.8369 148.211 49.8369C132.07 45.046 115.342 44.1026 103.911 45.856C97.4147 47.4664 92.2894 49.0719 92.2894 49.0719C92.2894 49.0719 93.1878 48.6171 94.9026 47.8875C99.0233 45.4414 115.927 36.3578 147.356 31.4543C147.356 31.4543 143.338 30.977 138.425 30.977C133.403 30.977 123.523 32.6742 123.523 32.6742C130.678 29.4054 144.162 26.236 160.836 24.6288C160.836 24.6288 135.358 21.6058 104.514 31.2729C104.249 31.3854 104.106 31.4497 104.106 31.4497C104.106 31.4497 107.358 29.0936 111.033 26.6556C113.741 24.8588 117.659 22.0544 117.659 22.0544C117.659 22.0544 101.84 25.8425 80.4119 36.0156C74.3707 38.8828 71.1804 40.5897 71.1804 40.5897C72.1077 39.5177 76.4054 35.7475 77.445 34.4069C61.5441 42.2047 55.7391 47.3638 46.2907 57.3794C37.8628 66.3169 38.2454 67.8741 25.4541 74.7881C25.4541 74.7881 34.8769 78.6566 44.4216 72.4401C46.0737 71.3665 47.631 69.8574 49.1097 68.2807C52.4863 64.3641 51.3694 60.3463 55.8516 57.4598C55.2119 58.9496 54.1593 60.8394 54.0644 62.7891C56.218 59.8223 60.4738 55.9169 65.2101 53.0916C77.2541 45.911 85.2463 44.6735 85.2463 44.6735C84.9378 44.7812 84.6404 44.8905 84.3399 44.9998C67.8796 51.8429 65.1924 60.7866 65.1087 61.7254C64.9303 63.7423 71.0584 59.2247 76.0693 58.6139C70.7977 60.475 66.2737 64.9574 64.0833 70.1339C63.1544 72.3261 62.8716 74.8236 60.2696 76.7764C59.5351 77.445 58.5724 78.1039 57.2899 78.6841C53.8299 80.2478 51.4368 79.4588 50.6268 78.9172C50.1399 78.5941 49.8393 78.0461 49.8393 78.0461C51.5156 78.5186 53.7946 78.1072 55.8743 76.7941C57.4107 75.825 58.5518 74.5441 59.1656 73.2457C59.1671 73.2457 59.1688 73.2457 59.1704 73.2472C59.5047 72.5545 60.1315 71.2013 59.2106 69.4785C58.7429 68.5993 57.7722 68.1253 56.6649 67.9517C56.734 67.7668 57.3109 66.3011 59.1174 64.1348C56.6633 65.8994 55.0736 68.0207 54.2477 68.9804C55.408 69.1106 56.4109 69.6538 56.9718 70.5859C58.0791 72.4325 57.0474 75.0778 54.6655 76.4969C52.2838 77.9192 49.4568 77.5737 48.348 75.7303C48.2098 75.4988 48.1054 75.2498 48.0314 74.9958C47.9044 75.0681 47.7807 75.1437 47.6521 75.2096C46.9064 75.5953 45.4038 76.2333 45.4038 76.2333C46.1157 76.3988 47.0688 76.4712 47.6618 76.3587C47.8579 78.9671 49.4891 83.1602 58.6724 80.7912C56.0495 83.3723 49.7302 83.2019 45.9005 81.1962C46.4213 81.5851 47.0223 81.9998 47.7375 82.4433C59.2544 89.5983 72.5166 82.8628 75.7547 80.9985C76.5454 80.4923 77.3442 80.0342 78.1526 79.6356C78.1526 79.6356 74.7969 82.596 72.5226 87.1875C76.5582 82.0269 88.2807 73.7534 104.001 75.6644" stroke="white" stroke-width="0.312498"/>
<path d="M61.8953 64.3139C62.3372 66.0142 65.2896 64.2577 65.2896 64.2577C65.2896 64.2577 61.2974 67.6373 59.6984 71.2858C59.6887 71.4867 59.6984 72.2179 59.1729 73.2465C59.5618 73.3365 59.9668 73.3943 60.3075 73.3574C61.3409 73.2449 62.5511 72.5153 62.5511 72.5153C62.5511 72.5153 62.5752 74.6817 60.2721 76.7759C62.8741 74.8232 63.1569 72.3256 64.0859 70.1334C66.2764 64.9568 70.8006 60.4746 76.0718 58.6134C71.0609 59.2241 64.9328 63.7418 65.1112 61.7248C65.1948 60.7862 67.8819 51.8426 84.3424 44.9992C84.1737 45.0587 83.7703 45.2033 83.7381 45.2162C68.6535 50.8443 60.7222 59.7865 61.8956 64.314" fill="#A5ACAF"/>
<path d="M55.6143 71.2202C56.397 72.5252 55.6191 74.4249 53.8754 75.4662C52.1316 76.506 50.0841 76.2923 49.2998 74.9857C49.1792 74.7864 49.1069 74.5694 49.0587 74.346C48.7276 74.5806 48.3853 74.7976 48.0317 74.9953C48.1057 75.2492 48.2101 75.4983 48.3484 75.7298C49.4573 77.5732 52.2843 77.9187 54.6659 76.4964C57.0477 75.0773 58.0796 72.432 56.9721 70.5854C56.4112 69.6533 55.4084 69.1101 54.248 68.9799C53.9812 69.3126 53.6823 69.6919 53.356 70.0936C54.3203 70.1049 55.1723 70.4826 55.6143 71.2202Z" fill="#004C54"/>
<path d="M53.8767 75.4636C55.6204 74.4222 56.3983 72.5225 55.6156 71.2176C55.1736 70.48 54.3218 70.1023 53.3576 70.091C52.6858 70.9187 51.8886 71.8476 50.9742 72.7332C50.9292 73.4709 51.0979 74.4078 52.006 75.0941C52.006 75.0941 50.971 75.1793 50.2976 74.6826C49.9151 74.3998 49.7511 74.0655 49.6836 73.8726C49.4811 74.0366 49.2722 74.1925 49.0601 74.3435C49.1083 74.5669 49.1806 74.7839 49.3011 74.9832C50.0854 76.2898 52.1329 76.5034 53.8767 75.4636Z" fill="black"/>
<path d="M50.2985 74.6826C50.9719 75.1792 52.0069 75.0941 52.0069 75.0941C51.0989 74.4078 50.9301 73.4708 50.9751 72.7331C50.5669 73.1285 50.1378 73.5126 49.6846 73.8726C49.7521 74.0655 49.916 74.3998 50.2985 74.6826Z" fill="white"/>
<path d="M148.211 49.8358C148.211 49.8358 137.02 49.2428 132.13 49.3521C117.526 49.6768 102.475 55.5493 102.475 55.5493C111.981 53.153 122.402 54.9177 122.402 54.9177C118.35 55.1507 108.388 57.8121 103.388 59.8708C96.1847 62.8376 88.9044 67.0627 83.5991 70.9648C92.0913 65.9298 116.24 54.0948 146.887 60.6245C146.887 60.6245 148.889 59.0833 154.222 53.2317C159.877 47.0298 161.081 43.203 161.081 43.203C161.081 43.203 135.064 40.4098 116.228 43.3074C112.165 43.931 107.793 44.8953 103.911 45.8548C115.342 44.1014 132.071 45.0448 148.211 49.8357" fill="#A5ACAF"/>
<path d="M88.1707 80.7265C109.438 75.4503 124.218 81.8467 125.993 88.5662C125.993 88.5662 126.065 88.5309 126.201 88.4569C127.063 87.9893 130.367 86.5798 135.341 81.686C140.564 76.5447 143.838 72.421 145.132 69.6454C123.377 58.741 99.3693 65.3044 87.6099 69.8463C95.4206 67.2186 108.649 64.8737 123.344 69.8093C100.698 65.298 82.8068 75.9052 82.8068 75.9052C95.7765 71.6671 104.002 75.6625 104.002 75.6625C88.2805 73.7517 76.558 82.0253 72.5237 87.1857C72.2135 87.8172 71.921 88.4762 71.6606 89.1641C75.301 85.7344 79.1932 82.9525 88.1707 80.7265Z" fill="#A5ACAF"/>
<path d="M160.836 24.6266C144.162 26.2338 130.678 29.4032 123.523 32.6719C123.523 32.6719 133.403 30.9748 138.425 30.9748C143.338 30.9748 147.356 31.4521 147.356 31.4521C115.928 36.3556 99.0247 45.439 94.9028 47.8853C99.0781 46.1158 108.12 42.7037 121.066 40.1387C133.277 37.7199 147.465 37.1189 153.178 36.5499C161.323 28.6815 164.521 18.7493 164.521 18.7493C164.521 18.7493 150.337 19.8936 134.236 22.8812C117.493 25.9894 106.672 30.3562 104.514 31.2706C135.358 21.6037 160.836 24.6265 160.836 24.6265" fill="#A5ACAF"/>
<path d="M76.2017 89.2512C76.2017 89.2512 81.5614 85.2187 90.6579 86.6813C104.114 88.8445 103.729 97.3223 103.729 97.3223C103.729 97.3223 109.786 94.7171 112.849 89.3895C112.849 89.3895 109.05 85.7638 102.179 84.5504C84.2648 81.386 76.2017 89.2512 76.2017 89.2512Z" fill="#A5ACAF"/>
<path d="M33.8458 85.8168C32.5151 86.2121 29.6398 86.6203 31.006 84.5728C31.006 84.5728 32.7352 83.6407 35.0478 82.4418C36.0427 83.2566 37.0761 83.8255 39.781 84.0843C39.781 84.0843 34.9242 85.4954 33.8458 85.8168ZM39.4289 79.4671C35.9736 80.5246 31.5908 80.2224 29.172 79.5667C26.3836 81.4888 16.3439 85.7864 9.95703 96.5977C10.2865 100.262 10.6658 104.952 12.1717 107.523C18.3126 117.222 29.0401 113.636 29.0401 113.636C29.0401 113.636 12.742 106.404 30.1635 95.8614C35.7257 92.4961 51.1126 89.9695 60.2894 92.9203C61.0721 93.208 62.0396 93.8959 61.9737 94.071C61.0223 98.7429 57.17 111.825 50.7831 115.544C47.2522 110.389 56.5703 98.5485 47.0659 98.097C47.0659 98.097 49.43 101.763 48.4111 106.687C47.9627 108.849 46.4905 114.62 49.1214 120.592C49.1214 120.592 63.5696 111.951 67.8574 92.006C68.4134 90.0421 68.7895 88.377 69.6429 86.8695C51.0788 94.1851 39.4285 79.467 39.4285 79.467" fill="#A5ACAF"/>
<path d="M31.0068 84.573C29.6407 86.6205 32.5159 86.2123 33.8466 85.8169C34.925 85.4955 39.7819 84.0844 39.7819 84.0844C37.0771 83.8257 36.0438 83.2568 35.0488 82.4419C32.7361 83.6409 31.0068 84.573 31.0068 84.573Z" fill="black"/>
</g>
<defs>
<clipPath id="clip0_486_1257">
<rect width="190.57" height="131.2" fill="white"/>
</clipPath>
</defs>
</svg>
