<svg width="50" height="50" viewBox="0 0 193 183" fill="none" xmlns="http://www.w3.org/2000/svg">
<path d="M179.219 39.6848C153.626 23.5289 95.0049 11.1717 51.2722 1.00695L0.99707 55.0457L44.1523 54.1238C22.6641 88.8392 27.0427 170.475 81.3815 181.321C78.5839 175.959 73.7268 166.107 80.0231 153.911C84.5075 145.237 109.439 97.5478 109.439 97.5478H115.407C123.488 97.5478 126.148 100.586 122.564 104.869C144.106 104.594 157.334 96.4494 163.269 87.7457C158.75 79.4781 144.374 69.7436 138.547 65.7987H168.688C177.33 65.7987 179.28 69.4201 177.245 73.3627C191.351 70.5896 198.562 51.8919 179.213 39.6785" fill="#A5ACAF"/>
<path d="M175.769 41.3346C140.911 21.7838 54.5981 8.75156 54.5981 8.75156L17.624 48.3569H55.9594C27.6551 85.7548 33.9274 161.248 75.5502 176.941C72.5981 169.922 71.1025 161.774 76.423 151.408C82.4276 139.718 91.9852 120.066 105.676 93.8308H116.849C126.122 93.8308 129.086 97.7514 127.829 100.777C135.454 100.777 149.396 100.029 159.512 87.7522C151.085 75.9784 123.219 62.2503 123.219 62.2503H171.023C178.047 62.2503 181.558 64.7488 180.588 68.9807C192.8 63.0177 189.625 49.1044 175.769 41.3346Z" fill="white"/>
<path d="M52.1613 14.2763L55.5284 18.5594L34.0039 41.7308L109.705 47.5198C109.565 47.7944 109.426 48.0752 109.283 48.3596H58.4385L62.3759 52.0743C59.1615 56.598 56.423 61.4848 54.1281 66.599L96.6431 57.9117C96.4126 58.2501 96.1831 58.5933 95.9576 58.939L45.3067 75.8196L49.7597 78.341C47.6648 85.2929 46.3088 92.4937 45.6588 99.6975L88.6948 73.5771C88.5673 73.9719 88.4414 74.3674 88.3237 74.7646L40.8658 112.211L45.2427 113.308C45.4879 121.429 46.6273 129.345 48.606 136.691L87.2381 91.1529C87.3018 91.5158 87.372 91.8804 87.4529 92.2408L49.1898 148.39L52.7913 148.637C57.2267 158.616 63.5281 166.802 71.5529 171.89C68.4561 165 69.4427 156.73 73.0372 149.366C76.1511 142.991 116.716 62.2156 116.716 62.2156L109.943 58.5868H172.973C179.426 58.5868 183.002 61.2972 182.931 64.9382C186.92 61.5718 187.81 51.3745 174.32 43.9717C145.001 27.8801 52.153 14.2754 52.153 14.2754L52.1613 14.2763ZM119.193 63.5391L120.074 66.1524C117.994 70.22 110.542 84.9859 107.961 90.1518H127.298C127.561 93.577 130.963 96.4829 134.494 97.2551C132.402 94.46 133.233 91.6867 134.792 90.1518H143.925C146.463 90.1518 145.681 93.1981 141.552 96.3685C148.013 94.8924 152.838 91.953 155.993 87.7554C150.003 78.6124 119.193 63.5391 119.193 63.5391Z" fill="black"/>
<path d="M177.657 49.7716L178.466 53.3514C172.949 54.3886 163.189 55.2149 160.43 55.438C160.295 55.7126 160.155 55.9872 160.013 56.2692H174.543C180.308 56.2692 182.735 59.0031 183.247 60.5747C184.003 58.4243 183.306 52.6575 177.657 49.7716ZM161.498 42.6954C164.72 43.7693 171.971 47.815 174.717 50.9804H169.507C167.452 47.6016 161.498 42.6954 161.498 42.6954Z" fill="white"/>
<path d="M59.8682 26.145L53.7218 32.8011L154.189 46.7027C154.373 46.3374 154.558 45.9772 154.732 45.6266C134.193 39.6417 93.7168 31.3749 59.8756 26.145H59.8682ZM93.6424 53.2834L66.362 53.9025C64.9963 55.7733 63.729 57.7199 62.5496 59.7305L92.8379 54.3204C93.1027 53.9723 93.3727 53.6242 93.6424 53.2834ZM84.0046 69.269L54.2043 79.9758C53.5423 82.4325 52.9802 84.9259 52.5168 87.4365L83.4801 70.5289C83.6468 70.1096 83.8221 69.6884 84.0035 69.2691L84.0046 69.269ZM117.088 82.6637L114.861 86.9741H138.515C138.691 86.6235 138.861 86.2773 139.03 85.9389L117.091 82.662L117.088 82.6637ZM79.8987 89.1176L51.0894 113.608C51.283 116.322 51.5891 119.005 51.9936 121.633L79.946 90.4469C79.9239 90.0007 79.909 89.5568 79.8991 89.113L79.8987 89.1176ZM84.9904 108.512L59.846 146.425C61.1651 148.924 62.6247 151.26 64.2111 153.406L85.5796 109.602C85.3785 109.241 85.1816 108.875 84.9904 108.512Z" fill="#A71930"/>
</svg>
