<svg width="50" height="50" viewBox="0 0 460 272" fill="none" xmlns="http://www.w3.org/2000/svg">
<g clip-path="url(#clip0_486_1182)">
<path d="M230 272C357.025 272 460 211.111 460 136C460 60.8893 357.025 0 230 0C102.975 0 0 60.8893 0 136C0 211.111 102.975 272 230 272Z" fill="white"/>
<path d="M229.5 267C352.659 267 452.5 208.797 452.5 137C452.5 65.203 352.659 7 229.5 7C106.34 7 6.5 65.203 6.5 137C6.5 208.797 106.34 267 229.5 267Z" fill="black"/>
<path d="M230.5 258.5C337.919 258.5 425 204.774 425 138.5C425 72.2258 337.919 18.5 230.5 18.5C123.081 18.5 36 72.2258 36 138.5C36 204.774 123.081 258.5 230.5 258.5Z" fill="#B3995D"/>
<path d="M231 248.5C329.859 248.5 410 198.356 410 136.5C410 74.6441 329.859 24.5 231 24.5C132.141 24.5 52 74.6441 52 136.5C52 198.356 132.141 248.5 231 248.5Z" fill="#AA0000"/>
<path d="M370.848 121.879H370.356V117.805H366.778H299.356C297.833 109.815 293.235 102.405 286.68 96.619C280.223 89.193 270.836 83.609 260.157 81.488L255.727 80.578C245.477 78.424 237.387 76.719 204.821 76.883C204.821 76.883 198.555 76.668 192.477 75.863C190.938 75.474 189.586 75.008 188.426 74.508C188.875 71.799 193.836 68.065 199.426 67.34C200.008 67.235 235.25 60.75 271.528 84.244L272.419 84.818H296.259V48.334H292.181V44.258H259.462C259.462 44.258 255.575 47.225 253.95 48.469C244.532 46.11 198.391 36.014 158.555 53.453C141.813 60.373 131.422 73.433 132.157 86.693C132.532 93.379 135.735 99.209 141.266 103.734C145.336 108.814 151.735 112.779 160.071 115.179C171.868 118.577 181.852 119.978 191.536 120.533V121.703V137.168H195.618V141.244H208.056C213.208 141.244 214.533 144.099 214.849 145.162C198.974 144.123 174.826 139.603 157.056 123.154L156.388 122.433H156.263C155.283 121.497 154.318 120.529 153.376 119.513L152.313 118.359H134.418V170.295H138.496V174.365H153.086C155.227 174.513 162.008 173.756 166.688 160.092C174.278 162.733 192.981 168.365 216.016 168.99V201.299C215.211 212.147 191.313 215.545 182.985 215.873L179.547 216.006V232.069H183.621V236.139H288.547V220.772L285.871 220.061C285.391 219.94 284.937 219.815 284.473 219.686V216.17L281.196 215.889C275.298 215.366 270.758 214.342 267.235 213.092C260.641 209.389 259.512 206.389 259.372 205.904V188.677H290.126C293.372 189.169 296.153 190.591 298.513 192.443C302.943 197.896 304.958 204.131 304.993 204.232L305.778 206.755L308.419 206.771H308.501C308.868 207.693 309.064 208.279 309.067 208.31L309.852 210.841H312.493H326.376V148.353H322.794H322.302V144.271H318.712H305.853L305.259 147.134C300.946 167.896 276.939 167.591 255.591 164.478C259.771 163.341 263.978 161.966 268.173 160.298C279.603 155.755 288.177 149.575 293.528 142.341H339.61C342.825 142.443 345.555 143.243 347.852 144.747C352.688 151.841 352.2 162.27 352.196 162.395L351.997 166.172H355.778H356.286C356.282 166.34 356.278 166.449 356.278 166.465L356.071 170.246L359.86 170.254H374.438V121.877H370.848V121.879Z" fill="black"/>
<path d="M297.34 134.674H335.535C357.351 135.369 355.773 162.588 355.773 162.588H366.773V121.389H300.851C300.851 121.389 300.695 130.609 297.34 134.674Z" fill="white"/>
<path d="M219.598 169.861V201.498C218.465 218.08 183.133 219.455 183.133 219.455V228.482H280.887V219.455C251.836 216.943 251.707 202.139 251.707 202.139V181.014H286.43C302.313 183.28 308.418 203.182 308.418 203.182H318.711V147.862H308.766C301.852 181.186 250.786 166.194 247.008 167.03C247.008 167.03 234.43 170.17 219.598 169.861Z" fill="white"/>
<path d="M250.098 115.434C263.368 119.323 264.602 129.448 256.832 138.928C246.891 148.311 231.707 148.698 231.707 148.698C231.707 148.698 180.582 154.225 150.746 121.948H138.008V166.71H149.172C149.172 166.71 155.977 167.753 160.34 151.351C160.34 151.351 212.836 172.714 262.77 152.89C311.133 133.679 292.727 91.603 259.45 85.009C246.653 82.474 241.563 80.284 204.837 80.474C204.837 80.474 198.208 80.263 191.751 79.388C171.509 74.329 183.021 61.243 194.892 59.708C194.892 59.708 231.361 52.519 269.404 77.159H288.599V47.842H260.673L254.743 52.377C254.743 52.377 202.977 37.922 159.993 56.738C131.102 68.683 125.438 98.562 156.993 107.658C184.782 115.668 202.497 112.312 230.657 113.387C238.527 113.688 245.367 113.998 250.098 115.434Z" fill="white"/>
<path d="M208.387 133.582H195.121V121.703C205.402 121.703 226.371 121.787 241.207 121.703C256.137 121.703 258.125 130.332 251.836 136.168C245.906 141.67 233.484 145.588 218.781 142.912C218.781 142.912 217.57 133.582 208.387 133.582Z" fill="white"/>
</g>
<defs>
<clipPath id="clip0_486_1182">
<rect width="460" height="272" fill="white"/>
</clipPath>
</defs>
</svg>
