<svg width="50" height="50" viewBox="0 0 226 243" fill="none" xmlns="http://www.w3.org/2000/svg">
<path d="M136.417 0.109375C99.6725 0.109375 68.1349 22.4069 54.5874 54.2044L41.3975 54.2238V57.1322H53.4156C49.6108 67.0295 47.5043 77.7822 47.5043 89.0222C47.5043 138.126 87.3156 177.937 136.417 177.937C185.523 177.937 225.332 138.126 225.332 89.0222C225.332 39.9185 185.524 0.109375 136.417 0.109375Z" fill="#FFB612"/>
<path d="M136.418 165.534C178.672 165.534 212.924 131.279 212.924 89.0281C212.924 46.7769 178.672 12.5219 136.418 12.5219C94.1666 12.5219 59.9141 46.7769 59.9141 89.0281C59.9141 131.279 94.1666 165.534 136.418 165.534Z" fill="white"/>
<path d="M88.255 81.7844C88.255 81.7844 82.0006 96.9194 82.2736 108.887C82.2736 108.887 84.2208 104.399 84.9019 105.169C84.9019 105.169 79.2805 124.022 83.5419 134.808C83.5419 134.808 84.4477 131.817 85.989 130.003C85.989 130.003 88.3443 126.288 89.2503 123.295C89.2503 123.295 89.7044 124.565 89.9774 126.831C89.9774 126.831 92.0621 124.203 92.5139 122.389C92.869 120.971 93.7821 119.401 94.4175 117.586L95.1447 117.951C95.1447 117.951 99.4035 112.781 101.034 108.071C101.034 108.071 102.305 107.89 101.67 111.605C101.67 111.605 105.204 108.16 105.295 102.812L106.02 103.628C109.011 107.346 109.011 113.054 108.921 116.588C108.194 127.918 102.394 133.991 95.1452 140.608L95.7806 141.152C106.564 139.159 113.672 137.994 124.601 141.152C128.765 142.355 138.832 146.952 143.726 150.037C143.726 150.037 154.604 154.75 162.218 154.75C162.218 154.75 162.578 154.929 162.578 154.52C162.578 154.52 161.764 151.711 162.489 141.152C162.489 141.152 163.305 136.26 163.938 132.904C163.938 132.904 164.755 130.638 164.844 126.015C164.851 125.643 164.482 122.843 166.385 123.113C170.516 123.705 172.821 122.754 175.995 122.208C175.995 122.208 179.346 121.212 180.708 121.12C180.708 121.12 183.894 121.63 184.875 121.302C185.964 120.939 187.141 120.033 188.593 118.673C188.593 118.673 190.223 116.951 189.136 113.054C189.136 113.054 188.049 109.52 188.685 108.431C188.685 108.431 189.634 106.03 191.04 104.626C191.04 104.626 192.035 102.993 190.678 102.179C190.678 102.179 189.95 101.362 191.175 101.044C191.175 101.044 192.081 101.138 192.67 100.819C192.67 100.819 192.989 100.684 193.033 100.005C193.081 99.2728 193.398 95.7435 191.04 92.661C191.04 92.661 191.719 92.8422 192.216 93.0234C192.216 93.0234 195.12 93.2939 196.613 92.5716C197.927 91.8469 199.833 90.9387 199.56 86.5879C198.835 82.9619 197.384 80.7878 195.934 76.7076C194.212 72.3569 193.939 70.1828 190.313 67.1922C188.139 66.1945 187.141 64.5663 188.774 62.9308C190.042 61.0297 189.591 57.5848 187.322 55.2295C185.148 53.053 183.518 49.7 182.701 47.9775C181.614 46.1633 180.435 44.1704 179.346 42.9915C178.258 41.6315 176.628 40.8174 173.727 37.3725C173.727 37.3725 172.004 35.8313 171.734 34.2007C169.286 30.391 162.489 25.045 154.694 24.5015C152.428 24.231 152.428 24.231 150.797 24.0474C148.077 23.0497 139.559 22.7791 133.757 24.4098C131.878 24.8132 128.138 25.4993 128.138 25.4993C126.143 26.1322 123.333 26.6757 120.253 28.5793C117.987 29.7581 114.632 32.5676 112.095 34.3818C109.378 37.0994 103.302 41.0878 99.949 43.3538C93.4242 48.1586 87.8052 54.5024 84.539 58.4912C84.539 58.4912 76.2918 68.8257 72.214 86.68C71.9411 89.3977 71.2188 92.026 71.6705 95.0166C71.6705 95.0166 75.2965 87.1341 78.6495 84.6846C78.6495 84.6846 78.1954 86.1365 77.9248 88.4917C77.9248 88.4917 79.6472 85.3199 80.3719 84.7764C80.3719 84.7764 81.6402 83.4164 83.4519 81.2397C83.4519 81.2397 87.2591 76.2561 88.3462 75.7126C86.9402 78.3409 86.6262 80.0634 86.4886 82.781C87.078 82.2374 87.4403 81.8292 87.6239 81.5127C87.6239 81.5127 87.9839 80.788 88.3462 80.9692C88.5298 81.4209 88.2569 81.7857 88.2569 81.7857" fill="black"/>
<path d="M145.005 31.8209C144.725 31.8099 144.455 31.8329 143.895 31.9209C143.745 31.9449 143.335 32.4059 143.205 32.4009C142.555 32.3769 141.805 32.2019 141.485 32.5609C140.965 33.1359 141.585 33.0689 142.235 33.3779C142.605 33.5489 143.365 33.9589 143.805 33.9519C145.635 33.9179 146.815 33.9019 148.245 34.6849C148.395 34.7689 149.045 35.4049 149.085 35.6419C147.715 35.6149 145.555 35.0779 143.985 35.2059C146.635 34.9929 141.285 35.2789 140.115 35.2329C139.775 35.2189 139.765 35.9359 140.305 36.3369C140.455 36.4379 141.265 36.2899 141.375 36.5459C141.855 36.2969 143.205 36.4199 143.605 36.5649C144.285 36.8139 143.895 36.7069 144.495 37.0179C144.865 37.2119 145.205 37.4739 145.635 37.4229C146.185 37.3579 146.225 36.5439 146.775 36.8079C146.965 36.8969 147.385 37.1509 147.475 37.1509C150.625 37.0909 150.695 38.0739 152.165 38.0579C152.545 38.0529 153.105 37.9059 153.365 38.0849C153.965 38.4959 154.515 38.5389 155.425 38.1769C155.425 38.1769 157.505 43.7979 156.965 54.0379C156.425 58.3889 156.155 59.2069 155.155 62.7409C155.155 62.7409 153.705 68.3619 154.245 72.2589C154.795 85.4029 150.805 96.2779 146.455 103.527C144.815 105.527 143.915 106.607 145.545 108.057C148.985 111.237 151.795 111.957 156.695 113.047C158.415 113.587 159.505 113.767 161.135 113.767C163.675 113.767 167.665 114.857 169.475 116.217C171.195 117.127 175.815 118.847 178.625 118.397C181.075 118.577 181.805 118.757 182.975 119.207C183.795 119.567 184.615 119.567 185.515 119.297C186.285 118.757 185.925 118.977 186.925 118.257C187.105 117.807 188.415 117.217 188.145 115.407C188.055 114.047 187.505 112.637 187.235 111.367C186.455 110.247 186.515 109.417 186.785 108.247C187.605 106.607 188.555 105.797 189.055 104.977C190.135 103.757 189.505 102.897 188.005 102.487C187.285 102.167 185.885 102.307 184.435 102.167C183.665 102.167 183.025 101.847 181.935 102.077C181.935 102.077 181.215 102.577 180.805 102.937L180.265 102.627C180.265 102.627 180.755 101.167 181.805 100.307C182.845 100.497 184.365 100.607 185.155 100.397C186.095 99.9769 187.175 99.7969 187.965 99.4969C189.325 99.3569 189.955 99.4469 191.595 99.5369C191.595 99.5369 192.405 96.0049 189.555 93.3329C188.875 92.6949 188.325 91.8799 187.325 91.8369C183.885 92.2429 181.985 90.8399 181.445 90.4759C180.575 90.4319 180.305 90.7929 179.855 91.3369C178.675 93.3319 177.275 94.0129 177.275 94.0129L176.545 93.9209C176.545 93.9209 177.175 92.8319 178.625 91.0199C179.265 89.5689 180.165 87.7539 180.985 86.8489C181.485 85.9889 181.625 84.0399 182.845 83.4989C183.435 83.4989 183.525 83.3609 183.975 83.6319C183.065 84.4969 180.535 87.5759 183.165 89.4769C184.245 90.3859 185.885 90.3859 186.285 89.4349C186.485 88.9129 186.925 88.5719 187.145 88.3929C188.505 88.1199 189.645 88.7989 190.095 89.1609C191.185 90.4319 191.815 91.0209 192.365 91.2919C192.945 91.7459 194.035 91.6569 194.585 91.6569C196.345 91.3379 197.305 90.3419 197.615 89.7039C198.575 87.7109 198.385 85.7619 197.025 83.4069C196.215 82.0469 195.665 80.5059 195.035 78.6019C194.765 77.8339 194.215 76.2479 193.585 74.8879C193.535 74.3439 192.405 71.8049 191.685 70.8089C189.865 68.1809 188.375 67.9539 187.375 66.8639C187.375 66.8669 187.015 66.8409 186.995 66.8519C185.935 67.5599 185.935 69.1079 185.035 70.2839C184.935 70.4149 184.635 70.5719 184.435 70.4759C184.145 70.3329 184.025 70.0839 183.695 69.6179C183.395 69.1759 183.165 69.4939 182.845 69.8559C182.635 69.8559 182.475 70.0239 182.315 70.1879C182.025 70.4809 182.255 70.6369 182.475 70.9659C182.705 71.3059 182.485 71.3059 182.615 71.4869C182.575 71.6249 182.535 71.6779 182.495 71.7409C182.385 71.9249 182.085 71.8789 181.875 71.8429C181.265 71.7409 181.405 71.7839 180.875 71.5299C180.215 71.2159 179.895 70.3549 179.395 70.0849C179.235 69.9979 178.715 69.9029 178.325 70.1609C178.035 70.3589 177.905 70.7869 178.155 71.0149C178.585 71.3989 178.915 71.8589 179.375 72.2019C179.985 72.6659 180.655 73.0009 180.745 73.6509C180.845 74.4769 179.635 74.7759 179.055 74.3489C178.755 74.1239 178.405 73.8649 178.085 73.5339C178.025 73.4779 177.985 73.2069 177.915 73.1589C177.655 72.9589 177.355 72.7279 177.215 72.5219C176.955 72.1359 176.615 71.7229 176.145 71.5439C176.045 71.5049 175.945 71.3419 175.875 71.2119C175.655 70.8349 175.895 70.3989 175.735 70.0559C175.605 69.7749 175.545 69.3139 175.135 69.4949C174.775 69.8569 174.825 69.8569 174.405 69.8209C173.885 69.7749 174.305 68.7959 174.305 68.9269C174.305 68.9799 174.275 68.9059 174.465 68.5869C174.095 68.4709 173.545 68.1759 173.965 67.6379C174.325 67.1829 174.675 67.8489 174.805 67.5809C174.855 67.4769 175.165 66.9049 175.285 66.8329C175.685 66.5939 175.805 66.9139 175.865 67.0009C175.685 67.4989 176.215 67.8279 176.715 67.5589C176.765 67.5309 176.735 67.1489 176.795 67.0579C177.255 66.2509 177.965 65.8299 178.705 65.2719C178.765 65.2219 178.975 65.1669 178.995 65.1239C179.215 64.6869 179.465 64.0519 179.005 63.8559C178.615 63.6919 177.825 63.8399 177.985 63.1589C178.055 62.8329 178.485 62.7109 178.715 62.6019C179.585 62.1969 180.465 61.8009 181.365 61.4479C181.575 61.3639 181.945 61.0359 182.225 61.0149C183.345 60.9199 183.085 60.9479 184.475 61.1939C184.715 61.2349 185.185 61.4919 185.415 61.5789C186.155 61.8349 187.205 61.7479 187.685 60.9559C188.165 60.1779 188.035 58.8679 187.545 57.9519C186.975 56.8479 186.085 55.8959 185.325 55.1379C184.345 54.1589 183.085 53.6619 182.835 52.3209C182.525 50.6859 181.255 48.5109 180.535 47.2139C179.775 45.8729 179.115 44.9809 178.145 43.7389C177.935 43.4539 176.525 42.0259 176.285 41.7919C174.685 40.2339 174.005 39.7179 172.295 39.1019C171.425 38.7879 168.025 38.9939 166.255 38.7669C165.705 38.6969 163.995 38.6529 163.535 37.7469C163.115 36.9179 162.585 35.7479 161.715 35.1939C161.395 34.9939 160.895 34.7829 160.565 34.6139C158.975 33.8099 157.325 32.4699 155.595 32.5399C154.975 32.5669 155.585 33.2439 155.745 33.3289C156.515 33.7369 156.875 34.1919 157.295 34.6919C157.745 35.2119 158.715 35.2299 159.545 35.5729C160.335 35.9019 160.995 36.4089 161.735 36.7959C162.435 37.1629 163.365 38.3729 162.595 38.8659C161.895 39.3179 161.155 38.7729 160.225 39.0029C160.045 39.0459 159.775 39.1749 158.685 39.1749C157.265 39.3679 156.775 38.6869 155.675 37.9069C154.575 37.1219 153.885 35.9119 152.815 35.1629C151.505 34.2449 150.195 33.4819 148.705 32.9599C148.375 32.8459 147.945 33.0269 147.655 32.8699C147.135 32.5799 146.745 31.9669 146.115 31.9189C145.555 31.8769 145.285 31.8319 145.005 31.8209ZM182.265 64.3899C182.145 64.3739 182.015 64.3849 181.875 64.4349C181.765 64.4729 180.875 65.2029 180.855 65.2389C180.355 66.1859 179.585 66.3009 179.245 66.9379C178.945 67.4989 178.765 67.6349 178.605 67.9969C178.535 68.1539 178.465 68.3259 178.685 68.4419C179.215 68.7249 179.445 68.6319 180.555 68.7939C180.555 68.7939 181.525 68.9489 182.415 68.1789C182.555 68.0579 183.295 67.6809 183.275 67.3819C183.175 66.0069 183.385 68.2869 183.115 66.2119C183.055 65.7719 183.075 65.3719 182.905 64.9009C182.835 64.7219 182.605 64.4369 182.265 64.3899ZM109.925 108.697C111.375 119.847 109.385 129.357 98.3213 139.327C118.805 135.527 127.785 140.327 142.375 147.757C143.555 148.357 142.195 146.987 142.195 146.987C141.745 146.677 140.675 145.017 140.465 144.637C139.965 143.747 139.585 143.077 139.295 142.367C138.835 141.277 137.955 140.517 136.495 139.097C135.765 138.387 134.625 137.137 134.165 136.217C133.445 134.797 133.035 132.257 131.325 131.057C129.995 130.137 130.315 129.087 129.165 127.297C128.725 126.617 127.835 126.537 127.175 125.867C125.515 124.197 126.565 123.547 125.115 122.017C124.475 121.337 124.195 121.207 123.645 120.187C122.935 118.867 123.475 117.137 122.255 116.537C121.165 115.987 120.325 115.797 119.575 115.547C118.445 115.177 116.625 114.237 115.595 113.437C114.515 112.597 112.295 110.757 109.925 108.697ZM144.095 116.127C144.095 117.397 144.275 118.307 143.325 119.567C143.955 121.117 144.505 124.507 145.225 125.327C146.815 126.827 148.085 127.997 149.125 131.577C149.355 132.437 150.075 132.897 150.125 133.527C150.185 134.437 150.495 134.277 150.995 135.537C151.245 136.157 151.965 137.267 152.335 137.577C154.425 139.327 155.875 142.047 155.735 144.847C155.835 146.217 155.905 146.127 157.245 147.087C157.475 147.247 157.595 147.257 158.325 147.937C158.595 148.167 160.545 150.257 160.815 150.477C160.775 149.667 160.905 148.277 160.885 147.847C160.765 143.567 161.585 139.147 160.135 135.417C159.055 132.617 156.605 129.467 155.645 126.537L155.165 124.947C154.655 122.667 154.615 120.297 154.615 120.297L151.585 118.847C149.195 117.887 146.495 117.017 144.095 116.127Z" fill="#5B2B2F"/>
<path d="M188.065 81.9378C187.745 81.9238 187.405 81.9738 187.015 82.1018C186.615 82.2328 186.875 82.7378 186.955 82.7528C188.595 83.0448 189.085 83.0518 190.595 84.4968C190.685 84.5858 191.015 84.6098 191.165 84.5108C191.595 84.2228 191.345 83.6918 191.055 83.4888C189.755 82.6098 189.015 81.9818 188.065 81.9378ZM178.205 82.5318C177.725 82.4578 177.655 82.9568 176.545 83.6138C175.665 84.1288 175.745 84.7878 174.575 85.0518C173.825 85.2208 172.965 85.4548 172.365 85.8558C171.015 86.7498 169.805 87.4658 168.415 88.1278C167.285 88.6618 166.045 88.8948 164.805 88.8658C163.735 88.8438 162.725 88.4178 161.635 88.3428C161.485 88.3328 161.625 88.5808 161.455 88.5278C161.385 89.0548 161.665 89.5398 162.175 89.7038H162.085C162.265 90.6338 162.165 91.6118 162.445 92.4908C162.485 92.6428 162.675 93.0038 162.905 93.0168C163.135 93.0288 163.235 93.2288 163.445 93.2698C163.575 93.2948 163.685 93.4988 163.685 93.6018C163.665 94.0978 163.925 94.6498 164.175 94.6568C165.555 94.6958 166.355 95.5368 166.955 96.6548C166.995 96.7468 167.385 96.7588 167.495 96.5748C168.165 95.4448 169.025 94.6148 169.935 93.7428C170.105 93.5788 170.595 93.6738 170.725 93.4738C171.045 92.9948 171.195 92.4598 171.445 91.9398C171.855 91.0588 172.065 90.0648 172.675 89.3128C173.765 87.9778 174.095 87.0338 175.555 85.9438C175.695 85.8428 176.365 85.1238 176.455 84.9698C176.905 84.2058 177.535 83.7698 178.015 83.3348C178.235 83.1318 178.645 82.6798 178.445 82.6008C178.355 82.5648 178.275 82.5428 178.205 82.5318ZM177.165 97.6998C176.645 97.7158 176.145 97.9888 175.905 98.4308C175.315 99.5568 175.165 100.867 175.475 102.107C175.565 102.437 176.145 102.547 176.355 102.267C176.835 101.627 176.685 100.767 176.995 100.057C177.295 99.3868 177.535 98.7488 177.765 98.0438V98.1358C177.825 97.9928 177.605 97.9188 177.675 97.7738C177.505 97.7188 177.335 97.6948 177.165 97.6998Z" fill="black"/>
<path d="M43.9429 64.3718C40.9498 68.6307 38.7757 75.3392 37.6887 80.1418C39.0463 79.4171 39.1382 79.5065 40.4088 79.0547C40.8605 76.7887 44.4333 63.6706 43.9429 64.3718ZM61.5267 212.109C63.3723 216.54 63.6091 220.811 61.9784 229.058C60.1667 227.336 60.0748 225.794 58.7148 224.978C58.536 229.691 58.3548 231.143 57.4489 233.228C55.5429 236.943 54.9994 238.847 54.91 242.47C51.7358 239.842 50.9193 236.218 48.7452 234.134C47.2039 232.59 44.1239 229.691 43.0368 227.788C42.8556 230.056 43.0368 230.872 42.1309 233.047C41.4014 230.534 41.3144 229.783 39.5919 227.698C37.3235 224.526 32.2505 217.456 31.0716 209.936C30.7987 208.665 30.074 204.947 29.2599 199.874C28.6246 201.594 27.5375 202.954 26.448 203.225C25.9045 203.498 25.9045 202.773 25.9045 202.773C26.3562 201.142 26.5398 199.328 26.3562 197.968C26.0857 195.975 25.5421 191.533 24.5445 190.446H24.0927C24.1821 193.436 23.0057 194.796 22.2785 195.794C22.1891 193.436 22.2785 191.622 21.7349 190.446C21.4644 189.629 20.829 188.904 20.6479 189.721C20.1961 192.079 20.0125 192.531 20.0125 194.707C19.8314 197.968 19.8314 199.058 19.469 201.778C19.2902 203.771 18.6549 206.216 16.8407 208.665C16.4808 206.491 15.1184 204.769 15.1184 204.769C15.1184 207.397 15.6643 211.294 14.0313 213.378C12.0383 216.096 11.7653 217.456 11.1324 219.451C10.857 217.094 10.1347 217.818 9.76993 216.55C8.32293 222.715 3.79105 227.428 2.15805 228.515C3.24512 225.976 4.15105 223.075 4.33218 221.263C4.33218 221.263 4.06161 214.557 3.06392 210.748C0.580547 198.889 -0.617581 171.49 1.25217 161.08C5.75267 123.991 24.9147 89.9463 41.1572 59.2938H39.1377V52.1312H41.3142L44.2589 45.5169L46.2084 47.0122L50.2403 34.7307L52.0085 43.7486L59.7123 37.7189L53.4581 51.9527H55.6055C55.2625 52.6991 54.9171 53.4408 54.5933 54.1993L41.4034 54.2187V57.1272H53.4215C53.1485 57.8374 52.9046 58.5718 52.6485 59.2941H48.3534L51.8682 61.5648C51.6387 62.2678 51.4213 62.9781 51.2087 63.6907L49.641 62.6712C48.9959 65.5652 46.9233 75.48 47.3871 81.3188C52.9166 86.6671 56.9943 91.8344 56.3591 103.437C56.3591 103.437 56.7214 103.706 54.3637 102.981C55.5426 104.252 55.9074 105.249 56.9026 107.423C57.3544 110.958 57.6273 114.129 57.3543 117.393C57.3543 117.393 57.6273 125.462 57.9003 127.998C58.9873 128.36 58.3545 131.259 58.4438 135.066C58.4438 135.066 58.3545 137.424 57.9897 139.238C55.7262 137.424 55.9073 137.516 55.2721 137.695C55.8156 139.509 56.1779 139.509 57.265 140.961C57.265 151.747 57.6274 162.893 58.3546 167.787C58.7145 171.321 59.3498 175.402 59.6228 176.67C60.1663 178.303 60.1663 179.752 61.7969 183.197C61.2534 183.197 59.7363 183.238 58.7144 181.929C60.1663 184.647 60.1663 184.103 61.0722 185.009L62.3404 194.437L60.8909 196.065L62.8839 197.336C62.8839 197.336 62.4322 201.595 62.9757 205.494C63.2487 207.308 63.7898 209.12 65.0604 211.656C62.4322 211.748 61.9779 209.572 61.9779 209.572C61.2532 208.755 59.9826 206.943 59.6227 206.943C59.4415 209.572 60.8909 210.567 61.5263 212.111" fill="black"/>
<path d="M145.196 31.6468C144.766 31.6778 144.316 31.7907 143.886 31.8577C143.716 31.8847 143.466 32.1107 143.276 32.2697C142.946 32.5477 142.416 32.0407 141.976 32.1857C141.606 32.3117 141.186 32.7507 141.546 33.1157C141.936 33.5067 142.456 33.7737 142.976 33.9067C144.546 34.3007 146.176 33.9158 147.656 34.5647C148.076 34.7507 148.596 34.9657 148.766 35.5067C148.616 35.5407 148.456 35.6757 148.326 35.5787C147.966 35.3207 147.566 35.3217 147.216 35.2957C144.736 35.0927 142.266 34.8897 139.796 35.2327C139.786 35.8637 140.046 36.5307 140.616 36.6097C141.386 36.7117 142.216 36.4727 142.956 36.5257C143.766 36.5887 144.616 37.1107 145.426 37.5667C145.536 37.6347 145.726 37.6238 145.856 37.5708C146.216 37.4167 146.536 36.8957 146.936 37.0867C147.176 37.2027 147.436 37.3107 147.706 37.3537C148.266 37.4527 148.676 37.3487 149.216 37.4287C150.356 37.5997 151.326 38.3667 152.466 38.1997C153.316 38.0747 153.706 38.3607 154.126 38.7427C153.886 38.5277 155.686 39.8147 155.846 39.4987C155.906 39.3727 157.736 39.2727 157.756 38.9947L155.066 37.4518C154.906 37.1858 154.696 36.8687 154.436 36.6297C153.836 36.0767 153.516 35.4187 152.826 34.9787C151.896 34.3917 151.136 33.6247 150.126 33.2527C150.016 33.2137 149.886 33.2557 149.766 33.2287C149.696 33.2097 149.646 33.1467 149.676 33.0587C149.576 33.0587 149.456 33.0897 149.416 33.0417C149.276 32.8867 149.056 32.7957 148.926 32.7547C148.406 32.5827 147.796 32.8907 147.336 32.4847C147.066 32.2457 146.756 32.1127 146.466 31.9267C146.066 31.6667 145.636 31.6158 145.196 31.6468ZM155.746 32.3467C155.246 32.3897 155.036 32.9257 155.326 33.2037C155.866 33.7377 156.836 33.9148 156.916 34.7797C159.046 35.8377 162.766 36.5467 162.596 38.8657C162.576 39.0907 163.956 38.3897 164.316 38.4397C163.596 37.9737 163.506 37.0708 163.116 36.3968C162.816 35.8778 162.416 35.4657 161.946 35.2217C159.816 34.1177 157.326 32.1967 155.746 32.3467ZM138.046 36.0257C137.776 36.0207 137.466 36.2168 137.156 36.2648C136.586 36.3538 135.996 36.2328 135.436 36.0498C134.466 37.1678 131.866 36.4277 130.646 36.5127C130.496 36.5197 131.416 37.0437 131.576 37.1857C132.436 37.9177 133.846 37.8528 134.896 37.8898C135.066 37.8948 135.416 37.7167 135.546 37.6997C136.676 37.5457 137.796 37.9257 138.976 38.1337C139.346 38.2007 140.516 37.8127 140.146 37.4167C139.866 37.1167 138.896 37.2707 138.716 36.8577C138.596 36.5807 138.466 36.2498 138.296 36.1118C138.216 36.0518 138.136 36.0277 138.046 36.0257ZM114.796 36.6727C114.366 36.6807 113.856 36.7798 113.286 37.0008C113.286 37.0008 111.466 36.8167 107.206 40.0807C102.496 42.9817 96.2408 47.1527 91.7088 52.6827C88.3998 55.9897 83.7318 61.0207 82.0098 64.5557C82.0098 64.5557 79.2008 68.9947 77.3868 76.2467C77.3868 76.2467 78.0218 78.6017 79.8358 75.5217C83.0058 70.1347 95.0618 52.0017 112.286 38.7667L113.096 38.7237C104.576 46.0597 93.5198 55.9427 82.7788 72.7567C82.3808 73.3847 81.8588 74.4937 81.8108 74.5807C81.5068 75.1477 81.8638 75.3897 82.0268 75.4697C82.9338 75.6037 83.3008 74.3347 83.9078 74.0727C84.2968 73.9057 84.4538 75.0677 85.0738 74.7677C87.2648 73.7077 88.8988 71.4427 89.8048 70.0847C89.8508 70.4707 90.3478 71.6257 90.3478 71.6257C91.3448 71.8957 94.4258 67.6337 96.0588 64.7347C96.5098 65.2787 95.9448 66.6077 96.5488 66.0377C98.4138 64.2787 100.076 62.3927 101.066 60.6727C102.226 58.6627 103.486 57.7577 103.946 54.2237C104.666 54.6747 104.656 54.8717 104.856 55.0357C105.306 54.4927 105.336 53.9257 106.056 53.1117C106.846 52.2277 107.006 51.5397 107.956 50.9087C108.296 50.6867 109.046 49.2697 109.196 48.5277C109.346 47.8247 110.906 45.5477 111.016 44.7937C112.286 42.4387 114.456 41.1677 115.996 39.3557C117.176 38.3257 116.676 36.6377 114.796 36.6727ZM82.0268 75.4697C81.9968 75.4647 81.9708 75.4717 81.9398 75.4637C82.1688 75.5197 82.1228 75.5157 82.0268 75.4697ZM49.6988 42.5747L48.0198 48.5557L50.8748 51.0047L49.6988 42.5747ZM114.426 42.9377C114.306 42.9577 114.186 43.0707 114.186 43.0707C114.186 43.0707 111.826 43.6167 108.296 53.5867C103.126 70.1727 98.6868 87.8497 93.8848 102.167C95.3318 94.6457 103.036 68.0887 105.306 58.4807C105.306 58.4807 104.986 57.8027 104.486 58.5707C103.896 59.2517 103.306 60.1127 102.996 60.7017C103.036 60.6627 102.726 60.7467 102.356 60.9287L101.226 62.6507C101.226 62.6507 98.9588 65.8227 92.7498 72.2587C91.7088 73.8887 91.2588 74.6427 90.1208 77.2447C89.7128 78.1937 90.3488 78.3317 91.0268 77.7857C92.7038 76.1577 92.7958 76.1577 95.1058 74.3897C95.2088 74.3097 97.0738 73.6397 97.0738 73.6077C96.7838 73.9797 96.3948 74.2267 96.2398 74.3717C95.6048 74.9757 94.0358 76.7467 93.6058 77.4927C92.5548 79.3147 91.3988 81.5787 89.8868 84.3227C87.9908 87.7557 86.5408 91.7467 86.5408 91.7467C85.5428 94.5557 85.8168 94.8267 85.8168 94.8267C87.1768 95.3727 86.4358 96.0607 86.4358 96.0607C85.8168 97.1847 85.5438 98.0897 86.5878 97.6847C87.2668 97.5467 87.6298 97.1957 87.9098 96.8487C88.4438 96.1887 88.8988 95.7347 89.2638 95.2777C89.8748 94.5197 89.7618 94.2917 90.4118 93.5377C91.2578 92.5617 91.7978 91.7467 92.6598 91.3387C91.1648 93.3777 91.0738 94.8267 91.0738 94.8267L91.4358 95.2817L91.7088 95.4617C91.7088 95.4617 90.1678 97.3657 89.4438 101.677C89.0978 103.727 89.1708 103.977 88.8518 105.117C89.0058 104.967 89.8948 105.117 90.6968 104.307C90.3498 105.567 90.2788 106.207 90.2788 106.207C90.1218 107.247 90.1208 107.067 90.1208 108.247C90.1208 109.337 90.1218 108.877 90.4848 110.147C92.1148 109.417 92.4768 109.507 94.0138 107.707C94.7458 107.017 95.2989 105.357 95.5138 105.477C95.9218 105.657 95.5818 106.577 95.4008 106.987C95.1538 107.557 94.9318 107.987 94.8378 108.397C94.7898 108.607 94.5828 108.917 94.9138 109.197C95.0588 109.317 94.9578 109.307 95.4238 109.287C95.6948 109.287 95.9468 108.867 95.9468 108.867C95.9468 108.867 96.1028 108.827 96.2398 108.517C96.3538 108.247 96.5568 108.107 96.7378 107.967C96.7378 107.967 97.0088 107.697 97.3278 107.787C97.9638 108.517 98.5058 107.557 98.5058 107.557C99.5458 105.977 99.7758 105.567 100.506 103.437C100.956 102.037 101.496 101.537 101.946 95.6427C103.216 97.5467 103.396 101.177 103.396 101.177L103.766 101.077C103.766 101.077 104.946 97.7267 106.936 96.6397C106.936 96.6397 107.116 94.3737 109.106 92.1077C108.836 90.7477 108.656 89.6617 108.386 87.4847C107.566 83.8587 107.116 77.7847 107.936 73.6177C109.566 82.3167 110.516 83.5887 110.516 83.5887L110.876 83.7237C111.556 82.6817 111.736 80.8677 111.916 79.2367C112.736 75.7917 114.186 76.1577 114.186 75.4307C113.736 72.6207 113.006 68.1807 113.466 64.3737C114.366 68.5407 114.816 68.2697 115.456 69.8107C116.276 71.7147 116.366 69.3557 116.366 69.3557C116.176 66.9117 117.906 64.4627 116.276 58.7547C115.636 54.8557 113.826 46.5157 114.546 44.6117C114.836 43.1387 114.626 42.9057 114.426 42.9377ZM55.2718 43.6607L52.4628 46.1077L52.9178 48.2387L55.2718 43.6607ZM45.1188 48.8737L43.8538 52.0027H48.7438L45.1188 48.8737ZM48.3538 59.2977L51.8688 61.5687L52.6488 59.2977H48.3538ZM43.1268 59.3877C40.8608 62.4697 25.2688 91.8387 23.7308 97.1847C11.7658 121.187 4.06084 145.117 2.58984 168.747C2.68154 169.557 2.68974 169.057 3.08594 169.737C3.44584 170.357 3.24504 171.167 3.51564 171.867C3.75714 171.567 4.20114 171.427 4.24214 170.957C4.58524 172.377 3.56244 173.717 4.06244 175.127C4.61324 174.627 5.43574 174.527 5.87304 173.867C5.82954 174.427 5.67934 174.967 5.59964 175.507C5.45944 176.457 5.83854 177.407 5.94724 178.387C6.08734 179.637 7.63104 180.567 7.19134 181.787C6.47634 183.777 6.09284 185.897 6.74024 187.777C6.87554 188.167 7.07464 188.827 7.53124 189.037C7.88394 189.197 8.40304 189.207 8.74604 189.037C8.92724 188.947 9.08384 188.637 9.12684 188.367C9.25984 187.487 8.87024 186.677 9.02684 185.837C9.22784 184.757 9.41684 183.667 10.1078 182.797C10.2448 182.617 10.7748 182.677 10.8988 182.957C11.3528 183.967 11.1708 185.197 11.7698 186.127C11.9748 186.447 12.6948 186.677 13.0738 186.317C13.9198 185.527 13.6098 184.297 13.7188 183.277C13.8978 181.577 13.1008 180.667 12.8788 178.937C12.6708 177.307 12.9708 177.067 13.4878 176.407C14.0298 177.927 14.0338 179.577 15.1328 180.927C15.3648 181.207 15.7968 181.217 15.9788 181.057C16.7778 180.377 16.6108 178.887 16.0328 177.927C15.1518 176.447 14.4368 174.117 16.0238 172.777C15.9268 173.517 15.9368 174.357 16.3168 174.917C16.8408 175.677 17.8168 177.247 17.9588 178.747C18.0068 179.287 18.7778 179.497 19.2458 179.077C19.3328 178.997 19.2288 178.637 19.4728 178.607C20.2358 178.507 20.5948 179.407 20.5568 180.027C20.8608 180.027 21.2608 180.127 21.4098 179.977C22.1418 179.227 21.9618 177.437 22.0098 176.407C22.0988 174.497 22.5078 175.237 22.8238 175.057C22.6548 171.167 22.0898 167.547 21.7348 165.077C21.3528 164.077 21.7358 163.897 22.2788 163.707C22.4068 163.607 24.4548 161.087 24.4548 159.717C22.7328 160.907 22.2788 161.177 20.6488 162.257C20.4668 158.367 18.7438 152.207 16.8398 147.397C18.8328 149.207 20.1038 151.297 20.7358 153.017C21.4638 149.027 21.7348 146.677 21.8238 144.767C20.8288 141.227 18.9258 133.527 19.1078 127.817C20.2858 131.987 21.3718 136.517 22.5508 139.237C23.0938 137.247 23.5458 133.717 24.2738 130.717C25.2688 129.997 26.4478 129.267 26.8108 128.637C26.4478 127.997 24.9098 129.177 24.6368 129.267C24.8178 126.457 25.2688 121.027 23.3648 112.137L23.6388 111.867C24.4548 112.227 25.4498 113.867 25.8148 115.587C27.4478 113.677 28.5348 104.257 28.9858 100.537C27.2638 100.537 26.4488 102.437 25.2698 102.257C25.4508 101.077 25.5418 101.627 25.9958 100.537C26.4478 99.2667 27.5368 98.0007 27.9878 96.2777C28.9858 94.8257 28.9868 93.1067 29.0758 91.4737C29.0758 89.9347 28.8948 87.6657 30.1658 85.6727C30.4368 86.4867 30.2558 87.0317 30.8888 88.7547C30.8888 88.7547 33.4268 83.2257 34.7868 81.9577C36.6008 74.0707 40.9488 65.1897 45.0288 59.3877H43.1268ZM46.3868 60.6587C39.3178 90.0247 36.0548 107.427 35.3298 129.177C34.5308 151.577 36.6258 173.657 41.9748 194.377C42.2088 195.147 42.4548 195.957 42.6988 196.777C42.8928 197.027 43.1208 197.287 43.4488 197.127C43.8168 196.937 43.9018 196.497 43.9568 196.147C44.1818 194.667 44.3268 193.217 45.0178 191.947C45.0728 191.847 45.3528 191.567 45.4898 191.397C45.9898 190.777 46.1598 190.007 46.3028 189.177C46.3368 188.977 46.5078 188.797 46.6598 188.657C47.1068 188.257 47.5988 188.837 47.8598 189.207C48.3138 189.837 48.0898 190.677 48.4958 191.317C49.5588 192.997 50.7228 194.407 52.0588 195.807C52.3968 196.157 52.9668 196.577 53.6078 196.407C53.7908 196.357 53.9698 196.177 54.0238 196.047C54.2798 195.367 53.7308 194.787 53.4318 194.207C53.0068 193.367 52.2508 192.357 52.7358 191.507C52.8668 191.277 53.5308 191.957 53.8178 191.647C54.1008 191.337 54.1678 190.757 54.0368 190.267C53.8868 189.697 53.6148 189.177 53.3708 188.657C52.4938 186.767 51.4768 184.997 50.8438 182.997C50.7588 182.727 50.6458 182.417 50.7108 182.097C51.0398 182.807 51.8048 183.287 52.1818 183.957C52.2778 184.127 52.4758 184.277 52.5818 184.417C53.0268 185.027 53.8748 185.287 54.1698 185.947C54.5878 186.867 54.6278 188.767 55.9488 188.527C56.3768 188.447 57.0498 188.047 56.7678 187.367C56.5528 186.837 56.4148 186.267 56.0308 185.847C55.6838 185.467 55.1638 185.227 54.9318 184.797C54.5308 184.037 54.2318 183.137 54.6108 182.287C54.6958 183.007 55.2578 183.427 55.7268 183.887C56.2218 184.377 57.5168 183.717 57.8988 184.267C57.8428 183.947 57.7588 183.647 57.5388 183.377C54.1838 179.397 51.0118 175.217 51.1948 172.047C53.4588 175.317 55.3618 177.307 57.1738 178.577L57.2658 177.947C55.9978 169.787 55.9968 166.157 55.3178 158.407C53.2768 156.777 48.8358 151.887 49.6508 147.717C51.1458 150.617 52.9168 152.837 54.5448 153.837L55.2268 154.327C55.0908 152.927 55.2718 144.637 55.2718 142.137C54.1818 140.597 52.8228 138.787 51.8728 136.977C51.0108 135.157 49.9698 133.397 47.4768 130.407C45.3918 127.277 42.1308 124.507 42.1308 124.507C42.1308 124.507 42.7608 124.597 43.0798 124.597C44.0778 124.917 45.2558 125.327 46.9788 126.547C47.6568 126.827 48.5638 128.097 50.1968 129.587C51.2838 130.627 51.3758 131.397 51.9628 131.717C52.9168 132.627 54.1828 133.717 55.4508 134.617H55.8168C56.0868 135.707 55.9508 127.867 55.9508 127.867C54.5448 125.647 53.5498 122.967 52.3708 119.937C52.1898 118.847 53.0058 120.617 54.5448 121.377C54.9988 119.797 54.1828 111.777 54.0938 106.247C53.6398 104.527 47.2498 95.6427 46.9338 93.4227C49.1078 96.9567 52.0088 97.4107 53.0958 98.8167C53.3688 99.0367 53.4148 99.1267 53.7288 98.9967C53.5498 89.8427 49.4708 85.4027 45.6638 82.1397C45.1178 73.7087 47.9278 61.6527 47.9278 61.6527L46.3868 60.6587ZM40.2268 81.4107C40.2268 81.4107 39.0448 81.8667 38.4118 82.1397C37.1418 82.7727 36.5998 83.4067 35.2398 85.1297C34.6968 86.3087 33.9738 86.8487 33.5198 88.2117C31.8868 91.4727 31.6148 94.0127 30.7988 96.3677L31.3418 96.2777C33.0668 93.9207 35.8768 91.8377 36.5118 91.1997L37.4178 90.7487C36.1468 94.0127 34.4258 94.8267 32.7028 97.8167C30.3308 102.747 28.0768 121.037 26.9918 126.097L28.0778 125.737C28.8048 125.377 29.9828 124.107 33.5198 122.837C35.3308 121.387 27.5368 129.537 26.5388 132.217C25.5418 139.327 24.0918 150.937 23.8648 156.147L24.2738 156.097C24.8168 155.737 29.1218 150.527 30.7988 149.937L31.3888 149.387C30.4798 150.757 27.4478 156.647 26.9018 158.547C26.2718 160.437 25.4508 162.357 24.7288 164.077C24.4558 164.617 24.1818 165.027 24.3628 165.707C24.3628 169.427 24.7278 172.957 25.0898 174.767L25.5428 175.407C25.9048 174.407 27.7198 172.597 28.8068 172.047L28.8948 172.597C27.8988 174.947 26.6318 177.127 26.1778 178.307C26.1778 182.837 26.7208 188.367 27.7188 192.807C27.8108 193.457 28.6238 193.347 28.9858 193.077L29.2108 192.877C29.9448 189.757 30.6048 186.877 32.3218 184.107C32.5008 183.817 32.7958 183.677 33.0368 183.467C33.1848 185.227 32.9618 187.017 34.0468 188.617C34.5418 189.347 35.2808 189.177 36.0288 189.177C36.5168 190.857 37.7328 192.117 38.1698 193.877C38.2468 194.187 38.6518 194.447 39.0098 194.307C39.6568 194.057 40.2518 193.767 40.6188 193.137C40.6408 193.107 40.6718 193.057 40.7028 193.017C34.7938 173.527 33.3188 147.187 34.2438 124.827C35.3308 108.327 36.6058 96.2557 40.2268 81.4107ZM137.106 110.287C136.056 110.267 135.506 110.577 134.726 110.777C131.136 111.697 127.606 114.407 125.636 117.007C125.066 117.767 125.256 118.557 125.376 118.727C125.736 119.227 126.306 120.587 126.466 120.427C127.916 118.847 129.686 117.397 131.586 117.847C130.776 118.127 127.916 119.567 127.016 121.667C126.956 121.797 127.376 122.567 127.916 122.967C128.646 124.197 128.916 124.687 129.326 124.917C129.586 124.897 130.116 124.367 130.256 124.137C132.266 121.477 134.266 119.847 139.796 119.117C141.376 118.847 142.286 118.397 142.416 116.947C142.416 116.947 142.736 116.217 142.096 114.767V114.867C141.856 113.957 140.386 114.037 139.346 114.147C137.756 114.317 136.306 114.587 134.756 115.407C135.786 113.867 137.026 113.767 139.406 112.867C139.946 112.657 139.816 111.697 139.466 111.147C139.066 110.507 138.556 110.477 138.346 110.437C137.856 110.337 137.456 110.297 137.106 110.287ZM135.486 123.287C135.576 124.647 135.376 125.257 135.766 126.147C136.136 126.987 136.906 127.717 137.196 128.577C137.416 129.237 138.206 130.087 138.206 130.537C138.566 130.907 138.616 131.227 138.616 131.227C139.096 131.847 140.526 132.617 140.026 132.987C139.426 133.437 137.666 133.127 136.596 132.947C135.236 132.717 136.026 133.967 136.316 134.087C137.706 134.657 140.626 134.857 141.576 135.387C142.156 135.707 142.906 136.187 143.156 136.757C143.336 137.177 143.666 137.547 143.946 137.917C144.866 139.147 145.196 139.687 146.146 140.467C146.616 140.857 147.176 141.517 146.996 142.117C146.796 142.807 146.366 142.957 145.696 142.867C145.476 142.837 144.816 142.637 144.186 142.367C142.916 141.957 142.646 141.497 141.746 141.957C141.246 142.217 141.966 143.047 142.526 143.347C144.806 144.567 147.536 144.587 149.746 145.867C151.646 146.967 152.796 148.307 152.686 151.127C152.686 151.177 153.366 151.557 153.406 151.497C154.066 150.477 155.696 151.737 156.486 151.487C156.556 151.467 156.596 151.047 156.476 150.867C156.096 150.297 155.286 150.267 154.946 149.717C154.576 149.137 155.106 148.497 154.926 147.997C154.736 147.477 153.856 148.377 153.526 148.037C152.076 146.527 151.126 144.727 149.176 143.867C149.986 141.597 150.356 139.057 150.166 137.877C149.626 137.427 149.396 138.147 149.266 138.247C148.816 138.667 148.986 139.597 148.466 140.317C148.376 140.427 147.686 140.287 147.476 140.117C146.146 138.977 144.906 137.627 144.276 136.007C144.256 135.947 143.986 135.617 143.926 135.537C142.946 134.167 143.006 132.247 144.146 130.867C144.266 130.717 144.446 129.867 144.326 129.777C144.136 129.627 143.676 129.947 143.496 130.127C142.876 130.767 142.346 132.027 141.296 131.917C140.116 131.797 139.666 130.597 138.936 129.817C138.706 129.047 138.276 128.547 138.386 128.457C137.386 127.007 137.296 125.827 136.386 124.017C136.176 123.607 135.886 123.407 135.486 123.287Z" fill="white"/>
<path d="M8.07373 157.357C7.09033 157.377 7.36053 158.627 7.41553 159.547L7.32173 159.457C6.85063 159.947 6.61143 160.267 6.30223 160.847C5.91083 161.577 6.43813 162.377 6.87053 162.917C7.58563 163.807 8.83013 163.297 9.43933 162.407C9.67533 162.057 10.0643 161.657 9.83733 161.187C9.43433 160.357 9.21533 159.587 9.18933 158.637C9.17933 158.297 9.06833 157.557 8.57563 157.427C8.37963 157.377 8.21413 157.357 8.07373 157.357ZM14.2433 162.997C14.0273 162.957 13.7393 163.347 13.7413 163.537C13.7513 164.127 14.1393 164.727 14.1323 165.367C14.1223 166.347 13.6683 166.607 13.9583 167.877C14.0193 168.137 14.4343 167.977 14.2123 168.247C14.7583 168.247 15.3203 168.347 15.8273 168.197C16.0783 168.117 16.2613 167.717 16.3023 167.507C16.4543 166.737 16.8213 165.777 16.1423 165.247C15.5383 164.767 15.6473 163.997 15.2243 163.617C15.0303 163.447 14.6123 163.337 14.3293 163.047C14.3023 163.017 14.2743 163.007 14.2433 162.997ZM6.29443 164.747C6.08343 164.727 5.82873 164.937 5.65963 165.197C5.01703 166.197 4.69673 167.157 4.60493 168.607C4.78613 169.427 5.95473 169.577 6.52483 169.217C7.82453 168.397 6.89233 165.277 6.82953 165.707C6.87053 165.437 6.59913 165.017 6.59913 165.077C6.53113 164.857 6.42093 164.757 6.29443 164.747ZM10.2123 167.137C9.98533 167.127 9.73933 167.187 9.51333 167.357C8.54683 168.057 8.15963 169.157 8.98583 170.337C9.43533 170.987 9.38833 172.147 10.0913 172.497C11.0743 172.997 12.4673 171.917 12.1263 170.807C11.7903 169.727 11.3683 168.817 11.0253 167.737C10.9193 167.407 10.5913 167.167 10.2123 167.137ZM42.9543 168.057C42.7853 168.067 42.6173 168.097 42.4543 168.137C42.2393 168.197 41.9353 168.157 41.8533 168.307C41.5603 168.867 42.1053 169.287 42.3063 169.847C42.4273 170.187 42.5433 170.277 42.7513 170.527C42.9833 170.817 42.9653 171.707 43.1443 172.017C43.2723 172.257 43.4493 172.867 43.7323 172.987C44.4853 173.317 44.7003 173.047 45.2103 172.747C45.6503 172.477 45.8783 171.857 45.6733 171.297C45.4803 170.777 45.4183 170.227 45.1283 169.767C44.8483 169.317 44.6203 168.887 44.2863 168.527C43.9673 168.187 43.4623 168.037 42.9543 168.057ZM2.44633 168.557C2.44633 168.557 2.15723 174.317 2.15723 179.667C2.15723 191.537 3.60583 199.697 5.05763 208.397C5.69303 211.747 6.59863 216.287 6.41513 219.187L6.87013 218.907C7.50553 217.737 9.22793 214.017 9.76893 210.937C9.94993 209.757 10.5849 210.937 10.5849 210.937C10.8559 211.747 11.4019 212.117 11.4909 212.927C11.4909 213.657 11.8529 213.567 12.0359 213.017C13.0319 211.027 13.3049 209.847 12.9429 207.767C12.5779 206.037 12.3079 198.877 13.1239 196.257C13.1239 195.527 13.7589 196.257 13.7589 196.257C14.2109 197.337 14.9359 199.337 16.5689 200.967C16.5689 200.967 17.2489 201.417 17.2919 200.967C17.1129 199.067 16.9319 186.647 19.8309 185.287C20.9179 185.557 21.0119 186.287 21.8229 187.097C22.7319 186.097 23.0939 181.837 22.8229 178.577C23.0049 175.947 22.8659 175.037 22.8659 175.037C22.5499 175.217 22.0979 174.497 22.0089 176.407C21.9609 177.437 22.1409 179.227 21.4089 179.977C21.2599 180.127 20.8599 180.027 20.5559 180.027C20.5939 179.407 20.2349 178.507 19.4719 178.607C19.2279 178.637 19.3319 178.997 19.2449 179.077C18.7769 179.497 18.0059 179.287 17.9579 178.747C17.8159 177.247 16.8399 175.677 16.3159 174.917C15.9359 174.357 15.9259 173.517 16.0229 172.777C14.4359 174.117 15.1509 176.447 16.0319 177.927C16.6099 178.887 16.7769 180.377 15.9779 181.057C15.7959 181.217 15.3639 181.207 15.1319 180.927C14.0329 179.577 14.0289 177.927 13.4869 176.407C12.9699 177.067 12.6699 177.307 12.8779 178.937C13.0999 180.667 13.8969 181.577 13.7179 183.277C13.6089 184.297 13.9189 185.527 13.0729 186.317C12.6939 186.677 11.9739 186.447 11.7689 186.127C11.1699 185.197 11.3519 183.967 10.8979 182.957C10.7739 182.677 10.2439 182.617 10.1069 182.797C9.41593 183.667 9.22693 184.757 9.02593 185.837C8.86933 186.677 9.25893 187.487 9.12593 188.367C9.08293 188.637 8.92633 188.947 8.74513 189.037C8.40213 189.207 7.88303 189.197 7.53033 189.037C7.07373 188.827 6.87463 188.167 6.73933 187.777C6.09193 185.897 6.47543 183.777 7.19043 181.787C7.63013 180.567 6.08643 179.637 5.94633 178.387C5.83763 177.407 5.45853 176.457 5.59873 175.507C5.67843 174.967 5.82863 174.427 5.87213 173.867C5.43483 174.527 4.61233 174.627 4.06153 175.127C3.56153 173.717 4.58433 172.377 4.24123 170.957C4.20023 171.427 3.75623 171.567 3.51473 171.867C3.24413 171.167 3.44493 170.357 3.08503 169.737C2.68883 169.057 2.70023 169.557 2.60843 168.747L2.44633 168.557ZM17.6143 171.097C17.5133 171.107 17.4193 171.147 17.3393 171.207C16.9963 171.467 17.0053 171.997 17.3123 172.397C17.7903 173.027 17.6473 173.767 17.9953 174.417C18.2153 174.827 18.6513 174.837 18.9683 175.077C19.3743 175.377 19.9473 175.067 20.0973 174.727C20.6193 173.537 20.0263 172.497 19.0483 171.727C18.9563 171.657 18.6223 171.437 18.5303 171.367C18.2863 171.157 17.9183 171.037 17.6143 171.097ZM41.0813 172.687C40.9703 172.687 40.6513 172.707 40.6633 172.907C40.7383 174.007 39.4633 174.527 39.0813 175.397C38.6873 176.287 39.4853 177.137 40.1423 177.747C40.6663 178.237 41.5013 177.897 42.1443 177.707C43.1953 177.387 43.3293 175.907 43.0853 174.927C42.8973 174.167 42.4193 173.497 41.8163 172.907C41.6033 172.697 41.3083 172.707 41.0813 172.687ZM31.5833 173.967C31.3473 173.947 31.0993 174.127 31.0753 174.367C30.9813 175.307 30.9643 177.067 32.3803 176.777C32.8803 176.677 33.2113 176.167 33.0933 175.637C32.9263 174.887 32.3683 174.467 31.8083 174.037C31.7403 173.987 31.6623 173.967 31.5833 173.967ZM9.59333 174.627C9.40633 174.677 9.34933 174.897 9.20233 175.027C8.79913 175.377 8.79403 176.117 8.43893 176.597C7.77703 177.487 7.97293 178.747 8.23383 179.607C8.41263 180.197 9.28633 181.047 10.0323 180.977C11.1993 180.877 12.0733 178.697 11.1773 178.167C10.0103 177.487 10.4213 175.737 9.99133 174.797C9.96033 174.727 9.68033 174.767 9.49933 174.767L9.83133 174.637C9.73233 174.607 9.65533 174.607 9.59333 174.627ZM47.7923 176.267C47.8593 176.267 47.9213 176.287 47.9853 176.287C48.0433 176.287 48.1013 176.267 48.1553 176.267H47.7923ZM47.9853 176.287C47.7743 176.317 47.5593 176.357 47.4843 176.477C46.9763 177.267 47.5243 178.197 48.1983 178.537C48.9093 178.887 49.7973 177.697 49.2733 177.037C48.9733 176.667 48.5183 176.347 47.9853 176.287ZM34.5583 177.107C34.3313 177.097 34.1153 177.157 33.9913 177.257C33.4703 177.657 33.2783 178.497 33.4623 179.147C33.6633 179.837 33.9003 180.587 34.4173 181.127C34.7483 181.467 35.4353 181.867 35.6163 181.617C36.0443 181.027 36.4423 180.217 36.2493 179.357C36.0783 178.587 35.7293 177.907 35.1933 177.357C35.0233 177.187 34.7853 177.107 34.5583 177.107ZM50.7103 182.097C50.6453 182.417 50.7583 182.727 50.8433 182.997C51.4763 184.997 52.4933 186.767 53.3703 188.657C53.6143 189.177 53.8863 189.697 54.0363 190.267C54.1673 190.757 54.1003 191.337 53.8173 191.647C53.5303 191.957 52.8663 191.277 52.7353 191.507C52.2503 192.357 53.0063 193.367 53.4313 194.207C53.7303 194.787 54.2793 195.367 54.0233 196.047C53.9693 196.177 53.7903 196.357 53.6073 196.407C52.9663 196.577 52.3963 196.157 52.0583 195.807C50.7223 194.407 49.5583 192.997 48.4953 191.317C48.0893 190.677 48.3133 189.837 47.8593 189.207C47.5983 188.837 47.1063 188.257 46.6593 188.657C46.5073 188.797 46.3363 188.977 46.3023 189.177C46.1593 190.007 45.9893 190.777 45.4893 191.397C45.3523 191.567 45.0723 191.847 45.0173 191.947C44.3263 193.217 44.1813 194.667 43.9563 196.147C43.9013 196.497 43.8163 196.937 43.4483 197.127C43.1203 197.287 42.8923 197.027 42.6983 196.777C42.8633 197.327 43.0243 197.877 43.1793 198.417C43.1983 198.477 43.2163 198.547 43.2353 198.607C43.3803 199.117 43.5163 199.607 43.6423 200.067C43.6613 200.147 43.6833 200.217 43.7023 200.297C43.8233 200.747 43.9273 201.157 44.0093 201.517C44.0213 201.567 44.0313 201.617 44.0403 201.667C44.1223 202.027 44.1853 202.357 44.2123 202.597C44.0843 202.357 43.9523 202.057 43.8103 201.727C43.7643 201.607 43.7103 201.477 43.6613 201.357C43.5653 201.127 43.4683 200.877 43.3663 200.617C43.3083 200.457 43.2473 200.287 43.1853 200.117C43.1223 199.947 43.0583 199.767 42.9953 199.577C42.1743 197.487 41.3983 195.307 40.7023 193.017C40.6713 193.057 40.6403 193.107 40.6183 193.137C40.2513 193.767 39.6563 194.057 39.0093 194.307C38.6513 194.447 38.2463 194.187 38.1693 193.877C37.7323 192.117 36.5163 190.857 36.0283 189.177C35.2803 189.177 34.5433 189.347 34.0483 188.617C32.9633 187.017 33.1863 185.227 33.0383 183.467C32.7973 183.677 32.5003 183.817 32.3213 184.107C30.6043 186.877 29.9443 189.757 29.2103 192.877C29.0603 193.517 28.9753 193.747 28.7763 194.337C28.3683 195.557 29.0023 195.747 29.6383 194.927C30.7513 193.497 30.5223 194.677 30.6363 195.017C30.9063 197.107 31.9943 199.187 32.4483 202.717C32.8113 206.167 33.5353 209.607 33.8983 211.337C34.8593 216.987 38.6133 222.747 40.8763 224.187C40.6063 221.827 41.4233 220.947 41.2393 219.127L41.6933 219.037C41.7823 222.217 44.1403 226.287 46.8603 228.557C49.0353 231.097 50.2133 231.637 52.0443 234.267C52.5883 235.177 53.0223 235.587 53.4763 236.317C54.4713 234.267 56.2863 230.637 56.2863 226.647C56.2863 223.597 56.1963 220.127 55.3803 217.407C57.0113 218.137 58.8253 220.757 60.1833 223.027C60.9993 221.307 60.5473 216.497 59.2763 214.147C58.0083 211.247 55.9233 207.257 57.3723 201.367C58.2783 203.447 58.9143 203.357 60.3663 203.717C60.6373 201.547 60.2723 198.467 60.3663 198.097C59.8203 197.107 58.5523 195.927 58.5523 195.927L59.9113 193.297C60.5473 190.667 59.2763 188.587 59.4113 188.177C58.7323 186.677 58.2623 185.397 57.9823 184.407C57.7473 183.577 56.2603 184.417 55.7263 183.887C55.2573 183.427 54.6953 183.007 54.6103 182.287C54.2313 183.137 54.5303 184.037 54.9313 184.797C55.1633 185.227 55.6833 185.467 56.0303 185.847C56.4143 186.267 56.5523 186.837 56.7673 187.367C57.0493 188.047 56.3763 188.447 55.9483 188.527C54.6273 188.767 54.5873 186.867 54.1693 185.947C53.8743 185.287 53.0263 185.027 52.5813 184.417C52.4753 184.277 52.2793 184.127 52.1833 183.957C51.8063 183.287 51.0393 182.807 50.7103 182.097ZM42.3373 182.437C41.9593 182.487 41.6043 182.687 41.4663 183.067C41.2633 183.627 41.6743 184.467 41.9333 184.607H41.9313C41.8703 184.607 42.0523 184.877 41.9913 184.877C42.2933 185.577 42.0093 186.107 42.3983 186.757C42.7123 187.277 43.4993 187.367 43.9393 186.997C45.0093 186.097 44.7783 184.427 43.9523 183.367C43.6313 182.947 43.2653 182.547 42.7143 182.457C42.5913 182.427 42.4633 182.427 42.3373 182.437ZM47.4643 182.677C47.2033 182.667 46.9453 182.737 46.7343 182.917C46.2913 183.297 46.2943 183.857 46.1833 184.427C46.1223 184.757 46.3263 185.037 46.4643 185.317C47.0653 186.537 48.5113 186.577 49.6443 187.257C49.7913 187.347 50.0873 187.037 50.1983 186.847C50.5413 186.237 49.9743 185.587 49.4643 185.187C48.7253 184.607 49.0323 183.447 48.2183 182.927C47.9913 182.777 47.7253 182.687 47.4643 182.677ZM36.7573 183.757C36.4953 183.767 36.2323 183.877 36.0343 184.007C35.8993 184.097 35.7693 184.327 35.7673 184.517C35.7593 185.687 35.3683 186.907 35.7983 188.027C36.0543 188.697 36.6573 189.517 37.4353 189.167C37.9853 188.927 38.3323 188.247 38.1443 187.607C37.8013 186.407 38.3083 185.057 37.4723 184.047C37.2793 183.817 37.0183 183.737 36.7573 183.757Z" fill="#FFB612"/>
</svg>
