<svg width="50" height="50" viewBox="0 0 192 137" fill="none" xmlns="http://www.w3.org/2000/svg">
<path d="M188.351 35.3853C185.584 27.2754 179.26 15.833 165.041 7.44559C157.932 3.25013 148.635 1.01037 139.074 1.00862C136.581 1.00862 134.067 1.16026 131.575 1.47729C117.577 3.23477 105.457 9.86296 97.5244 20.1796C96.9972 20.8671 96.4993 21.5838 96.0203 22.3108C51.937 29.2595 17.1899 57.8467 15.6499 59.1117L0.89502 71.3602L20.0098 72.8953C48.5158 75.1938 68.6581 85.1593 80.5317 93.0976C93.5378 101.793 99.7765 110.045 99.789 110.059L102.218 113.369L104.749 116.823L111.147 111.334C111.834 110.744 112.475 110.095 113.071 109.4L113.597 109.836C114.377 110.465 114.943 110.934 115.67 111.74C115.775 112.023 115.833 112.328 115.837 112.69C115.813 114.094 115.74 114.09 115.358 115.035L115.167 115.479C114.955 115.996 114.622 116.661 114.35 117.195C114.212 117.461 114.091 117.693 114.003 117.862C113.957 117.943 113.923 118.012 113.898 118.057H113.902L111.972 121.575L137.645 136.001L138.105 135.872C138.125 135.871 140.126 135.314 140.574 135.183C140.979 135.086 145.062 134.035 145.081 134.03C150.598 132.653 154.112 131.762 156.37 130.698L158.482 129.669L159.697 127.658C160.027 127.1 166.866 115.556 170.331 99.3861C171.573 98.2593 174.624 95.4819 174.624 95.4819L174.95 95.1838L175.095 93.6521L175.238 92.1721C175.363 90.8024 175.424 89.4223 175.424 88.0474C175.424 85.8197 175.255 83.516 174.938 81.1849C182.715 76.6104 186.189 70.1199 188.265 64.975C190.05 60.578 190.929 55.6693 190.929 50.5901C190.929 45.5781 190.07 40.3989 188.351 35.3853Z" fill="white"/>
<path d="M168.126 12.8856C166.692 11.8398 165.204 10.8233 163.6 9.87739C162.037 8.9573 160.333 8.13081 158.52 7.40195C156.3 6.5112 153.903 5.78583 151.392 5.21546C147.505 4.33331 143.343 3.83885 139.051 3.83535C125.035 3.83535 109.727 8.94042 99.7551 21.9052C99.5001 22.2342 99.2865 22.5926 99.0452 22.9303C98.5869 23.5713 98.1183 24.2035 97.7013 24.872C97.2567 24.9581 96.9139 25.0202 96.7054 25.0529C92.6341 25.6887 88.6437 26.514 84.7515 27.4858C47.1307 36.8878 18.8222 60.1529 17.4447 61.2817L8.02881 69.1022L14.1294 69.595L20.2303 70.0877C76.681 74.6226 101.893 108.179 102.034 108.366L103.871 110.861L105.219 112.696L109.3 109.19C109.369 109.131 109.426 109.067 109.493 109.009C110.797 107.846 111.814 106.55 112.595 105.246L112.596 105.245C113.08 105.679 113.612 106.153 114.198 106.668C115.482 107.781 116.361 108.349 117.501 109.564C117.692 109.769 117.891 109.99 118.102 110.239C118.394 110.811 118.521 111.425 118.587 112.045C118.611 112.26 118.654 112.472 118.656 112.688V112.69C118.656 112.721 118.654 112.747 118.652 112.78C118.639 113.541 118.59 114.079 118.509 114.51C118.362 115.259 118.113 115.714 117.761 116.576C117.268 117.759 116.326 119.484 116.326 119.487L115.78 120.48L138.004 132.966L139.872 132.451L142.121 131.875L144.369 131.298C149.583 129.992 153.113 129.112 155.143 128.145L156.187 127.644L156.495 127.494L157.269 126.207C157.29 126.171 157.336 126.092 157.405 125.971C158.229 124.544 162.277 117.275 165.465 106.86C166.316 104.081 167.107 101.083 167.756 97.9058C167.975 97.7059 168.242 97.4612 168.525 97.2062C169.18 96.6084 169.933 95.9226 170.575 95.3385C171.325 94.6596 171.909 94.129 171.909 94.129L172.234 93.8274L172.427 91.9114C172.484 91.2567 172.483 90.6227 172.51 89.98C172.538 89.3373 172.593 88.6844 172.593 88.0485C172.593 85.7845 172.415 83.5653 172.117 81.4341C172.034 80.8379 171.945 80.247 171.845 79.6664C179.864 75.6139 183.425 69.4234 185.641 63.9165C185.824 63.4651 185.962 62.9809 186.125 62.5158C187.39 58.894 188.09 54.8486 188.09 50.5636C188.091 45.5361 187.151 40.2 185.173 34.9513C182.138 26.9069 176.61 19.0856 168.126 12.8856Z" fill="#002244"/>
<path d="M162.438 11.8607L162.437 11.8557C156.453 8.31844 148.009 6.13021 139.055 6.13721C127.249 6.13721 114.625 9.8933 105.342 19.0471C104.017 20.3548 102.757 21.7728 101.58 23.3063C101.041 24.0093 100.536 24.7467 100.05 25.4961C99.8333 25.8304 99.6127 26.1595 99.4077 26.5006L99.1458 26.9296L98.8977 26.9814L98.6479 27.0314C98.429 27.0744 98.2602 27.1073 98.0758 27.1416C97.6624 27.2226 97.3022 27.2881 97.0679 27.326C80.1531 29.9534 64.592 35.9356 51.8696 42.2696C32.5036 51.9095 19.7362 62.3656 18.9237 63.0506L13.8428 67.2667L20.4141 67.7956C58.0024 70.8229 82.0135 86.5029 94.2046 97.0966C94.2236 97.1121 94.2442 97.1276 94.2615 97.1448C94.9472 97.741 95.5812 98.313 96.1929 98.8729C101.264 103.53 103.779 106.852 103.889 107.005L105.604 109.338L107.806 107.452C109.379 106.097 110.469 104.495 111.252 102.908L111.588 102.226L111.924 101.54L113.059 102.567C113.817 103.261 114.682 104.023 115.721 104.938C117.049 106.108 118.262 106.848 119.951 108.852L120.027 108.945L120.082 109.044C120.244 109.345 120.382 109.652 120.494 109.96C120.83 110.882 120.957 111.819 120.957 112.69V112.691C120.979 114.831 120.53 115.983 120.08 117.021C120.016 117.167 119.953 117.314 119.887 117.46C119.594 118.166 119.194 118.964 118.879 119.586L138.31 130.496L139.282 130.229L143.812 129.067C148.35 127.946 151.648 127.084 153.464 126.366C153.722 126.264 153.951 126.164 154.149 126.066L154.882 125.721L155.302 125.027C155.369 124.915 155.9 124.011 156.691 122.477C157.561 120.796 158.746 118.339 160.014 115.265C161.994 110.479 164.158 104.217 165.581 97.0876L165.654 96.7188L165.933 96.4656C166.15 96.2674 166.45 95.9918 166.786 95.6851C167.871 94.6927 169.38 93.3229 170.042 92.7251L170.139 91.6965C170.247 90.4698 170.304 89.2533 170.304 88.049C170.304 87.8991 170.294 87.7527 170.291 87.6028C170.26 84.7151 169.938 81.8826 169.428 79.2326L169.266 78.3574L170.069 77.9783C174.978 75.6471 178.1 72.5804 180.298 69.2861C180.323 69.2533 180.345 69.2188 180.369 69.1862C180.447 69.069 180.515 68.9502 180.591 68.833C181.799 66.9411 182.722 64.9857 183.512 63.0542C184.887 59.6686 185.652 55.7161 185.753 51.5086C185.761 51.1899 185.793 50.885 185.793 50.5645V50.5632C185.788 37.2884 179.018 21.6485 162.438 11.8624" fill="white"/>
<path d="M167.051 18.0229C162.821 14.6407 158.21 12.4078 153.71 10.9794C153.692 10.9744 153.673 10.9656 153.655 10.9605C153.534 10.9226 153.413 10.8916 153.293 10.8553C141.13 7.11648 129.96 9.04449 129.859 9.06174C129.864 9.06174 129.882 9.06172 129.925 9.05797C129.973 9.05422 130.044 9.04797 130.138 9.03897C131.987 8.89253 142.711 8.26881 153.449 12.7054C155.512 13.5566 157.624 14.7024 159.699 16.079C165.029 19.6249 170.064 24.8162 173.221 31.1826C174.446 33.6585 175.404 36.3016 175.962 39.1031C176.084 39.713 176.179 40.3057 176.272 40.8967C176.643 43.2572 176.805 45.4746 176.805 47.5197V47.5247L176.801 48.1605C176.679 56.0085 174.315 61.2853 173.52 62.9403C173.276 63.452 172.938 64.0206 172.556 64.6047C171.272 66.5654 169.394 68.7347 168.017 69.7356C167.649 70.0044 167.289 70.2336 166.937 70.43C166.22 70.8315 165.545 71.0813 164.94 71.2053C164.936 71.2091 164.931 71.2103 164.926 71.2103C164.625 71.2723 164.341 71.2999 164.077 71.2999C163.874 71.2999 163.684 71.2827 163.507 71.2483H163.502C163.321 71.2173 163.15 71.1638 162.993 71.0984C161.999 70.6367 161.66 69.4444 159.375 66.2397C158.776 65.3955 158.117 64.5718 157.537 63.8757C156.648 62.8127 155.947 62.0598 155.947 62.0598C156.136 61.8874 156.305 61.7169 156.479 61.536C156.491 61.5205 156.508 61.5083 156.522 61.4928L156.568 61.4481C156.589 61.4291 156.604 61.4085 156.621 61.3878C156.659 61.35 156.697 61.3086 156.735 61.2707C156.945 61.0467 157.138 60.7917 157.33 60.5298C157.554 60.2266 157.752 59.8906 157.946 59.5512C158.238 59.0378 158.506 58.4985 158.73 57.9057C158.74 57.8643 158.761 57.83 158.766 57.792C158.827 57.6335 158.873 57.4663 158.927 57.3026C158.98 57.1407 159.04 56.9805 159.087 56.8116C160.75 50.8898 159.263 42.0768 152.95 35.5268C152.224 34.7756 151.453 34.0468 150.596 33.3628C148.387 31.5951 146.137 30.2322 143.88 29.2311C137.109 26.2298 130.295 26.4813 124.497 28.8039C111.488 34.0244 103.618 49.6824 112.912 62.4823C117.408 68.6901 124.731 69.0881 129.278 65.6042C133.542 62.3375 136.399 52.3431 125.914 46.9907C133.812 46.3222 143.289 55.1075 140.298 66.893C140.098 67.6786 139.843 68.4763 139.53 69.288C139.159 70.2321 138.728 71.1229 138.241 71.9447C138.005 72.4168 137.745 72.8906 137.467 73.3644C137.238 73.7572 136.999 74.1483 136.74 74.5412C128.261 87.3035 103.043 86.5002 93.8306 66.1021C88.6083 54.5376 89.8781 45.1511 92.0507 39.0774C93.038 36.3155 94.2131 34.2393 95.0487 32.9523C95.3744 32.0478 95.7379 31.1519 96.1221 30.2714C57.7037 38.576 32.834 61.8085 32.8027 61.8373C68.0799 69.1616 88.6022 85.6396 98.5421 96.1032C103.737 101.574 106.04 105.395 106.049 105.412C108.042 103.702 109.121 101.401 109.731 99.5078C106.702 94.5509 107.214 89.8438 107.512 88.2534C107.581 87.8865 107.638 87.6848 107.638 87.6848C108.452 91.794 109.955 94.8144 111.454 96.9699C111.852 97.5333 113.158 98.8772 114.224 99.9299C114.864 100.564 115.418 101.091 115.635 101.284C115.808 101.396 115.908 101.448 115.908 101.448L115.916 101.529C118.611 103.92 121.812 106.605 122.379 107.628C123.282 109.253 123.611 110.946 123.632 112.507C123.641 113.133 123.603 113.736 123.53 114.304C123.21 116.861 122.259 118.727 122.253 118.736L138.525 127.645C142.151 126.622 150.644 124.768 152.987 123.646C152.987 123.646 153.242 123.222 153.673 122.425C154.138 121.567 154.817 120.257 155.601 118.598C157.971 113.588 161.366 105.239 163.194 95.3108L163.195 95.3095L167.458 91.4328C167.513 90.8642 167.549 90.2957 167.573 89.7271V89.7133C167.581 89.5238 167.583 89.3326 167.587 89.1465C167.604 88.7881 167.607 88.4228 167.607 88.0627V88.0421C167.607 87.8043 167.604 87.57 167.602 87.3322C167.595 87.0204 167.583 86.7102 167.568 86.3984C167.555 86.1348 167.549 85.8626 167.532 85.6041C167.522 85.3698 167.495 85.1389 167.48 84.908C167.384 83.6796 167.239 82.4701 167.056 81.2967C167.046 81.2467 167.037 81.2071 167.037 81.1572C166.965 80.7092 166.886 80.2646 166.801 79.8253C166.631 78.9276 166.451 78.0438 166.246 77.1892V77.1867C166.596 77.1023 166.946 77.0058 167.297 76.8835C168.147 76.5974 168.996 76.2219 169.846 75.7515C172.897 74.0577 175.866 71.165 178.173 67.328C182.821 59.5919 184.766 48.0031 179.193 34.5458C176.138 27.1628 171.841 21.8546 167.049 18.0222" fill="#002244"/>
<path d="M150.291 63.7515V63.7535V63.7575C150.301 63.7695 156.711 71.7895 158.351 82.3725C158.701 84.6265 158.841 86.9885 158.651 89.4215L156.951 90.9995L156.071 91.8155C156.101 94.2605 156.021 98.1505 154.971 102.767C154.401 105.247 153.571 107.927 152.291 110.737C150.921 108.257 148.951 106.087 146.831 104.287C144.491 102.287 141.961 100.747 139.871 99.7455C138.641 99.1615 137.561 98.7605 136.751 98.5675C135.421 99.3225 133.171 100.577 130.921 102.137C129.211 103.307 127.511 104.647 126.211 106.087C126.471 106.447 126.791 107.117 127.061 107.787C127.321 108.447 127.541 109.097 127.591 109.417C127.771 110.397 127.871 111.307 127.901 112.157C128.011 114.587 127.611 116.487 127.171 117.967C127.181 117.967 129.431 119.227 131.101 120.127C132.101 120.677 132.891 121.097 132.861 121.037C132.991 120.577 133.071 120.167 133.151 119.747C133.691 117.057 133.281 115.127 132.531 113.497C132.011 112.357 131.341 111.357 130.741 110.307C131.081 110.097 131.531 109.837 132.031 109.547C133.801 108.527 136.291 107.177 137.611 106.627C139.311 108.987 140.191 112.867 138.361 118.407C137.951 119.647 137.391 120.917 136.941 121.957C136.791 122.307 136.641 122.627 136.531 122.927C136.531 122.927 136.561 122.957 136.601 122.977C136.941 123.207 138.771 124.177 138.751 124.107H138.761C140.271 123.807 141.701 123.117 142.891 122.147C143.991 121.237 144.871 120.087 145.371 118.737C145.681 117.897 145.551 117.257 145.441 116.607C145.301 116.787 145.121 117.027 144.931 117.257C144.741 117.487 144.521 117.717 144.291 117.877C143.541 116.137 143.531 114.767 144.481 113.727C144.971 113.187 145.511 112.997 146.171 112.967C146.441 112.957 146.681 113.007 146.921 113.087C147.531 113.297 148.001 113.767 148.221 114.307C148.421 114.807 148.521 115.297 148.561 115.787C148.791 118.827 146.311 121.597 146.311 121.597C146.311 121.597 149.531 121.457 150.451 120.997C151.001 119.887 151.891 118.027 152.911 115.667C155.401 109.907 158.681 101.067 159.861 92.1475L162.821 89.4935C162.841 88.5275 162.811 87.5805 162.741 86.6555C161.631 72.7905 150.291 63.7515 150.291 63.7515ZM150.541 81.6365V81.6385C150.541 81.6395 150.571 82.1945 150.541 82.9445C150.511 83.5545 150.441 84.2915 150.261 84.9835C148.721 85.8035 147.661 87.4325 147.661 89.3115C147.661 92.0115 149.851 94.1985 152.551 94.1985C152.551 94.1985 152.731 93.7785 152.921 93.0585H152.911C152.351 93.0585 151.831 92.8955 151.381 92.6325C150.471 92.1035 149.861 91.1345 149.861 90.0095C149.861 88.8855 150.471 87.9195 151.381 87.3905C151.831 87.1265 152.351 86.9645 152.911 86.9645C152.911 86.9645 152.921 86.9655 152.921 86.9665C152.971 86.9665 153.021 86.9725 153.071 86.9775C152.891 86.1335 152.611 85.2485 152.201 84.3495C151.791 83.4535 151.251 82.5425 150.541 81.6365ZM153.401 90.3025C153.401 90.3025 153.371 90.3275 153.331 90.3665C153.241 90.4475 153.061 90.5955 152.821 90.7185C152.571 90.8385 152.251 90.9325 151.881 90.8975C151.641 90.8755 151.371 90.7955 151.091 90.6285C151.491 91.5985 152.541 91.8295 153.151 91.5795C153.191 91.5005 153.221 91.4225 153.251 91.3435C153.451 90.7835 153.401 90.3025 153.401 90.3025ZM136.111 110.617C136.111 110.617 134.221 110.757 134.081 111.417C135.341 112.557 135.211 115.757 135.221 117.987C135.221 118.307 135.231 118.597 135.241 118.867C135.361 118.417 137.451 115.367 136.111 110.617Z" fill="white"/>
</svg>
