<svg width="50" height="50" viewBox="0 0 190 112" fill="none" xmlns="http://www.w3.org/2000/svg">
<g clip-path="url(#clip0_487_1423)">
<path d="M176.18 29.3718C167.789 20.9807 155.998 13.8686 142.18 8.78413C127.456 3.41887 110.986 0.580273 94.1418 0.580273C70.9963 0.580273 47.0398 6.72536 28.6357 17.3935C9.79486 28.3112 -0.998047 42.3482 -0.998047 56.0733C-0.998047 64.8698 3.40022 73.9159 11.7289 82.2445C20.2446 90.7291 32.2229 98.0284 46.3535 103.3C61.2639 108.852 77.8588 111.785 93.7674 111.785C110.394 111.785 126.832 108.943 141.805 103.55C155.749 98.4651 167.571 91.3218 175.806 82.962C184.291 74.4774 188.751 65.1818 188.751 56.0733C188.751 46.9648 184.259 37.6692 175.806 29.1846" fill="white"/>
<path d="M183.667 56.1981C183.667 31.9296 144.052 5.97675 94.1422 5.97675C46.4163 5.97675 4.61719 32.1168 4.61719 56.1981C4.61719 80.3106 46.4163 106.419 94.1422 106.419C144.052 106.419 183.667 80.4353 183.667 56.1981Z" fill="#203731"/>
<path d="M128.766 29.9957V35.2673H137.188L137.243 35.2617C137.695 35.2314 138.435 35.3506 138.597 35.6235C138.748 35.8749 138.695 36.787 137.539 38.5993C137.524 38.6258 129.429 52.0749 126.435 57.097L114.581 38.1626C113.602 36.656 113.717 36.054 113.836 35.8356C114.047 35.4363 114.378 35.324 115.061 35.2773H115.088C115.096 35.2791 115.12 35.2791 115.12 35.2791H121.172V30.0075L75.6293 30.0037V35.2754H81.4C82.5791 35.2754 83.3839 35.5115 83.8674 35.9928C84.6753 36.8007 84.8375 38.5039 84.8375 40.8278V60.1989L61.7544 30.0661H38.9833V35.5873H46.4697C47.2682 35.5835 47.8204 35.7348 48.1198 36.0334C48.6938 36.6073 48.6938 38.0703 48.6938 39.4958L48.6994 69.9094C48.6994 74.9315 48.1567 76.3352 46.1821 76.3352H38.9141V81.2014H63.3385V76.2728H56.4447C55.2812 76.2841 54.4515 76.2295 54.1551 75.939C53.5126 75.2996 53.4595 72.4766 53.4595 69.8875V43.1236L84.9648 81.1795H89.8934C89.8934 81.1795 89.9237 38.7565 89.8896 38.1327C89.8347 36.9785 90.1523 35.6622 92.2073 35.397H97.1046C99.3724 35.3876 100.848 38.1327 102.376 40.7311C102.376 40.7311 114.167 60.7572 115.727 63.4087V73.0786C115.727 76.3539 114.27 76.3539 113.65 76.3539H108.128V81.2825H137.107V76.3227H131.804C129.755 76.211 129.037 75.6209 129.118 72.5795V62.5976L143.249 38.8595C145.28 35.7089 145.492 35.397 148.271 35.4282H153.075V30.1253H128.838" fill="white"/>
<path d="M130.014 31.5553V34.2005H137.064C137.064 34.2005 142.273 33.7669 138.583 39.5658L126.386 59.8727L113.41 39.0979C110.041 33.7638 115.066 34.2005 115.066 34.2005H119.807V31.5553L76.7605 31.5535V34.1737H81.19C85.4635 34.1737 85.9626 36.9218 85.9626 41.0363V64.3065L60.9143 31.5535H40.1083V34.442H46.2846C50.2149 34.4363 49.7782 37.5301 49.8406 40.5559V70.0648C49.8406 74.1823 49.6666 77.8008 46.0038 77.8008H40.0459V80.0342H61.8189V77.7477H56.2353C52.4921 77.7742 51.9306 77.205 51.9306 70.043V39.2863L85.3075 80.1496H88.04V40.846C88.04 36.7284 88.1155 34.4513 91.9392 34.2954H97.3668C100.262 34.5053 101.796 37.8514 103.855 41.3763L116.8 63.274V73.2871C116.8 76.4002 115.581 77.8725 113.4 77.8725H109.189V80.1621H135.548V77.8257H131.524C128.311 77.6595 127.468 76.004 127.562 72.7412V62.4474L140.882 39.9258C143.861 35.4651 144.032 34.2798 148.056 34.3421H151.519V31.6689H129.933" fill="#203731"/>
<path d="M114.418 80.529C114.418 74.5711 105.403 68.1764 94.1419 68.1764C83.349 68.1764 73.8662 74.6023 73.8662 80.529C73.8662 86.4558 83.349 92.8816 94.1419 92.8816C105.403 92.8816 114.418 86.4869 114.418 80.529Z" fill="#203731" fill-opacity="0.941"/>
<path d="M112.858 79.905C112.194 74.8205 104.03 69.58 93.9237 69.58C84.2537 69.58 75.7068 74.8205 75.0205 79.905H112.765" fill="white"/>
<path d="M75.1143 81.1528C75.8036 86.2373 84.3475 91.4778 94.0174 91.4778C104.124 91.4778 112.297 86.2685 112.952 81.1528H75.2078" fill="white"/>
<path d="M87.2796 84.896C84.7156 84.896 82.6318 82.9215 82.6318 80.4977C82.6318 78.0646 84.7062 76.0995 87.2796 76.0995H100.974C103.535 76.0995 105.621 78.074 105.621 80.4977C105.621 82.9308 103.544 84.896 100.974 84.896H87.2796Z" fill="#203731"/>
<path d="M101.628 78.6573C101.6 78.527 101.567 78.3966 101.532 78.2705L100.24 78.2687C100.286 78.4065 100.325 78.5429 100.361 78.6867C100.469 79.0984 100.539 79.5258 100.575 79.9625H98.2603C98.2244 79.5601 98.1639 79.1577 98.0713 78.7896L96.8235 78.8066C96.9389 79.1778 97.0163 79.5677 97.0618 79.9639H94.7223V78.8659H93.4247V79.9639H91.0852C91.1304 79.5677 91.2081 79.1778 91.3235 78.8066L90.0758 78.7896C89.9831 79.1577 89.9207 79.5601 89.8867 79.9625H87.5722C87.6118 79.5258 87.682 79.0984 87.7877 78.6867C87.8236 78.5432 87.8632 78.4069 87.9069 78.2687L86.6155 78.2705C86.5815 78.3972 86.5494 78.5276 86.521 78.6573C86.3753 79.303 86.2998 79.9706 86.2998 80.66C86.2998 81.4585 86.4037 82.2383 86.5983 82.9776L87.8897 82.9946C87.7197 82.4456 87.6099 81.8717 87.5622 81.279H89.8799C89.9139 81.6939 89.9781 82.0994 90.0764 82.4893L91.3054 82.4742C91.1881 82.0905 91.1126 81.6881 91.073 81.2764H93.425V82.4212H94.7226V81.2764H97.0715C97.03 81.685 96.9542 82.0905 96.8391 82.4742L98.0681 82.4893C98.1664 82.0994 98.2306 81.6907 98.2646 81.279H100.579C100.534 81.8717 100.422 82.4456 100.252 82.9946L101.546 82.9776C101.739 82.2352 101.843 81.4585 101.843 80.66C101.843 79.9706 101.767 79.303 101.624 78.6573" fill="white"/>
<path d="M153.097 47.464C151.753 44.9279 148.2 43.4712 142.835 43.2841C138.904 43.1537 135.816 43.3595 133.352 43.9859L68.7816 44.0124L72.0881 37.8673H56.1795L45.2618 58.4237C44.3759 59.7213 44.2543 59.7962 43.3465 59.6995C43.0857 59.6749 42.9098 59.6353 42.7913 59.6031C42.9538 59.0385 43.6054 57.9467 43.8394 57.5506C43.8318 57.5619 47.645 51.2807 47.645 51.2807H32.8281L32.3852 51.8921C27.9869 57.5069 26.8016 62.1859 28.486 65.3053C30.1174 68.487 34.132 70.0779 40.4019 70.0467C46.7341 70.0089 50.6957 69.7098 53.8774 67.6448H86.0066L94.304 52.1729H101.447L93.2123 67.6136H109.62L114.767 57.9436H121.723L121.364 58.8233C120.095 61.9426 120.778 64.0014 121.572 65.1867C123.129 67.5044 126.47 68.6804 131.492 68.6804C139.976 68.6653 145.373 67.885 147.993 63.939C150.136 60.6949 150.457 57.7003 148.895 55.5792C148.467 54.9771 147.784 54.4531 146.979 54.0008H151.658L152.095 53.2989C153.739 50.6537 153.318 48.6511 152.678 47.4658" fill="#203731"/>
<path d="M149.354 55.5741C149.356 55.5779 149.358 55.5816 149.36 55.5854C149.364 55.5911 149.368 55.5968 149.372 55.6006L149.354 55.5741Z" fill="#203731" fill-opacity="0.941"/>
<path d="M44.856 52.7669H33.4393C25.7657 63.3415 29.5401 68.6444 40.5513 68.582C50.5956 68.5215 54.1205 67.877 58.3004 60.2221L69.4676 39.3226H56.9279L46.3845 59.1616C45.3988 60.6121 44.8404 61.3326 43.0468 61.1455C40.2051 60.8451 40.9787 59.1803 42.4198 56.7472L44.8591 52.7233" fill="white"/>
<path fill-rule="evenodd" clip-rule="evenodd" d="M96.0137 66.1799H109.084L117.319 50.864H123.339L126.221 45.5299H99.8006L96.9838 50.7392H104.283L96.048 66.1799" fill="white"/>
<path fill-rule="evenodd" clip-rule="evenodd" d="M123.152 59.3174C121.156 64.2148 124.175 67.147 131.917 67.147C140.308 67.1318 145.019 66.3609 147.171 63.0606C148.64 60.8272 149.479 58.2569 148.11 56.3853C147.168 55.0408 143.805 53.8742 140.592 53.2659C138.552 52.8698 137.841 52.38 137.981 51.1791C138.112 50.0842 139.469 49.8346 140.486 50.1341C141.313 50.3762 141.668 51.4006 141.534 52.4674H151.235C153.862 48.2251 150.821 45.0122 142.782 44.7002C132.831 44.3727 129.026 46.21 127.029 51.282C126.028 53.634 126.196 55.4307 127.656 56.3977C129.478 57.5893 134.519 58.3504 136.016 58.9026C136.927 59.2395 137.055 60.3593 136.537 61.0144C135.941 61.7692 134.516 62.1311 133.614 61.4323C132.987 60.9488 133.09 60.3499 132.884 59.3206H123.183" fill="white"/>
<path fill-rule="evenodd" clip-rule="evenodd" d="M60.4531 66.1801H85.439L88.237 60.9708H74.5743L75.8938 58.4659H88.028L90.8854 53.1319H79.4686L80.6165 50.73H92.9691L95.7484 45.5207H71.5112L60.4375 66.2019" fill="white"/>
</g>
<defs>
<clipPath id="clip0_487_1423">
<rect width="190" height="112" fill="white"/>
</clipPath>
</defs>
</svg>
