<svg width="50" height="50" viewBox="0 0 194 172" fill="none" xmlns="http://www.w3.org/2000/svg">
<path d="M184.473 1.06201C184.473 1.06201 184.918 9.21164 183.379 16.6729C181.892 23.8822 181.073 26.6287 181.073 26.6287C177.925 28.4743 172.829 30.7449 165.38 31.9842C151.477 34.302 138.862 30.5676 125.087 25.1605C111.317 19.7535 92.882 13.9296 75.7792 15.8926C59.1963 17.7976 47.3324 24.5145 41.0235 28.8945C34.7155 33.2704 33.5545 34.4274 28.1476 35.9734C28.1476 35.9734 32.3975 37.6459 34.5856 37.6459C34.5856 37.6459 33.5546 41.8997 33.9403 43.3124C33.9403 43.3124 42.9518 39.1925 43.9822 41.1245C45.0132 43.0566 40.7631 44.3472 37.8041 45.1147C34.8449 45.8899 27.1162 45.7562 27.1162 45.7562C27.1162 45.7562 30.7406 48.5619 32.0193 50.5099C32.0193 50.5099 25.1877 53.4849 17.5894 52.4539C17.5894 52.4539 17.3375 55.2676 23.5827 59.8757C22.2527 60.3519 20.5685 61.1232 19.5256 62.2368C19.5256 62.2368 26.0696 60.887 30.1825 65.4674C31.2647 66.825 31.6188 68.041 31.4968 69.5758C31.2725 72.3579 30.206 73.4204 27.5852 75.1519C26.0859 75.7618 24.4921 76.5253 22.9536 77.4658C15.7171 81.9157 10.4248 88.6847 6.70979 96.4156C5.10041 99.7656 3.81362 103.656 2.90453 107.188C1.99553 110.737 1.66104 113.887 1.44854 115.856C1.23602 117.819 0.944824 124.009 0.944824 124.009C0.944824 124.009 4.1914 119.46 5.71418 117.28C7.22927 115.108 16.8311 103.035 30.816 99.5364C35.2903 98.3991 39.745 97.923 44.0028 97.923C54.2378 97.9151 63.3797 100.693 68.7906 103.342C76.6452 107.143 89.5484 116.116 106.465 118.921C110.448 119.578 114.741 119.904 119.191 119.904C123.461 119.904 127.88 119.594 132.295 118.991C129.8 122.714 127.408 126.193 125.133 129.415C122.827 127.22 119.699 126.991 119.699 126.991C115.905 126.633 114.005 128.943 114.005 128.943C113.237 129.773 112.663 130.852 112.439 132.123C112.171 133.299 112.49 134.669 112.71 135.365C113.434 137.663 115.398 138.71 116.161 139.045C110.616 146.431 109.007 154.935 109.007 154.938L106.477 157.17L107.39 160.869C105.981 165.406 108.192 168.81 111.061 170.219C113.973 171.651 116.692 170.821 116.692 170.821C118.404 170.341 119.955 169.262 121.009 167.68C121.171 167.44 121.312 167.196 121.438 166.952C122.028 166.634 122.536 166.276 122.969 165.89C123.768 165.98 125.814 166.043 125.814 166.043C130.009 166.008 134.109 164.82 137.238 162.163C139.701 159.96 142.413 156.202 142.507 151.067C142.507 150.102 142.684 146.214 139.473 142.826C159.736 113.077 172.892 93.9237 181.289 74.4359C203.538 22.7833 184.559 1.24552 184.476 1.06152" fill="#B1BABF"/>
<path d="M186.113 9.95703C185.889 20.7309 182.937 28.2359 182.937 28.2359C178.719 30.7622 172.962 33.4577 166.386 34.4336C152.649 36.4642 145.9 34.41 133.178 30.3412C120.463 26.2721 101.381 17.4933 81.7972 17.6233C62.2083 17.7492 48.2254 26.2532 35.7006 35.9261C35.8934 35.8671 38.9667 34.9069 40.0764 34.5409C40.0764 34.5409 37.1526 37.9725 36.2633 39.8809C36.2633 39.8809 42.0914 35.5247 50.0912 35.989C50.0912 35.989 47.3091 36.6855 46.1482 38.4249C46.1482 38.4249 49.3947 37.7244 49.9731 39.0033C50.5555 40.2783 48.584 43.1786 44.9913 44.7999C41.3985 46.4251 35.5983 47.7001 31.8874 47.9324C31.8874 47.9324 35.6021 49.0933 38.0342 51.4111C38.0342 51.4111 35.201 51.8165 32.1196 53.0324C29.5538 54.0477 24.9299 54.6576 22.9585 54.4255C22.9585 54.4255 25.6579 56.9519 28.8731 58.9471C38.2858 64.7867 34.3115 73.4439 31.2814 76.2809C29.2863 76.8476 8.48959 82.5065 3.72363 116.081C3.72363 116.081 14.2615 101.379 30.2194 97.3177C46.1803 93.2566 61.6531 97.3177 69.7751 101.28C77.8972 105.247 90.4699 113.948 106.812 116.659C115.8 118.151 126.622 117.879 137.096 115.876C136.927 116.136 128.935 128.024 125.5 132.817C125.5 132.817 122.95 129.614 119.498 129.295C119.498 129.295 118.05 129.004 116.878 129.614V129.618C115.843 130.094 114.957 131.113 114.67 132.526C114.379 133.958 114.898 135.068 115.575 135.855C116.22 136.607 117.031 136.989 117.688 137.166C118.275 137.307 119.089 137.665 119.243 138.441C117.669 140.865 115.512 144.367 113.958 147.751C112.738 150.415 112.155 152.702 111.667 154.24C111.207 155.818 110.798 156.436 110.664 156.515L109.007 157.975C109.007 157.975 109.641 160.536 109.822 160.965C109.42 161.729 109.22 162.571 109.216 163.401V163.448C109.216 165.188 110.074 166.895 111.632 167.923C112.848 168.761 114.607 168.812 114.607 168.812C116.342 168.812 118.046 167.954 119.073 166.411C119.321 166.038 119.511 165.644 119.648 165.251C120.895 164.743 121.663 164.035 122.06 163.452C122.985 163.665 125.677 163.747 125.787 163.747C129.549 163.72 133.114 162.642 135.723 160.418C137.82 158.541 140.111 155.33 140.185 151.029C140.185 150.262 140.418 146.216 136.534 143.005C139.89 138.153 144.014 132.105 148.351 125.545C156.414 113.326 163.009 102.71 168.027 93.8456C173.277 84.8338 189.702 60.0769 189.667 26.1802C189.651 16.3031 186.114 9.95939 186.114 9.95939L186.113 9.95703Z" fill="black"/>
<path d="M158.733 38.0557C139.834 37.9417 119.364 27.3088 101.204 23.2548C62.9332 14.7159 44.3904 34.6987 44.3804 34.7067C44.3843 34.7028 50.5822 32.4479 53.7065 34.4785C57.1024 36.6861 54.1079 42.3803 53.0139 43.5175C49.8736 46.7874 45.3599 49.2036 40.374 49.2036C40.374 49.2036 45.6512 50.4707 47.359 52.0409C47.359 52.0409 42.4637 52.6823 39.7956 53.6071C37.1316 54.5358 31.9135 56.043 30.7566 56.043C30.7566 56.043 44.5025 62.3273 35.9707 75.7508C35.9707 75.7508 41.9362 74.8378 46.9066 77.2226C46.9066 77.2226 19.6748 72.827 10.4629 102.883C13.9338 100.022 24.8378 92.3294 41.8156 92.2464C62.3094 92.1559 71.1014 96.8702 79.2433 101.801C91.6552 109.325 101.04 111.552 108.171 112.883C128.662 116.708 149.24 109.817 158.155 105.662C184.036 66.0065 187.015 43.6097 187.455 27.6158C179.093 36.0332 165.08 38.0947 158.729 38.0557" fill="#D50A0A"/>
<path d="M158.733 38.0557C139.834 37.9417 119.364 27.3088 101.204 23.2548C62.9332 14.7159 44.3904 34.6987 44.3804 34.7067C44.3843 34.7028 50.5822 32.4479 53.7065 34.4785C57.1024 36.6861 54.1079 42.3803 53.0139 43.5175C49.8736 46.7874 45.3599 49.2036 40.374 49.2036C40.374 49.2036 45.6512 50.4707 47.359 52.0409C47.359 52.0409 42.4637 52.6823 39.7956 53.6071C37.1316 54.5358 31.9135 56.043 30.7566 56.043C30.7566 56.043 44.5025 62.3273 35.9707 75.7508C35.9707 75.7508 41.9362 74.8378 46.9066 77.2226C46.9066 77.2226 19.6748 72.827 10.4629 102.883C13.9338 100.022 24.8378 92.3294 41.8156 92.2464C62.3094 92.1559 71.1014 96.8702 79.2433 101.801C91.6552 109.325 101.04 111.552 108.171 112.883C128.662 116.708 149.24 109.817 158.155 105.662C184.036 66.0065 187.015 43.6097 187.455 27.6158C179.093 36.0332 165.08 38.0947 158.729 38.0557" stroke="#D50A0A" stroke-width="0.312497"/>
<path d="M130.124 79.5587C121.738 81.8135 113.726 82.4629 108.37 82.6045C108.284 82.5415 108.201 82.4786 108.115 82.4156C109.401 82.1519 110.61 81.6325 111.66 80.7904C114.324 78.6576 117.276 77.0363 119.251 75.4623C121.234 73.8882 123.072 69.1385 123.072 69.1385C126.397 67.8635 128.656 63.3497 128.656 63.3497C128.656 63.3497 128.133 62.3502 128.086 61.1342C128.034 59.9143 129.932 57.8561 131.903 54.2042C133.874 50.5564 134.307 45.5586 131.049 40.0692C127.806 34.6073 118.862 31.7936 118.783 31.7698C118.704 31.7423 109.873 28.5942 103.995 30.9946C98.0842 33.4068 95.416 37.649 94.7864 41.7496C94.1567 45.8502 94.4243 48.6362 93.6531 49.5805C92.8778 50.521 91.8587 51.005 91.8587 51.005C91.8587 51.005 90.9418 55.9672 92.8228 58.9816C92.8228 58.9816 91.4219 63.881 92.0515 66.3325C92.6811 68.7802 94.0545 71.8534 94.8927 75.1591C95.2311 76.4971 95.9119 77.6658 96.8052 78.6616C96.7107 78.6616 96.6123 78.6577 96.5179 78.6577C92.3209 75.3107 86.2959 69.9387 80.9399 63.0487C71.5549 50.9757 68.4969 31.7617 68.4969 31.7617C64.3728 43.0397 63.3341 47.0067 66.73 57.7027C70.1259 68.3987 80.369 78.6297 80.369 78.6297C80.1211 79.2239 80.4831 80.3179 80.4831 80.3179C80.4831 80.3179 78.9877 79.8614 74.4781 79.8535C69.9684 79.8417 70.8262 80.3258 69.445 80.251C68.0638 80.1762 67.6702 79.6056 67.6702 79.6056C66.9737 79.9519 66.3204 80.7547 66.3204 80.7547C65.6633 80.8256 62.4326 81.1955 62.7748 84.3672C63.1211 87.5391 66.4345 87.3422 66.4345 87.3422C67.0327 88.0269 67.9023 88.3182 67.9023 88.3182C67.9023 88.3182 69.8581 93.4851 75.4973 93.7291C80.3967 93.9419 81.9785 90.9548 82.3092 90.1679C82.4352 90.4669 82.5768 90.7739 82.7264 91.0848C83.722 93.1193 85.2488 95.3779 87.3148 97.4245C89.3768 99.4669 91.9898 101.309 95.1457 102.371C99.9507 103.969 104.787 103.477 108.577 102.288C109.981 101.848 111.351 101.277 112.626 100.545C112.405 101.612 112.177 104.701 115.955 107.306C120.598 110.513 125.273 107.569 125.273 107.569C125.273 107.569 126.143 107.865 127.036 107.676C127.036 107.676 129.563 109.832 131.751 107.51C133.935 105.189 131.585 102.946 131.106 102.493C131.106 102.493 131.062 101.458 130.716 100.761C130.716 100.761 130.062 100.978 128.913 100.207C127.764 99.4313 128.74 99.5651 125.14 96.8537C121.535 94.1424 120.067 93.5993 120.067 93.5993C120.067 93.5993 121.015 92.9461 121.177 92.3243C121.177 92.3243 135.521 90.3449 144.682 83.8637C153.839 77.3784 155.405 73.5847 158.915 62.1017C158.915 62.1017 144.886 75.5837 130.117 79.5587" fill="black"/>
<path d="M102.064 81.7023C94.2613 79.0863 85.8003 82.9523 83.9403 85.3013C83.8648 85.3969 83.7936 85.4973 83.7337 85.6032C83.7274 85.6142 83.72 85.6362 83.7109 85.6445C84.2607 85.1935 84.871 85.1065 84.871 85.1065C83.9049 85.5536 83.9478 86.518 84.1127 86.8753C85.5199 90.3172 89.9139 95.97 96.5267 98.1903C103.265 100.45 110.261 98.6224 113.396 96.6465C113.761 96.388 114.243 95.7367 113.773 94.8485C113.773 94.8485 114.14 95.224 114.332 95.8264C114.414 95.2413 114.286 94.4125 113.961 93.4425C112.705 89.7037 108.517 83.8691 102.06 81.7025" fill="#FF7900"/>
<path d="M102.064 81.7023C94.2613 79.0863 85.8003 82.9523 83.9403 85.3013C83.8648 85.3969 83.7936 85.4973 83.7337 85.6032C83.7274 85.6142 83.72 85.6362 83.7109 85.6445C84.2607 85.1935 84.871 85.1065 84.871 85.1065C83.9049 85.5536 83.9478 86.518 84.1127 86.8753C85.5199 90.3172 89.9139 95.97 96.5267 98.1903C103.265 100.45 110.261 98.6224 113.396 96.6465C113.761 96.388 114.243 95.7367 113.773 94.8485C113.773 94.8485 114.14 95.224 114.332 95.8264C114.414 95.2413 114.286 94.4125 113.961 93.4425C112.705 89.7037 108.517 83.8691 102.06 81.7025" stroke="#FF7900" stroke-width="0.312497"/>
<path d="M110.852 32.8079C102.18 32.698 100.403 39.7751 100.368 41.6262C100.341 43.1176 100.439 44.1257 100.391 44.7239C101.273 44.3619 102.123 43.8926 102.772 43.2669C102.622 43.44 100.174 46.2276 97.5576 46.5228C97.5576 46.5228 96.9827 49.0446 96.2822 50.3197C95.5896 51.5985 94.2335 52.4719 94.2335 52.4719C94.1036 54.2743 95.0751 56.8839 96.1572 57.427C97.2354 57.9701 100.12 58.9215 101.241 60.2004C102.359 61.4793 102.392 62.8378 102.132 63.8019C102.049 64.1994 101.875 64.6705 101.737 65.0128C101.773 65.0207 101.804 65.0284 101.831 65.0363C102.067 65.1189 102.199 65.2817 102.194 65.3683C102.194 65.3683 102.068 65.4453 101.974 65.5909C101.883 65.7365 101.726 66.1117 101.683 66.214C101.525 66.6035 101.41 66.9182 101.276 67.3078C101.268 67.3196 101.268 67.3311 101.268 67.3429C101.142 67.7168 101.52 67.8468 101.52 67.8468C101.52 67.8507 101.559 67.8625 101.563 67.8625C101.866 67.9176 102.194 67.985 102.532 68.0558C102.532 68.0558 102.984 68.1389 103.137 67.7336C103.283 67.3046 103.41 66.9496 103.571 66.5207C103.579 66.4971 103.59 66.4701 103.602 66.4465V66.4426L103.614 66.4152C103.614 66.4152 103.713 66.1197 103.757 65.9426C103.796 65.7773 103.969 65.4933 104.126 65.4933C104.291 65.4933 104.514 65.5729 104.491 65.9074C104.467 66.2419 104.401 66.4618 104.389 66.5011C104.385 66.5169 104.381 66.5362 104.381 66.548C104.232 67.0753 103.928 68.1847 103.928 68.1847C103.783 68.6097 104.249 68.7433 104.249 68.7433C104.531 68.822 104.955 68.8891 105.254 68.9796C105.274 68.9835 105.289 68.9874 105.313 68.9913C105.313 68.9913 105.668 69.1069 105.793 69.0597C105.923 69.0125 106.006 68.8141 106.03 68.7511C106.049 68.6881 106.522 67.0395 106.573 66.8624C106.609 66.7286 106.593 66.4612 106.522 66.3077C106.546 66.3116 106.975 66.3873 107.215 66.4659C107.416 66.5368 107.683 66.6429 107.817 66.7452C107.612 66.8475 107.479 67.1863 107.467 67.2335C107.463 67.2413 107.457 67.2452 107.457 67.2491C107.426 67.3593 107.387 67.4652 107.356 67.5714C107.206 68.024 107.009 68.6032 106.856 69.0597C106.832 69.1817 106.808 69.4845 107.162 69.6183C107.182 69.6222 107.2 69.6339 107.219 69.6378C107.514 69.748 107.887 69.8811 108.162 69.9913C108.162 69.9913 108.253 70.0265 108.367 70.0265C108.505 70.0265 108.674 69.9755 108.752 69.7394C108.823 69.523 108.986 69.0434 109.127 68.6066C109.265 68.1737 109.391 67.7808 109.395 67.7335C109.399 67.6509 109.496 67.4956 109.555 67.4445C109.716 67.4327 109.835 67.4578 109.945 67.5128C110.075 67.5758 110.224 67.737 110.283 67.796C110.197 67.9456 110.059 68.3277 110.024 68.5363C109.996 68.7134 109.788 69.4711 109.69 69.8254C109.678 69.8529 109.67 69.8935 109.658 69.925C109.65 69.9368 109.654 69.9483 109.65 69.964C109.646 69.9758 109.642 69.9835 109.646 69.9914C109.591 70.3573 109.945 70.5421 109.945 70.5421C110.26 70.6917 110.562 70.838 110.838 70.9757C110.838 70.9757 110.877 70.9914 110.881 70.9914C110.881 70.9914 111.259 71.1132 111.385 70.7394C111.389 70.7276 111.396 70.716 111.4 70.7121C111.527 70.3186 111.626 69.9924 111.736 69.591C111.764 69.4808 111.794 69.3691 111.822 69.259C111.829 69.2472 111.833 69.2163 111.838 69.173C111.845 69.1455 111.9 68.9493 111.916 68.8273C111.928 68.7643 111.927 68.7046 111.924 68.6613C111.924 68.6613 112.133 68.7445 112.377 68.8507C112.475 68.0244 112.83 67.4055 112.83 67.4055C112.909 67.2166 113.023 67.055 113.145 66.9094C113.141 66.9094 113.137 66.9133 113.137 66.9133C113.589 66.1341 114.412 65.3646 115.777 65.0813C117.442 64.739 120.313 65.7144 121.506 65.9348C122.556 66.1276 124.513 64.9855 125.631 63.6672C125.835 63.3524 125.976 63.1243 125.976 63.1243C125.976 63.1243 125.418 61.6095 125.634 60.1692C125.855 58.7329 126.914 56.3684 126.914 56.3684C124.946 54.5031 124.718 50.6224 124.718 50.6224C124.84 51.4094 125.159 52.197 125.572 52.9368C125.918 52.4135 126.59 51.7004 127.338 50.6615C127.869 49.9177 128.838 47.9041 128.838 45.4408C128.838 42.6389 127.586 39.2504 123.025 36.4761C123.009 36.4643 122.994 36.4527 122.974 36.4448C122.919 36.4094 122.859 36.3728 122.8 36.3413C122.214 35.9872 121.632 35.6773 121.086 35.4136C120.833 35.2916 120.589 35.182 120.357 35.0757C120.121 34.9734 119.898 34.8771 119.685 34.7905C119.524 34.7237 119.37 34.6659 119.224 34.6109C119.114 34.5676 119.008 34.5271 118.906 34.4878C118.555 34.3579 118.263 34.2637 118.051 34.1968C118.007 34.1811 117.969 34.1696 117.926 34.1538C117.493 34.0161 115.835 33.5164 113.769 33.0874C112.719 32.9085 111.749 32.8193 110.852 32.8079ZM68.0083 40.0187C68.0083 40.0187 66.7545 47.8507 72.8325 58.9836L73.268 59.7668C73.5525 60.2295 73.9088 60.8499 74.3676 61.6008C76.5697 65.1267 79.4977 68.9172 83.4184 72.8647C83.4309 72.8761 88.304 77.6844 90.3812 79.515C91.1851 79.2954 92.0291 79.1137 92.9027 78.972C90.0088 76.5786 87.1583 73.9586 84.5511 71.1342C71.3743 56.8593 68.8563 43.5844 68.0093 40.0195L68.0083 40.0187ZM95.6601 63.8645C95.2368 63.8689 94.7379 63.9395 94.4296 64.1966C94.4296 64.1966 94.7869 66.169 95.7538 67.9035C96.7191 69.637 97.8702 72.68 98.2968 73.9094C98.4719 74.4142 98.8134 74.9864 99.373 75.5598C100.141 75.1332 102.022 75.2676 104.072 75.9562C106.033 76.615 107.564 77.5817 108.004 78.3664C108.709 78.2365 109.267 78.0008 109.677 77.7277C110.761 77.0053 113.511 75.2725 115.33 74.4719C117.146 73.6719 118.621 72.3137 118.621 72.3137C118.472 71.6656 117.593 71.1165 117.291 70.9426C117.11 70.9757 116.393 71.1188 116.033 71.384C115.622 71.687 114.126 73.9111 112.168 74.7473C112.353 73.6466 111.642 73.0776 111.459 73.0969C111.277 73.1186 111.133 73.5504 111.095 73.6594C111.058 73.77 110.68 74.5135 110.551 74.8625C110.421 75.2119 110.461 75.2394 110.461 75.2394C110.146 75.2307 109.831 75.2131 109.519 75.1887C109.819 74.6236 110.087 74.0612 110.34 73.5012C110.522 73.0337 110.023 72.9328 110.023 72.9328L110.019 72.9289C109.74 72.886 109.462 72.8387 109.183 72.7863C109.172 72.7847 109.164 72.787 109.152 72.7863C108.803 72.7241 108.592 72.9436 108.547 73.0774C108.512 73.1659 108.479 73.2537 108.441 73.341C108.314 73.6503 108.176 73.9587 108.043 74.2668C108.037 74.2845 108.033 74.3034 108.023 74.3195C107.865 74.7091 107.998 75.0343 107.998 75.0343C107.888 75.0268 107.63 75.0367 107.193 74.9504C106.986 74.9091 106.709 74.7863 106.709 74.7863C106.863 74.6604 106.957 74.4211 106.957 74.4211H106.959C107.237 73.7403 107.668 72.6848 107.668 72.6848C107.668 72.6848 107.838 72.2296 107.541 72.1418C107.14 72.0419 106.741 71.931 106.344 71.8118C106.043 71.748 105.912 71.9967 105.879 72.0774C105.817 72.2372 105.71 72.4816 105.674 72.593C105.521 73.0282 105.369 73.4625 105.219 73.8938C105.219 73.9005 105.219 73.9039 105.217 73.9094C105.123 74.1876 105.195 74.4504 105.195 74.4504C105.195 74.4504 104.81 74.3707 104.607 74.3176C104.403 74.2637 104.097 74.05 104.097 74.05C104.147 73.9993 104.206 73.8613 104.248 73.7629C104.432 73.1172 104.606 72.3089 104.762 71.634C104.773 71.5396 104.776 71.2592 104.492 71.1399C104.154 71.0164 103.816 70.8863 103.484 70.7493C103.189 70.6565 103.06 70.8986 103.014 71.0423C102.88 71.6534 102.722 72.3849 102.621 72.9152C102.578 73.2875 102.748 73.5481 102.748 73.5481C102.592 73.5095 102.275 73.3723 102.021 73.2649C101.855 73.1948 101.486 72.9524 101.486 72.9524C101.675 72.9354 101.783 72.5344 101.783 72.5344C101.994 72.0988 102.134 71.7207 102.299 71.3078C102.305 71.2877 102.314 71.2712 102.32 71.2512C102.325 71.239 102.326 71.2302 102.334 71.2141C102.497 70.7765 102.191 70.544 102.141 70.507C101.702 70.2878 101.208 70.0285 101.203 70.0285C100.952 69.8939 100.784 70.073 100.73 70.2453C100.556 70.738 100.284 71.1839 100.189 71.7258C100.146 72.0327 100.17 72.2492 100.17 72.2492C99.5713 71.9639 99.3515 71.5129 99.3515 71.5129C99.4943 71.3418 99.6851 70.7382 99.6894 70.1731C99.6957 69.6077 99.7312 69.0792 99.4667 68.8919C99.2023 68.7042 98.7622 69.1793 98.5351 69.515C98.31 69.8503 98.2558 70.0462 98.2558 70.0462V70.0892C97.1928 68.2442 97.3408 65.5602 97.1988 65.0682C97.0518 64.5782 96.4288 63.9233 96.4288 63.9233C96.4288 63.9233 96.0813 63.8622 95.6573 63.8666L95.6601 63.8645ZM154.375 69.0051C154.36 69.0342 153.874 69.4356 153.091 70.0696C152.756 70.3458 152.389 70.6441 151.972 70.9739C147.412 74.5751 137.902 81.0518 122.416 83.8348C118.662 84.5092 114.838 84.8792 111.113 85.0437C111.726 85.6781 112.287 86.3221 112.798 86.9773C112.798 86.9773 114.427 86.8591 114.652 86.8406C117.463 86.6045 120.273 86.2619 123.05 85.7605C129.92 84.5202 135.114 82.7646 137.581 81.8368C138.158 81.6093 138.707 81.3756 139.247 81.1414C151.382 75.8771 154.301 69.1771 154.375 69.0051ZM74.1583 82.106C73.2619 82.1103 72.366 82.1988 71.4786 82.3228C70.6924 82.4322 69.9382 82.5697 69.211 82.563C68.9796 82.5624 68.7564 82.5453 68.5411 82.5044C68.3365 82.4658 68.139 82.4081 67.9435 82.3247C67.9522 82.357 68.3749 84.1489 70.7422 84.1489C70.7647 84.1237 70.8464 83.9679 70.8614 83.9399C71.0877 83.5122 71.5333 83.1042 71.9493 82.8618C71.9536 82.859 71.9571 82.8556 71.961 82.854C72.6882 82.4172 73.8291 82.1516 74.5508 82.1118C74.5716 82.1093 74.2964 82.1052 74.1583 82.106ZM74.6602 82.1119C74.0168 82.2362 73.2785 82.468 72.7619 82.8072C72.1625 83.1964 71.7747 83.6814 71.5705 84.0963C73.5348 83.8641 77.2564 83.9122 78.1974 84.0748C78.2033 84.0677 78.2114 84.0608 78.2189 84.0533C78.7615 83.195 79.5662 82.8118 80.1505 82.6178C79.1769 82.4636 78.0362 82.3325 77.0548 82.2448C76.5672 82.2011 76.0787 82.1668 75.59 82.1432C75.28 82.1282 74.9702 82.1179 74.6602 82.1119ZM95.0491 83.8951C94.7771 84.2241 94.5212 84.5644 94.2795 84.9145C94.0064 84.8756 93.7362 84.8405 93.469 84.8091C93.4415 84.8421 93.4157 84.8768 93.3889 84.9106C93.1587 85.1991 92.9358 85.497 92.7229 85.8052C92.654 85.9047 92.5867 86.0048 92.5198 86.1059C92.8279 86.1595 93.1405 86.2156 93.4553 86.2758C93.1574 86.8448 92.9029 87.4384 92.7014 88.0551C93.189 88.1157 93.6764 88.1862 94.1604 88.27C94.3642 87.6844 94.6037 87.1193 94.8752 86.5708C95.3758 86.6814 95.8835 86.8007 96.3947 86.9302C96.1523 87.4642 95.9282 88.0112 95.7287 88.5728C96.208 88.6782 96.6877 88.7921 97.1603 88.9185C97.3539 88.3687 97.5626 87.8298 97.7794 87.3013C98.2701 87.441 98.7621 87.5907 99.2579 87.7485C99.0675 88.2778 98.8788 88.814 98.6935 89.3579C99.1617 89.5031 99.6256 89.6606 100.088 89.8267C100.268 89.2808 100.442 88.7369 100.609 88.1997C101.101 88.3721 101.583 88.5515 102.059 88.7348C101.913 89.2881 101.753 89.8444 101.576 90.4008C102.03 90.5865 102.48 90.7845 102.926 90.9907C103.106 90.4185 103.26 89.843 103.389 89.268C103.875 89.471 104.35 89.6793 104.816 89.891C104.702 90.4966 104.553 91.0972 104.361 91.6918C104.797 91.9185 105.229 92.1548 105.652 92.4008C105.866 91.7802 106.023 91.1473 106.129 90.5063C106.416 90.6456 106.698 90.7869 106.976 90.9282C106.982 90.8215 106.987 90.7141 106.992 90.6079C107.009 90.238 107.012 89.8699 107.004 89.5044C107.002 89.4391 107.003 89.374 107 89.3091C106.768 89.1756 106.532 89.044 106.291 88.9126C106.308 88.4982 106.307 88.0825 106.289 87.6665C105.89 87.4391 105.496 87.2239 105.103 87.02C105.096 87.4324 105.074 87.8478 105.039 88.2622C104.601 88.045 104.152 87.8313 103.691 87.6255C103.752 87.2139 103.804 86.8027 103.843 86.395C103.457 86.2144 103.074 86.0469 102.689 85.8872C102.617 86.2874 102.536 86.6908 102.449 87.0981C102.007 86.9206 101.558 86.7497 101.099 86.5864C101.218 86.187 101.332 85.7908 101.443 85.4009C101.059 85.2624 100.671 85.1334 100.281 85.0122C100.134 85.39 99.9879 85.7746 99.8416 86.1645C99.376 86.0193 98.9129 85.8849 98.4529 85.7622C98.6296 85.3828 98.8113 85.0098 98.9958 84.645C98.5941 84.5423 98.1845 84.4472 97.7693 84.3579C97.5528 84.7101 97.3438 85.0711 97.1423 85.4399C96.6481 85.3285 96.158 85.2288 95.6755 85.141C95.9002 84.7825 96.137 84.4334 96.3845 84.0941C95.9492 84.021 95.5043 83.9537 95.0491 83.8951ZM119.005 95.6549C119.353 96.1606 119.771 96.9885 119.688 97.9967C120.533 98.4339 123.531 100.64 124.958 102.012C125.045 101.557 125.028 100.936 124.784 100.264C124.577 99.6815 124.129 99.0535 123.69 98.5651C123.634 98.523 123.578 98.4807 123.52 98.4382C123.071 98.1159 122.609 97.8091 122.143 97.5105C121.492 97.0921 120.832 96.6903 120.161 96.3035C119.843 96.1205 119.52 95.9427 119.2 95.7625C119.132 95.7243 119.07 95.6919 119.005 95.6549ZM123.766 98.6158C123.795 98.6398 125.111 100.027 125.399 100.784C125.572 101.212 125.667 101.742 125.64 102.204C125.633 102.331 125.614 102.445 125.591 102.551C125.593 102.553 125.596 102.559 125.597 102.561C125.68 102.624 125.762 102.683 125.843 102.737C125.974 102.825 126.111 102.903 126.251 102.975C126.473 103.09 126.704 103.178 126.946 103.237C127.119 103.279 127.311 103.306 127.489 103.306C128.008 103.306 128.491 103.103 128.901 102.796C128.907 102.792 128.915 102.788 128.921 102.782C128.721 102.734 128.531 102.664 128.349 102.575C128.149 102.477 127.958 102.353 127.769 102.212C127.519 102.026 126.781 101.33 126.603 101.149C126.36 100.904 126.115 100.663 125.87 100.421C125.573 100.128 124.927 99.5299 124.626 99.3017C124.56 99.2517 123.766 98.6158 123.766 98.6158ZM147.211 113.366C147.16 113.385 147.108 113.401 147.057 113.416C145.298 113.967 143.508 114.446 141.698 114.887C141.595 115.043 138.993 118.929 135.965 123.403C135.965 123.403 135.966 123.404 135.965 123.405C132.938 127.878 129.484 132.939 127.68 135.446C127.766 135.52 130.199 137.601 130.278 137.664C130.766 137.007 134.55 131.614 138.436 126.045C138.436 126.045 138.436 126.043 138.436 126.043C140.379 123.259 142.348 120.433 143.944 118.129C143.944 118.129 143.943 118.128 143.944 118.127C145.539 115.825 146.762 114.049 147.211 113.368C147.211 113.368 147.211 113.366 147.211 113.366ZM122.464 140.16C122.424 140.219 122.386 140.277 122.346 140.336C121.516 141.627 120.698 142.926 119.919 144.248C119.171 145.516 117.702 148.349 117.647 148.459C117.639 148.518 117.282 150.631 117.674 152.272C117.675 152.268 117.676 152.265 117.678 152.262C117.693 152.224 117.715 152.175 117.676 152.275C120.1 146.94 122.827 143.375 122.831 143.371C122.334 141.907 122.43 140.432 122.464 140.16ZM117.583 148.596C117.476 148.816 117.365 149.038 117.266 149.254C115.109 153.969 115.176 157.36 113.063 159.233C113.063 159.233 113.115 159.25 113.206 159.262C113.773 159.337 115.914 159.254 117.02 154.174V154.17C116.945 153.887 116.882 153.594 116.842 153.276C116.658 151.807 117.106 149.794 117.575 148.621V148.619C117.579 148.611 117.583 148.604 117.583 148.596Z" fill="white"/>
<path d="M98.3391 100.883C93.5323 100.013 89.2081 97.0515 86.1221 92.517C84.2285 89.7348 83.1056 86.3172 83.8607 85.6338C84.1925 85.3336 84.3305 85.351 84.159 85.6716C83.8748 86.2025 84.0069 86.9356 84.5741 87.9762C87.6009 93.5292 93.0183 97.677 98.7781 98.8512C103.31 99.775 108.664 99.1234 112.535 97.177C113.613 96.635 114.026 96.1984 114.036 95.5902C114.04 95.3636 114.05 95.3628 114.175 95.5785C114.494 96.1247 113.51 97.339 111.951 98.324C110.166 99.4523 107.561 100.392 105.009 100.828C103.166 101.143 99.9233 101.17 98.3391 100.883Z" fill="#D50A0A" stroke="#D50A0A" stroke-width="0.249998"/>
<path d="M99.2294 47.5815C99.2294 47.5815 97.6211 50.5273 97.4794 52.0542C97.3338 53.5851 97.2308 55.0147 98.8993 56.1362C98.8481 56.0654 98.2077 55.1437 99.0263 54.6635C99.0577 54.6439 99.0885 54.6247 99.12 54.601C99.1515 54.5814 99.1784 54.5621 99.2059 54.5385C99.2098 54.5385 99.3921 54.7935 99.5106 54.9116C100.392 55.7655 102.677 56.997 104.169 57.0718C104.181 57.0718 104.192 57.0796 104.204 57.0796C104.204 57.0796 104.233 57.557 103.218 58.2339C103.218 58.2339 104.856 58.7564 106.087 58.0796C107.322 57.4027 108.954 54.3149 111.032 54.9878C113.094 55.7081 112.536 59.1541 113.11 60.437C113.665 61.6844 115.207 62.2551 115.302 62.2866C114.908 61.1414 115.216 60.7749 115.216 60.7749C115.224 60.7788 115.231 60.7827 115.243 60.7866C116.475 61.6287 119.041 62.024 120.261 61.8745C120.422 61.8548 120.725 61.7593 120.733 61.7593L120.737 61.7632C120.753 61.834 120.772 61.9014 120.8 61.9683C121.174 62.8851 120.005 63.2242 120.005 63.2242C122.023 63.3344 122.796 62.1303 123.607 60.8238C124.421 59.5213 124.913 56.1988 124.913 56.1988L124.907 56.187C124.907 56.187 123.342 55.793 121.556 55.9976C121.386 56.0173 121.217 56.0423 121.044 56.0699C119.057 56.4319 117.202 56.7332 115.931 56.3042C115.513 56.1665 115.152 55.9311 114.845 55.6753C114.841 55.6675 114.833 55.6636 114.829 55.6597C114.746 55.5889 114.669 55.5177 114.595 55.4468V55.4429C114.173 55.0376 113.898 54.6564 113.839 54.5699C113.831 54.5581 113.813 54.5386 113.813 54.5386C112.889 55.0148 109.51 53.8814 109.081 52.9488C109.081 52.9488 108.56 53.122 107.907 53.2008V53.2047C107.805 53.2164 107.699 53.2242 107.589 53.2281C107.581 53.232 107.573 53.232 107.569 53.232C107.172 53.2517 106.735 53.2193 106.321 53.0816C105.051 52.6566 103.756 51.2957 102.386 49.8082C102.268 49.6823 102.146 49.561 102.021 49.443C100.761 48.2427 99.3317 47.6171 99.2412 47.5817C99.2491 47.5895 99.2529 47.5934 99.2529 47.5973L99.2294 47.5815ZM109.487 57.1596C108.817 57.2041 108.242 57.5908 108.038 58.1869C107.869 58.6985 107.586 59.0043 107.22 59.4096V59.4135L107.208 59.4292C106.929 59.7636 106.712 59.8908 106.444 60.0639C106.185 60.2213 105.819 60.4999 105.673 60.9643L105.464 61.5854C105.185 62.4197 105.736 63.3565 106.693 63.6792C106.693 63.6792 106.275 63.1603 106.484 62.5386C106.484 62.5307 106.488 62.5191 106.492 62.5113C106.626 62.649 106.783 62.7667 106.98 62.8335C107.594 63.0382 108.242 62.7517 108.427 62.1929C108.459 62.1024 108.561 62.0501 108.66 62.0816C108.758 62.117 108.814 62.2196 108.783 62.314C108.594 62.8689 108.934 63.4902 109.544 63.6949C109.741 63.7579 109.939 63.7576 110.124 63.734C110.124 63.7419 110.118 63.7515 110.114 63.7594C109.906 64.3772 109.261 64.5426 109.261 64.5426V64.5465C110.221 64.8652 111.229 64.4511 111.509 63.6129L111.718 62.9918C111.883 62.5353 111.752 62.0895 111.646 61.8102C111.539 61.5111 111.441 61.2802 111.421 60.8434V60.8356L111.417 60.8199C111.378 60.2769 111.34 59.8667 111.509 59.3551C111.776 58.5563 111.285 57.6624 110.395 57.3043C110.356 57.2886 110.32 57.2771 110.28 57.2614C110.249 57.2496 110.214 57.2419 110.179 57.234C109.944 57.1681 109.711 57.1448 109.487 57.1596ZM88.5854 84.6826C87.1798 84.7244 85.9943 84.8675 85.1206 85.0616C87.2299 85.08 89.8409 85.2929 92.7144 85.8057C92.9273 85.4976 93.1483 85.1996 93.3785 84.9112C91.6183 84.7016 89.991 84.6409 88.5854 84.6826ZM106.995 89.5049C107.003 89.8705 107 90.2386 106.984 90.6084C109.507 91.8936 111.656 93.2472 113.308 94.4658C112.181 93.1227 109.967 91.2471 106.995 89.5049Z" fill="black"/>
<path d="M109.552 32.6379C100.478 32.6772 97.8973 39.4311 97.5153 40.9776C97.1099 42.6225 97.1136 44.7069 97.0192 45.6513C97.0192 45.6513 98.7631 45.4044 100.392 44.7236C100.439 44.1255 100.341 43.1174 100.369 41.6259C100.408 39.5835 102.568 31.178 113.771 33.0869C113.751 33.0829 113.736 33.0791 113.716 33.0752C113.35 33.0004 112.973 32.9253 112.583 32.8584C111.501 32.7049 110.493 32.6379 109.552 32.6379ZM121.089 35.4112C121.636 35.6749 122.218 35.9868 122.804 36.3409C122.863 36.3724 122.923 36.4071 122.978 36.4425C122.997 36.4504 123.013 36.4619 123.028 36.4737C127.589 39.2481 128.841 42.6367 128.841 45.4384C128.841 47.9017 127.872 49.9173 127.341 50.6611C126.593 51.7 125.922 52.4112 125.575 52.9345C126.205 54.0718 127.043 55.0877 127.665 55.7684C128.196 54.9066 129.407 53.395 130.017 51.8642H130.019C130.692 50.1601 133.277 41.2473 121.546 35.6043L121.089 35.4112ZM68.0075 40.0186C68.0075 40.0186 67.9314 40.2424 67.9314 40.2432C67.4222 41.7429 67.2312 43.3801 67.1482 44.9541C67.0073 47.6174 67.2565 50.2963 67.82 52.9013C68.4186 55.6689 69.3766 58.3359 70.5505 60.909C71.7515 63.5429 73.2365 66.0427 74.8903 68.4167C76.9267 71.3413 79.2497 74.063 81.7691 76.5827C82.8505 77.6641 83.9658 78.7098 85.1109 79.7232C85.2514 79.848 86.3972 80.9904 86.5113 80.9361C87.2259 80.5953 88.0072 80.28 88.8375 79.9908C77.2136 69.8539 72.7946 58.92 72.7946 58.92C66.7566 47.8211 68.0036 40.0182 68.0036 40.0182L68.0075 40.0186ZM103.273 45.4619C103.142 45.4666 103.015 45.4822 102.892 45.5127C102.892 45.5639 105.536 47.1379 106.98 48.6455C108.358 50.2353 110.527 52.2259 111.834 52.6475C113.133 53.1004 116.059 52.8206 118.121 52.3838C120.195 52.0493 123.273 52.3958 123.273 52.3525C122.002 50.7785 117.674 51.2271 115.234 51.3408C113.12 51.5061 112.487 51.1928 112.341 51.1377C112.2 51.0984 111.502 50.9645 109.908 49.5557C108.152 48.0908 105.245 45.3917 103.273 45.4619ZM99.2323 47.581C99.2323 47.581 97.624 50.5284 97.4823 52.0556C97.3367 53.5856 97.2339 55.0126 98.9003 56.1336C98.8437 56.055 98.2142 55.1427 99.0292 54.6649C99.0606 54.6456 99.0914 54.626 99.1229 54.6024C99.1544 54.5827 99.1813 54.5576 99.2089 54.534C99.2246 54.5183 98.9258 53.9991 98.9061 53.9598C98.4339 52.8186 98.5446 51.3978 98.8397 50.2528C98.9263 49.9184 99.0282 49.5892 99.1581 49.2665C99.1581 49.2665 99.67 48.1604 99.3749 47.7157C99.3394 47.6763 99.3005 47.6359 99.2655 47.6005L99.2577 47.5966L99.2323 47.581ZM94.2362 52.4716C94.2362 52.4716 94.1327 53.4739 94.1327 54.4853C94.1327 54.8906 94.146 55.3015 94.1893 55.6434C94.2129 55.8166 94.2437 55.9741 94.2792 56.1083C94.59 57.1787 94.6254 57.8547 96.9432 58.8739C97.7342 59.2198 98.5177 59.5895 99.2694 60.0145C100.395 60.6519 101.608 61.405 102.076 62.6843C102.08 62.6957 102.078 62.7077 102.086 62.7195C102.212 63.0422 102.225 63.4436 102.139 63.7742C102.391 62.8117 102.354 61.468 101.246 60.2C100.124 58.9207 97.2383 57.9692 96.1603 57.4266C95.0781 56.8836 94.1063 54.2738 94.2362 52.4716ZM102.139 63.7742C102.139 63.7313 102.118 63.6749 102.09 63.6163C101.987 63.4152 101.812 63.27 101.697 63.0811C101.697 63.0772 101.693 63.0737 101.685 63.0655C101.433 62.7786 101.163 62.5148 100.844 62.2979V62.3096L100.836 62.294C100.836 62.294 100.591 63.1488 100.209 63.7784C99.992 64.1405 99.7614 64.5415 99.5174 65.0929C99.5174 65.1008 99.5132 65.1089 99.5096 65.1163C99.0335 66.3527 99.5887 67.6577 99.7186 67.6651C99.8721 67.6769 100.198 67.5294 100.816 65.794C100.832 65.7543 100.863 65.6716 100.883 65.5811C100.898 65.4985 100.871 65.3473 100.836 65.2257C100.836 65.2257 100.84 65.2176 100.844 65.2061C100.919 64.9224 101.281 64.9462 101.51 64.9737C101.588 64.9815 101.665 64.9931 101.74 65.0128C101.877 64.6704 102.052 64.1989 102.135 63.8019C102.137 63.7936 102.137 63.7826 102.139 63.7742ZM109.082 52.9486C109.082 52.9486 108.406 53.9838 107.965 54.5619C107.52 55.1443 105.631 57.2387 104.207 57.0813H104.205C104.205 57.0813 104.234 57.5572 103.218 58.2336C103.218 58.2336 104.855 58.7558 106.086 58.0793C107.322 57.4025 108.956 54.3151 111.035 54.9876C113.097 55.7077 112.536 59.1536 113.111 60.4367C113.665 61.6845 115.208 62.2568 115.302 62.2883C114.909 61.1428 115.218 60.7766 115.218 60.7766H115.214C113.982 60.0403 113.734 57.2257 113.73 56.4973C113.726 55.7733 113.812 54.5581 113.816 54.5384C112.891 55.0145 109.511 53.8812 109.082 52.9486ZM124.877 56.1946C124.825 56.2021 124.774 56.2102 124.718 56.2181C124.215 56.3948 123.955 57.5872 123.955 57.5872C123.856 57.9453 123.734 58.2952 123.588 58.638C123.253 59.4089 122.789 60.1605 122.203 60.7707C121.762 61.2312 121.279 61.4599 120.74 61.7629C120.756 61.8338 120.775 61.9015 120.802 61.968C121.176 62.8853 120.007 63.2239 120.007 63.2239C122.023 63.3341 122.798 62.1284 123.609 60.8216C124.42 59.5191 124.912 56.1987 124.912 56.1987L124.877 56.1946ZM109.492 57.1595C108.822 57.2039 108.245 57.5887 108.041 58.1849C107.872 58.6964 107.589 59.0045 107.222 59.4095V59.4134L107.211 59.429C106.931 59.7635 106.716 59.8887 106.449 60.0618C106.188 60.2192 105.823 60.4994 105.677 60.9641L105.466 61.5852C105.187 62.4199 105.739 63.3567 106.695 63.679C106.695 63.679 106.278 63.1602 106.486 62.5384C106.486 62.5302 106.492 62.5189 106.496 62.5111C106.22 62.2238 106.086 61.8306 106.213 61.4564L106.431 60.806C106.651 60.1406 107.227 60.2009 107.9 59.3587C108.262 58.9415 108.629 58.5392 108.846 57.8939C109.019 57.3745 109.605 57.0878 110.183 57.2338C109.949 57.1678 109.715 57.1447 109.492 57.1595ZM110.394 57.304C110.937 57.5428 111.228 58.1201 111.054 58.6399C110.838 59.281 110.876 59.8194 110.916 60.3743C110.943 61.4486 111.435 61.7483 111.214 62.4134L110.994 63.0637C110.869 63.4415 110.522 63.6762 110.125 63.7356C110.125 63.7431 110.121 63.7512 110.117 63.7591C109.907 64.3769 109.263 64.5423 109.263 64.5423V64.5462C110.223 64.8649 111.23 64.4511 111.509 63.6126L111.718 62.9915C111.883 62.5354 111.753 62.0916 111.646 61.8118C111.54 61.5127 111.442 61.2795 111.423 60.8431V60.8353L111.419 60.8196C111.38 60.2766 111.34 59.8664 111.509 59.3548C111.777 58.5536 111.284 57.6601 110.394 57.304ZM72.8354 58.9837C72.9771 59.2434 73.1214 59.5056 73.271 59.7688L72.8354 58.9837ZM95.3582 59.3352C95.3582 59.3352 95.3548 59.346 95.3504 59.3684C95.269 59.7006 94.6187 62.3962 94.4696 63.7063C94.4488 63.888 94.4491 64.0295 94.4403 64.1887C95.0633 63.6837 96.4343 63.9197 96.4343 63.9197C96.4209 63.8253 96.417 63.6943 96.4186 63.5369C96.4332 62.5114 96.7164 60.3809 96.7565 60.0819C96.7597 60.0586 96.7624 60.0467 96.7624 60.0467C96.4295 59.8523 95.3601 59.3338 95.3601 59.3338L95.3582 59.3352ZM94.4403 64.1887C94.4367 64.1916 94.4321 64.1936 94.4286 64.1965C94.4286 64.1965 94.4381 64.2345 94.4383 64.2356C94.4391 64.2203 94.4394 64.2042 94.4403 64.1887ZM94.4383 64.2356C94.3875 65.2701 94.562 65.8949 94.7859 66.5911C95.0456 67.4021 96.27 70.8736 96.5711 71.8195C96.6097 71.938 96.6512 72.0858 96.6981 72.257C97.0235 73.4549 97.5889 75.7847 98.7273 77.0109C100.019 78.402 101.264 79.0285 102.802 79.546C102.805 79.5472 102.811 79.5483 102.817 79.5499C102.821 79.5524 102.826 79.555 102.831 79.5558C103.599 79.8132 104.328 80.0044 105.096 80.091C105.865 80.1772 106.676 80.1586 107.61 79.9933C109.493 79.6592 111.649 77.7249 112.46 77.1516C113.273 76.5786 116.342 74.5482 117.038 74.0578C117.734 73.5659 118.316 73.155 119.03 71.9484C119.746 70.7371 120.956 67.925 120.956 67.925C120.956 67.925 119.795 67.6965 119.411 67.6497C119.411 67.6497 119.405 67.66 119.393 67.6809C119.222 67.9835 117.837 70.4264 117.333 70.9368C117.333 70.9368 117.318 70.9379 117.292 70.9427C117.594 71.1166 118.471 71.6676 118.62 72.3157C118.62 72.3157 117.145 73.6719 115.329 74.4718C113.51 75.2722 110.76 77.007 109.676 77.7296C109.266 78.0027 108.708 78.2384 108.003 78.3683C107.563 77.5836 106.032 76.6149 104.071 75.9562C102.021 75.2672 100.138 75.1342 99.3701 75.5612C98.8111 74.9882 98.4691 74.4142 98.2941 73.9092C97.8682 72.6792 96.7172 69.6363 95.7512 67.9033C94.8002 66.1963 94.4482 64.2973 94.4372 64.2353L94.4383 64.2356ZM125.634 63.6696C124.517 64.9875 122.564 66.1281 121.513 65.9352C120.32 65.7144 117.447 64.7389 115.782 65.0816C114.413 65.365 113.593 66.1403 113.136 66.9234C113.14 66.9195 113.143 66.9117 113.152 66.9117C113.16 66.9038 113.163 66.9043 113.167 66.8961C114.088 65.834 115.759 65.8773 117.023 66.0387C118.01 66.1606 118.99 66.3674 119.958 66.5992C122.426 67.182 122.862 66.6667 123.751 65.9977C124.515 65.4231 125.142 64.5393 125.607 63.7125C125.618 63.6971 125.626 63.6853 125.634 63.6696ZM114.779 66.9722C113.532 66.9128 112.836 67.4039 112.836 67.4039C112.836 67.4039 112.481 68.0232 112.383 68.8492C112.383 68.8531 112.862 69.0656 112.957 69.1168C113.039 69.164 113.173 69.2154 113.224 69.2984C113.342 69.4676 113.375 69.5347 113.375 69.5347C113.261 69.5544 113.147 69.5698 113.033 69.5894C112.97 69.5855 112.685 69.6868 112.685 69.773C112.135 71.5364 112.304 71.8486 112.433 71.9312C112.544 72.0016 113.772 71.298 114.138 70.023C114.138 70.0151 114.344 68.9519 114.387 68.5308C114.462 67.85 114.744 67.0745 114.779 66.98L114.773 66.9839C114.773 66.98 114.779 66.9722 114.779 66.9722ZM154.377 69.0034C154.303 69.175 151.387 75.8774 139.252 81.1423L139.176 81.2029C139.176 81.2029 129.09 87.2072 113.766 88.3044C114.256 89.0324 114.689 89.7543 115.053 90.4606C119.821 90.193 124.645 89.5297 129.205 88.2653C132.12 87.4566 134.989 86.4305 137.726 85.1383C140.482 83.8374 143.184 82.2826 145.56 80.365C147.11 79.1144 148.562 77.7652 149.894 76.2849C151.727 74.2488 153.402 71.8249 154.306 69.2186C154.306 69.2186 154.378 69.0027 154.377 69.0034ZM82.7954 78.726C82.6667 78.7619 82.5783 78.8659 82.6137 79.0698C82.6476 79.2732 82.8546 79.867 82.5512 80.7768C82.2467 81.6905 81.5644 82.2793 80.8911 82.5737C80.2201 82.8676 79.3948 83.5344 79.1626 84.6224C78.9335 85.7101 78.345 87.1417 78.5083 88.0872C78.5705 88.4473 78.9264 88.9464 79.7485 88.9114C79.1869 89.3765 78.6564 89.3406 78.2251 89.1438C77.5447 90.3995 76.5216 90.9179 74.6587 90.5559C72.7517 90.186 70.3374 88.3579 69.8364 85.2708C69.8371 85.2051 70.7557 85.2102 70.8403 85.2102H70.8521C70.7395 85.0635 70.6177 84.8494 70.6099 84.6184C70.6067 84.4897 70.6605 84.3252 70.7427 84.1477C68.3753 84.1477 67.9525 82.3539 67.9439 82.3216C67.9439 82.3216 67.1926 82.9245 67.1607 83.9543C67.0793 83.5293 66.7398 83.1837 66.2896 83.1165C65.7194 83.0287 65.184 83.4212 65.0982 83.9934C65.012 84.5648 65.4069 85.0986 65.9771 85.1848C66.5477 85.2702 67.0823 84.8792 67.1685 84.3078C67.1704 84.2941 67.171 84.281 67.1724 84.2668C67.1858 84.3888 67.2085 84.5162 67.2447 84.6477C67.3439 85.0121 67.4808 85.2712 67.6197 85.468C67.9534 85.9394 68.315 86.007 68.315 86.007C68.3189 86.0077 68.3658 85.941 68.3697 85.9367C68.3945 85.9076 68.6078 85.6843 68.6353 85.7024C68.3956 85.5473 67.3737 84.7738 67.9947 83.0833C67.9947 83.0833 67.9592 84.6089 69.2213 85.4212C69.3598 86.0528 70.3516 89.8284 74.0532 91.0031C78.0948 92.2872 79.6513 90.3596 80.0141 89.634C80.1786 89.3019 80.5922 88.2727 80.5922 88.2727C80.9428 87.2688 81.8308 83.3645 82.1645 82.9095C82.4966 82.453 83.4999 80.624 83.0942 78.9447C83.0942 78.9447 83.0106 78.6694 82.7954 78.726ZM75.2681 83.9369C73.9745 83.9334 72.5531 83.979 71.5709 84.0951C71.4686 84.3048 71.3978 84.4999 71.401 84.6478C71.4073 84.8741 71.5146 85.0784 71.6177 85.2299C71.6177 85.2299 75.2185 85.4229 77.4829 86.0443C77.573 85.722 77.6892 85.3256 77.8442 84.8451C77.941 84.5394 78.0732 84.2836 78.2192 84.0522C78.2117 84.0593 78.2037 84.0665 78.1977 84.0736C77.7273 83.9924 76.5618 83.9404 75.2681 83.9369ZM119.125 90.8821C119.002 90.8567 118.873 90.9525 118.873 90.9525C117.534 92.0468 117.232 94.1101 117.222 94.6751C117.214 95.2402 115.565 98.8891 115.24 99.8997C115.226 99.9418 114.946 100.809 114.881 101.335C114.781 102.141 114.811 104.609 118.808 106.025C122.468 107.32 125.524 104.891 126.017 104.468C127.046 104.544 127.791 104.01 128.154 103.652C128.32 103.489 128.418 103.362 128.418 103.362C128.023 104.66 127.199 104.978 126.695 105.05C126.531 105.073 126.399 105.072 126.328 105.066C126.338 105.099 126.343 105.124 126.351 105.153C126.409 105.371 126.398 105.501 126.398 105.501C126.398 105.501 126.517 105.559 126.722 105.571C127.012 105.589 127.478 105.519 128.074 105.062C128.175 104.983 128.251 104.897 128.332 104.814C128.099 105.306 128.28 105.898 128.765 106.161C129.268 106.435 129.896 106.248 130.168 105.745C130.441 105.244 130.255 104.612 129.752 104.341C129.381 104.139 128.945 104.19 128.633 104.429C128.936 103.927 128.972 103.414 128.955 103.091C128.953 103.036 128.918 102.786 128.914 102.784C128.91 102.788 128.903 102.789 128.898 102.792C128.488 103.1 128.005 103.302 127.486 103.302C127.308 103.302 127.116 103.275 126.943 103.234L126.941 103.236C126.699 103.177 126.467 103.088 126.246 102.974C126.106 102.901 125.971 102.824 125.84 102.736C125.759 102.682 125.677 102.622 125.593 102.56C125.59 102.558 125.586 102.554 125.583 102.552C125.542 102.742 125.486 102.909 125.406 103.009C125.261 103.189 125.035 103.284 124.859 103.335C124.863 103.336 124.864 103.34 124.869 103.343C125.133 103.554 125.404 103.741 125.631 103.995C123.369 106.154 120.341 106.157 118.595 105.302C116.889 104.465 116.387 103.434 116.603 102.017C116.142 101.915 115.697 101.629 115.531 100.919C115.546 100.933 115.566 100.941 115.582 100.954C115.975 101.272 116.616 101.388 117.013 101.011C117.371 100.671 117.649 100.112 117.9 99.5109C118.129 98.9596 118.329 98.3954 118.582 97.8548C118.684 97.6356 118.756 97.3964 118.795 97.1575C118.909 96.485 118.769 95.7689 118.437 95.1751C118.081 94.5353 117.889 93.6525 118.199 92.7396C118.508 91.8326 119.028 91.4844 119.177 91.3431C119.33 91.2031 119.321 91.0635 119.24 90.9564C119.206 90.913 119.166 90.8906 119.125 90.8821ZM119.687 97.9954C119.687 97.9954 119.609 98.5166 119.502 98.8235C119.332 99.3008 119.188 99.6849 119.064 99.9954C121.074 100.9 122.982 102.027 124.236 102.886C124.413 102.827 124.618 102.729 124.759 102.552C124.85 102.436 124.914 102.238 124.959 102.009C123.532 100.636 120.531 98.4326 119.687 97.9954ZM153.939 110.911C152.664 111.446 151.373 111.959 150.046 112.427C146.253 118.392 133.315 137.632 132.186 139.241C132.879 139.819 133.504 140.351 133.988 140.791C134.008 140.807 134.043 140.83 134.066 140.85C137.376 136.061 151.374 114.968 153.939 110.911ZM118.812 132.827C118.812 132.827 118.321 132.756 118.25 133.138C118.214 133.37 118.311 133.586 118.662 133.681C119.009 133.771 120.098 133.881 121.314 135.026C122.53 136.171 122.964 137.683 122.941 138.958C122.91 140.233 123.361 142.031 124.908 143.192C126.462 144.353 128.296 146.313 129.906 146.762C130.004 146.79 130.099 146.805 130.197 146.813C131.264 146.908 132.274 145.947 132.113 145.407C132.464 146.572 132.144 147.418 131.621 148.024C133.408 149.783 134.273 151.792 133.715 153.598C133.002 155.92 130.41 159.04 125.668 158.977C122.291 158.934 120.307 157.993 119.441 157.454C119.445 157.446 119.732 156.8 119.752 156.757C117.772 157.233 117.049 154.303 117.017 154.173C115.911 159.253 113.77 159.335 113.203 159.26C113.113 159.248 113.062 159.233 113.062 159.233C113.062 159.233 113.488 160.893 115.14 161.688C114.388 161.464 113.554 161.736 113.097 162.428C112.539 163.271 112.771 164.409 113.613 164.968C114.459 165.522 115.593 165.293 116.156 164.446C116.711 163.604 116.483 162.468 115.637 161.913C115.593 161.885 115.552 161.87 115.51 161.847C115.734 161.929 115.962 162.004 116.23 162.048C118.434 162.414 119.158 161.35 119.158 161.35C119.158 161.35 119.009 161.047 118.906 160.622C118.906 160.622 116.727 162.158 114.318 159.722C114.401 159.749 115.194 160.024 116.564 159.8C118.606 159.496 118.887 158.855 119.025 158.737C119.029 158.714 119.032 158.698 119.041 158.679C120.807 159.639 122.759 160.086 125.537 160.141C128.653 160.2 131.637 159.225 133.392 157.694C135.144 156.167 137.217 152.924 136.441 149.501C135.788 146.632 132.141 143.834 131.298 143.22C129.496 141.626 124.837 137.986 124.396 137.198C123.92 136.34 121.764 133.417 118.812 132.827ZM122.828 143.368C122.824 143.372 120.097 146.939 117.674 152.274C117.737 152.538 117.819 152.79 117.926 153.018C118.673 154.612 119.334 155.049 120.656 154.969C120.656 154.969 123.745 149.699 125.925 146.882C125.476 146.507 124.938 146.032 124.293 145.438C123.573 144.777 123.115 144.068 122.828 143.368ZM128.134 149.907C127.289 151.013 126.312 152.512 125.525 153.8C125.176 154.37 124.861 154.901 124.601 155.339C124.881 155.366 125.167 155.378 125.459 155.378C126.375 155.382 127.324 155.235 128.041 154.94C129.029 154.574 130.141 153.182 130.082 152.229C130.082 151.998 130.035 151.788 129.933 151.571C129.544 150.757 128.713 150.194 128.134 149.907Z" fill="#B1BABF"/>
</svg>
