<svg width="50" height="50" viewBox="0 0 194 149" fill="none" xmlns="http://www.w3.org/2000/svg">
<path d="M170.946 47.4613C170.946 47.4613 173.335 45.4125 175.832 45.4576C178.336 45.4965 180.064 46.3355 181.005 47.3364C181.005 47.3364 182.996 47.0643 185.157 47.6572C187.317 48.2538 190.367 50.0352 191.555 52.1094C192.741 54.1873 192.879 56.5751 191.646 58.8345C191.646 58.8345 192.055 60.3707 191.046 62.2764C190.028 64.1863 188.368 65.1783 188.368 65.1783C188.368 65.1783 187.231 68.0015 184.268 69.314C181.299 70.6284 177.401 69.144 177.401 69.144C177.401 69.144 175.193 69.5742 173.528 69.5742C171.85 69.5711 169.509 68.8511 168.79 68.5127C168.79 68.5127 166.801 71.4297 166.247 72.1252C166.247 72.1252 168.963 74.4871 171.934 75.4174C174.899 76.3473 177.231 76.7733 178.59 77.7446C179.938 78.7252 180.457 79.6768 180.457 79.6768C180.457 79.6768 182.53 79.3544 184.52 79.8235C186.514 80.291 188.84 81.8568 190.368 83.9373C191.894 86.0146 192.826 88.6801 192.19 91.2183C191.555 93.7646 190.102 94.6898 190.102 94.6898C190.102 94.6898 189.394 97.0284 187.951 98.4646C186.514 99.9142 184.46 100.007 184.46 100.007C184.46 100.007 183.333 101.519 180.409 101.983C177.486 102.451 175.393 100.834 175.393 100.834C175.393 100.834 173.083 101.096 169.939 100.12C166.804 99.1492 164.657 95.9359 164.657 95.9359C164.657 95.9359 162.615 94.9542 158.84 94.7811C155.066 94.6096 146.64 92.9147 142.888 90.7336C142.888 90.7336 140.682 91.7987 133.995 92.1449C133.995 92.1449 133.004 89.1264 131.066 87.613C131.066 87.613 125.318 90.8012 123.502 91.6434C121.677 92.4944 118.302 93.9622 115.367 94.1405C115.367 94.1405 114.597 98.9321 113.196 101.52C111.8 104.108 109.112 106.031 106.837 106.785C106.837 106.785 110.149 107.96 111.892 110.544C113.624 113.133 114.219 115.97 113.034 118.257C111.845 120.546 110.506 121.168 110.506 121.168C110.506 121.168 109.826 123.478 107.15 124.679C104.471 125.88 101.104 125.244 101.104 125.244C101.104 125.244 99.2394 126.226 96.6868 126.206C94.13 126.183 90.9264 124.01 90.9264 124.01C90.9264 124.01 82.5454 124.776 80.0517 124.567C77.5592 124.366 74.6063 123.332 73.1991 119.651C73.1991 119.651 71.668 120.929 69.3835 122.032C67.0952 123.134 62.7606 125.258 59.6462 127.476L59.7499 129.131C59.7499 129.131 64.3021 130.845 64.594 135.504C64.893 140.167 62.3461 141.896 61.6231 142.39C61.6231 142.39 60.6544 144.493 58.5765 145.55C56.5013 146.606 54.2071 146.119 54.2071 146.119C54.2071 146.119 49.089 148.39 45.1877 144.659C41.2845 140.933 42.3889 136.907 42.4345 135.928C42.4728 134.958 42.7569 126.415 42.7164 126.018C42.7164 126.018 40.779 123.429 41.2025 120.504C41.6265 117.582 43.8723 115.756 44.9291 114.869C45.9927 113.977 47.264 112.499 47.8943 110.252C48.5287 108.008 48.5727 103.423 48.7858 101.731C49.0003 100.036 49.089 97.1953 49.089 97.1953C49.089 97.1953 41.4183 95.0806 37.4314 90.6299C33.4466 86.1783 32.3423 82.957 31.3207 78.5558C30.3105 74.1492 29.5927 69.696 25.5431 67.1978C25.5431 67.1978 22.8915 67.9566 19.845 66.7283C16.7924 65.5033 14.9246 63.0439 12.9777 60.6282C11.0268 58.2126 4.08391 57.1094 1.6167 56.9844C1.6167 56.9844 6.82924 51.2178 13.8668 48.7606C20.9 46.3065 24.2472 47.2768 26.5797 48.5922C28.9126 49.9066 30.7447 52.1188 31.6076 55.1241C31.6076 55.1241 36.1945 57.1076 39.3354 60.7979C42.4705 64.4811 43.9536 67.7452 44.9745 71.7702C45.9904 75.8005 47.2696 80.6812 55.3546 82.455C55.3546 82.455 60.1453 77.6649 61.9609 76.4724C63.7884 75.2907 66.0725 74.6185 66.7313 74.4252C67.3859 74.2318 70.466 73.2294 70.466 73.2294C70.466 73.2294 75.3057 69.2825 76.0942 68.4947C76.0942 68.4947 77.8989 65.289 79.0422 63.4247C80.1871 61.5603 81.9779 59.7115 81.9779 59.7115C81.9779 59.7115 79.6284 55.3458 79.758 50.5683C79.758 50.5683 80.9148 51.0933 81.9504 51.2437C81.9504 51.2437 81.8794 47.7052 84.1718 44.4414C86.4591 41.1726 88.7681 39.1267 88.7681 39.1267C88.7681 39.1267 88.5934 34.8279 91.1989 30.7547C91.1989 30.7547 89.2138 27.5741 89.0433 25.5406C89.0433 25.5406 92.348 25.2442 94.8487 24.5232C97.3516 23.8033 98.5775 23.2974 99.8503 21.7648C101.12 20.2416 104.169 16.5123 108.028 14.6879C111.889 12.8671 116.166 12.2047 119.238 12.4473C119.238 12.4473 117.354 10.8312 115.269 10.1559C115.269 10.1559 118.823 7.53952 125.819 6.79273C125.819 6.79273 125.871 3.24926 126.627 1.38425C126.627 1.38425 135.916 7.74025 140.573 9.56495C145.236 11.3904 148.623 11.9802 151.04 13.1703C153.448 14.3505 155.16 16.5381 155.553 17.8853C155.553 17.8853 158.156 18.8857 160.148 20.2861C162.138 21.6834 163.292 25.0564 163.292 25.0564C163.292 25.0564 167.057 26.5579 170.958 28.9293C174.853 31.3015 179.638 36.304 179.638 36.304C179.638 36.304 176.623 37.6314 174.063 41.3322C174.063 41.3322 172.885 45.4391 170.944 47.4622" fill="#B0B7BC"/>
<path d="M165.499 49.177C165.499 49.177 167.254 49.1422 168.791 49.5709C170.335 50.0021 171.309 50.5079 171.309 50.5079C171.309 50.5079 172.444 49.788 173.021 49.2884C173.593 48.7805 175.316 47.89 176.852 48.1388C178.395 48.3897 179.484 49.489 179.769 49.9575C179.769 49.9575 181.085 50.0373 182.303 49.9689C183.522 49.8932 185.781 50.3229 187.569 51.7581C189.37 53.1912 191.009 55.309 188.825 58.1362C188.825 58.1362 189.293 59.9295 188.647 61.218C188.002 62.5127 186.334 63.2171 186.334 63.2171C186.334 63.2171 185.308 66.2756 182.91 67.0618C180.508 67.8543 177.495 66.3761 177.495 66.3761C177.495 66.3761 174.669 67.0618 172.623 66.9208C170.582 66.7747 168.347 65.0498 168.347 65.0498C168.347 65.0498 167.857 65.3427 167.395 66.0195C166.925 66.7037 163.407 71.6333 162.588 72.5015C162.588 72.5015 166.03 75.8446 169.433 77.2381C172.84 78.6338 174.558 78.8562 175.46 79.1013C176.351 79.3564 178.322 80.466 179.043 82.6201C179.043 82.6201 181.232 82.0754 182.661 82.1873C184.096 82.2931 185.494 82.5781 188.002 85.1582C190.51 87.7393 189.94 90.0733 189.544 91.1445C189.151 92.2132 187.659 93.1415 187.659 93.1415C187.659 93.1415 187.535 95.3023 186.243 96.4509C184.951 97.5933 183.201 97.3968 183.201 97.3968C183.201 97.3968 182.516 98.7029 180.727 99.2471C178.93 99.7857 176.996 98.8475 176.094 98.1328C176.094 98.1328 172.406 98.4573 170.008 97.2724C167.611 96.0907 166.483 93.7708 166.483 93.7708C166.483 93.7708 162.415 92.1076 158.183 92.0729C153.955 92.0387 145.766 89.752 143.082 87.7945C143.082 87.7945 139.01 89.6495 135.729 89.6987C135.729 89.6987 134.716 86.6268 131.166 84.4946C131.166 84.4946 123.561 88.709 120.836 89.9631C118.115 91.2173 113.321 91.6719 112.62 91.7475C112.62 91.7475 112.917 92.8982 112.564 94.764C112.193 96.6258 111.054 100.286 110.087 101.504C109.114 102.722 106.426 104.225 104.852 104.799C103.277 105.374 101.307 105.877 99.6503 106.697C98.0073 107.524 95.999 109.201 95.1202 109.992C95.1202 109.992 97.6578 110.634 98.4228 110.601C99.1857 110.572 100.55 109.813 101.557 109.424C102.563 109.026 105.39 108.488 107.649 110.175C109.907 111.859 111.088 114.042 111.011 115.697C110.947 117.343 109.877 118.541 108.3 119.356C108.3 119.356 107.829 121.683 105.861 122.397C103.88 123.112 100.602 122.463 100.602 122.463C100.602 122.463 99.0451 123.474 97.1812 123.577C95.3185 123.688 92.8115 122.075 92.4171 121.861C92.018 121.642 91.6277 121.431 90.9441 121.431C90.2589 121.431 82.884 122.042 80.589 122.042C78.2976 122.042 76.7209 120.926 75.7518 119.137C74.7836 117.343 76.141 114.476 77.0071 113.335C77.8618 112.181 79.2306 110.604 79.4016 110.28C79.5825 109.958 79.6235 109.424 79.156 109.1C78.6895 108.778 77.1932 108.04 77.1932 108.04C77.1932 108.04 74.9261 112.579 74.0678 114.117C73.2054 115.657 72.0936 117.377 69.9463 118.704C67.7927 120.031 63.2384 122.041 60.8431 123.508C58.4376 124.975 57.0143 126.33 57.0143 126.33C57.0143 126.33 57.0392 130.649 57.1692 131.181C57.1692 131.181 59.3331 131.608 60.1987 132.359C61.0601 133.115 61.9153 134.333 61.879 136.017C61.8489 137.701 61.6235 139.682 59.5249 140.465C59.5249 140.465 58.9387 142.646 57.2936 143.29C55.6434 143.937 53.9564 143.364 53.9564 143.364C53.9564 143.364 51.7034 144.506 49.3364 144.008C46.9724 143.507 45.0004 141.073 44.9641 138.595C44.9299 136.119 45.3549 127.164 45.3549 126.584C45.3549 126.012 45.3549 125.405 44.9299 124.619C44.4977 123.829 43.4911 121.86 43.7487 120.603C43.9985 119.349 45.286 117.877 46.4693 116.873C47.651 115.871 49.0898 114.87 49.804 112.86C50.5177 110.859 51.1272 108.098 51.2024 105.98C51.2744 103.87 51.531 96.9883 51.9954 95.1249C51.9954 95.1249 43.0987 93.1512 39.0865 88.5642C35.0749 83.9751 34.3918 80.3182 33.2452 75.4097C32.0977 70.4972 30.6335 66.7421 25.9611 64.2984C25.9611 64.2984 23.4572 65.5174 20.2385 64.1206C17.0101 62.7217 15.2516 59.0662 13.5354 57.7708C11.8146 56.4844 7.13188 55.7438 6.19531 55.7702C6.19531 55.7702 11.7747 51.8986 15.6132 50.7514C19.4467 49.606 23.6089 49.2478 26.2217 51.3293C28.8355 53.3999 29.2294 56.9897 29.2294 56.9897C29.2294 56.9897 34.6088 59.2116 37.7285 63.0438C40.8477 66.8813 41.7701 70.4601 42.3823 72.8636C42.9944 75.2648 44.8852 80.0658 47.9186 82.1839C50.9532 84.3038 54.5102 85.1947 56.3643 85.3202C56.3643 85.3202 61.5972 79.8536 63.3903 78.6689C65.1763 77.4867 67.1863 77.0176 68.0416 76.7693C68.9056 76.5221 71.8857 75.5337 71.8857 75.5337C71.8857 75.5337 77.1598 70.9924 78.1732 70.2087C78.1732 70.2087 81.2322 64.909 82.0914 63.6511C82.9559 62.3994 85.2639 59.4514 85.2639 59.4514C85.2639 59.4514 83.1493 57.0382 83.1762 53.9139C83.1762 53.9139 84.4222 54.1616 85.2105 54.0844C85.2105 54.0844 84.1745 52.3295 84.6777 49.855C85.1805 47.3822 87.8612 43.3665 91.4484 40.2812C91.4484 40.2812 91.3064 37.6689 92.0558 35.2024C92.8115 32.7244 94.34 30.747 94.34 30.747C94.34 30.747 92.7042 28.7236 92.4461 27.1367C92.4461 27.1367 95.5362 26.847 97.6871 26.1343C99.8354 25.4113 101.557 23.8885 101.557 23.8885C101.557 23.8885 105.673 18.2075 110.689 16.4147C115.715 14.6219 120.832 15.176 120.832 15.176C120.832 15.176 123.37 13.5247 124.416 13.1613C124.416 13.1613 122.424 10.9192 120.772 10.2294C120.772 10.2294 124.641 9.0606 128.205 9.33426C128.205 9.33426 128.271 6.85471 128.676 5.41485C128.676 5.41485 134.888 9.89645 137.722 11.1468C140.551 12.401 145.96 14.1944 147.793 14.7702C149.619 15.3419 152.719 16.533 153.373 19.8422C153.373 19.8422 156.387 21.1104 157.575 21.7572C158.758 22.4046 159.978 23.946 160.226 24.5913C160.47 25.2319 160.721 26.0285 161.029 26.5251C161.339 27.0263 161.869 27.3813 162.373 27.557C162.877 27.741 167.856 29.9619 170.155 31.682C172.443 33.409 175.568 36.3793 175.568 36.3793C175.568 36.3793 172.459 38.8593 171.694 40.003C171.694 40.003 170.763 43.1221 169.259 45.3393C167.748 47.5613 165.498 48.4284 165.498 48.4284V49.1763" fill="white"/>
<path d="M130.844 9.77523C130.647 11.3975 131.89 12.824 131.89 12.824C130.078 11.9667 125.127 11.7742 125.127 11.7742C127.418 12.632 129.035 14.536 129.035 14.536C127.13 14.536 124.081 16.35 124.081 16.35C126.557 16.35 127.603 17.6786 127.603 17.6786C125.319 18.725 120.348 17.2027 114.755 18.0599C109.169 18.9177 105.522 23.2992 105.522 23.2992C107.899 22.4358 109.422 23.2021 109.422 23.2021C107.524 23.299 102.572 26.4371 100.666 27.4789C98.7602 28.5295 96.0019 28.432 96.0019 28.432C96.6617 29.8645 98.4746 30.2489 98.4746 30.2489C96.0018 31.9577 94.6626 35.9579 94.6626 35.9579C96.0931 34.3347 98.1886 34.4294 98.6661 35.3862C99.1445 36.3388 98.4827 38.0994 96.5728 39.4774C95.0288 40.5912 91.247 43.7617 89.2408 46.6173C87.2407 49.4715 86.9322 51.7263 86.9322 51.7263C89.3225 50.7441 90.1364 51.593 89.9552 52.7742C89.6401 54.7727 86.1129 56.3239 86.1129 56.3239C86.966 57.7518 90.1989 57.8527 90.1989 57.8527C90.1989 57.8527 86.3861 62.036 84.8644 64.3185C83.3432 66.6068 80.7739 71.1811 80.2956 71.8421C79.8229 72.5066 74.2068 76.9899 73.5378 77.6507C72.8708 78.3115 67.1542 79.7468 65.7262 80.4144C64.3035 81.0779 59.4457 85.6432 57.8292 87.7392C57.7291 87.8667 57.6393 87.9907 57.5455 88.1167C55.2343 87.9534 49.8584 87.2498 46.2164 84.2417C41.4723 80.3119 40.3633 75.6396 39.5463 72.4496C38.7321 69.2625 37.3986 66.841 35.54 64.4655C33.6835 62.0933 27.9752 59.2532 27.0122 58.6607C27.0122 58.6607 26.309 54.6477 24.3452 53.3209C22.2342 51.8961 19.4612 52.1852 18.2842 52.4796C17.9286 52.5708 17.446 52.7335 16.9189 52.9357C18.0224 53.0372 19.0264 53.2796 19.8359 53.4952C22.527 54.1892 22.7032 56.0778 22.7032 56.0778C22.7032 56.0778 19.2437 52.3232 12.2549 55.0475C12.8074 55.1392 14.8432 55.5459 15.8819 56.9059C17.0496 58.4478 17.3934 59.5839 20.7287 61.4279C23.712 63.0839 25.9812 61.256 25.9812 61.256C25.9812 61.256 31.0655 63.8853 32.7303 66.8141C34.3251 69.6429 35.9141 74.0771 36.6551 78.0109C37.3988 81.937 38.9543 84.9777 42.4394 88.016C45.5352 90.7245 52.1562 92.5463 55.2495 93.1283C55.1645 93.4165 55.0705 93.7113 54.9731 94.0228C54.2091 96.4951 54.2094 100.974 53.9233 105.83C53.6424 110.68 52.5951 113.439 51.4487 115.535C50.3079 117.628 46.7889 119.632 46.5029 120.866C46.2168 122.107 47.8398 123.441 48.0244 125.34C48.2146 127.243 47.7436 135.241 47.7436 136.382C47.7436 137.528 47.4545 138.955 48.1211 140.003C48.7881 141.054 49.8373 141.62 51.2631 141.427C52.6874 141.242 53.2612 140.386 53.2612 140.386C53.2612 140.386 55.3546 141.243 56.3052 140.665C57.2578 140.093 57.1626 138.197 57.1626 138.197C57.1626 138.197 58.5926 138.198 58.9678 137.717C59.3591 137.238 59.4463 135.526 58.7808 134.67C58.1184 133.814 54.7833 133.53 54.7833 133.53C54.6008 133.143 54.0203 126.676 54.4971 125.245C54.9734 123.821 58.7807 121.629 61.7374 119.914C64.6865 118.203 68.6832 116.774 70.1075 115.252C71.2716 114.012 74.3353 107.862 75.4426 105.606C75.5084 105.466 79.1773 96.4348 87.9581 92.4355L88.0246 92.3901C81.6008 98.0982 81.0508 100.243 81.0508 100.243C81.0508 100.243 85.3275 96.1812 92.7588 93.0351C97.7034 90.949 101.491 90.0289 103.963 89.7896C97.8336 91.7405 92.6006 94.7022 87.3305 97.8742C81.948 101.119 78.5225 105.348 78.3177 105.6C83.072 107.492 82.7068 109.52 82.2948 110.679C81.818 112.015 78.8697 114.968 78.392 116.296C77.9162 117.633 78.1037 119.058 80.4852 119.251C82.8668 119.439 89.4353 118.583 91.5293 118.678C93.6207 118.772 94.9576 120.87 96.9546 120.87C98.9573 120.87 99.9009 119.531 99.9009 119.531C101.334 120.012 103.903 120.294 104.953 119.819C105.999 119.347 105.806 117.347 105.806 117.347C107.525 117.056 108.569 116.203 108.282 115.252C107.998 114.3 107.329 113.067 105.903 112.204C104.472 111.345 103.142 111.631 102.097 112.111C101.046 112.584 99.6194 113.438 98.0951 113.249C96.5734 113.067 90.8598 111.824 90.8598 111.824C92.3836 107.636 97.2408 104.588 99.4296 103.833C101.617 103.064 105.806 101.732 107.428 100.403C109.044 99.0718 109.995 94.3057 110.087 93.3567C110.185 92.4046 109.326 89.3602 109.326 89.3602C111.047 89.0752 115.515 89.1679 118.943 87.8333C120.962 87.045 124.77 85.0023 127.556 83.4603C121.443 79.9348 109.238 80.8275 109.238 80.8275C122.066 78.1567 130.938 81.5526 130.938 81.5526C135.127 82.7914 137.221 86.7899 137.221 86.7899C139.885 86.4074 143.314 84.7874 143.314 84.7874C150.674 80.8209 158.829 72.6051 158.829 72.6051C161.782 69.9411 164.735 64.5163 166.153 63.2755C167.587 62.0352 169.393 62.3229 169.393 62.3229C169.393 62.3229 170.731 64.1338 173.11 64.2292C175.484 64.3178 177.58 63.5607 177.58 63.5607C177.58 63.5607 181.11 64.9872 182.342 64.318C183.579 63.6557 184.244 61.0835 184.244 61.0835C184.244 61.0835 186.243 60.7062 186.337 59.7519C186.435 58.8029 185.67 57.2793 185.67 57.2793C185.67 57.2793 187.008 56.4199 187.193 55.8549C187.391 55.2812 186.72 54.5173 186.15 54.04C185.578 53.5668 183.484 52.42 182.441 52.6117C181.396 52.8056 178.155 52.5199 178.155 52.5199C178.155 52.5199 177.678 51.1854 176.822 50.8998C175.969 50.6117 175.014 50.9967 174.436 51.5663C173.868 52.139 172.161 53.2792 171.303 53.2792C170.442 53.2792 169.777 52.4199 167.115 51.9472C164.444 51.4709 162.827 52.7094 162.827 52.7094C162.827 52.7094 163.075 50.7401 162.936 49.3671C162.921 49.2474 162.373 49.3931 162.352 49.2729C162.28 47.972 162.352 46.0429 162.352 46.0429C162.062 46.8037 159.542 50.2386 157.353 49.0991C155.164 47.9526 155.781 43.8588 155.781 43.8588C159.212 41.7603 164.074 42.0473 164.074 42.0473C165.014 44.1397 163.778 46.2333 163.778 46.2333C167.871 44.9003 168.827 39.8568 169.307 38.8118C169.777 37.7617 171.964 36.5276 171.964 36.5276C171.964 36.5276 169.777 34.5293 167.489 33.1003C165.21 31.6729 161.02 29.8638 160.256 29.5788C159.499 29.2921 158.544 27.6695 158.352 27.1056C158.164 26.5298 157.594 24.8164 156.166 24.0503C154.736 23.2983 150.646 21.5791 150.646 21.5791C150.646 21.5791 151.216 20.7221 150.264 19.1977C149.312 17.6776 145.882 17.0111 140.265 15.1075C134.654 13.2006 130.845 9.77441 130.845 9.77441L130.844 9.77523ZM153.264 29.2149C154.112 29.2149 155.878 30.3628 157.11 30.439C157.11 30.439 156.035 31.9086 155.878 32.2906C155.733 32.6746 156.344 33.4444 156.344 33.4444C156.344 33.4444 153.887 31.5971 153.119 31.0596C152.345 30.5206 149.421 29.9033 149.421 29.9033C149.421 29.9033 152.425 29.2149 153.264 29.2149ZM121.594 37.94C122.558 37.939 123.572 38.0224 124.631 38.2154C133.097 39.7614 136.861 46.1149 136.861 46.1149C136.861 46.1149 130.492 40.9869 123.708 40.2736C116.916 39.5605 110.542 42.1101 110.542 42.1101C110.542 42.1101 114.844 37.947 121.594 37.94ZM122.549 45.7495C127.048 45.7526 130.401 47.1607 130.401 47.1607C124.369 46.2681 119.782 47.816 116.335 49.502C113.33 50.9688 109.777 54.184 104.131 55.52C98.1729 56.9277 93.4933 54.7822 93.4933 54.7822C101.688 54.4935 105.571 52.1777 113.693 47.8692C116.739 46.2515 119.85 45.7477 122.549 45.7495ZM130.461 51.9653C134.096 51.9827 137.159 52.8577 139.236 53.9238C143.211 55.9628 142.855 59.2304 142.784 59.6709C142.784 59.6849 142.785 59.7127 142.777 59.7231C142.777 59.7231 145.686 59.1448 147.721 57.8999C147.895 55.1726 149.449 52.4066 151.974 52.5503C154.808 52.7099 158.733 54.8038 158.733 54.8038C153.307 59.1848 143.356 62.8176 139.84 63.5508C139.84 63.5508 142.265 60.2341 138.886 56.5958C136.167 53.6762 126.987 51.868 118.244 55.1529C122.616 52.7882 126.825 51.9478 130.461 51.9653ZM160.763 74.4465C159.238 76.0263 156.884 78.3303 154.277 80.4818C151.564 82.7177 148.103 84.8891 145.757 86.2788C151.419 88.9791 158.109 89.3179 161.208 89.6494C164.823 90.0293 168.539 91.7407 168.539 91.7407C168.539 91.7407 169.018 93.8325 171.303 94.879C173.58 95.9301 176.917 95.3541 176.917 95.3541C176.917 95.3541 178.632 97.0662 180.058 96.5909C181.485 96.1172 181.58 94.21 181.58 94.21C181.58 94.21 183.387 95.1635 184.338 94.4996C185.296 93.8325 185.008 91.1686 185.008 91.1686C186.15 91.1686 187.481 90.4052 187.193 89.1685C186.912 87.9283 185.48 86.1233 183.962 85.2673C182.442 84.4095 180.727 85.1698 179.393 85.2673C178.061 85.3585 176.917 84.3136 176.627 83.6476C176.347 82.9837 175.484 81.741 174.345 81.5534C173.207 81.3683 170.633 80.6977 167.115 79.0817C165.014 78.1109 162.475 76.0016 160.764 74.4469L160.763 74.4465Z" fill="#0076B6"/>
</svg>
