<svg width="50" height="50" viewBox="0 0 314 208" fill="none" xmlns="http://www.w3.org/2000/svg">
<path d="M157.023 202.626C240.418 202.626 308.023 158.526 308.023 104.126C308.023 49.7255 240.418 5.62549 157.023 5.62549C73.6277 5.62549 6.02246 49.7255 6.02246 104.126C6.02246 158.526 73.6277 202.626 157.023 202.626Z" fill="#203731" stroke="#FFB612" stroke-width="5.99841" stroke-miterlimit="1.41421" stroke-linejoin="round"/>
<path d="M223.621 123.255H132.137V99.4869H290.364C290.364 100.838 290.751 101.579 290.767 102.93C291.365 156.08 220.801 187.694 159.622 187.694C80.9342 187.694 21.1484 151.269 21.4592 104.281C21.7576 58.9828 87.6738 20.8001 158.568 21.0111C215.915 21.0111 265.232 46.6628 283.918 78.162H224.142C211.905 62.0714 188.398 47.5339 155.774 47.5339C107.343 47.5339 75.9077 73.5796 75.9077 101.475C75.9077 132.454 105.459 154.949 153.072 154.949C188.419 154.949 209.778 141.254 223.621 123.255Z" fill="white"/>
</svg>
