<svg width="50" height="50" viewBox="0 0 254 139" fill="none" xmlns="http://www.w3.org/2000/svg">
<path d="M231.357 56.4055C249.547 79.7372 253.74 111.081 251.813 136.945C242.388 114.035 222.995 84.2093 201.008 66.7005C203.236 71.2889 204.88 76.113 206.737 82.6499C171.206 60.8678 129.997 47.7062 84.5944 50.8517C84.5944 50.8517 90.1034 56.804 91.8416 60.0786C67.0737 70.4463 33.0461 83.1523 3.67301 136.942C-4.08642 99.4961 21.7405 62.7694 29.9367 53.9821C25.5714 53.803 24.6224 54.0576 19.8549 53.8847C46.8478 16.1155 98.1599 8.44066 125.389 10.6221L118.355 1.87589C156.14 0.288793 174.024 11.4014 181.312 14.321C210.596 28.7742 225.109 47.3101 231.353 56.4047" fill="#001532"/>
<path d="M130.174 6.29889L127.292 6.35545C127.292 6.35545 131.334 12.1381 133.141 14.7212C119.376 13.5962 66.4784 11.8802 30.9801 47.2486L28.4628 49.7627C28.4628 49.7627 37.5894 50.0581 38.6419 50.0833C37.7683 51.1675 36.882 52.258 36.882 52.258C26.219 65.1838 11.6179 82.8899 6.59569 117.101L5.63086 123.722L9.39583 118.188C28.5758 90.0068 53.4349 70.1843 83.3051 59.2772L85.2096 58.5826L84.0248 56.9359C80.9041 52.6022 77.8651 49.8206 75.0868 47.4416C127.383 42.1524 165.219 56.3357 195.344 71.0842L199.002 72.8819L197.437 69.12C194.524 62.0837 191.868 57.3412 189.099 52.9193C211.714 66.3323 227.597 86.0496 243.934 111.312L247.3 116.491L246.76 110.335C240.839 41.9592 174.066 5.41331 130.167 6.29655" fill="#0080C5"/>
<path d="M137.577 15.7104C137.577 15.7104 134.987 11.9863 133.208 9.45003C154.444 9.85858 179.63 19.1169 199.743 34.1173C216.931 46.9301 237.836 69.3029 242.944 104.255C226.269 79.2237 209.547 59.7972 185.057 47.0127L179.793 44.2659L183.08 49.2536C186.543 54.5021 189.614 59.3041 192.92 66.548C163.809 52.6699 124.17 38.496 71.1262 44.7153L67.6126 45.1302L71.8177 48.694C74.4262 50.8971 77.3427 53.4303 80.3063 57.1888C52.6443 67.7327 29.2957 85.8914 10.7476 111.157C16.4233 81.9361 29.5188 66.0336 39.2678 54.2227L44.9748 47.1958L41.8227 47.1203C41.8227 47.1203 36.0746 46.9349 35.8766 46.9255C75.7451 10.2092 135.478 18.0253 136.078 18.1132L139.632 18.6538L137.577 15.7153" fill="#EEAD1E"/>
</svg>
