<svg width="50" height="50" viewBox="0 0 193 203" fill="none" xmlns="http://www.w3.org/2000/svg">
<path d="M96.2498 201.097C77.027 201.183 62.2906 195.695 55.2355 191.972C41.4178 184.719 30.0289 175.115 20.2276 161.784C6.13613 142.675 3.41108 127.29 2.28607 118.91C1.62916 114.547 0.844815 104.061 2.31658 94.6549C3.97961 81.0809 7.06739 74.3208 9.27367 67.7045C10.9867 63.0008 16.5246 51.6806 19.8064 46.4892C22.6004 42.4202 27.6949 34.9226 29.7737 32.2753C30.3447 31.4438 29.6046 31.8373 29.2942 31.8457C28.5292 32.0314 28.1383 32.0785 27.5479 32.0314C27.11 32.0314 26.2258 31.8845 25.7379 31.7376C22.9911 31.1527 19.0718 28.1121 19.5623 22.8179C19.4625 21.6427 20.7375 11.5507 21.7187 8.41275C22.991 4.00557 25.638 1.94616 30.3444 1.55265C32.695 1.55265 42.5901 1.35582 47.0884 2.05708C56.0911 2.95236 62.6824 5.57165 66.6012 13.5101C69.7361 20.4672 68.6606 31.3466 64.3505 39.6755C62.8787 42.5165 59.9351 47.8107 57.3878 51.2394C55.0373 54.668 54.0561 56.4364 51.9995 60.256C49.9401 64.2723 43.0798 79.2675 40.7294 89.0664C36.2557 107.354 38.7698 117.879 47.3928 132.189C53.7651 141.694 61.213 148.557 66.9918 151.692C76.5018 157.668 89.4846 159.337 96.2484 159.337C103.009 159.337 115.995 157.668 125.501 151.692C131.28 148.557 138.731 141.694 145.098 132.189C153.726 117.879 156.235 107.354 151.764 89.0664C149.413 79.2681 142.551 64.2723 140.494 60.256C138.437 56.4364 137.456 54.6682 135.103 51.2394C132.556 47.8107 129.617 42.5167 128.146 39.6755C123.833 31.3463 122.757 20.4665 125.895 13.5101C129.812 5.57178 136.406 2.95246 145.408 2.05708C149.901 1.35582 159.802 1.55265 162.152 1.55265C166.858 1.94625 169.503 4.00569 170.778 8.41275C171.759 11.5504 173.031 21.6429 172.934 22.8179C173.422 28.112 169.503 31.1527 166.756 31.7376C166.271 31.8845 165.386 32.0314 164.943 32.0314C164.358 32.0785 163.965 32.0314 163.2 31.8457C162.886 31.8369 162.152 31.4438 162.717 32.2753C164.796 34.9223 169.896 42.4199 172.687 46.4892C175.972 51.6808 181.507 63.0007 183.226 67.7045C185.429 74.3207 188.514 81.0809 190.183 94.6549C191.652 104.062 190.867 114.548 190.208 118.91C189.082 127.289 186.36 142.675 172.266 161.784C162.465 175.113 151.078 184.719 137.258 191.972C130.204 195.695 115.469 201.008 96.2464 201.097" fill="white"/>
<path d="M96.1375 182.209C97.4125 182.209 98.4437 181.178 98.4437 179.906C98.4437 178.631 97.4126 177.597 96.1375 177.597C94.8652 177.597 93.8313 178.631 93.8313 179.906C93.8313 181.178 94.8653 182.209 96.1375 182.209ZM34.7504 153.007C36.0227 153.007 37.0566 151.975 37.0566 150.7C37.0566 149.425 36.0227 148.391 34.7504 148.391C33.4754 148.391 32.4443 149.425 32.4443 150.7C32.4443 151.975 33.4754 153.007 34.7504 153.007ZM21.0303 99.6971C22.3053 99.6971 23.3364 98.6632 23.3364 97.3909C23.3364 96.1132 22.3053 95.082 21.0303 95.082C19.758 95.082 18.7241 96.1131 18.7241 97.3909C18.7241 98.6632 19.758 99.6971 21.0303 99.6971ZM48.0806 36.975C49.3529 36.975 50.3867 35.9439 50.3867 34.6688C50.3867 33.3938 49.3528 32.3627 48.0806 32.3627C46.8028 32.3627 45.7717 33.3938 45.7717 34.6688C45.7717 35.9439 46.8028 36.975 48.0806 36.975ZM160.063 150.701C160.063 149.426 159.029 148.393 157.757 148.393C156.485 148.393 155.451 149.426 155.451 150.701C155.451 151.977 156.485 153.008 157.757 153.008C159.029 153.008 160.063 151.977 160.063 150.701ZM173.786 97.392C173.786 96.1143 172.752 95.0831 171.477 95.0831C170.202 95.0831 169.168 96.1142 169.168 97.392C169.168 98.6643 170.202 99.6982 171.477 99.6982C172.752 99.6982 173.786 98.6643 173.786 97.392ZM146.739 34.67C146.739 33.3949 145.703 32.3638 144.431 32.3638C143.156 32.3638 142.124 33.3949 142.124 34.67C142.124 35.945 143.155 36.9761 144.431 36.9761C145.703 36.9761 146.739 35.945 146.739 34.67ZM53.2719 185.509C40.7268 178.064 29.3604 168.657 18.384 150.549C13.4834 141.607 2.11376 122.596 7.71821 89.4732C14.1875 59.189 27.2035 43.9001 34.6486 33.4137C38.177 28.3191 34.5543 25.3784 31.7105 26.4565C29.3267 27.3601 27.6915 27.4183 27.6915 27.4183C23.4784 26.8473 24.0688 24.106 24.8504 16.9493L25.8316 11.0704C26.7103 5.87604 29.0636 5.97302 35.239 6.09215C45.04 6.28619 46.8 6.36655 52.0967 7.34503C59.1537 8.9138 68.362 15.9708 61.1106 35.3729C56.6037 45.7615 51.9 49.2869 46.8004 60.0695C41.3151 72.0269 27.9889 98.8775 37.0022 121.81C49.3532 152.582 73.2627 163.558 95.9992 163.952C118.736 163.656 145.001 150.229 155.506 121.81C164.52 98.8763 151.193 72.0259 145.705 60.0695C140.611 49.2874 135.907 45.7618 131.398 35.3729C124.147 15.9701 133.36 8.9138 140.414 7.34503C145.705 6.36658 147.468 6.28622 157.269 6.09215C163.442 5.97302 165.798 5.87595 166.677 11.0702L167.661 16.9492C168.445 24.1059 169.03 26.8472 164.817 27.4182C164.817 27.4182 163.179 27.3599 160.798 26.4563C157.96 25.3781 154.329 28.319 157.857 33.4136C165.305 43.8992 178.321 59.1889 184.787 89.4731C190.398 122.596 179.025 141.608 174.124 150.549C163.151 168.657 151.784 178.064 139.236 185.509C122.068 197.47 89.9233 196.779 96.0997 196.391C102.566 196.882 72.481 197.664 53.2719 185.509Z" fill="#002C5F"/>
</svg>
