<svg width="50" height="50" viewBox="0 0 194 95" fill="none" xmlns="http://www.w3.org/2000/svg">
<path d="M189.61 12.1999C165.565 17.8786 164.514 3.95263 128.351 1.39925C79.6748 -2.03825 38.771 19.1692 6.08226 21.8867C-1.01911 22.4773 -0.0980979 28.3876 5.00524 29.3907C17.3257 32.2662 30.039 31.9005 41.6752 30.3403C41.2844 31.2781 40.8918 32.7225 42.1919 33.8298C46.8004 37.747 65.3269 38.0825 73.4594 37.6145C76.2208 37.4569 82.1161 36.8999 82.1161 36.8999C80.4351 37.0592 77.808 42.1827 83.3626 43.6255C117.69 53.2366 133.841 68.7567 152.383 93.1992C159.917 92.2362 167.011 83.1704 163.987 76.2505L165.49 72.5362L171.04 69.9661L169.449 57.5701L177.909 53.5857C177.909 53.5857 191.086 18.1745 191.857 15.5957C192.629 13.0172 191.031 11.8644 189.61 12.1999Z" fill="white"/>
<path d="M98.3348 30.8375C107.983 29.8008 116.492 30.1296 125.767 35.7849C106.422 33.6861 96.9511 39.0899 84.8936 40.291C127.49 51.469 143.086 75.3548 153.649 88.5923C161.032 85.455 161.431 79.0398 159.55 76.7499L161.451 72.6749L161.538 70.0578L166.628 67.6773L165.018 54.996L174.549 51.0921L187.176 16.5259C165.781 20.9649 158.85 7.12952 128.41 5.24214C116.01 4.47212 104.844 5.04252 94.3611 6.41817L96.0706 16.9989C103.076 16.7574 109.671 17.6482 115.929 20.4952C109.049 20.069 102.859 20.6395 96.8193 21.7602L98.3348 30.8375Z" fill="#002244"/>
<path d="M92.4056 6.6875C62.4386 10.932 37.8696 21.5915 5.6416 25.9415C42.0036 31.9365 70.5606 18.4855 94.3606 17.0795L92.4056 6.6875ZM95.3086 22.0695C79.6606 25.1935 65.4456 31.5515 46.4526 32.0675C68.4866 36.2205 83.7606 32.5375 96.9256 30.9855L95.3086 22.0695Z" fill="#C60C30"/>
<path d="M131.185 60C142.698 68.0627 148.612 76.9962 154.612 84.8149C157.664 83.5467 158.622 80.0052 157.617 78.7537L154.711 75.177L158.016 75.3715L159.533 72.736L155.424 72.4928L150.796 73.3283L155.49 70.1139L159.063 70.3236L159.195 68.2886L155.545 66.5405L156.8 65.1683L163.552 65.5894L161.611 50.5506C158.942 50.2252 156.698 51.6243 155.728 55.4845L143.758 54.7798C145.442 50.9616 148.066 49.2436 153.045 49.8778C150.252 45.9656 136.64 45.6032 134.718 51.7417L145.285 60.4016L146.652 68.3167L142.311 62.0155C138.407 58.6351 134.307 56.2672 131.185 60Z" fill="#B0B7BC"/>
<path d="M166.609 21.225L167.46 28.7778L175.962 31.9686L167.987 33.9666L168.774 44.1499L161.877 35.5452L151.564 37.9745L157.936 30.5526L152.682 23.5905L161.484 26.6119L166.609 21.225Z" fill="white"/>
</svg>
