<svg width="50" height="50" viewBox="0 0 144 64" fill="none" xmlns="http://www.w3.org/2000/svg">
<g clip-path="url(#clip0_486_1224)">
<path d="M120.658 52.2C114.436 51.1319 108.132 50.6099 101.818 50.6399H15.2983C9.89829 50.6399 4.25829 50.6399 1.49829 46.2C-1.50171 41.7599 0.178291 37.32 4.97829 28.56C5.33829 27.84 20.2183 0 20.2183 0C21.1337 1.11813 22.1369 2.16144 23.2183 3.12C24.7783 4.32 26.3383 4.92 30.4183 4.92C37.7383 4.92 85.1383 4.8 85.6183 4.8C95.2183 4.8 104.938 5.76 111.178 12.72C114.538 13.08 124.978 14.4 133.738 18.6C138.778 21 142.138 24.6 143.458 29.04C143.802 30.4128 143.963 31.825 143.938 33.24C143.938 37.44 142.378 42.12 139.378 47.04C132.778 57.24 126.778 60.84 126.538 60.96C124.391 62.5209 121.862 63.4743 119.218 63.72C121.079 61.554 122.541 59.0757 123.538 56.4C124.618 52.68 120.658 52.2 120.658 52.2Z" fill="white"/>
<path d="M132.658 20.88C122.698 16.08 109.978 15.12 109.978 15.12C104.458 8.27996 95.0983 7.31996 85.6183 7.31996C85.6183 7.31996 37.8583 7.43996 30.4183 7.43996C21.7783 7.43996 20.9383 3.95996 20.9383 3.95996L9.29834 25.68H39.4183C48.8983 25.68 49.3783 24.72 55.6183 20.04C62.3383 15.12 67.6183 13.44 73.9783 13.44C80.2183 13.44 84.4183 14.7599 91.4983 17.88C98.4583 21 102.178 22.56 106.378 20.7599C106.378 20.7599 103.138 25.2 93.1783 21C83.2183 16.92 80.5783 15.96 74.4583 15.96C68.5783 15.96 61.7383 18.84 53.2183 27.36L63.4183 35.52C63.4183 35.52 61.0183 39.24 59.4583 41.52C57.8983 43.8 58.0183 45.36 58.8583 46.56C59.6983 47.64 60.7783 48.12 64.4983 48.12H101.818C108.294 48.1304 114.758 48.6924 121.138 49.8C130.738 51.72 124.498 59.76 124.498 59.76C124.498 59.76 130.978 55.56 137.218 45.6C144.298 34.56 142.498 25.56 132.658 20.88Z" fill="#002244"/>
<path d="M115.138 22.56C110.698 21.48 114.538 18.96 114.538 18.96C112.417 19.4122 110.44 20.3834 108.786 21.7864C107.132 23.1895 105.851 24.9807 105.058 27C104.938 27.24 104.818 27.36 104.698 27.6C101.098 34.8 97.8583 34.44 91.7383 34.44H81.2983C72.7783 34.44 68.8183 38.64 64.7383 45.84H69.5383C73.9783 39.24 77.2183 37.56 85.9783 37.08C105.778 37.08 121.498 42.72 129.898 47.04C141.778 27.12 124.138 23.8799 115.138 22.56Z" fill="white"/>
<path d="M78.2981 45.7202C80.4581 42.3602 85.0181 41.2802 92.2181 41.6402C110.218 42.7202 120.538 46.2002 128.458 49.2002C118.618 43.4402 100.978 39.2402 88.7381 39.2402C82.8581 39.2402 77.5781 40.3202 74.5781 45.7202L78.2981 45.7202Z" fill="white"/>
<path d="M97.4985 25.92C95.2185 29.28 92.0985 30.36 83.3385 29.76C73.2585 29.04 75.8985 24.72 76.9785 22.68C77.3385 22.08 77.8185 21 78.4185 20.04C70.6185 19.56 64.9785 25.56 64.9785 25.56C70.7385 31.32 74.5785 31.92 79.8585 31.92H89.6985C98.8185 31.92 100.979 27.84 101.819 25.92C100.389 26.1604 98.9285 26.1604 97.4985 25.92Z" fill="white"/>
<path d="M93.0582 24.9601C92.8466 24.9127 92.644 24.8317 92.4582 24.7201C91.9723 25.2339 91.3692 25.6223 90.7005 25.8522C90.0317 26.0821 89.3173 26.1466 88.6182 26.0401C86.5782 25.8001 85.4982 24.3601 86.0982 22.9201C86.1231 22.6651 86.2051 22.419 86.3382 22.2001C85.3782 21.8401 84.2982 21.4801 83.3382 21.1201C81.2982 24.3601 80.2182 26.5201 87.1782 27.1201C91.4982 27.4801 92.6982 26.7601 93.6582 25.2001C93.4182 25.0801 93.2982 25.0801 93.0582 24.9601Z" fill="#69BE28"/>
<path d="M57.8984 37.4398C54.2984 43.6798 52.8584 45.1198 55.3784 48.1198H15.2984C9.29837 48.1198 5.45837 47.8798 3.53837 44.8798C1.61837 41.8798 1.97837 39.1198 7.13837 29.7598H41.2184C47.0984 29.7598 48.6584 30.1198 51.7784 32.5198C55.0184 35.0398 57.8984 37.4398 57.8984 37.4398Z" fill="#A5ACAF"/>
</g>
<defs>
<clipPath id="clip0_486_1224">
<rect width="143.938" height="63.72" fill="white"/>
</clipPath>
</defs>
</svg>
