<svg width="50" height="50" viewBox="0 0 227 245" fill="none" xmlns="http://www.w3.org/2000/svg">
<path d="M137.417 1.10914C100.672 1.10914 69.1349 23.4066 55.5874 55.2041L42.3975 55.2235V58.132H54.4156C50.6108 68.0292 48.5043 78.782 48.5043 90.022C48.5043 139.126 88.3156 178.937 137.417 178.937C186.523 178.937 226.332 139.126 226.332 90.022C226.332 40.9182 186.524 1.10914 137.417 1.10914Z" fill="#FFB612"/>
<path d="M137.417 166.534C179.671 166.534 213.924 132.279 213.924 90.0279C213.924 47.7766 179.671 13.5217 137.417 13.5217C95.1661 13.5217 60.9136 47.7766 60.9136 90.0279C60.9136 132.279 95.1661 166.534 137.417 166.534Z" fill="white"/>
<path d="M89.255 82.7842C89.255 82.7842 83.0006 97.9192 83.2736 109.887C83.2736 109.887 85.2208 105.398 85.9019 106.169C85.9019 106.169 80.2805 125.021 84.5419 135.808C84.5419 135.808 85.4477 132.817 86.989 131.003C86.989 131.003 89.3443 127.287 90.2503 124.294C90.2503 124.294 90.7044 125.565 90.9774 127.831C90.9774 127.831 93.0621 125.203 93.5139 123.389C93.869 121.971 94.7821 120.4 95.4175 118.586L96.1447 118.951C96.1447 118.951 100.404 113.781 102.034 109.071C102.034 109.071 103.305 108.889 102.67 112.605C102.67 112.605 106.204 109.16 106.295 103.812L107.02 104.628C110.011 108.346 110.011 114.054 109.921 117.588C109.194 128.918 103.394 134.991 96.1452 141.608L96.7806 142.152C107.564 140.159 114.672 138.994 125.601 142.152C129.765 143.355 139.832 147.952 144.726 151.037C144.726 151.037 155.604 155.75 163.218 155.75C163.218 155.75 163.578 155.928 163.578 155.52C163.578 155.52 162.764 152.711 163.489 142.151C163.489 142.151 164.305 137.259 164.938 133.904C164.938 133.904 165.755 131.638 165.844 127.015C165.851 126.642 165.482 123.843 167.385 124.113C171.516 124.705 173.821 123.753 176.995 123.207C176.995 123.207 180.346 122.212 181.708 122.12C181.708 122.12 184.894 122.63 185.875 122.301C186.964 121.939 188.141 121.033 189.593 119.673C189.593 119.673 191.223 117.951 190.136 114.054C190.136 114.054 189.049 110.52 189.685 109.431C189.685 109.431 190.634 107.029 192.04 105.626C192.04 105.626 193.035 103.993 191.678 103.179C191.678 103.179 190.95 102.362 192.175 102.043C192.175 102.043 193.081 102.138 193.67 101.819C193.67 101.819 193.989 101.683 194.033 101.005C194.081 100.273 194.398 96.7433 192.04 93.6608C192.04 93.6608 192.719 93.8419 193.216 94.0231C193.216 94.0231 196.12 94.2937 197.613 93.5714C198.927 92.8467 200.833 91.9384 200.56 87.5877C199.835 83.9617 198.384 81.7875 196.934 77.7074C195.212 73.3567 194.939 71.1825 191.313 68.1919C189.139 67.1942 188.141 65.566 189.774 63.9305C191.042 62.0294 190.591 58.5845 188.322 56.2293C186.148 54.0528 184.518 50.6998 183.701 48.9773C182.614 47.163 181.435 45.1702 180.346 43.9913C179.258 42.6313 177.628 41.8171 174.726 38.3723C174.726 38.3723 173.004 36.831 172.734 35.2004C170.286 31.3908 163.489 26.0448 155.694 25.5013C153.428 25.2308 153.428 25.2307 151.797 25.0471C149.077 24.0494 140.559 23.7789 134.757 25.4095C132.878 25.8129 129.138 26.499 129.138 26.499C127.143 27.1319 124.333 27.6754 121.253 29.579C118.987 30.7579 115.632 33.5674 113.095 35.3815C110.378 38.0991 104.302 42.0875 100.949 44.3535C94.4242 49.1584 88.8052 55.5021 85.539 59.491C85.539 59.491 77.2918 69.8255 73.214 87.6797C72.9411 90.3975 72.2188 93.0258 72.6705 96.0164C72.6705 96.0164 76.2965 88.1339 79.6495 85.6844C79.6495 85.6844 79.1954 87.1362 78.9248 89.4915C78.9248 89.4915 80.6472 86.3196 81.3719 85.7761C81.3719 85.7761 82.6402 84.4161 84.4519 82.2395C84.4519 82.2395 88.2591 77.2559 89.3462 76.7124C87.9402 79.3406 87.6262 81.0631 87.4886 83.7807C88.078 83.2372 88.4403 82.8289 88.6239 82.5125C88.6239 82.5125 88.9839 81.7878 89.3462 81.969C89.5298 82.4207 89.2569 82.7854 89.2569 82.7854" fill="black"/>
<path d="M146.005 32.8209C145.725 32.8099 145.455 32.8329 144.895 32.9209C144.745 32.9449 144.335 33.4059 144.205 33.4009C143.555 33.3769 142.805 33.2019 142.485 33.5609C141.965 34.1359 142.585 34.0689 143.235 34.3779C143.605 34.5489 144.365 34.9589 144.805 34.9519C146.635 34.9179 147.815 34.9019 149.245 35.6849C149.395 35.7689 150.045 36.4049 150.085 36.6419C148.715 36.6149 146.555 36.0779 144.985 36.2059C147.635 35.9929 142.285 36.2789 141.115 36.2329C140.775 36.2189 140.765 36.9359 141.305 37.3369C141.455 37.4379 142.265 37.2899 142.375 37.5459C142.855 37.2969 144.205 37.4199 144.605 37.5649C145.285 37.8139 144.895 37.7069 145.495 38.0179C145.865 38.2119 146.205 38.4739 146.635 38.4229C147.185 38.3579 147.225 37.5439 147.775 37.8079C147.965 37.8969 148.385 38.1509 148.475 38.1509C151.625 38.0909 151.695 39.0739 153.165 39.0579C153.545 39.0529 154.105 38.9059 154.365 39.0849C154.965 39.4959 155.515 39.5389 156.425 39.1769C156.425 39.1769 158.505 44.7979 157.965 55.0379C157.425 59.3889 157.155 60.2069 156.155 63.7409C156.155 63.7409 154.705 69.3619 155.245 73.2589C155.795 86.4029 151.805 97.2779 147.455 104.527C145.815 106.527 144.915 107.607 146.545 109.057C149.985 112.237 152.795 112.957 157.695 114.047C159.415 114.587 160.505 114.767 162.135 114.767C164.675 114.767 168.665 115.857 170.475 117.217C172.195 118.127 176.815 119.847 179.625 119.397C182.075 119.577 182.805 119.757 183.975 120.207C184.795 120.567 185.615 120.567 186.515 120.297C187.285 119.757 186.925 119.977 187.925 119.257C188.105 118.807 189.415 118.217 189.145 116.407C189.055 115.047 188.505 113.637 188.235 112.367C187.455 111.247 187.515 110.417 187.785 109.247C188.605 107.607 189.555 106.797 190.055 105.977C191.135 104.757 190.505 103.897 189.005 103.487C188.285 103.167 186.885 103.307 185.435 103.167C184.665 103.167 184.025 102.847 182.935 103.077C182.935 103.077 182.215 103.577 181.805 103.937L181.265 103.627C181.265 103.627 181.755 102.167 182.805 101.307C183.845 101.497 185.365 101.607 186.155 101.397C187.095 100.977 188.175 100.797 188.965 100.497C190.325 100.357 190.955 100.447 192.595 100.537C192.595 100.537 193.405 97.0049 190.555 94.3329C189.875 93.6949 189.325 92.8799 188.325 92.8369C184.885 93.2429 182.985 91.8399 182.445 91.4759C181.575 91.4319 181.305 91.7929 180.855 92.3369C179.675 94.3319 178.275 95.0129 178.275 95.0129L177.545 94.9209C177.545 94.9209 178.175 93.8319 179.625 92.0199C180.265 90.5689 181.165 88.7539 181.985 87.8489C182.485 86.9889 182.625 85.0399 183.845 84.4989C184.435 84.4989 184.525 84.3609 184.975 84.6319C184.065 85.4969 181.535 88.5759 184.165 90.4769C185.245 91.3859 186.885 91.3859 187.285 90.4349C187.485 89.9129 187.925 89.5719 188.145 89.3929C189.505 89.1199 190.645 89.7989 191.095 90.1609C192.185 91.4319 192.815 92.0209 193.365 92.2919C193.945 92.7459 195.035 92.6569 195.585 92.6569C197.345 92.3379 198.305 91.3419 198.615 90.7039C199.575 88.7109 199.385 86.7619 198.025 84.4069C197.215 83.0469 196.665 81.5059 196.035 79.6019C195.765 78.8339 195.215 77.2479 194.585 75.8879C194.535 75.3439 193.405 72.8049 192.685 71.8089C190.865 69.1809 189.375 68.9539 188.375 67.8639C188.375 67.8669 188.015 67.8409 187.995 67.8519C186.935 68.5599 186.935 70.1079 186.035 71.2839C185.935 71.4149 185.635 71.5719 185.435 71.4759C185.145 71.3329 185.025 71.0839 184.695 70.6179C184.395 70.1759 184.165 70.4939 183.845 70.8559C183.635 70.8559 183.475 71.0239 183.315 71.1879C183.025 71.4809 183.255 71.6369 183.475 71.9659C183.705 72.3059 183.485 72.3059 183.615 72.4869C183.575 72.6249 183.535 72.6779 183.495 72.7409C183.385 72.9249 183.085 72.8789 182.875 72.8429C182.265 72.7409 182.405 72.7839 181.875 72.5299C181.215 72.2159 180.895 71.3549 180.395 71.0849C180.235 70.9979 179.715 70.9029 179.325 71.1609C179.035 71.3589 178.905 71.7869 179.155 72.0149C179.585 72.3989 179.915 72.8589 180.375 73.2019C180.985 73.6659 181.655 74.0009 181.745 74.6509C181.845 75.4769 180.635 75.7759 180.055 75.3489C179.755 75.1239 179.405 74.8649 179.085 74.5339C179.025 74.4779 178.985 74.2069 178.915 74.1589C178.655 73.9589 178.355 73.7279 178.215 73.5219C177.955 73.1359 177.615 72.7229 177.145 72.5439C177.045 72.5049 176.945 72.3419 176.875 72.2119C176.655 71.8349 176.895 71.3989 176.735 71.0559C176.605 70.7749 176.545 70.3139 176.135 70.4949C175.775 70.8569 175.825 70.8569 175.405 70.8209C174.885 70.7749 175.305 69.7959 175.305 69.9269C175.305 69.9799 175.275 69.9059 175.465 69.5869C175.095 69.4709 174.545 69.1759 174.965 68.6379C175.325 68.1829 175.675 68.8489 175.805 68.5809C175.855 68.4769 176.165 67.9049 176.285 67.8329C176.685 67.5939 176.805 67.9139 176.865 68.0009C176.685 68.4989 177.215 68.8279 177.715 68.5589C177.765 68.5309 177.735 68.1489 177.795 68.0579C178.255 67.2509 178.965 66.8299 179.705 66.2719C179.765 66.2219 179.975 66.1669 179.995 66.1239C180.215 65.6869 180.465 65.0519 180.005 64.8559C179.615 64.6919 178.825 64.8399 178.985 64.1589C179.055 63.8329 179.485 63.7109 179.715 63.6019C180.585 63.1969 181.465 62.8009 182.365 62.4479C182.575 62.3639 182.945 62.0359 183.225 62.0149C184.345 61.9199 184.085 61.9479 185.475 62.1939C185.715 62.2349 186.185 62.4919 186.415 62.5789C187.155 62.8349 188.205 62.7479 188.685 61.9559C189.165 61.1779 189.035 59.8679 188.545 58.9519C187.975 57.8479 187.085 56.8959 186.325 56.1379C185.345 55.1589 184.085 54.6619 183.835 53.3209C183.525 51.6859 182.255 49.5109 181.535 48.2139C180.775 46.8729 180.115 45.9809 179.145 44.7389C178.935 44.4539 177.525 43.0259 177.285 42.7919C175.685 41.2339 175.005 40.7179 173.295 40.1019C172.425 39.7879 169.025 39.9939 167.255 39.7669C166.705 39.6969 164.995 39.6529 164.535 38.7469C164.115 37.9179 163.585 36.7479 162.715 36.1939C162.395 35.9939 161.895 35.7829 161.565 35.6139C159.975 34.8099 158.325 33.4699 156.595 33.5399C155.975 33.5669 156.585 34.2439 156.745 34.3289C157.515 34.7369 157.875 35.1919 158.295 35.6919C158.745 36.2119 159.715 36.2299 160.545 36.5729C161.335 36.9019 161.995 37.4089 162.735 37.7959C163.435 38.1629 164.365 39.3729 163.595 39.8659C162.895 40.3179 162.155 39.7729 161.225 40.0029C161.045 40.0459 160.775 40.1749 159.685 40.1749C158.265 40.3679 157.775 39.6869 156.675 38.9069C155.575 38.1219 154.885 36.9119 153.815 36.1629C152.505 35.2449 151.195 34.4819 149.705 33.9599C149.375 33.8459 148.945 34.0269 148.655 33.8699C148.135 33.5799 147.745 32.9669 147.115 32.9189C146.555 32.8769 146.285 32.8319 146.005 32.8209ZM183.265 65.3899C183.145 65.3739 183.015 65.3849 182.875 65.4349C182.765 65.4729 181.875 66.2029 181.855 66.2389C181.355 67.1859 180.585 67.3009 180.245 67.9379C179.945 68.4989 179.765 68.6349 179.605 68.9969C179.535 69.1539 179.465 69.3259 179.685 69.4419C180.215 69.7249 180.445 69.6319 181.555 69.7939C181.555 69.7939 182.525 69.9489 183.415 69.1789C183.555 69.0579 184.295 68.6809 184.275 68.3819C184.175 67.0069 184.385 69.2869 184.115 67.2119C184.055 66.7719 184.075 66.3719 183.905 65.9009C183.835 65.7219 183.605 65.4369 183.265 65.3899ZM110.925 109.697C112.375 120.847 110.385 130.357 99.3208 140.327C119.805 136.527 128.785 141.327 143.375 148.757C144.555 149.357 143.195 147.987 143.195 147.987C142.745 147.677 141.675 146.017 141.465 145.637C140.965 144.747 140.585 144.077 140.295 143.367C139.835 142.277 138.955 141.517 137.495 140.097C136.765 139.387 135.625 138.137 135.165 137.217C134.445 135.797 134.035 133.257 132.325 132.057C130.995 131.137 131.315 130.087 130.165 128.297C129.725 127.617 128.835 127.537 128.175 126.867C126.515 125.197 127.565 124.547 126.115 123.017C125.475 122.337 125.195 122.207 124.645 121.187C123.935 119.867 124.475 118.137 123.255 117.537C122.165 116.987 121.325 116.797 120.575 116.547C119.445 116.177 117.625 115.237 116.595 114.437C115.515 113.597 113.295 111.757 110.925 109.697ZM145.095 117.127C145.095 118.397 145.275 119.307 144.325 120.567C144.955 122.117 145.505 125.507 146.225 126.327C147.815 127.827 149.085 128.997 150.125 132.577C150.355 133.437 151.075 133.897 151.125 134.527C151.185 135.437 151.495 135.277 151.995 136.537C152.245 137.157 152.965 138.267 153.335 138.577C155.425 140.327 156.875 143.047 156.735 145.847C156.835 147.217 156.905 147.127 158.245 148.087C158.475 148.247 158.595 148.257 159.325 148.937C159.595 149.167 161.545 151.257 161.815 151.477C161.775 150.667 161.905 149.277 161.885 148.847C161.765 144.567 162.585 140.147 161.135 136.417C160.055 133.617 157.605 130.467 156.645 127.537L156.165 125.947C155.655 123.667 155.615 121.297 155.615 121.297L152.585 119.847C150.195 118.887 147.495 118.017 145.095 117.127Z" fill="#5B2B2F"/>
<path d="M189.065 82.9378C188.745 82.9238 188.405 82.9738 188.015 83.1018C187.615 83.2328 187.875 83.7378 187.955 83.7528C189.595 84.0448 190.085 84.0518 191.595 85.4968C191.685 85.5858 192.015 85.6098 192.165 85.5108C192.595 85.2228 192.345 84.6918 192.055 84.4888C190.755 83.6098 190.015 82.9818 189.065 82.9378ZM179.205 83.5318C178.725 83.4578 178.655 83.9568 177.545 84.6138C176.665 85.1288 176.745 85.7878 175.575 86.0518C174.825 86.2208 173.965 86.4548 173.365 86.8558C172.015 87.7498 170.805 88.4658 169.415 89.1278C168.285 89.6618 167.045 89.8948 165.805 89.8658C164.735 89.8438 163.725 89.4178 162.635 89.3428C162.485 89.3328 162.625 89.5808 162.455 89.5278C162.385 90.0548 162.665 90.5398 163.175 90.7038H163.085C163.265 91.6338 163.165 92.6118 163.445 93.4908C163.485 93.6428 163.675 94.0038 163.905 94.0168C164.135 94.0288 164.235 94.2288 164.445 94.2698C164.575 94.2948 164.685 94.4988 164.685 94.6018C164.665 95.0978 164.925 95.6498 165.175 95.6568C166.555 95.6958 167.355 96.5368 167.955 97.6548C167.995 97.7468 168.385 97.7588 168.495 97.5748C169.165 96.4448 170.025 95.6148 170.935 94.7428C171.105 94.5788 171.595 94.6738 171.725 94.4738C172.045 93.9948 172.195 93.4598 172.445 92.9398C172.855 92.0588 173.065 91.0648 173.675 90.3128C174.765 88.9778 175.095 88.0338 176.555 86.9438C176.695 86.8428 177.365 86.1238 177.455 85.9698C177.905 85.2058 178.535 84.7698 179.015 84.3348C179.235 84.1318 179.645 83.6798 179.445 83.6008C179.355 83.5648 179.275 83.5428 179.205 83.5318ZM178.165 98.6998C177.645 98.7158 177.145 98.9888 176.905 99.4308C176.315 100.557 176.165 101.867 176.475 103.107C176.565 103.437 177.145 103.547 177.355 103.267C177.835 102.627 177.685 101.767 177.995 101.057C178.295 100.387 178.535 99.7488 178.765 99.0438V99.1358C178.825 98.9928 178.605 98.9188 178.675 98.7738C178.505 98.7188 178.335 98.6948 178.165 98.6998Z" fill="black"/>
<path d="M44.9425 65.3718C41.9493 69.6307 39.7752 76.3392 38.6882 81.1418C40.0458 80.4171 40.1377 80.5065 41.4083 80.0547C41.8601 77.7887 45.4328 64.6706 44.9425 65.3718ZM62.5262 213.109C64.3718 217.54 64.6086 221.811 62.9779 230.058C61.1662 228.336 61.0743 226.794 59.7143 225.978C59.5355 230.691 59.3544 232.143 58.4484 234.228C56.5424 237.943 55.9989 239.847 55.9096 243.47C52.7353 240.842 51.9188 237.218 49.7447 235.134C48.2034 233.59 45.1234 230.691 44.0363 228.788C43.8551 231.056 44.0363 231.872 43.1304 234.047C42.4009 231.534 42.3139 230.783 40.5914 228.698C38.323 225.526 33.25 218.456 32.0712 210.936C31.7982 209.665 31.0735 205.947 30.2594 200.874C29.6241 202.594 28.537 203.954 27.4475 204.225C26.904 204.498 26.904 203.773 26.904 203.773C27.3557 202.142 27.5393 200.328 27.3557 198.968C27.0852 196.975 26.5416 192.533 25.544 191.446H25.0922C25.1816 194.436 24.0052 195.796 23.278 196.794C23.1886 194.436 23.278 192.622 22.7345 191.446C22.4639 190.629 21.8286 189.904 21.6474 190.721C21.1956 193.079 21.012 193.531 21.012 195.707C20.8309 198.968 20.8309 200.058 20.4685 202.778C20.2897 204.771 19.6544 207.216 17.8403 209.665C17.4803 207.491 16.1179 205.769 16.1179 205.769C16.1179 208.397 16.6638 212.294 15.0308 214.378C13.0378 217.096 12.7648 218.456 12.1319 220.451C11.8565 218.094 11.1343 218.818 10.7694 217.55C9.32244 223.715 4.79056 228.428 3.15756 229.515C4.24463 226.976 5.15056 224.075 5.33169 222.263C5.33169 222.263 5.06112 215.557 4.06343 211.748C1.58006 199.889 0.381931 172.49 2.25168 162.08C6.75218 124.991 25.9142 90.9463 42.1567 60.2938H40.1372V53.1312H42.3137L45.2584 46.5169L47.2079 48.0122L51.2398 35.7307L53.0081 44.7486L60.7118 38.7189L54.4576 52.9527H56.6051C56.262 53.6991 55.9166 54.4408 55.5929 55.1993L42.4029 55.2187V58.1272H54.421C54.148 58.8374 53.9041 59.5718 53.648 60.2941H49.3529L52.8678 62.5648C52.6383 63.2678 52.4208 63.9781 52.2082 64.6907L50.6405 63.6712C49.9955 66.5652 47.9229 76.48 48.3866 82.3187C53.9161 87.6671 57.9939 92.8343 57.3586 104.437C57.3586 104.437 57.721 104.706 55.3632 103.981C56.5421 105.252 56.9069 106.249 57.9021 108.423C58.3539 111.958 58.6268 115.129 58.3539 118.393C58.3539 118.393 58.6268 126.462 58.8998 128.998C59.9869 129.36 59.354 132.259 59.4433 136.066C59.4433 136.066 59.354 138.424 58.9892 140.238C56.7257 138.424 56.9068 138.516 56.2716 138.695C56.8151 140.509 57.1774 140.509 58.2646 141.961C58.2646 152.747 58.6269 163.893 59.3541 168.787C59.714 172.321 60.3493 176.402 60.6223 177.67C61.1658 179.303 61.1658 180.752 62.7964 184.197C62.2529 184.197 60.7358 184.238 59.7139 182.929C61.1658 185.647 61.1658 185.103 62.0717 186.009L63.3399 195.437L61.8904 197.065L63.8834 198.336C63.8834 198.336 63.4317 202.595 63.9752 206.494C64.2482 208.308 64.7893 210.12 66.0599 212.656C63.4317 212.748 62.9774 210.572 62.9774 210.572C62.2527 209.755 60.9821 207.943 60.6222 207.943C60.441 210.572 61.8904 211.567 62.5258 213.111" fill="black"/>
<path d="M146.195 32.6468C145.765 32.6778 145.315 32.7907 144.885 32.8577C144.715 32.8847 144.465 33.1107 144.275 33.2697C143.945 33.5477 143.415 33.0407 142.975 33.1857C142.605 33.3117 142.185 33.7507 142.545 34.1157C142.935 34.5067 143.455 34.7737 143.975 34.9067C145.545 35.3007 147.175 34.9157 148.655 35.5647C149.075 35.7507 149.595 35.9657 149.765 36.5067C149.615 36.5407 149.455 36.6757 149.325 36.5787C148.965 36.3207 148.565 36.3217 148.215 36.2957C145.735 36.0927 143.265 35.8897 140.795 36.2327C140.785 36.8637 141.045 37.5307 141.615 37.6097C142.385 37.7117 143.215 37.4727 143.955 37.5257C144.765 37.5887 145.615 38.1107 146.425 38.5667C146.535 38.6347 146.725 38.6237 146.855 38.5708C147.215 38.4168 147.535 37.8957 147.935 38.0867C148.175 38.2027 148.435 38.3107 148.705 38.3537C149.265 38.4527 149.675 38.3487 150.215 38.4287C151.355 38.5997 152.325 39.3667 153.465 39.1997C154.315 39.0747 154.705 39.3607 155.125 39.7427C154.885 39.5277 156.685 40.8147 156.845 40.4987C156.905 40.3727 158.735 40.2727 158.755 39.9947L156.065 38.4518C155.905 38.1858 155.695 37.8687 155.435 37.6297C154.835 37.0767 154.515 36.4187 153.825 35.9787C152.895 35.3917 152.135 34.6247 151.125 34.2527C151.015 34.2137 150.885 34.2557 150.765 34.2287C150.695 34.2097 150.645 34.1467 150.675 34.0587C150.575 34.0587 150.455 34.0897 150.415 34.0417C150.275 33.8867 150.055 33.7957 149.925 33.7547C149.405 33.5827 148.795 33.8907 148.335 33.4847C148.065 33.2457 147.755 33.1127 147.465 32.9267C147.065 32.6667 146.635 32.6158 146.195 32.6468ZM156.745 33.3467C156.245 33.3897 156.035 33.9257 156.325 34.2037C156.865 34.7377 157.835 34.9148 157.915 35.7797C160.045 36.8377 163.765 37.5467 163.595 39.8657C163.575 40.0907 164.955 39.3897 165.315 39.4397C164.595 38.9737 164.505 38.0708 164.115 37.3968C163.815 36.8778 163.415 36.4657 162.945 36.2217C160.815 35.1177 158.325 33.1967 156.745 33.3467ZM139.045 37.0257C138.775 37.0207 138.465 37.2168 138.155 37.2648C137.585 37.3538 136.995 37.2328 136.435 37.0498C135.465 38.1678 132.865 37.4277 131.645 37.5127C131.495 37.5197 132.415 38.0437 132.575 38.1857C133.435 38.9177 134.845 38.8528 135.895 38.8898C136.065 38.8948 136.415 38.7167 136.545 38.6997C137.675 38.5457 138.795 38.9257 139.975 39.1337C140.345 39.2007 141.515 38.8127 141.145 38.4167C140.865 38.1167 139.895 38.2707 139.715 37.8577C139.595 37.5807 139.465 37.2498 139.295 37.1118C139.215 37.0518 139.135 37.0277 139.045 37.0257ZM115.795 37.6727C115.365 37.6807 114.855 37.7798 114.285 38.0008C114.285 38.0008 112.465 37.8167 108.205 41.0807C103.495 43.9817 97.2399 48.1527 92.7079 53.6827C89.3989 56.9897 84.7309 62.0207 83.0089 65.5557C83.0089 65.5557 80.1999 69.9947 78.3859 77.2467C78.3859 77.2467 79.0209 79.6017 80.8349 76.5217C84.0049 71.1347 96.0609 53.0017 113.285 39.7667L114.095 39.7237C105.575 47.0597 94.5189 56.9427 83.7779 73.7567C83.3799 74.3847 82.8579 75.4937 82.8099 75.5807C82.5059 76.1477 82.8629 76.3897 83.0259 76.4697C83.9329 76.6037 84.2999 75.3347 84.9069 75.0727C85.2959 74.9057 85.4529 76.0677 86.0729 75.7677C88.2639 74.7077 89.8979 72.4427 90.8039 71.0847C90.8499 71.4707 91.3469 72.6257 91.3469 72.6257C92.3439 72.8957 95.4249 68.6337 97.0579 65.7347C97.5089 66.2787 96.9439 67.6077 97.5479 67.0377C99.4129 65.2787 101.075 63.3927 102.065 61.6727C103.225 59.6627 104.485 58.7577 104.945 55.2237C105.665 55.6747 105.655 55.8717 105.855 56.0357C106.305 55.4927 106.335 54.9257 107.055 54.1117C107.845 53.2277 108.005 52.5397 108.955 51.9087C109.295 51.6867 110.045 50.2697 110.195 49.5277C110.345 48.8247 111.905 46.5477 112.015 45.7937C113.285 43.4387 115.455 42.1677 116.995 40.3557C118.175 39.3257 117.675 37.6377 115.795 37.6727ZM83.0259 76.4697C82.9959 76.4647 82.9699 76.4717 82.9389 76.4637C83.1679 76.5197 83.1219 76.5157 83.0259 76.4697ZM50.6979 43.5747L49.0189 49.5557L51.8739 52.0047L50.6979 43.5747ZM115.425 43.9377C115.305 43.9577 115.185 44.0707 115.185 44.0707C115.185 44.0707 112.825 44.6167 109.295 54.5867C104.125 71.1727 99.6859 88.8497 94.8839 103.167C96.3309 95.6457 104.035 69.0887 106.305 59.4807C106.305 59.4807 105.985 58.8027 105.485 59.5707C104.895 60.2517 104.305 61.1127 103.995 61.7017C104.035 61.6627 103.725 61.7467 103.355 61.9287L102.225 63.6507C102.225 63.6507 99.9579 66.8227 93.7489 73.2587C92.7079 74.8887 92.2579 75.6427 91.1199 78.2447C90.7119 79.1937 91.3479 79.3317 92.0259 78.7857C93.7029 77.1577 93.7949 77.1577 96.1049 75.3897C96.2079 75.3097 98.0729 74.6397 98.0729 74.6077C97.7829 74.9797 97.3939 75.2267 97.2389 75.3717C96.6039 75.9757 95.0349 77.7467 94.6049 78.4927C93.5539 80.3147 92.3979 82.5787 90.8859 85.3227C88.9899 88.7557 87.5399 92.7467 87.5399 92.7467C86.5419 95.5557 86.8159 95.8267 86.8159 95.8267C88.1759 96.3727 87.4349 97.0607 87.4349 97.0607C86.8159 98.1847 86.5429 99.0897 87.5869 98.6847C88.2659 98.5467 88.6289 98.1957 88.9089 97.8487C89.4429 97.1887 89.8979 96.7347 90.2629 96.2777C90.8739 95.5197 90.7609 95.2917 91.4109 94.5377C92.2569 93.5617 92.7969 92.7467 93.6589 92.3387C92.1639 94.3777 92.0729 95.8267 92.0729 95.8267L92.4349 96.2817L92.7079 96.4617C92.7079 96.4617 91.1669 98.3657 90.4429 102.677C90.0969 104.727 90.1699 104.977 89.8509 106.117C90.0049 105.967 90.8939 106.117 91.6959 105.307C91.3489 106.567 91.2779 107.207 91.2779 107.207C91.1209 108.247 91.1199 108.067 91.1199 109.247C91.1199 110.337 91.1209 109.877 91.4839 111.147C93.1139 110.417 93.4759 110.507 95.0129 108.707C95.7449 108.017 96.2979 106.357 96.5129 106.477C96.9209 106.657 96.5809 107.577 96.3999 107.987C96.1529 108.557 95.9309 108.987 95.8369 109.397C95.7889 109.607 95.5819 109.917 95.9129 110.197C96.0579 110.317 95.9569 110.307 96.4229 110.287C96.6939 110.287 96.9459 109.867 96.9459 109.867C96.9459 109.867 97.1019 109.827 97.2389 109.517C97.3529 109.247 97.5559 109.107 97.7369 108.967C97.7369 108.967 98.0079 108.697 98.3269 108.787C98.9629 109.517 99.5049 108.557 99.5049 108.557C100.545 106.977 100.775 106.567 101.505 104.437C101.955 103.037 102.495 102.537 102.945 96.6427C104.215 98.5467 104.395 102.177 104.395 102.177L104.765 102.077C104.765 102.077 105.945 98.7267 107.935 97.6397C107.935 97.6397 108.115 95.3737 110.105 93.1077C109.835 91.7477 109.655 90.6617 109.385 88.4847C108.565 84.8587 108.115 78.7847 108.935 74.6177C110.565 83.3167 111.515 84.5887 111.515 84.5887L111.875 84.7237C112.555 83.6817 112.735 81.8677 112.915 80.2367C113.735 76.7917 115.185 77.1577 115.185 76.4307C114.735 73.6207 114.005 69.1807 114.465 65.3737C115.365 69.5407 115.815 69.2697 116.455 70.8107C117.275 72.7147 117.365 70.3557 117.365 70.3557C117.175 67.9117 118.905 65.4627 117.275 59.7547C116.635 55.8557 114.825 47.5157 115.545 45.6117C115.835 44.1387 115.625 43.9057 115.425 43.9377ZM56.2709 44.6607L53.4619 47.1077L53.9169 49.2387L56.2709 44.6607ZM46.1179 49.8737L44.8529 53.0027H49.7429L46.1179 49.8737ZM49.3529 60.2977L52.8679 62.5687L53.6479 60.2977H49.3529ZM44.1259 60.3877C41.8599 63.4697 26.2679 92.8387 24.7299 98.1847C12.7649 122.187 5.05987 146.117 3.58887 169.747C3.68057 170.557 3.68877 170.057 4.08497 170.737C4.44487 171.357 4.24407 172.167 4.51467 172.867C4.75617 172.567 5.20017 172.427 5.24117 171.957C5.58427 173.377 4.56147 174.717 5.06147 176.127C5.61227 175.627 6.43477 175.527 6.87207 174.867C6.82857 175.427 6.67837 175.967 6.59867 176.507C6.45847 177.457 6.83757 178.407 6.94627 179.387C7.08637 180.637 8.63007 181.567 8.19037 182.787C7.47537 184.777 7.09187 186.897 7.73927 188.777C7.87457 189.167 8.07367 189.827 8.53027 190.037C8.88297 190.197 9.40207 190.207 9.74507 190.037C9.92627 189.947 10.0829 189.637 10.1259 189.367C10.2589 188.487 9.86927 187.677 10.0259 186.837C10.2269 185.757 10.4159 184.667 11.1069 183.797C11.2439 183.617 11.7739 183.677 11.8979 183.957C12.3519 184.967 12.1699 186.197 12.7689 187.127C12.9739 187.447 13.6939 187.677 14.0729 187.317C14.9189 186.527 14.6089 185.297 14.7179 184.277C14.8969 182.577 14.0999 181.667 13.8779 179.937C13.6699 178.307 13.9699 178.067 14.4869 177.407C15.0289 178.927 15.0329 180.577 16.1319 181.927C16.3639 182.207 16.7959 182.217 16.9779 182.057C17.7769 181.377 17.6099 179.887 17.0319 178.927C16.1509 177.447 15.4359 175.117 17.0229 173.777C16.9259 174.517 16.9359 175.357 17.3159 175.917C17.8399 176.677 18.8159 178.247 18.9579 179.747C19.0059 180.287 19.7769 180.497 20.2449 180.077C20.3319 179.997 20.2279 179.637 20.4719 179.607C21.2349 179.507 21.5939 180.407 21.5559 181.027C21.8599 181.027 22.2599 181.127 22.4089 180.977C23.1409 180.227 22.9609 178.437 23.0089 177.407C23.0979 175.497 23.5069 176.237 23.8229 176.057C23.6539 172.167 23.0889 168.547 22.7339 166.077C22.3519 165.077 22.7349 164.897 23.2779 164.707C23.4059 164.607 25.4539 162.087 25.4539 160.717C23.7319 161.907 23.2779 162.177 21.6479 163.257C21.4659 159.367 19.7429 153.207 17.8389 148.397C19.8319 150.207 21.1029 152.297 21.7349 154.017C22.4629 150.027 22.7339 147.677 22.8229 145.767C21.8279 142.227 19.9249 134.527 20.1069 128.817C21.2849 132.987 22.3709 137.517 23.5499 140.237C24.0929 138.247 24.5449 134.717 25.2729 131.717C26.2679 130.997 27.4469 130.267 27.8099 129.637C27.4469 128.997 25.9089 130.177 25.6359 130.267C25.8169 127.457 26.2679 122.027 24.3639 113.137L24.6379 112.867C25.4539 113.227 26.4489 114.867 26.8139 116.587C28.4469 114.677 29.5339 105.257 29.9849 101.537C28.2629 101.537 27.4479 103.437 26.2689 103.257C26.4499 102.077 26.5409 102.627 26.9949 101.537C27.4469 100.267 28.5359 99.0007 28.9869 97.2777C29.9849 95.8257 29.9859 94.1067 30.0749 92.4737C30.0749 90.9347 29.8939 88.6657 31.1649 86.6727C31.4359 87.4867 31.2549 88.0317 31.8879 89.7547C31.8879 89.7547 34.4259 84.2257 35.7859 82.9577C37.5999 75.0707 41.9479 66.1897 46.0279 60.3877H44.1259ZM47.3859 61.6587C40.3169 91.0247 37.0539 108.427 36.3289 130.177C35.5299 152.577 37.6249 174.657 42.9739 195.377C43.2079 196.147 43.4539 196.957 43.6979 197.777C43.8919 198.027 44.1199 198.287 44.4479 198.127C44.8159 197.937 44.9009 197.497 44.9559 197.147C45.1809 195.667 45.3259 194.217 46.0169 192.947C46.0719 192.847 46.3519 192.567 46.4889 192.397C46.9889 191.777 47.1589 191.007 47.3019 190.177C47.3359 189.977 47.5069 189.797 47.6589 189.657C48.1059 189.257 48.5979 189.837 48.8589 190.207C49.3129 190.837 49.0889 191.677 49.4949 192.317C50.5579 193.997 51.7219 195.407 53.0579 196.807C53.3959 197.157 53.9659 197.577 54.6069 197.407C54.7899 197.357 54.9689 197.177 55.0229 197.047C55.2789 196.367 54.7299 195.787 54.4309 195.207C54.0059 194.367 53.2499 193.357 53.7349 192.507C53.8659 192.277 54.5299 192.957 54.8169 192.647C55.0999 192.337 55.1669 191.757 55.0359 191.267C54.8859 190.697 54.6139 190.177 54.3699 189.657C53.4929 187.767 52.4759 185.997 51.8429 183.997C51.7579 183.727 51.6449 183.417 51.7099 183.097C52.0389 183.807 52.8039 184.287 53.1809 184.957C53.2769 185.127 53.4749 185.277 53.5809 185.417C54.0259 186.027 54.8739 186.287 55.1689 186.947C55.5869 187.867 55.6269 189.767 56.9479 189.527C57.3759 189.447 58.0489 189.047 57.7669 188.367C57.5519 187.837 57.4139 187.267 57.0299 186.847C56.6829 186.467 56.1629 186.227 55.9309 185.797C55.5299 185.037 55.2309 184.137 55.6099 183.287C55.6949 184.007 56.2569 184.427 56.7259 184.887C57.2209 185.377 58.5159 184.717 58.8979 185.267C58.8419 184.947 58.7579 184.647 58.5379 184.377C55.1829 180.397 52.0109 176.217 52.1939 173.047C54.4579 176.317 56.3609 178.307 58.1729 179.577L58.2649 178.947C56.9969 170.787 56.9959 167.157 56.3169 159.407C54.2759 157.777 49.8349 152.887 50.6499 148.717C52.1449 151.617 53.9159 153.837 55.5439 154.837L56.2259 155.327C56.0899 153.927 56.2709 145.637 56.2709 143.137C55.1809 141.597 53.8219 139.787 52.8719 137.977C52.0099 136.157 50.9689 134.397 48.4759 131.407C46.3909 128.277 43.1299 125.507 43.1299 125.507C43.1299 125.507 43.7599 125.597 44.0789 125.597C45.0769 125.917 46.2549 126.327 47.9779 127.547C48.6559 127.827 49.5629 129.097 51.1959 130.587C52.2829 131.627 52.3749 132.397 52.9619 132.717C53.9159 133.627 55.1819 134.717 56.4499 135.617H56.8159C57.0859 136.707 56.9499 128.867 56.9499 128.867C55.5439 126.647 54.5489 123.967 53.3699 120.937C53.1889 119.847 54.0049 121.617 55.5439 122.377C55.9979 120.797 55.1819 112.777 55.0929 107.247C54.6389 105.527 48.2489 96.6427 47.9329 94.4227C50.1069 97.9567 53.0079 98.4107 54.0949 99.8167C54.3679 100.037 54.4139 100.127 54.7279 99.9967C54.5489 90.8427 50.4699 86.4027 46.6629 83.1397C46.1169 74.7087 48.9269 62.6527 48.9269 62.6527L47.3859 61.6587ZM41.2259 82.4107C41.2259 82.4107 40.0439 82.8667 39.4109 83.1397C38.1409 83.7727 37.5989 84.4067 36.2389 86.1297C35.6959 87.3087 34.9729 87.8487 34.5189 89.2117C32.8859 92.4727 32.6139 95.0127 31.7979 97.3677L32.3409 97.2777C34.0659 94.9207 36.8759 92.8377 37.5109 92.1997L38.4169 91.7487C37.1459 95.0127 35.4249 95.8267 33.7019 98.8167C31.3299 103.747 29.0759 122.037 27.9909 127.097L29.0769 126.737C29.8039 126.377 30.9819 125.107 34.5189 123.837C36.3299 122.387 28.5359 130.537 27.5379 133.217C26.5409 140.327 25.0909 151.937 24.8639 157.147L25.2729 157.097C25.8159 156.737 30.1209 151.527 31.7979 150.937L32.3879 150.387C31.4789 151.757 28.4469 157.647 27.9009 159.547C27.2709 161.437 26.4499 163.357 25.7279 165.077C25.4549 165.617 25.1809 166.027 25.3619 166.707C25.3619 170.427 25.7269 173.957 26.0889 175.767L26.5419 176.407C26.9039 175.407 28.7189 173.597 29.8059 173.047L29.8939 173.597C28.8979 175.947 27.6309 178.127 27.1769 179.307C27.1769 183.837 27.7199 189.367 28.7179 193.807C28.8099 194.457 29.6229 194.347 29.9849 194.077L30.2099 193.877C30.9439 190.757 31.6039 187.877 33.3209 185.107C33.4999 184.817 33.7949 184.677 34.0359 184.467C34.1839 186.227 33.9609 188.017 35.0459 189.617C35.5409 190.347 36.2799 190.177 37.0279 190.177C37.5159 191.857 38.7319 193.117 39.1689 194.877C39.2459 195.187 39.6509 195.447 40.0089 195.307C40.6559 195.057 41.2509 194.767 41.6179 194.137C41.6399 194.107 41.6709 194.057 41.7019 194.017C35.7929 174.527 34.3179 148.187 35.2429 125.827C36.3299 109.327 37.6049 97.2557 41.2259 82.4107ZM138.105 111.287C137.055 111.267 136.505 111.577 135.725 111.777C132.135 112.697 128.605 115.407 126.635 118.007C126.065 118.767 126.255 119.557 126.375 119.727C126.735 120.227 127.305 121.587 127.465 121.427C128.915 119.847 130.685 118.397 132.585 118.847C131.775 119.127 128.915 120.567 128.015 122.667C127.955 122.797 128.375 123.567 128.915 123.967C129.645 125.197 129.915 125.687 130.325 125.917C130.585 125.897 131.115 125.367 131.255 125.137C133.265 122.477 135.265 120.847 140.795 120.117C142.375 119.847 143.285 119.397 143.415 117.947C143.415 117.947 143.735 117.217 143.095 115.767V115.867C142.855 114.957 141.385 115.037 140.345 115.147C138.755 115.317 137.305 115.587 135.755 116.407C136.785 114.867 138.025 114.767 140.405 113.867C140.945 113.657 140.815 112.697 140.465 112.147C140.065 111.507 139.555 111.477 139.345 111.437C138.855 111.337 138.455 111.297 138.105 111.287ZM136.485 124.287C136.575 125.647 136.375 126.257 136.765 127.147C137.135 127.987 137.905 128.717 138.195 129.577C138.415 130.237 139.205 131.087 139.205 131.537C139.565 131.907 139.615 132.227 139.615 132.227C140.095 132.847 141.525 133.617 141.025 133.987C140.425 134.437 138.665 134.127 137.595 133.947C136.235 133.717 137.025 134.967 137.315 135.087C138.705 135.657 141.625 135.857 142.575 136.387C143.155 136.707 143.905 137.187 144.155 137.757C144.335 138.177 144.665 138.547 144.945 138.917C145.865 140.147 146.195 140.687 147.145 141.467C147.615 141.857 148.175 142.517 147.995 143.117C147.795 143.807 147.365 143.957 146.695 143.867C146.475 143.837 145.815 143.637 145.185 143.367C143.915 142.957 143.645 142.497 142.745 142.957C142.245 143.217 142.965 144.047 143.525 144.347C145.805 145.567 148.535 145.587 150.745 146.867C152.645 147.967 153.795 149.307 153.685 152.127C153.685 152.177 154.365 152.557 154.405 152.497C155.065 151.477 156.695 152.737 157.485 152.487C157.555 152.467 157.595 152.047 157.475 151.867C157.095 151.297 156.285 151.267 155.945 150.717C155.575 150.137 156.105 149.497 155.925 148.997C155.735 148.477 154.855 149.377 154.525 149.037C153.075 147.527 152.125 145.727 150.175 144.867C150.985 142.597 151.355 140.057 151.165 138.877C150.625 138.427 150.395 139.147 150.265 139.247C149.815 139.667 149.985 140.597 149.465 141.317C149.375 141.427 148.685 141.287 148.475 141.117C147.145 139.977 145.905 138.627 145.275 137.007C145.255 136.947 144.985 136.617 144.925 136.537C143.945 135.167 144.005 133.247 145.145 131.867C145.265 131.717 145.445 130.867 145.325 130.777C145.135 130.627 144.675 130.947 144.495 131.127C143.875 131.767 143.345 133.027 142.295 132.917C141.115 132.797 140.665 131.597 139.935 130.817C139.705 130.047 139.275 129.547 139.385 129.457C138.385 128.007 138.295 126.827 137.385 125.017C137.175 124.607 136.885 124.407 136.485 124.287Z" fill="white"/>
<path d="M9.07324 158.357C8.08984 158.377 8.36004 159.627 8.41504 160.547L8.32124 160.457C7.85014 160.947 7.61094 161.267 7.30174 161.847C6.91034 162.577 7.43764 163.377 7.87004 163.917C8.58514 164.807 9.82964 164.297 10.4388 163.407C10.6748 163.057 11.0638 162.657 10.8368 162.187C10.4338 161.357 10.2148 160.587 10.1888 159.637C10.1788 159.297 10.0678 158.557 9.57514 158.427C9.37914 158.377 9.21364 158.357 9.07324 158.357ZM15.2428 163.997C15.0268 163.957 14.7388 164.347 14.7408 164.537C14.7508 165.127 15.1388 165.727 15.1318 166.367C15.1218 167.347 14.6678 167.607 14.9578 168.877C15.0188 169.137 15.4338 168.977 15.2118 169.247C15.7578 169.247 16.3198 169.347 16.8268 169.197C17.0778 169.117 17.2608 168.717 17.3018 168.507C17.4538 167.737 17.8208 166.777 17.1418 166.247C16.5378 165.767 16.6468 164.997 16.2238 164.617C16.0298 164.447 15.6118 164.337 15.3288 164.047C15.3018 164.017 15.2738 164.007 15.2428 163.997ZM7.29394 165.747C7.08294 165.727 6.82824 165.937 6.65914 166.197C6.01654 167.197 5.69624 168.157 5.60444 169.607C5.78564 170.427 6.95424 170.577 7.52434 170.217C8.82404 169.397 7.89184 166.277 7.82904 166.707C7.87004 166.437 7.59864 166.017 7.59864 166.077C7.53064 165.857 7.42044 165.757 7.29394 165.747ZM11.2118 168.137C10.9848 168.127 10.7388 168.187 10.5128 168.357C9.54634 169.057 9.15914 170.157 9.98534 171.337C10.4348 171.987 10.3878 173.147 11.0908 173.497C12.0738 173.997 13.4668 172.917 13.1258 171.807C12.7898 170.727 12.3678 169.817 12.0248 168.737C11.9188 168.407 11.5908 168.167 11.2118 168.137ZM43.9538 169.057C43.7848 169.067 43.6168 169.097 43.4538 169.137C43.2388 169.197 42.9348 169.157 42.8528 169.307C42.5598 169.867 43.1048 170.287 43.3058 170.847C43.4268 171.187 43.5428 171.277 43.7508 171.527C43.9828 171.817 43.9648 172.707 44.1438 173.017C44.2718 173.257 44.4488 173.867 44.7318 173.987C45.4848 174.317 45.6998 174.047 46.2098 173.747C46.6498 173.477 46.8778 172.857 46.6728 172.297C46.4798 171.777 46.4178 171.227 46.1278 170.767C45.8478 170.317 45.6198 169.887 45.2858 169.527C44.9668 169.187 44.4618 169.037 43.9538 169.057ZM3.44584 169.557C3.44584 169.557 3.15674 175.317 3.15674 180.667C3.15674 192.537 4.60534 200.697 6.05714 209.397C6.69254 212.747 7.59814 217.287 7.41464 220.187L7.86964 219.907C8.50504 218.737 10.2274 215.017 10.7684 211.937C10.9494 210.757 11.5844 211.937 11.5844 211.937C11.8554 212.747 12.4014 213.117 12.4904 213.927C12.4904 214.657 12.8524 214.567 13.0354 214.017C14.0314 212.027 14.3044 210.847 13.9424 208.767C13.5774 207.037 13.3074 199.877 14.1234 197.257C14.1234 196.527 14.7584 197.257 14.7584 197.257C15.2104 198.337 15.9354 200.337 17.5684 201.967C17.5684 201.967 18.2484 202.417 18.2914 201.967C18.1124 200.067 17.9314 187.647 20.8304 186.287C21.9174 186.557 22.0114 187.287 22.8224 188.097C23.7314 187.097 24.0934 182.837 23.8224 179.577C24.0044 176.947 23.8654 176.037 23.8654 176.037C23.5494 176.217 23.0974 175.497 23.0084 177.407C22.9604 178.437 23.1404 180.227 22.4084 180.977C22.2594 181.127 21.8594 181.027 21.5554 181.027C21.5934 180.407 21.2344 179.507 20.4714 179.607C20.2274 179.637 20.3314 179.997 20.2444 180.077C19.7764 180.497 19.0054 180.287 18.9574 179.747C18.8154 178.247 17.8394 176.677 17.3154 175.917C16.9354 175.357 16.9254 174.517 17.0224 173.777C15.4354 175.117 16.1504 177.447 17.0314 178.927C17.6094 179.887 17.7764 181.377 16.9774 182.057C16.7954 182.217 16.3634 182.207 16.1314 181.927C15.0324 180.577 15.0284 178.927 14.4864 177.407C13.9694 178.067 13.6694 178.307 13.8774 179.937C14.0994 181.667 14.8964 182.577 14.7174 184.277C14.6084 185.297 14.9184 186.527 14.0724 187.317C13.6934 187.677 12.9734 187.447 12.7684 187.127C12.1694 186.197 12.3514 184.967 11.8974 183.957C11.7734 183.677 11.2434 183.617 11.1064 183.797C10.4154 184.667 10.2264 185.757 10.0254 186.837C9.86884 187.677 10.2584 188.487 10.1254 189.367C10.0824 189.637 9.92584 189.947 9.74464 190.037C9.40164 190.207 8.88254 190.197 8.52984 190.037C8.07324 189.827 7.87414 189.167 7.73884 188.777C7.09144 186.897 7.47494 184.777 8.18994 182.787C8.62964 181.567 7.08594 180.637 6.94584 179.387C6.83714 178.407 6.45804 177.457 6.59824 176.507C6.67794 175.967 6.82814 175.427 6.87164 174.867C6.43434 175.527 5.61184 175.627 5.06104 176.127C4.56104 174.717 5.58384 173.377 5.24074 171.957C5.19974 172.427 4.75574 172.567 4.51424 172.867C4.24364 172.167 4.44444 171.357 4.08454 170.737C3.68834 170.057 3.69974 170.557 3.60794 169.747L3.44584 169.557ZM18.6138 172.097C18.5128 172.107 18.4188 172.147 18.3388 172.207C17.9958 172.467 18.0048 172.997 18.3118 173.397C18.7898 174.027 18.6468 174.767 18.9948 175.417C19.2148 175.827 19.6508 175.837 19.9678 176.077C20.3738 176.377 20.9468 176.067 21.0968 175.727C21.6188 174.537 21.0258 173.497 20.0478 172.727C19.9558 172.657 19.6218 172.437 19.5298 172.367C19.2858 172.157 18.9178 172.037 18.6138 172.097ZM42.0808 173.687C41.9698 173.687 41.6508 173.707 41.6628 173.907C41.7378 175.007 40.4628 175.527 40.0808 176.397C39.6868 177.287 40.4848 178.137 41.1418 178.747C41.6658 179.237 42.5008 178.897 43.1438 178.707C44.1948 178.387 44.3288 176.907 44.0848 175.927C43.8968 175.167 43.4188 174.497 42.8158 173.907C42.6028 173.697 42.3078 173.707 42.0808 173.687ZM32.5828 174.967C32.3468 174.947 32.0988 175.127 32.0748 175.367C31.9808 176.307 31.9638 178.067 33.3798 177.777C33.8798 177.677 34.2108 177.167 34.0928 176.637C33.9258 175.887 33.3678 175.467 32.8078 175.037C32.7398 174.987 32.6618 174.967 32.5828 174.967ZM10.5928 175.627C10.4058 175.677 10.3488 175.897 10.2018 176.027C9.79864 176.377 9.79354 177.117 9.43844 177.597C8.77654 178.487 8.97244 179.747 9.23334 180.607C9.41214 181.197 10.2858 182.047 11.0318 181.977C12.1988 181.877 13.0728 179.697 12.1768 179.167C11.0098 178.487 11.4208 176.737 10.9908 175.797C10.9598 175.727 10.6798 175.767 10.4988 175.767L10.8308 175.637C10.7318 175.607 10.6548 175.607 10.5928 175.627ZM48.7918 177.267C48.8588 177.267 48.9208 177.287 48.9848 177.287C49.0428 177.287 49.1008 177.267 49.1548 177.267H48.7918ZM48.9848 177.287C48.7738 177.317 48.5588 177.357 48.4838 177.477C47.9758 178.267 48.5238 179.197 49.1978 179.537C49.9088 179.887 50.7968 178.697 50.2728 178.037C49.9728 177.667 49.5178 177.347 48.9848 177.287ZM35.5578 178.107C35.3308 178.097 35.1148 178.157 34.9908 178.257C34.4698 178.657 34.2778 179.497 34.4618 180.147C34.6628 180.837 34.8998 181.587 35.4168 182.127C35.7478 182.467 36.4348 182.867 36.6158 182.617C37.0438 182.027 37.4418 181.217 37.2488 180.357C37.0778 179.587 36.7288 178.907 36.1928 178.357C36.0228 178.187 35.7848 178.107 35.5578 178.107ZM51.7098 183.097C51.6448 183.417 51.7578 183.727 51.8428 183.997C52.4758 185.997 53.4928 187.767 54.3698 189.657C54.6138 190.177 54.8858 190.697 55.0358 191.267C55.1668 191.757 55.0998 192.337 54.8168 192.647C54.5298 192.957 53.8658 192.277 53.7348 192.507C53.2498 193.357 54.0058 194.367 54.4308 195.207C54.7298 195.787 55.2788 196.367 55.0228 197.047C54.9688 197.177 54.7898 197.357 54.6068 197.407C53.9658 197.577 53.3958 197.157 53.0578 196.807C51.7218 195.407 50.5578 193.997 49.4948 192.317C49.0888 191.677 49.3128 190.837 48.8588 190.207C48.5978 189.837 48.1058 189.257 47.6588 189.657C47.5068 189.797 47.3358 189.977 47.3018 190.177C47.1588 191.007 46.9888 191.777 46.4888 192.397C46.3518 192.567 46.0718 192.847 46.0168 192.947C45.3258 194.217 45.1808 195.667 44.9558 197.147C44.9008 197.497 44.8158 197.937 44.4478 198.127C44.1198 198.287 43.8918 198.027 43.6978 197.777C43.8628 198.327 44.0238 198.877 44.1788 199.417C44.1978 199.477 44.2158 199.547 44.2348 199.607C44.3798 200.117 44.5158 200.607 44.6418 201.067C44.6608 201.147 44.6828 201.217 44.7018 201.297C44.8228 201.747 44.9268 202.157 45.0088 202.517C45.0208 202.567 45.0308 202.617 45.0398 202.667C45.1218 203.027 45.1848 203.357 45.2118 203.597C45.0838 203.357 44.9518 203.057 44.8098 202.727C44.7638 202.607 44.7098 202.477 44.6608 202.357C44.5648 202.127 44.4678 201.877 44.3658 201.617C44.3078 201.457 44.2468 201.287 44.1848 201.117C44.1218 200.947 44.0578 200.767 43.9948 200.577C43.1738 198.487 42.3978 196.307 41.7018 194.017C41.6708 194.057 41.6398 194.107 41.6178 194.137C41.2508 194.767 40.6558 195.057 40.0088 195.307C39.6508 195.447 39.2458 195.187 39.1688 194.877C38.7318 193.117 37.5158 191.857 37.0278 190.177C36.2798 190.177 35.5428 190.347 35.0478 189.617C33.9628 188.017 34.1858 186.227 34.0378 184.467C33.7968 184.677 33.4998 184.817 33.3208 185.107C31.6038 187.877 30.9438 190.757 30.2098 193.877C30.0598 194.517 29.9748 194.747 29.7758 195.337C29.3678 196.557 30.0018 196.747 30.6378 195.927C31.7508 194.497 31.5218 195.677 31.6358 196.017C31.9058 198.107 32.9938 200.187 33.4478 203.717C33.8108 207.167 34.5348 210.607 34.8978 212.337C35.8588 217.987 39.6128 223.747 41.8758 225.187C41.6058 222.827 42.4228 221.947 42.2388 220.127L42.6928 220.037C42.7818 223.217 45.1398 227.287 47.8598 229.557C50.0348 232.097 51.2128 232.637 53.0438 235.267C53.5878 236.177 54.0218 236.587 54.4758 237.317C55.4708 235.267 57.2858 231.637 57.2858 227.647C57.2858 224.597 57.1958 221.127 56.3798 218.407C58.0108 219.137 59.8248 221.757 61.1828 224.027C61.9988 222.307 61.5468 217.497 60.2758 215.147C59.0078 212.247 56.9228 208.257 58.3718 202.367C59.2778 204.447 59.9138 204.357 61.3658 204.717C61.6368 202.547 61.2718 199.467 61.3658 199.097C60.8198 198.107 59.5518 196.927 59.5518 196.927L60.9108 194.297C61.5468 191.667 60.2758 189.587 60.4108 189.177C59.7318 187.677 59.2618 186.397 58.9818 185.407C58.7468 184.577 57.2598 185.417 56.7258 184.887C56.2568 184.427 55.6948 184.007 55.6098 183.287C55.2308 184.137 55.5298 185.037 55.9308 185.797C56.1628 186.227 56.6828 186.467 57.0298 186.847C57.4138 187.267 57.5518 187.837 57.7668 188.367C58.0488 189.047 57.3758 189.447 56.9478 189.527C55.6268 189.767 55.5868 187.867 55.1688 186.947C54.8738 186.287 54.0258 186.027 53.5808 185.417C53.4748 185.277 53.2788 185.127 53.1828 184.957C52.8058 184.287 52.0388 183.807 51.7098 183.097ZM43.3368 183.437C42.9588 183.487 42.6038 183.687 42.4658 184.067C42.2628 184.627 42.6738 185.467 42.9328 185.607H42.9308C42.8698 185.607 43.0518 185.877 42.9908 185.877C43.2928 186.577 43.0088 187.107 43.3978 187.757C43.7118 188.277 44.4988 188.367 44.9388 187.997C46.0088 187.097 45.7778 185.427 44.9518 184.367C44.6308 183.947 44.2648 183.547 43.7138 183.457C43.5908 183.427 43.4628 183.427 43.3368 183.437ZM48.4638 183.677C48.2028 183.667 47.9448 183.737 47.7338 183.917C47.2908 184.297 47.2938 184.857 47.1828 185.427C47.1218 185.757 47.3258 186.037 47.4638 186.317C48.0648 187.537 49.5108 187.577 50.6438 188.257C50.7908 188.347 51.0868 188.037 51.1978 187.847C51.5408 187.237 50.9738 186.587 50.4638 186.187C49.7248 185.607 50.0318 184.447 49.2178 183.927C48.9908 183.777 48.7248 183.687 48.4638 183.677ZM37.7568 184.757C37.4948 184.767 37.2318 184.877 37.0338 185.007C36.8988 185.097 36.7688 185.327 36.7668 185.517C36.7588 186.687 36.3678 187.907 36.7978 189.027C37.0538 189.697 37.6568 190.517 38.4348 190.167C38.9848 189.927 39.3318 189.247 39.1438 188.607C38.8008 187.407 39.3078 186.057 38.4718 185.047C38.2788 184.817 38.0178 184.737 37.7568 184.757Z" fill="#FFB612"/>
</svg>
